<?xml version="1.0" encoding="utf-8" standalone="no"?>
<!DOCTYPE svg PUBLIC "-//W3C//DTD SVG 1.1//EN"
  "http://www.w3.org/Graphics/SVG/1.1/DTD/svg11.dtd">
<!-- Created with matplotlib (https://matplotlib.org/) -->
<svg height="531.103528pt" version="1.1" viewBox="0 0 856.123594 531.103528" width="856.123594pt" xmlns="http://www.w3.org/2000/svg" xmlns:xlink="http://www.w3.org/1999/xlink">
 <defs>
  <style type="text/css">
*{stroke-linecap:butt;stroke-linejoin:round;}
  </style>
 </defs>
 <g id="figure_1">
  <g id="patch_1">
   <path d="M 0 531.103528 
L 856.123594 531.103528 
L 856.123594 0 
L 0 0 
z
" style="fill:#ffffff;"/>
  </g>
  <g id="axes_1">
   <g id="patch_2">
    <path d="M 58.723594 475.641262 
L 839.923594 475.641262 
L 839.923594 26.084062 
L 58.723594 26.084062 
z
" style="fill:#ffffff;"/>
   </g>
   <g id="matplotlib.axis_1">
    <g id="xtick_1">
     <g id="line2d_1">
      <path clip-path="url(#p76cfd9da20)" d="M 98.449908 475.641262 
L 98.449908 26.084062 
" style="fill:none;stroke:#cccccc;stroke-linecap:round;stroke-width:1.5;"/>
     </g>
     <g id="text_1">
      <!-- 10 -->
      <defs>
       <path d="M 37.25 0 
L 28.46875 0 
L 28.46875 56 
Q 25.296875 52.984375 20.140625 49.953125 
Q 14.984375 46.921875 10.890625 45.40625 
L 10.890625 53.90625 
Q 18.265625 57.375 23.78125 62.296875 
Q 29.296875 67.234375 31.59375 71.875 
L 37.25 71.875 
z
" id="ArialMT-49"/>
       <path d="M 4.15625 35.296875 
Q 4.15625 48 6.765625 55.734375 
Q 9.375 63.484375 14.515625 67.671875 
Q 19.671875 71.875 27.484375 71.875 
Q 33.25 71.875 37.59375 69.546875 
Q 41.9375 67.234375 44.765625 62.859375 
Q 47.609375 58.5 49.21875 52.21875 
Q 50.828125 45.953125 50.828125 35.296875 
Q 50.828125 22.703125 48.234375 14.96875 
Q 45.65625 7.234375 40.5 3 
Q 35.359375 -1.21875 27.484375 -1.21875 
Q 17.140625 -1.21875 11.234375 6.203125 
Q 4.15625 15.140625 4.15625 35.296875 
z
M 13.1875 35.296875 
Q 13.1875 17.671875 17.3125 11.828125 
Q 21.4375 6 27.484375 6 
Q 33.546875 6 37.671875 11.859375 
Q 41.796875 17.71875 41.796875 35.296875 
Q 41.796875 52.984375 37.671875 58.78125 
Q 33.546875 64.59375 27.390625 64.59375 
Q 21.34375 64.59375 17.71875 59.46875 
Q 13.1875 52.9375 13.1875 35.296875 
z
" id="ArialMT-48"/>
      </defs>
      <g style="fill:#262626;" transform="translate(89.274361 499.951653)scale(0.165 -0.165)">
       <use xlink:href="#ArialMT-49"/>
       <use x="55.615234" xlink:href="#ArialMT-48"/>
      </g>
     </g>
    </g>
    <g id="xtick_2">
     <g id="line2d_2">
      <path clip-path="url(#p76cfd9da20)" d="M 199.022051 475.641262 
L 199.022051 26.084062 
" style="fill:none;stroke:#cccccc;stroke-linecap:round;stroke-width:1.5;"/>
     </g>
     <g id="text_2">
      <!-- 20 -->
      <defs>
       <path d="M 50.34375 8.453125 
L 50.34375 0 
L 3.03125 0 
Q 2.9375 3.171875 4.046875 6.109375 
Q 5.859375 10.9375 9.828125 15.625 
Q 13.8125 20.3125 21.34375 26.46875 
Q 33.015625 36.03125 37.109375 41.625 
Q 41.21875 47.21875 41.21875 52.203125 
Q 41.21875 57.421875 37.46875 61 
Q 33.734375 64.59375 27.734375 64.59375 
Q 21.390625 64.59375 17.578125 60.78125 
Q 13.765625 56.984375 13.71875 50.25 
L 4.6875 51.171875 
Q 5.609375 61.28125 11.65625 66.578125 
Q 17.71875 71.875 27.9375 71.875 
Q 38.234375 71.875 44.234375 66.15625 
Q 50.25 60.453125 50.25 52 
Q 50.25 47.703125 48.484375 43.546875 
Q 46.734375 39.40625 42.65625 34.8125 
Q 38.578125 30.21875 29.109375 22.21875 
Q 21.1875 15.578125 18.9375 13.203125 
Q 16.703125 10.84375 15.234375 8.453125 
z
" id="ArialMT-50"/>
      </defs>
      <g style="fill:#262626;" transform="translate(189.846504 499.951653)scale(0.165 -0.165)">
       <use xlink:href="#ArialMT-50"/>
       <use x="55.615234" xlink:href="#ArialMT-48"/>
      </g>
     </g>
    </g>
    <g id="xtick_3">
     <g id="line2d_3">
      <path clip-path="url(#p76cfd9da20)" d="M 299.594195 475.641262 
L 299.594195 26.084062 
" style="fill:none;stroke:#cccccc;stroke-linecap:round;stroke-width:1.5;"/>
     </g>
     <g id="text_3">
      <!-- 30 -->
      <defs>
       <path d="M 4.203125 18.890625 
L 12.984375 20.0625 
Q 14.5 12.59375 18.140625 9.296875 
Q 21.78125 6 27 6 
Q 33.203125 6 37.46875 10.296875 
Q 41.75 14.59375 41.75 20.953125 
Q 41.75 27 37.796875 30.921875 
Q 33.84375 34.859375 27.734375 34.859375 
Q 25.25 34.859375 21.53125 33.890625 
L 22.515625 41.609375 
Q 23.390625 41.5 23.921875 41.5 
Q 29.546875 41.5 34.03125 44.421875 
Q 38.53125 47.359375 38.53125 53.46875 
Q 38.53125 58.296875 35.25 61.46875 
Q 31.984375 64.65625 26.8125 64.65625 
Q 21.6875 64.65625 18.265625 61.421875 
Q 14.84375 58.203125 13.875 51.765625 
L 5.078125 53.328125 
Q 6.6875 62.15625 12.390625 67.015625 
Q 18.109375 71.875 26.609375 71.875 
Q 32.46875 71.875 37.390625 69.359375 
Q 42.328125 66.84375 44.9375 62.5 
Q 47.5625 58.15625 47.5625 53.265625 
Q 47.5625 48.640625 45.0625 44.828125 
Q 42.578125 41.015625 37.703125 38.765625 
Q 44.046875 37.3125 47.5625 32.6875 
Q 51.078125 28.078125 51.078125 21.140625 
Q 51.078125 11.765625 44.234375 5.25 
Q 37.40625 -1.265625 26.953125 -1.265625 
Q 17.53125 -1.265625 11.296875 4.34375 
Q 5.078125 9.96875 4.203125 18.890625 
z
" id="ArialMT-51"/>
      </defs>
      <g style="fill:#262626;" transform="translate(290.418648 499.951653)scale(0.165 -0.165)">
       <use xlink:href="#ArialMT-51"/>
       <use x="55.615234" xlink:href="#ArialMT-48"/>
      </g>
     </g>
    </g>
    <g id="xtick_4">
     <g id="line2d_4">
      <path clip-path="url(#p76cfd9da20)" d="M 400.166339 475.641262 
L 400.166339 26.084062 
" style="fill:none;stroke:#cccccc;stroke-linecap:round;stroke-width:1.5;"/>
     </g>
     <g id="text_4">
      <!-- 40 -->
      <defs>
       <path d="M 32.328125 0 
L 32.328125 17.140625 
L 1.265625 17.140625 
L 1.265625 25.203125 
L 33.9375 71.578125 
L 41.109375 71.578125 
L 41.109375 25.203125 
L 50.78125 25.203125 
L 50.78125 17.140625 
L 41.109375 17.140625 
L 41.109375 0 
z
M 32.328125 25.203125 
L 32.328125 57.46875 
L 9.90625 25.203125 
z
" id="ArialMT-52"/>
      </defs>
      <g style="fill:#262626;" transform="translate(390.990792 499.951653)scale(0.165 -0.165)">
       <use xlink:href="#ArialMT-52"/>
       <use x="55.615234" xlink:href="#ArialMT-48"/>
      </g>
     </g>
    </g>
    <g id="xtick_5">
     <g id="line2d_5">
      <path clip-path="url(#p76cfd9da20)" d="M 500.738482 475.641262 
L 500.738482 26.084062 
" style="fill:none;stroke:#cccccc;stroke-linecap:round;stroke-width:1.5;"/>
     </g>
     <g id="text_5">
      <!-- 50 -->
      <defs>
       <path d="M 4.15625 18.75 
L 13.375 19.53125 
Q 14.40625 12.796875 18.140625 9.390625 
Q 21.875 6 27.15625 6 
Q 33.5 6 37.890625 10.78125 
Q 42.28125 15.578125 42.28125 23.484375 
Q 42.28125 31 38.0625 35.34375 
Q 33.84375 39.703125 27 39.703125 
Q 22.75 39.703125 19.328125 37.765625 
Q 15.921875 35.84375 13.96875 32.765625 
L 5.71875 33.84375 
L 12.640625 70.609375 
L 48.25 70.609375 
L 48.25 62.203125 
L 19.671875 62.203125 
L 15.828125 42.96875 
Q 22.265625 47.46875 29.34375 47.46875 
Q 38.71875 47.46875 45.15625 40.96875 
Q 51.609375 34.46875 51.609375 24.265625 
Q 51.609375 14.546875 45.953125 7.46875 
Q 39.0625 -1.21875 27.15625 -1.21875 
Q 17.390625 -1.21875 11.203125 4.25 
Q 5.03125 9.71875 4.15625 18.75 
z
" id="ArialMT-53"/>
      </defs>
      <g style="fill:#262626;" transform="translate(491.562935 499.951653)scale(0.165 -0.165)">
       <use xlink:href="#ArialMT-53"/>
       <use x="55.615234" xlink:href="#ArialMT-48"/>
      </g>
     </g>
    </g>
    <g id="xtick_6">
     <g id="line2d_6">
      <path clip-path="url(#p76cfd9da20)" d="M 601.310626 475.641262 
L 601.310626 26.084062 
" style="fill:none;stroke:#cccccc;stroke-linecap:round;stroke-width:1.5;"/>
     </g>
     <g id="text_6">
      <!-- 60 -->
      <defs>
       <path d="M 49.75 54.046875 
L 41.015625 53.375 
Q 39.84375 58.546875 37.703125 60.890625 
Q 34.125 64.65625 28.90625 64.65625 
Q 24.703125 64.65625 21.53125 62.3125 
Q 17.390625 59.28125 14.984375 53.46875 
Q 12.59375 47.65625 12.5 36.921875 
Q 15.671875 41.75 20.265625 44.09375 
Q 24.859375 46.4375 29.890625 46.4375 
Q 38.671875 46.4375 44.84375 39.96875 
Q 51.03125 33.5 51.03125 23.25 
Q 51.03125 16.5 48.125 10.71875 
Q 45.21875 4.9375 40.140625 1.859375 
Q 35.0625 -1.21875 28.609375 -1.21875 
Q 17.625 -1.21875 10.6875 6.859375 
Q 3.765625 14.9375 3.765625 33.5 
Q 3.765625 54.25 11.421875 63.671875 
Q 18.109375 71.875 29.4375 71.875 
Q 37.890625 71.875 43.28125 67.140625 
Q 48.6875 62.40625 49.75 54.046875 
z
M 13.875 23.1875 
Q 13.875 18.65625 15.796875 14.5 
Q 17.71875 10.359375 21.1875 8.171875 
Q 24.65625 6 28.46875 6 
Q 34.03125 6 38.03125 10.484375 
Q 42.046875 14.984375 42.046875 22.703125 
Q 42.046875 30.125 38.078125 34.390625 
Q 34.125 38.671875 28.125 38.671875 
Q 22.171875 38.671875 18.015625 34.390625 
Q 13.875 30.125 13.875 23.1875 
z
" id="ArialMT-54"/>
      </defs>
      <g style="fill:#262626;" transform="translate(592.135079 499.951653)scale(0.165 -0.165)">
       <use xlink:href="#ArialMT-54"/>
       <use x="55.615234" xlink:href="#ArialMT-48"/>
      </g>
     </g>
    </g>
    <g id="xtick_7">
     <g id="line2d_7">
      <path clip-path="url(#p76cfd9da20)" d="M 701.88277 475.641262 
L 701.88277 26.084062 
" style="fill:none;stroke:#cccccc;stroke-linecap:round;stroke-width:1.5;"/>
     </g>
     <g id="text_7">
      <!-- 70 -->
      <defs>
       <path d="M 4.734375 62.203125 
L 4.734375 70.65625 
L 51.078125 70.65625 
L 51.078125 63.8125 
Q 44.234375 56.546875 37.515625 44.484375 
Q 30.8125 32.421875 27.15625 19.671875 
Q 24.515625 10.6875 23.78125 0 
L 14.75 0 
Q 14.890625 8.453125 18.0625 20.40625 
Q 21.234375 32.375 27.171875 43.484375 
Q 33.109375 54.59375 39.796875 62.203125 
z
" id="ArialMT-55"/>
      </defs>
      <g style="fill:#262626;" transform="translate(692.707223 499.951653)scale(0.165 -0.165)">
       <use xlink:href="#ArialMT-55"/>
       <use x="55.615234" xlink:href="#ArialMT-48"/>
      </g>
     </g>
    </g>
    <g id="xtick_8">
     <g id="line2d_8">
      <path clip-path="url(#p76cfd9da20)" d="M 802.454913 475.641262 
L 802.454913 26.084062 
" style="fill:none;stroke:#cccccc;stroke-linecap:round;stroke-width:1.5;"/>
     </g>
     <g id="text_8">
      <!-- 80 -->
      <defs>
       <path d="M 17.671875 38.8125 
Q 12.203125 40.828125 9.5625 44.53125 
Q 6.9375 48.25 6.9375 53.421875 
Q 6.9375 61.234375 12.546875 66.546875 
Q 18.171875 71.875 27.484375 71.875 
Q 36.859375 71.875 42.578125 66.421875 
Q 48.296875 60.984375 48.296875 53.171875 
Q 48.296875 48.1875 45.671875 44.5 
Q 43.0625 40.828125 37.75 38.8125 
Q 44.34375 36.671875 47.78125 31.875 
Q 51.21875 27.09375 51.21875 20.453125 
Q 51.21875 11.28125 44.71875 5.03125 
Q 38.234375 -1.21875 27.640625 -1.21875 
Q 17.046875 -1.21875 10.546875 5.046875 
Q 4.046875 11.328125 4.046875 20.703125 
Q 4.046875 27.6875 7.59375 32.390625 
Q 11.140625 37.109375 17.671875 38.8125 
z
M 15.921875 53.71875 
Q 15.921875 48.640625 19.1875 45.40625 
Q 22.46875 42.1875 27.6875 42.1875 
Q 32.765625 42.1875 36.015625 45.375 
Q 39.265625 48.578125 39.265625 53.21875 
Q 39.265625 58.0625 35.90625 61.359375 
Q 32.5625 64.65625 27.59375 64.65625 
Q 22.5625 64.65625 19.234375 61.421875 
Q 15.921875 58.203125 15.921875 53.71875 
z
M 13.09375 20.65625 
Q 13.09375 16.890625 14.875 13.375 
Q 16.65625 9.859375 20.171875 7.921875 
Q 23.6875 6 27.734375 6 
Q 34.03125 6 38.125 10.046875 
Q 42.234375 14.109375 42.234375 20.359375 
Q 42.234375 26.703125 38.015625 30.859375 
Q 33.796875 35.015625 27.4375 35.015625 
Q 21.234375 35.015625 17.15625 30.90625 
Q 13.09375 26.8125 13.09375 20.65625 
z
" id="ArialMT-56"/>
      </defs>
      <g style="fill:#262626;" transform="translate(793.279366 499.951653)scale(0.165 -0.165)">
       <use xlink:href="#ArialMT-56"/>
       <use x="55.615234" xlink:href="#ArialMT-48"/>
      </g>
     </g>
    </g>
    <g id="text_9">
     <!-- Actual Win Percentage -->
     <defs>
      <path d="M -0.140625 0 
L 27.34375 71.578125 
L 37.546875 71.578125 
L 66.84375 0 
L 56.0625 0 
L 47.703125 21.6875 
L 17.78125 21.6875 
L 9.90625 0 
z
M 20.515625 29.390625 
L 44.78125 29.390625 
L 37.3125 49.21875 
Q 33.890625 58.25 32.234375 64.0625 
Q 30.859375 57.171875 28.375 50.390625 
z
" id="ArialMT-65"/>
      <path d="M 40.4375 19 
L 49.078125 17.875 
Q 47.65625 8.9375 41.8125 3.875 
Q 35.984375 -1.171875 27.484375 -1.171875 
Q 16.84375 -1.171875 10.375 5.78125 
Q 3.90625 12.75 3.90625 25.734375 
Q 3.90625 34.125 6.6875 40.421875 
Q 9.46875 46.734375 15.15625 49.875 
Q 20.84375 53.03125 27.546875 53.03125 
Q 35.984375 53.03125 41.359375 48.75 
Q 46.734375 44.484375 48.25 36.625 
L 39.703125 35.296875 
Q 38.484375 40.53125 35.375 43.15625 
Q 32.28125 45.796875 27.875 45.796875 
Q 21.234375 45.796875 17.078125 41.03125 
Q 12.9375 36.28125 12.9375 25.984375 
Q 12.9375 15.53125 16.9375 10.796875 
Q 20.953125 6.0625 27.390625 6.0625 
Q 32.5625 6.0625 36.03125 9.234375 
Q 39.5 12.40625 40.4375 19 
z
" id="ArialMT-99"/>
      <path d="M 25.78125 7.859375 
L 27.046875 0.09375 
Q 23.34375 -0.6875 20.40625 -0.6875 
Q 15.625 -0.6875 12.984375 0.828125 
Q 10.359375 2.34375 9.28125 4.8125 
Q 8.203125 7.28125 8.203125 15.1875 
L 8.203125 45.015625 
L 1.765625 45.015625 
L 1.765625 51.859375 
L 8.203125 51.859375 
L 8.203125 64.703125 
L 16.9375 69.96875 
L 16.9375 51.859375 
L 25.78125 51.859375 
L 25.78125 45.015625 
L 16.9375 45.015625 
L 16.9375 14.703125 
Q 16.9375 10.9375 17.40625 9.859375 
Q 17.875 8.796875 18.921875 8.15625 
Q 19.96875 7.515625 21.921875 7.515625 
Q 23.390625 7.515625 25.78125 7.859375 
z
" id="ArialMT-116"/>
      <path d="M 40.578125 0 
L 40.578125 7.625 
Q 34.515625 -1.171875 24.125 -1.171875 
Q 19.53125 -1.171875 15.546875 0.578125 
Q 11.578125 2.34375 9.640625 5 
Q 7.71875 7.671875 6.9375 11.53125 
Q 6.390625 14.109375 6.390625 19.734375 
L 6.390625 51.859375 
L 15.1875 51.859375 
L 15.1875 23.09375 
Q 15.1875 16.21875 15.71875 13.8125 
Q 16.546875 10.359375 19.234375 8.375 
Q 21.921875 6.390625 25.875 6.390625 
Q 29.828125 6.390625 33.296875 8.421875 
Q 36.765625 10.453125 38.203125 13.9375 
Q 39.65625 17.4375 39.65625 24.078125 
L 39.65625 51.859375 
L 48.4375 51.859375 
L 48.4375 0 
z
" id="ArialMT-117"/>
      <path d="M 40.4375 6.390625 
Q 35.546875 2.25 31.03125 0.53125 
Q 26.515625 -1.171875 21.34375 -1.171875 
Q 12.796875 -1.171875 8.203125 3 
Q 3.609375 7.171875 3.609375 13.671875 
Q 3.609375 17.484375 5.34375 20.625 
Q 7.078125 23.78125 9.890625 25.6875 
Q 12.703125 27.59375 16.21875 28.5625 
Q 18.796875 29.25 24.03125 29.890625 
Q 34.671875 31.15625 39.703125 32.90625 
Q 39.75 34.71875 39.75 35.203125 
Q 39.75 40.578125 37.25 42.78125 
Q 33.890625 45.75 27.25 45.75 
Q 21.046875 45.75 18.09375 43.578125 
Q 15.140625 41.40625 13.71875 35.890625 
L 5.125 37.0625 
Q 6.296875 42.578125 8.984375 45.96875 
Q 11.671875 49.359375 16.75 51.1875 
Q 21.828125 53.03125 28.515625 53.03125 
Q 35.15625 53.03125 39.296875 51.46875 
Q 43.453125 49.90625 45.40625 47.53125 
Q 47.359375 45.171875 48.140625 41.546875 
Q 48.578125 39.3125 48.578125 33.453125 
L 48.578125 21.734375 
Q 48.578125 9.46875 49.140625 6.21875 
Q 49.703125 2.984375 51.375 0 
L 42.1875 0 
Q 40.828125 2.734375 40.4375 6.390625 
z
M 39.703125 26.03125 
Q 34.90625 24.078125 25.34375 22.703125 
Q 19.921875 21.921875 17.671875 20.9375 
Q 15.4375 19.96875 14.203125 18.09375 
Q 12.984375 16.21875 12.984375 13.921875 
Q 12.984375 10.40625 15.640625 8.0625 
Q 18.3125 5.71875 23.4375 5.71875 
Q 28.515625 5.71875 32.46875 7.9375 
Q 36.421875 10.15625 38.28125 14.015625 
Q 39.703125 17 39.703125 22.796875 
z
" id="ArialMT-97"/>
      <path d="M 6.390625 0 
L 6.390625 71.578125 
L 15.1875 71.578125 
L 15.1875 0 
z
" id="ArialMT-108"/>
      <path id="ArialMT-32"/>
      <path d="M 20.21875 0 
L 1.21875 71.578125 
L 10.9375 71.578125 
L 21.828125 24.65625 
Q 23.578125 17.28125 24.859375 10.015625 
Q 27.59375 21.484375 28.078125 23.25 
L 41.703125 71.578125 
L 53.125 71.578125 
L 63.375 35.359375 
Q 67.234375 21.875 68.953125 10.015625 
Q 70.3125 16.796875 72.515625 25.59375 
L 83.734375 71.578125 
L 93.265625 71.578125 
L 73.640625 0 
L 64.5 0 
L 49.421875 54.546875 
Q 47.515625 61.375 47.171875 62.9375 
Q 46.046875 58.015625 45.0625 54.546875 
L 29.890625 0 
z
" id="ArialMT-87"/>
      <path d="M 6.640625 61.46875 
L 6.640625 71.578125 
L 15.4375 71.578125 
L 15.4375 61.46875 
z
M 6.640625 0 
L 6.640625 51.859375 
L 15.4375 51.859375 
L 15.4375 0 
z
" id="ArialMT-105"/>
      <path d="M 6.59375 0 
L 6.59375 51.859375 
L 14.5 51.859375 
L 14.5 44.484375 
Q 20.21875 53.03125 31 53.03125 
Q 35.6875 53.03125 39.625 51.34375 
Q 43.5625 49.65625 45.515625 46.921875 
Q 47.46875 44.1875 48.25 40.4375 
Q 48.734375 37.984375 48.734375 31.890625 
L 48.734375 0 
L 39.9375 0 
L 39.9375 31.546875 
Q 39.9375 36.921875 38.90625 39.578125 
Q 37.890625 42.234375 35.28125 43.8125 
Q 32.671875 45.40625 29.15625 45.40625 
Q 23.53125 45.40625 19.453125 41.84375 
Q 15.375 38.28125 15.375 28.328125 
L 15.375 0 
z
" id="ArialMT-110"/>
      <path d="M 7.71875 0 
L 7.71875 71.578125 
L 34.71875 71.578125 
Q 41.84375 71.578125 45.609375 70.90625 
Q 50.875 70.015625 54.4375 67.546875 
Q 58.015625 65.09375 60.1875 60.640625 
Q 62.359375 56.203125 62.359375 50.875 
Q 62.359375 41.75 56.546875 35.421875 
Q 50.734375 29.109375 35.546875 29.109375 
L 17.1875 29.109375 
L 17.1875 0 
z
M 17.1875 37.546875 
L 35.6875 37.546875 
Q 44.875 37.546875 48.734375 40.96875 
Q 52.59375 44.390625 52.59375 50.59375 
Q 52.59375 55.078125 50.3125 58.265625 
Q 48.046875 61.46875 44.34375 62.5 
Q 41.9375 63.140625 35.5 63.140625 
L 17.1875 63.140625 
z
" id="ArialMT-80"/>
      <path d="M 42.09375 16.703125 
L 51.171875 15.578125 
Q 49.03125 7.625 43.21875 3.21875 
Q 37.40625 -1.171875 28.375 -1.171875 
Q 17 -1.171875 10.328125 5.828125 
Q 3.65625 12.84375 3.65625 25.484375 
Q 3.65625 38.578125 10.390625 45.796875 
Q 17.140625 53.03125 27.875 53.03125 
Q 38.28125 53.03125 44.875 45.953125 
Q 51.46875 38.875 51.46875 26.03125 
Q 51.46875 25.25 51.421875 23.6875 
L 12.75 23.6875 
Q 13.234375 15.140625 17.578125 10.59375 
Q 21.921875 6.0625 28.421875 6.0625 
Q 33.25 6.0625 36.671875 8.59375 
Q 40.09375 11.140625 42.09375 16.703125 
z
M 13.234375 30.90625 
L 42.1875 30.90625 
Q 41.609375 37.453125 38.875 40.71875 
Q 34.671875 45.796875 27.984375 45.796875 
Q 21.921875 45.796875 17.796875 41.75 
Q 13.671875 37.703125 13.234375 30.90625 
z
" id="ArialMT-101"/>
      <path d="M 6.5 0 
L 6.5 51.859375 
L 14.40625 51.859375 
L 14.40625 44 
Q 17.4375 49.515625 20 51.265625 
Q 22.5625 53.03125 25.640625 53.03125 
Q 30.078125 53.03125 34.671875 50.203125 
L 31.640625 42.046875 
Q 28.421875 43.953125 25.203125 43.953125 
Q 22.3125 43.953125 20.015625 42.21875 
Q 17.71875 40.484375 16.75 37.40625 
Q 15.28125 32.71875 15.28125 27.15625 
L 15.28125 0 
z
" id="ArialMT-114"/>
      <path d="M 4.984375 -4.296875 
L 13.53125 -5.5625 
Q 14.0625 -9.515625 16.5 -11.328125 
Q 19.78125 -13.765625 25.4375 -13.765625 
Q 31.546875 -13.765625 34.859375 -11.328125 
Q 38.1875 -8.890625 39.359375 -4.5 
Q 40.046875 -1.8125 39.984375 6.78125 
Q 34.234375 0 25.640625 0 
Q 14.9375 0 9.078125 7.71875 
Q 3.21875 15.4375 3.21875 26.21875 
Q 3.21875 33.640625 5.90625 39.90625 
Q 8.59375 46.1875 13.6875 49.609375 
Q 18.796875 53.03125 25.6875 53.03125 
Q 34.859375 53.03125 40.828125 45.609375 
L 40.828125 51.859375 
L 48.921875 51.859375 
L 48.921875 7.03125 
Q 48.921875 -5.078125 46.453125 -10.125 
Q 44 -15.1875 38.640625 -18.109375 
Q 33.296875 -21.046875 25.484375 -21.046875 
Q 16.21875 -21.046875 10.5 -16.875 
Q 4.78125 -12.703125 4.984375 -4.296875 
z
M 12.25 26.859375 
Q 12.25 16.65625 16.296875 11.96875 
Q 20.359375 7.28125 26.46875 7.28125 
Q 32.515625 7.28125 36.609375 11.9375 
Q 40.71875 16.609375 40.71875 26.5625 
Q 40.71875 36.078125 36.5 40.90625 
Q 32.28125 45.75 26.3125 45.75 
Q 20.453125 45.75 16.34375 40.984375 
Q 12.25 36.234375 12.25 26.859375 
z
" id="ArialMT-103"/>
     </defs>
     <g style="fill:#262626;" transform="translate(357.780938 520.115091)scale(0.18 -0.18)">
      <use xlink:href="#ArialMT-65"/>
      <use x="66.699219" xlink:href="#ArialMT-99"/>
      <use x="116.699219" xlink:href="#ArialMT-116"/>
      <use x="144.482422" xlink:href="#ArialMT-117"/>
      <use x="200.097656" xlink:href="#ArialMT-97"/>
      <use x="255.712891" xlink:href="#ArialMT-108"/>
      <use x="277.929688" xlink:href="#ArialMT-32"/>
      <use x="305.712891" xlink:href="#ArialMT-87"/>
      <use x="400.097656" xlink:href="#ArialMT-105"/>
      <use x="422.314453" xlink:href="#ArialMT-110"/>
      <use x="477.929688" xlink:href="#ArialMT-32"/>
      <use x="505.712891" xlink:href="#ArialMT-80"/>
      <use x="572.412109" xlink:href="#ArialMT-101"/>
      <use x="628.027344" xlink:href="#ArialMT-114"/>
      <use x="661.328125" xlink:href="#ArialMT-99"/>
      <use x="711.328125" xlink:href="#ArialMT-101"/>
      <use x="766.943359" xlink:href="#ArialMT-110"/>
      <use x="822.558594" xlink:href="#ArialMT-116"/>
      <use x="850.341797" xlink:href="#ArialMT-97"/>
      <use x="905.957031" xlink:href="#ArialMT-103"/>
      <use x="961.572266" xlink:href="#ArialMT-101"/>
     </g>
    </g>
   </g>
   <g id="matplotlib.axis_2">
    <g id="ytick_1">
     <g id="line2d_9">
      <path clip-path="url(#p76cfd9da20)" d="M 58.723594 475.634015 
L 839.923594 475.634015 
" style="fill:none;stroke:#cccccc;stroke-linecap:round;stroke-width:1.5;"/>
     </g>
     <g id="text_10">
      <!-- 10 -->
      <g style="fill:#262626;" transform="translate(27.8725 481.53921)scale(0.165 -0.165)">
       <use xlink:href="#ArialMT-49"/>
       <use x="55.615234" xlink:href="#ArialMT-48"/>
      </g>
     </g>
    </g>
    <g id="ytick_2">
     <g id="line2d_10">
      <path clip-path="url(#p76cfd9da20)" d="M 58.723594 415.792291 
L 839.923594 415.792291 
" style="fill:none;stroke:#cccccc;stroke-linecap:round;stroke-width:1.5;"/>
     </g>
     <g id="text_11">
      <!-- 20 -->
      <g style="fill:#262626;" transform="translate(27.8725 421.697486)scale(0.165 -0.165)">
       <use xlink:href="#ArialMT-50"/>
       <use x="55.615234" xlink:href="#ArialMT-48"/>
      </g>
     </g>
    </g>
    <g id="ytick_3">
     <g id="line2d_11">
      <path clip-path="url(#p76cfd9da20)" d="M 58.723594 355.950567 
L 839.923594 355.950567 
" style="fill:none;stroke:#cccccc;stroke-linecap:round;stroke-width:1.5;"/>
     </g>
     <g id="text_12">
      <!-- 30 -->
      <g style="fill:#262626;" transform="translate(27.8725 361.855763)scale(0.165 -0.165)">
       <use xlink:href="#ArialMT-51"/>
       <use x="55.615234" xlink:href="#ArialMT-48"/>
      </g>
     </g>
    </g>
    <g id="ytick_4">
     <g id="line2d_12">
      <path clip-path="url(#p76cfd9da20)" d="M 58.723594 296.108844 
L 839.923594 296.108844 
" style="fill:none;stroke:#cccccc;stroke-linecap:round;stroke-width:1.5;"/>
     </g>
     <g id="text_13">
      <!-- 40 -->
      <g style="fill:#262626;" transform="translate(27.8725 302.014039)scale(0.165 -0.165)">
       <use xlink:href="#ArialMT-52"/>
       <use x="55.615234" xlink:href="#ArialMT-48"/>
      </g>
     </g>
    </g>
    <g id="ytick_5">
     <g id="line2d_13">
      <path clip-path="url(#p76cfd9da20)" d="M 58.723594 236.26712 
L 839.923594 236.26712 
" style="fill:none;stroke:#cccccc;stroke-linecap:round;stroke-width:1.5;"/>
     </g>
     <g id="text_14">
      <!-- 50 -->
      <g style="fill:#262626;" transform="translate(27.8725 242.172315)scale(0.165 -0.165)">
       <use xlink:href="#ArialMT-53"/>
       <use x="55.615234" xlink:href="#ArialMT-48"/>
      </g>
     </g>
    </g>
    <g id="ytick_6">
     <g id="line2d_14">
      <path clip-path="url(#p76cfd9da20)" d="M 58.723594 176.425397 
L 839.923594 176.425397 
" style="fill:none;stroke:#cccccc;stroke-linecap:round;stroke-width:1.5;"/>
     </g>
     <g id="text_15">
      <!-- 60 -->
      <g style="fill:#262626;" transform="translate(27.8725 182.330592)scale(0.165 -0.165)">
       <use xlink:href="#ArialMT-54"/>
       <use x="55.615234" xlink:href="#ArialMT-48"/>
      </g>
     </g>
    </g>
    <g id="ytick_7">
     <g id="line2d_15">
      <path clip-path="url(#p76cfd9da20)" d="M 58.723594 116.583673 
L 839.923594 116.583673 
" style="fill:none;stroke:#cccccc;stroke-linecap:round;stroke-width:1.5;"/>
     </g>
     <g id="text_16">
      <!-- 70 -->
      <g style="fill:#262626;" transform="translate(27.8725 122.488868)scale(0.165 -0.165)">
       <use xlink:href="#ArialMT-55"/>
       <use x="55.615234" xlink:href="#ArialMT-48"/>
      </g>
     </g>
    </g>
    <g id="ytick_8">
     <g id="line2d_16">
      <path clip-path="url(#p76cfd9da20)" d="M 58.723594 56.741949 
L 839.923594 56.741949 
" style="fill:none;stroke:#cccccc;stroke-linecap:round;stroke-width:1.5;"/>
     </g>
     <g id="text_17">
      <!-- 80 -->
      <g style="fill:#262626;" transform="translate(27.8725 62.647145)scale(0.165 -0.165)">
       <use xlink:href="#ArialMT-56"/>
       <use x="55.615234" xlink:href="#ArialMT-48"/>
      </g>
     </g>
    </g>
    <g id="text_18">
     <!-- Predicted Win Percentage -->
     <defs>
      <path d="M 40.234375 0 
L 40.234375 6.546875 
Q 35.296875 -1.171875 25.734375 -1.171875 
Q 19.53125 -1.171875 14.328125 2.25 
Q 9.125 5.671875 6.265625 11.796875 
Q 3.421875 17.921875 3.421875 25.875 
Q 3.421875 33.640625 6 39.96875 
Q 8.59375 46.296875 13.765625 49.65625 
Q 18.953125 53.03125 25.34375 53.03125 
Q 30.03125 53.03125 33.6875 51.046875 
Q 37.359375 49.078125 39.65625 45.90625 
L 39.65625 71.578125 
L 48.390625 71.578125 
L 48.390625 0 
z
M 12.453125 25.875 
Q 12.453125 15.921875 16.640625 10.984375 
Q 20.84375 6.0625 26.5625 6.0625 
Q 32.328125 6.0625 36.34375 10.765625 
Q 40.375 15.484375 40.375 25.140625 
Q 40.375 35.796875 36.265625 40.765625 
Q 32.171875 45.75 26.171875 45.75 
Q 20.3125 45.75 16.375 40.96875 
Q 12.453125 36.1875 12.453125 25.875 
z
" id="ArialMT-100"/>
     </defs>
     <g style="fill:#262626;" transform="translate(20.084062 355.411725)rotate(-90)scale(0.18 -0.18)">
      <use xlink:href="#ArialMT-80"/>
      <use x="66.699219" xlink:href="#ArialMT-114"/>
      <use x="100" xlink:href="#ArialMT-101"/>
      <use x="155.615234" xlink:href="#ArialMT-100"/>
      <use x="211.230469" xlink:href="#ArialMT-105"/>
      <use x="233.447266" xlink:href="#ArialMT-99"/>
      <use x="283.447266" xlink:href="#ArialMT-116"/>
      <use x="311.230469" xlink:href="#ArialMT-101"/>
      <use x="366.845703" xlink:href="#ArialMT-100"/>
      <use x="422.460938" xlink:href="#ArialMT-32"/>
      <use x="450.244141" xlink:href="#ArialMT-87"/>
      <use x="544.628906" xlink:href="#ArialMT-105"/>
      <use x="566.845703" xlink:href="#ArialMT-110"/>
      <use x="622.460938" xlink:href="#ArialMT-32"/>
      <use x="650.244141" xlink:href="#ArialMT-80"/>
      <use x="716.943359" xlink:href="#ArialMT-101"/>
      <use x="772.558594" xlink:href="#ArialMT-114"/>
      <use x="805.859375" xlink:href="#ArialMT-99"/>
      <use x="855.859375" xlink:href="#ArialMT-101"/>
      <use x="911.474609" xlink:href="#ArialMT-110"/>
      <use x="967.089844" xlink:href="#ArialMT-116"/>
      <use x="994.873047" xlink:href="#ArialMT-97"/>
      <use x="1050.488281" xlink:href="#ArialMT-103"/>
      <use x="1106.103516" xlink:href="#ArialMT-101"/>
     </g>
    </g>
   </g>
   <g id="PathCollection_1">
    <defs>
     <path d="M 0 4.5 
C 1.193414 4.5 2.338109 4.025852 3.181981 3.181981 
C 4.025852 2.338109 4.5 1.193414 4.5 0 
C 4.5 -1.193414 4.025852 -2.338109 3.181981 -3.181981 
C 2.338109 -4.025852 1.193414 -4.5 0 -4.5 
C -1.193414 -4.5 -2.338109 -4.025852 -3.181981 -3.181981 
C -4.025852 -2.338109 -4.5 -1.193414 -4.5 0 
C -4.5 1.193414 -4.025852 2.338109 -3.181981 3.181981 
C -2.338109 4.025852 -1.193414 4.5 0 4.5 
z
" id="md663cc74a4" style="stroke:#ffffff;stroke-width:0.75;"/>
    </defs>
    <g clip-path="url(#p76cfd9da20)">
     <use style="fill:#008000;stroke:#ffffff;stroke-width:0.75;" x="289.062311" xlink:href="#md663cc74a4" y="345.733688"/>
     <use style="fill:#008000;stroke:#ffffff;stroke-width:0.75;" x="539.203435" xlink:href="#md663cc74a4" y="163.289408"/>
     <use style="fill:#008000;stroke:#ffffff;stroke-width:0.75;" x="468.8094" xlink:href="#md663cc74a4" y="236.26712"/>
     <use style="fill:#008000;stroke:#ffffff;stroke-width:0.75;" x="515.06911" xlink:href="#md663cc74a4" y="177.884951"/>
     <use style="fill:#008000;stroke:#ffffff;stroke-width:0.75;" x="398.637612" xlink:href="#md663cc74a4" y="287.351518"/>
     <use style="fill:#008000;stroke:#ffffff;stroke-width:0.75;" x="419.370873" xlink:href="#md663cc74a4" y="214.373807"/>
     <use style="fill:#008000;stroke:#ffffff;stroke-width:0.75;" x="331.346955" xlink:href="#md663cc74a4" y="367.627001"/>
     <use style="fill:#008000;stroke:#ffffff;stroke-width:0.75;" x="588.940492" xlink:href="#md663cc74a4" y="207.076035"/>
     <use style="fill:#008000;stroke:#ffffff;stroke-width:0.75;" x="488.541367" xlink:href="#md663cc74a4" y="214.373807"/>
     <use style="fill:#008000;stroke:#ffffff;stroke-width:0.75;" x="508.535681" xlink:href="#md663cc74a4" y="236.26712"/>
     <use style="fill:#008000;stroke:#ffffff;stroke-width:0.75;" x="442.774735" xlink:href="#md663cc74a4" y="265.458205"/>
     <use style="fill:#008000;stroke:#ffffff;stroke-width:0.75;" x="704.845026" xlink:href="#md663cc74a4" y="104.907239"/>
     <use style="fill:#008000;stroke:#ffffff;stroke-width:0.75;" x="481.780841" xlink:href="#md663cc74a4" y="250.862662"/>
     <use style="fill:#008000;stroke:#ffffff;stroke-width:0.75;" x="456.850876" xlink:href="#md663cc74a4" y="272.755976"/>
     <use style="fill:#008000;stroke:#ffffff;stroke-width:0.75;" x="502.558637" xlink:href="#md663cc74a4" y="207.076035"/>
     <use style="fill:#008000;stroke:#ffffff;stroke-width:0.75;" x="427.456847" xlink:href="#md663cc74a4" y="308.802543"/>
     <use style="fill:#008000;stroke:#ffffff;stroke-width:0.75;" x="481.560242" xlink:href="#md663cc74a4" y="192.480493"/>
     <use style="fill:#008000;stroke:#ffffff;stroke-width:0.75;" x="443.03122" xlink:href="#md663cc74a4" y="243.564891"/>
     <use style="fill:#008000;stroke:#ffffff;stroke-width:0.75;" x="639.233357" xlink:href="#md663cc74a4" y="134.098324"/>
     <use style="fill:#008000;stroke:#ffffff;stroke-width:0.75;" x="491.739231" xlink:href="#md663cc74a4" y="227.200192"/>
     <use style="fill:#008000;stroke:#ffffff;stroke-width:0.75;" x="518.597993" xlink:href="#md663cc74a4" y="236.26712"/>
     <use style="fill:#008000;stroke:#ffffff;stroke-width:0.75;" x="516.172832" xlink:href="#md663cc74a4" y="236.26712"/>
     <use style="fill:#008000;stroke:#ffffff;stroke-width:0.75;" x="539.450892" xlink:href="#md663cc74a4" y="258.160434"/>
     <use style="fill:#008000;stroke:#ffffff;stroke-width:0.75;" x="288.999749" xlink:href="#md663cc74a4" y="354.137182"/>
     <use style="fill:#008000;stroke:#ffffff;stroke-width:0.75;" x="661.196115" xlink:href="#md663cc74a4" y="134.098324"/>
     <use style="fill:#008000;stroke:#ffffff;stroke-width:0.75;" x="597.67067" xlink:href="#md663cc74a4" y="177.884951"/>
     <use style="fill:#008000;stroke:#ffffff;stroke-width:0.75;" x="342.278364" xlink:href="#md663cc74a4" y="360.32923"/>
     <use style="fill:#008000;stroke:#ffffff;stroke-width:0.75;" x="743.959032" xlink:href="#md663cc74a4" y="119.502781"/>
     <use style="fill:#008000;stroke:#ffffff;stroke-width:0.75;" x="693.760002" xlink:href="#md663cc74a4" y="97.609468"/>
     <use style="fill:#008000;stroke:#ffffff;stroke-width:0.75;" x="591.642831" xlink:href="#md663cc74a4" y="209.066337"/>
     <use style="fill:#008000;stroke:#ffffff;stroke-width:0.75;" x="553.259949" xlink:href="#md663cc74a4" y="214.373807"/>
     <use style="fill:#008000;stroke:#ffffff;stroke-width:0.75;" x="644.927508" xlink:href="#md663cc74a4" y="163.289408"/>
     <use style="fill:#008000;stroke:#ffffff;stroke-width:0.75;" x="674.370163" xlink:href="#md663cc74a4" y="134.098324"/>
     <use style="fill:#008000;stroke:#ffffff;stroke-width:0.75;" x="553.09668" xlink:href="#md663cc74a4" y="199.778264"/>
     <use style="fill:#008000;stroke:#ffffff;stroke-width:0.75;" x="198.960354" xlink:href="#md663cc74a4" y="404.115857"/>
     <use style="fill:#008000;stroke:#ffffff;stroke-width:0.75;" x="707.218821" xlink:href="#md663cc74a4" y="119.502781"/>
     <use style="fill:#008000;stroke:#ffffff;stroke-width:0.75;" x="498.645104" xlink:href="#md663cc74a4" y="207.076035"/>
     <use style="fill:#008000;stroke:#ffffff;stroke-width:0.75;" x="474.287484" xlink:href="#md663cc74a4" y="258.160434"/>
     <use style="fill:#008000;stroke:#ffffff;stroke-width:0.75;" x="180.336433" xlink:href="#md663cc74a4" y="411.413628"/>
     <use style="fill:#008000;stroke:#ffffff;stroke-width:0.75;" x="361.064101" xlink:href="#md663cc74a4" y="353.031459"/>
     <use style="fill:#008000;stroke:#ffffff;stroke-width:0.75;" x="411.396945" xlink:href="#md663cc74a4" y="280.053747"/>
     <use style="fill:#008000;stroke:#ffffff;stroke-width:0.75;" x="541.473033" xlink:href="#md663cc74a4" y="236.26712"/>
     <use style="fill:#008000;stroke:#ffffff;stroke-width:0.75;" x="441.795576" xlink:href="#md663cc74a4" y="294.64929"/>
     <use style="fill:#008000;stroke:#ffffff;stroke-width:0.75;" x="603.344432" xlink:href="#md663cc74a4" y="192.480493"/>
     <use style="fill:#008000;stroke:#ffffff;stroke-width:0.75;" x="465.481592" xlink:href="#md663cc74a4" y="185.182722"/>
     <use style="fill:#008000;stroke:#ffffff;stroke-width:0.75;" x="547.161042" xlink:href="#md663cc74a4" y="228.969349"/>
     <use style="fill:#008000;stroke:#ffffff;stroke-width:0.75;" x="380.181519" xlink:href="#md663cc74a4" y="287.351518"/>
     <use style="fill:#008000;stroke:#ffffff;stroke-width:0.75;" x="595.038955" xlink:href="#md663cc74a4" y="177.884951"/>
     <use style="fill:#008000;stroke:#ffffff;stroke-width:0.75;" x="699.083884" xlink:href="#md663cc74a4" y="118.397059"/>
     <use style="fill:#008000;stroke:#ffffff;stroke-width:0.75;" x="392.045048" xlink:href="#md663cc74a4" y="345.733688"/>
     <use style="fill:#008000;stroke:#ffffff;stroke-width:0.75;" x="569.581553" xlink:href="#md663cc74a4" y="243.564891"/>
     <use style="fill:#008000;stroke:#ffffff;stroke-width:0.75;" x="488.55554" xlink:href="#md663cc74a4" y="236.26712"/>
     <use style="fill:#008000;stroke:#ffffff;stroke-width:0.75;" x="561.457206" xlink:href="#md663cc74a4" y="221.671578"/>
     <use style="fill:#008000;stroke:#ffffff;stroke-width:0.75;" x="411.499275" xlink:href="#md663cc74a4" y="323.840374"/>
     <use style="fill:#008000;stroke:#ffffff;stroke-width:0.75;" x="804.40813" xlink:href="#md663cc74a4" y="83.013926"/>
     <use style="fill:#008000;stroke:#ffffff;stroke-width:0.75;" x="512.623678" xlink:href="#md663cc74a4" y="199.778264"/>
     <use style="fill:#008000;stroke:#ffffff;stroke-width:0.75;" x="318.23988" xlink:href="#md663cc74a4" y="338.435917"/>
     <use style="fill:#008000;stroke:#ffffff;stroke-width:0.75;" x="604.654509" xlink:href="#md663cc74a4" y="134.098324"/>
     <use style="fill:#008000;stroke:#ffffff;stroke-width:0.75;" x="615.078364" xlink:href="#md663cc74a4" y="221.671578"/>
     <use style="fill:#008000;stroke:#ffffff;stroke-width:0.75;" x="659.545902" xlink:href="#md663cc74a4" y="90.311697"/>
     <use style="fill:#008000;stroke:#ffffff;stroke-width:0.75;" x="665.450787" xlink:href="#md663cc74a4" y="83.013926"/>
     <use style="fill:#008000;stroke:#ffffff;stroke-width:0.75;" x="536.881603" xlink:href="#md663cc74a4" y="228.969349"/>
     <use style="fill:#008000;stroke:#ffffff;stroke-width:0.75;" x="542.399936" xlink:href="#md663cc74a4" y="236.26712"/>
     <use style="fill:#008000;stroke:#ffffff;stroke-width:0.75;" x="681.915886" xlink:href="#md663cc74a4" y="148.693866"/>
     <use style="fill:#008000;stroke:#ffffff;stroke-width:0.75;" x="472.912041" xlink:href="#md663cc74a4" y="214.373807"/>
     <use style="fill:#008000;stroke:#ffffff;stroke-width:0.75;" x="419.359191" xlink:href="#md663cc74a4" y="309.244832"/>
     <use style="fill:#008000;stroke:#ffffff;stroke-width:0.75;" x="421.292094" xlink:href="#md663cc74a4" y="287.351518"/>
     <use style="fill:#008000;stroke:#ffffff;stroke-width:0.75;" x="645.276314" xlink:href="#md663cc74a4" y="170.58718"/>
     <use style="fill:#008000;stroke:#ffffff;stroke-width:0.75;" x="631.820612" xlink:href="#md663cc74a4" y="119.502781"/>
     <use style="fill:#008000;stroke:#ffffff;stroke-width:0.75;" x="248.894861" xlink:href="#md663cc74a4" y="404.115857"/>
     <use style="fill:#008000;stroke:#ffffff;stroke-width:0.75;" x="608.726469" xlink:href="#md663cc74a4" y="134.098324"/>
     <use style="fill:#008000;stroke:#ffffff;stroke-width:0.75;" x="463.991324" xlink:href="#md663cc74a4" y="374.924772"/>
     <use style="fill:#008000;stroke:#ffffff;stroke-width:0.75;" x="664.734744" xlink:href="#md663cc74a4" y="119.502781"/>
     <use style="fill:#008000;stroke:#ffffff;stroke-width:0.75;" x="471.256865" xlink:href="#md663cc74a4" y="192.480493"/>
     <use style="fill:#008000;stroke:#ffffff;stroke-width:0.75;" x="94.239057" xlink:href="#md663cc74a4" y="455.200255"/>
     <use style="fill:#008000;stroke:#ffffff;stroke-width:0.75;" x="660.965993" xlink:href="#md663cc74a4" y="75.716154"/>
     <use style="fill:#008000;stroke:#ffffff;stroke-width:0.75;" x="362.223398" xlink:href="#md663cc74a4" y="374.924772"/>
     <use style="fill:#008000;stroke:#ffffff;stroke-width:0.75;" x="368.864991" xlink:href="#md663cc74a4" y="331.138145"/>
     <use style="fill:#008000;stroke:#ffffff;stroke-width:0.75;" x="674.082841" xlink:href="#md663cc74a4" y="148.693866"/>
     <use style="fill:#008000;stroke:#ffffff;stroke-width:0.75;" x="427.665635" xlink:href="#md663cc74a4" y="280.053747"/>
     <use style="fill:#008000;stroke:#ffffff;stroke-width:0.75;" x="669.068491" xlink:href="#md663cc74a4" y="134.098324"/>
     <use style="fill:#008000;stroke:#ffffff;stroke-width:0.75;" x="447.366401" xlink:href="#md663cc74a4" y="323.840374"/>
     <use style="fill:#008000;stroke:#ffffff;stroke-width:0.75;" x="483.251611" xlink:href="#md663cc74a4" y="228.969349"/>
     <use style="fill:#008000;stroke:#ffffff;stroke-width:0.75;" x="658.990049" xlink:href="#md663cc74a4" y="192.480493"/>
     <use style="fill:#008000;stroke:#ffffff;stroke-width:0.75;" x="433.165535" xlink:href="#md663cc74a4" y="336.003326"/>
     <use style="fill:#008000;stroke:#ffffff;stroke-width:0.75;" x="443.266944" xlink:href="#md663cc74a4" y="294.64929"/>
     <use style="fill:#008000;stroke:#ffffff;stroke-width:0.75;" x="283.866415" xlink:href="#md663cc74a4" y="374.924772"/>
     <use style="fill:#008000;stroke:#ffffff;stroke-width:0.75;" x="406.032469" xlink:href="#md663cc74a4" y="323.840374"/>
     <use style="fill:#008000;stroke:#ffffff;stroke-width:0.75;" x="372.66903" xlink:href="#md663cc74a4" y="294.64929"/>
     <use style="fill:#008000;stroke:#ffffff;stroke-width:0.75;" x="419.687791" xlink:href="#md663cc74a4" y="272.755976"/>
     <use style="fill:#008000;stroke:#ffffff;stroke-width:0.75;" x="349.24451" xlink:href="#md663cc74a4" y="353.031459"/>
     <use style="fill:#008000;stroke:#ffffff;stroke-width:0.75;" x="750.640839" xlink:href="#md663cc74a4" y="46.52507"/>
     <use style="fill:#008000;stroke:#ffffff;stroke-width:0.75;" x="633.341154" xlink:href="#md663cc74a4" y="192.480493"/>
     <use style="fill:#008000;stroke:#ffffff;stroke-width:0.75;" x="477.975451" xlink:href="#md663cc74a4" y="236.26712"/>
     <use style="fill:#008000;stroke:#ffffff;stroke-width:0.75;" x="506.466585" xlink:href="#md663cc74a4" y="309.244832"/>
     <use style="fill:#008000;stroke:#ffffff;stroke-width:0.75;" x="526.331533" xlink:href="#md663cc74a4" y="207.076035"/>
     <use style="fill:#008000;stroke:#ffffff;stroke-width:0.75;" x="473.625608" xlink:href="#md663cc74a4" y="228.969349"/>
     <use style="fill:#008000;stroke:#ffffff;stroke-width:0.75;" x="596.018186" xlink:href="#md663cc74a4" y="163.731698"/>
     <use style="fill:#008000;stroke:#ffffff;stroke-width:0.75;" x="713.99845" xlink:href="#md663cc74a4" y="53.822841"/>
     <use style="fill:#008000;stroke:#ffffff;stroke-width:0.75;" x="347.956428" xlink:href="#md663cc74a4" y="316.542603"/>
     <use style="fill:#008000;stroke:#ffffff;stroke-width:0.75;" x="473.596053" xlink:href="#md663cc74a4" y="243.564891"/>
     <use style="fill:#008000;stroke:#ffffff;stroke-width:0.75;" x="314.315738" xlink:href="#md663cc74a4" y="360.32923"/>
     <use style="fill:#008000;stroke:#ffffff;stroke-width:0.75;" x="543.006046" xlink:href="#md663cc74a4" y="207.076035"/>
     <use style="fill:#008000;stroke:#ffffff;stroke-width:0.75;" x="488.329653" xlink:href="#md663cc74a4" y="250.862662"/>
     <use style="fill:#008000;stroke:#ffffff;stroke-width:0.75;" x="605.446792" xlink:href="#md663cc74a4" y="148.693866"/>
     <use style="fill:#008000;stroke:#ffffff;stroke-width:0.75;" x="511.817877" xlink:href="#md663cc74a4" y="214.373807"/>
     <use style="fill:#008000;stroke:#ffffff;stroke-width:0.75;" x="430.921056" xlink:href="#md663cc74a4" y="272.755976"/>
     <use style="fill:#008000;stroke:#ffffff;stroke-width:0.75;" x="447.092755" xlink:href="#md663cc74a4" y="272.755976"/>
     <use style="fill:#008000;stroke:#ffffff;stroke-width:0.75;" x="461.652449" xlink:href="#md663cc74a4" y="228.969349"/>
     <use style="fill:#008000;stroke:#ffffff;stroke-width:0.75;" x="386.011587" xlink:href="#md663cc74a4" y="299.735615"/>
     <use style="fill:#008000;stroke:#ffffff;stroke-width:0.75;" x="393.673447" xlink:href="#md663cc74a4" y="228.969349"/>
     <use style="fill:#008000;stroke:#ffffff;stroke-width:0.75;" x="311.020976" xlink:href="#md663cc74a4" y="426.009171"/>
     <use style="fill:#008000;stroke:#ffffff;stroke-width:0.75;" x="538.914262" xlink:href="#md663cc74a4" y="214.373807"/>
     <use style="fill:#008000;stroke:#ffffff;stroke-width:0.75;" x="553.057558" xlink:href="#md663cc74a4" y="243.564891"/>
     <use style="fill:#008000;stroke:#ffffff;stroke-width:0.75;" x="442.163969" xlink:href="#md663cc74a4" y="228.969349"/>
    </g>
   </g>
   <g id="patch_3">
    <path d="M 58.723594 475.641262 
L 58.723594 26.084062 
" style="fill:none;stroke:#cccccc;stroke-linecap:square;stroke-linejoin:miter;stroke-width:1.875;"/>
   </g>
   <g id="patch_4">
    <path d="M 839.923594 475.641262 
L 839.923594 26.084062 
" style="fill:none;stroke:#cccccc;stroke-linecap:square;stroke-linejoin:miter;stroke-width:1.875;"/>
   </g>
   <g id="patch_5">
    <path d="M 58.723594 475.641262 
L 839.923594 475.641262 
" style="fill:none;stroke:#cccccc;stroke-linecap:square;stroke-linejoin:miter;stroke-width:1.875;"/>
   </g>
   <g id="patch_6">
    <path d="M 58.723594 26.084062 
L 839.923594 26.084062 
" style="fill:none;stroke:#cccccc;stroke-linecap:square;stroke-linejoin:miter;stroke-width:1.875;"/>
   </g>
   <g id="text_19">
    <!-- Prediction vs. Actual -->
    <defs>
     <path d="M 3.328125 25.921875 
Q 3.328125 40.328125 11.328125 47.265625 
Q 18.015625 53.03125 27.640625 53.03125 
Q 38.328125 53.03125 45.109375 46.015625 
Q 51.90625 39.015625 51.90625 26.65625 
Q 51.90625 16.65625 48.90625 10.90625 
Q 45.90625 5.171875 40.15625 2 
Q 34.421875 -1.171875 27.640625 -1.171875 
Q 16.75 -1.171875 10.03125 5.8125 
Q 3.328125 12.796875 3.328125 25.921875 
z
M 12.359375 25.921875 
Q 12.359375 15.96875 16.703125 11.015625 
Q 21.046875 6.0625 27.640625 6.0625 
Q 34.1875 6.0625 38.53125 11.03125 
Q 42.875 16.015625 42.875 26.21875 
Q 42.875 35.84375 38.5 40.796875 
Q 34.125 45.75 27.640625 45.75 
Q 21.046875 45.75 16.703125 40.8125 
Q 12.359375 35.890625 12.359375 25.921875 
z
" id="ArialMT-111"/>
     <path d="M 21 0 
L 1.265625 51.859375 
L 10.546875 51.859375 
L 21.6875 20.796875 
Q 23.484375 15.765625 25 10.359375 
Q 26.171875 14.453125 28.265625 20.21875 
L 39.796875 51.859375 
L 48.828125 51.859375 
L 29.203125 0 
z
" id="ArialMT-118"/>
     <path d="M 3.078125 15.484375 
L 11.765625 16.84375 
Q 12.5 11.625 15.84375 8.84375 
Q 19.1875 6.0625 25.203125 6.0625 
Q 31.25 6.0625 34.171875 8.515625 
Q 37.109375 10.984375 37.109375 14.3125 
Q 37.109375 17.28125 34.515625 19 
Q 32.71875 20.171875 25.53125 21.96875 
Q 15.875 24.421875 12.140625 26.203125 
Q 8.40625 27.984375 6.46875 31.125 
Q 4.546875 34.28125 4.546875 38.09375 
Q 4.546875 41.546875 6.125 44.5 
Q 7.71875 47.46875 10.453125 49.421875 
Q 12.5 50.921875 16.03125 51.96875 
Q 19.578125 53.03125 23.640625 53.03125 
Q 29.734375 53.03125 34.34375 51.265625 
Q 38.96875 49.515625 41.15625 46.5 
Q 43.359375 43.5 44.1875 38.484375 
L 35.59375 37.3125 
Q 35.015625 41.3125 32.203125 43.546875 
Q 29.390625 45.796875 24.265625 45.796875 
Q 18.21875 45.796875 15.625 43.796875 
Q 13.03125 41.796875 13.03125 39.109375 
Q 13.03125 37.40625 14.109375 36.03125 
Q 15.1875 34.625 17.484375 33.6875 
Q 18.796875 33.203125 25.25 31.453125 
Q 34.578125 28.953125 38.25 27.359375 
Q 41.9375 25.78125 44.03125 22.75 
Q 46.140625 19.734375 46.140625 15.234375 
Q 46.140625 10.84375 43.578125 6.953125 
Q 41.015625 3.078125 36.171875 0.953125 
Q 31.34375 -1.171875 25.25 -1.171875 
Q 15.140625 -1.171875 9.84375 3.03125 
Q 4.546875 7.234375 3.078125 15.484375 
z
" id="ArialMT-115"/>
     <path d="M 9.078125 0 
L 9.078125 10.015625 
L 19.09375 10.015625 
L 19.09375 0 
z
" id="ArialMT-46"/>
    </defs>
    <g style="fill:#262626;" transform="translate(367.797656 20.084062)scale(0.18 -0.18)">
     <use xlink:href="#ArialMT-80"/>
     <use x="66.699219" xlink:href="#ArialMT-114"/>
     <use x="100" xlink:href="#ArialMT-101"/>
     <use x="155.615234" xlink:href="#ArialMT-100"/>
     <use x="211.230469" xlink:href="#ArialMT-105"/>
     <use x="233.447266" xlink:href="#ArialMT-99"/>
     <use x="283.447266" xlink:href="#ArialMT-116"/>
     <use x="311.230469" xlink:href="#ArialMT-105"/>
     <use x="333.447266" xlink:href="#ArialMT-111"/>
     <use x="389.0625" xlink:href="#ArialMT-110"/>
     <use x="444.677734" xlink:href="#ArialMT-32"/>
     <use x="472.460938" xlink:href="#ArialMT-118"/>
     <use x="522.460938" xlink:href="#ArialMT-115"/>
     <use x="572.460938" xlink:href="#ArialMT-46"/>
     <use x="600.244141" xlink:href="#ArialMT-32"/>
     <use x="627.949219" xlink:href="#ArialMT-65"/>
     <use x="694.648438" xlink:href="#ArialMT-99"/>
     <use x="744.648438" xlink:href="#ArialMT-116"/>
     <use x="772.431641" xlink:href="#ArialMT-117"/>
     <use x="828.046875" xlink:href="#ArialMT-97"/>
     <use x="883.662109" xlink:href="#ArialMT-108"/>
    </g>
   </g>
  </g>
 </g>
 <defs>
  <clipPath id="p76cfd9da20">
   <rect height="449.5572" width="781.2" x="58.723594" y="26.084062"/>
  </clipPath>
 </defs>
</svg>
