<?xml version="1.0" encoding="utf-8" standalone="no"?>
<!DOCTYPE svg PUBLIC "-//W3C//DTD SVG 1.1//EN"
  "http://www.w3.org/Graphics/SVG/1.1/DTD/svg11.dtd">
<!-- Created with matplotlib (https://matplotlib.org/) -->
<svg height="531.123216pt" version="1.1" viewBox="0 0 737.209687 531.123216" width="737.209687pt" xmlns="http://www.w3.org/2000/svg" xmlns:xlink="http://www.w3.org/1999/xlink">
 <defs>
  <style type="text/css">
*{stroke-linecap:butt;stroke-linejoin:round;}
  </style>
 </defs>
 <g id="figure_1">
  <g id="patch_1">
   <path d="M 0 531.123216 
L 737.209687 531.123216 
L 737.209687 -0 
L 0 -0 
z
" style="fill:#ffffff;"/>
  </g>
  <g id="axes_1">
   <g id="patch_2">
    <path d="M 68.149687 475.871887 
L 721.009687 475.871887 
L 721.009687 26.314687 
L 68.149687 26.314687 
z
" style="fill:#ffffff;"/>
   </g>
   <g id="matplotlib.axis_1">
    <g id="xtick_1">
     <g id="line2d_1">
      <path clip-path="url(#p0ff53afa6b)" d="M 158.272642 475.871887 
L 158.272642 26.314687 
" style="fill:none;stroke:#cccccc;stroke-linecap:round;stroke-width:1.5;"/>
     </g>
     <g id="text_1">
      <!-- −2 -->
      <defs>
       <path d="M 52.828125 31.203125 
L 5.5625 31.203125 
L 5.5625 39.40625 
L 52.828125 39.40625 
z
" id="ArialMT-8722"/>
       <path d="M 50.34375 8.453125 
L 50.34375 0 
L 3.03125 0 
Q 2.9375 3.171875 4.046875 6.109375 
Q 5.859375 10.9375 9.828125 15.625 
Q 13.8125 20.3125 21.34375 26.46875 
Q 33.015625 36.03125 37.109375 41.625 
Q 41.21875 47.21875 41.21875 52.203125 
Q 41.21875 57.421875 37.46875 61 
Q 33.734375 64.59375 27.734375 64.59375 
Q 21.390625 64.59375 17.578125 60.78125 
Q 13.765625 56.984375 13.71875 50.25 
L 4.6875 51.171875 
Q 5.609375 61.28125 11.65625 66.578125 
Q 17.71875 71.875 27.9375 71.875 
Q 38.234375 71.875 44.234375 66.15625 
Q 50.25 60.453125 50.25 52 
Q 50.25 47.703125 48.484375 43.546875 
Q 46.734375 39.40625 42.65625 34.8125 
Q 38.578125 30.21875 29.109375 22.21875 
Q 21.1875 15.578125 18.9375 13.203125 
Q 16.703125 10.84375 15.234375 8.453125 
z
" id="ArialMT-50"/>
      </defs>
      <g style="fill:#262626;" transform="translate(148.866353 500.182278)scale(0.165 -0.165)">
       <use xlink:href="#ArialMT-8722"/>
       <use x="58.398438" xlink:href="#ArialMT-50"/>
      </g>
     </g>
    </g>
    <g id="xtick_2">
     <g id="line2d_2">
      <path clip-path="url(#p0ff53afa6b)" d="M 276.426165 475.871887 
L 276.426165 26.314687 
" style="fill:none;stroke:#cccccc;stroke-linecap:round;stroke-width:1.5;"/>
     </g>
     <g id="text_2">
      <!-- −1 -->
      <defs>
       <path d="M 37.25 0 
L 28.46875 0 
L 28.46875 56 
Q 25.296875 52.984375 20.140625 49.953125 
Q 14.984375 46.921875 10.890625 45.40625 
L 10.890625 53.90625 
Q 18.265625 57.375 23.78125 62.296875 
Q 29.296875 67.234375 31.59375 71.875 
L 37.25 71.875 
z
" id="ArialMT-49"/>
      </defs>
      <g style="fill:#262626;" transform="translate(267.019876 500.182278)scale(0.165 -0.165)">
       <use xlink:href="#ArialMT-8722"/>
       <use x="58.398438" xlink:href="#ArialMT-49"/>
      </g>
     </g>
    </g>
    <g id="xtick_3">
     <g id="line2d_3">
      <path clip-path="url(#p0ff53afa6b)" d="M 394.579687 475.871887 
L 394.579687 26.314687 
" style="fill:none;stroke:#cccccc;stroke-linecap:round;stroke-width:1.5;"/>
     </g>
     <g id="text_3">
      <!-- 0 -->
      <defs>
       <path d="M 4.15625 35.296875 
Q 4.15625 48 6.765625 55.734375 
Q 9.375 63.484375 14.515625 67.671875 
Q 19.671875 71.875 27.484375 71.875 
Q 33.25 71.875 37.59375 69.546875 
Q 41.9375 67.234375 44.765625 62.859375 
Q 47.609375 58.5 49.21875 52.21875 
Q 50.828125 45.953125 50.828125 35.296875 
Q 50.828125 22.703125 48.234375 14.96875 
Q 45.65625 7.234375 40.5 3 
Q 35.359375 -1.21875 27.484375 -1.21875 
Q 17.140625 -1.21875 11.234375 6.203125 
Q 4.15625 15.140625 4.15625 35.296875 
z
M 13.1875 35.296875 
Q 13.1875 17.671875 17.3125 11.828125 
Q 21.4375 6 27.484375 6 
Q 33.546875 6 37.671875 11.859375 
Q 41.796875 17.71875 41.796875 35.296875 
Q 41.796875 52.984375 37.671875 58.78125 
Q 33.546875 64.59375 27.390625 64.59375 
Q 21.34375 64.59375 17.71875 59.46875 
Q 13.1875 52.9375 13.1875 35.296875 
z
" id="ArialMT-48"/>
      </defs>
      <g style="fill:#262626;" transform="translate(389.991914 500.182278)scale(0.165 -0.165)">
       <use xlink:href="#ArialMT-48"/>
      </g>
     </g>
    </g>
    <g id="xtick_4">
     <g id="line2d_4">
      <path clip-path="url(#p0ff53afa6b)" d="M 512.73321 475.871887 
L 512.73321 26.314687 
" style="fill:none;stroke:#cccccc;stroke-linecap:round;stroke-width:1.5;"/>
     </g>
     <g id="text_4">
      <!-- 1 -->
      <g style="fill:#262626;" transform="translate(508.145437 500.182278)scale(0.165 -0.165)">
       <use xlink:href="#ArialMT-49"/>
      </g>
     </g>
    </g>
    <g id="xtick_5">
     <g id="line2d_5">
      <path clip-path="url(#p0ff53afa6b)" d="M 630.886733 475.871887 
L 630.886733 26.314687 
" style="fill:none;stroke:#cccccc;stroke-linecap:round;stroke-width:1.5;"/>
     </g>
     <g id="text_5">
      <!-- 2 -->
      <g style="fill:#262626;" transform="translate(626.298959 500.182278)scale(0.165 -0.165)">
       <use xlink:href="#ArialMT-50"/>
      </g>
     </g>
    </g>
    <g id="text_6">
     <!-- Theoretical quantiles -->
     <defs>
      <path d="M 25.921875 0 
L 25.921875 63.140625 
L 2.34375 63.140625 
L 2.34375 71.578125 
L 59.078125 71.578125 
L 59.078125 63.140625 
L 35.40625 63.140625 
L 35.40625 0 
z
" id="ArialMT-84"/>
      <path d="M 6.59375 0 
L 6.59375 71.578125 
L 15.375 71.578125 
L 15.375 45.90625 
Q 21.53125 53.03125 30.90625 53.03125 
Q 36.671875 53.03125 40.921875 50.75 
Q 45.171875 48.484375 47 44.484375 
Q 48.828125 40.484375 48.828125 32.859375 
L 48.828125 0 
L 40.046875 0 
L 40.046875 32.859375 
Q 40.046875 39.453125 37.1875 42.453125 
Q 34.328125 45.453125 29.109375 45.453125 
Q 25.203125 45.453125 21.75 43.421875 
Q 18.3125 41.40625 16.84375 37.9375 
Q 15.375 34.46875 15.375 28.375 
L 15.375 0 
z
" id="ArialMT-104"/>
      <path d="M 42.09375 16.703125 
L 51.171875 15.578125 
Q 49.03125 7.625 43.21875 3.21875 
Q 37.40625 -1.171875 28.375 -1.171875 
Q 17 -1.171875 10.328125 5.828125 
Q 3.65625 12.84375 3.65625 25.484375 
Q 3.65625 38.578125 10.390625 45.796875 
Q 17.140625 53.03125 27.875 53.03125 
Q 38.28125 53.03125 44.875 45.953125 
Q 51.46875 38.875 51.46875 26.03125 
Q 51.46875 25.25 51.421875 23.6875 
L 12.75 23.6875 
Q 13.234375 15.140625 17.578125 10.59375 
Q 21.921875 6.0625 28.421875 6.0625 
Q 33.25 6.0625 36.671875 8.59375 
Q 40.09375 11.140625 42.09375 16.703125 
z
M 13.234375 30.90625 
L 42.1875 30.90625 
Q 41.609375 37.453125 38.875 40.71875 
Q 34.671875 45.796875 27.984375 45.796875 
Q 21.921875 45.796875 17.796875 41.75 
Q 13.671875 37.703125 13.234375 30.90625 
z
" id="ArialMT-101"/>
      <path d="M 3.328125 25.921875 
Q 3.328125 40.328125 11.328125 47.265625 
Q 18.015625 53.03125 27.640625 53.03125 
Q 38.328125 53.03125 45.109375 46.015625 
Q 51.90625 39.015625 51.90625 26.65625 
Q 51.90625 16.65625 48.90625 10.90625 
Q 45.90625 5.171875 40.15625 2 
Q 34.421875 -1.171875 27.640625 -1.171875 
Q 16.75 -1.171875 10.03125 5.8125 
Q 3.328125 12.796875 3.328125 25.921875 
z
M 12.359375 25.921875 
Q 12.359375 15.96875 16.703125 11.015625 
Q 21.046875 6.0625 27.640625 6.0625 
Q 34.1875 6.0625 38.53125 11.03125 
Q 42.875 16.015625 42.875 26.21875 
Q 42.875 35.84375 38.5 40.796875 
Q 34.125 45.75 27.640625 45.75 
Q 21.046875 45.75 16.703125 40.8125 
Q 12.359375 35.890625 12.359375 25.921875 
z
" id="ArialMT-111"/>
      <path d="M 6.5 0 
L 6.5 51.859375 
L 14.40625 51.859375 
L 14.40625 44 
Q 17.4375 49.515625 20 51.265625 
Q 22.5625 53.03125 25.640625 53.03125 
Q 30.078125 53.03125 34.671875 50.203125 
L 31.640625 42.046875 
Q 28.421875 43.953125 25.203125 43.953125 
Q 22.3125 43.953125 20.015625 42.21875 
Q 17.71875 40.484375 16.75 37.40625 
Q 15.28125 32.71875 15.28125 27.15625 
L 15.28125 0 
z
" id="ArialMT-114"/>
      <path d="M 25.78125 7.859375 
L 27.046875 0.09375 
Q 23.34375 -0.6875 20.40625 -0.6875 
Q 15.625 -0.6875 12.984375 0.828125 
Q 10.359375 2.34375 9.28125 4.8125 
Q 8.203125 7.28125 8.203125 15.1875 
L 8.203125 45.015625 
L 1.765625 45.015625 
L 1.765625 51.859375 
L 8.203125 51.859375 
L 8.203125 64.703125 
L 16.9375 69.96875 
L 16.9375 51.859375 
L 25.78125 51.859375 
L 25.78125 45.015625 
L 16.9375 45.015625 
L 16.9375 14.703125 
Q 16.9375 10.9375 17.40625 9.859375 
Q 17.875 8.796875 18.921875 8.15625 
Q 19.96875 7.515625 21.921875 7.515625 
Q 23.390625 7.515625 25.78125 7.859375 
z
" id="ArialMT-116"/>
      <path d="M 6.640625 61.46875 
L 6.640625 71.578125 
L 15.4375 71.578125 
L 15.4375 61.46875 
z
M 6.640625 0 
L 6.640625 51.859375 
L 15.4375 51.859375 
L 15.4375 0 
z
" id="ArialMT-105"/>
      <path d="M 40.4375 19 
L 49.078125 17.875 
Q 47.65625 8.9375 41.8125 3.875 
Q 35.984375 -1.171875 27.484375 -1.171875 
Q 16.84375 -1.171875 10.375 5.78125 
Q 3.90625 12.75 3.90625 25.734375 
Q 3.90625 34.125 6.6875 40.421875 
Q 9.46875 46.734375 15.15625 49.875 
Q 20.84375 53.03125 27.546875 53.03125 
Q 35.984375 53.03125 41.359375 48.75 
Q 46.734375 44.484375 48.25 36.625 
L 39.703125 35.296875 
Q 38.484375 40.53125 35.375 43.15625 
Q 32.28125 45.796875 27.875 45.796875 
Q 21.234375 45.796875 17.078125 41.03125 
Q 12.9375 36.28125 12.9375 25.984375 
Q 12.9375 15.53125 16.9375 10.796875 
Q 20.953125 6.0625 27.390625 6.0625 
Q 32.5625 6.0625 36.03125 9.234375 
Q 39.5 12.40625 40.4375 19 
z
" id="ArialMT-99"/>
      <path d="M 40.4375 6.390625 
Q 35.546875 2.25 31.03125 0.53125 
Q 26.515625 -1.171875 21.34375 -1.171875 
Q 12.796875 -1.171875 8.203125 3 
Q 3.609375 7.171875 3.609375 13.671875 
Q 3.609375 17.484375 5.34375 20.625 
Q 7.078125 23.78125 9.890625 25.6875 
Q 12.703125 27.59375 16.21875 28.5625 
Q 18.796875 29.25 24.03125 29.890625 
Q 34.671875 31.15625 39.703125 32.90625 
Q 39.75 34.71875 39.75 35.203125 
Q 39.75 40.578125 37.25 42.78125 
Q 33.890625 45.75 27.25 45.75 
Q 21.046875 45.75 18.09375 43.578125 
Q 15.140625 41.40625 13.71875 35.890625 
L 5.125 37.0625 
Q 6.296875 42.578125 8.984375 45.96875 
Q 11.671875 49.359375 16.75 51.1875 
Q 21.828125 53.03125 28.515625 53.03125 
Q 35.15625 53.03125 39.296875 51.46875 
Q 43.453125 49.90625 45.40625 47.53125 
Q 47.359375 45.171875 48.140625 41.546875 
Q 48.578125 39.3125 48.578125 33.453125 
L 48.578125 21.734375 
Q 48.578125 9.46875 49.140625 6.21875 
Q 49.703125 2.984375 51.375 0 
L 42.1875 0 
Q 40.828125 2.734375 40.4375 6.390625 
z
M 39.703125 26.03125 
Q 34.90625 24.078125 25.34375 22.703125 
Q 19.921875 21.921875 17.671875 20.9375 
Q 15.4375 19.96875 14.203125 18.09375 
Q 12.984375 16.21875 12.984375 13.921875 
Q 12.984375 10.40625 15.640625 8.0625 
Q 18.3125 5.71875 23.4375 5.71875 
Q 28.515625 5.71875 32.46875 7.9375 
Q 36.421875 10.15625 38.28125 14.015625 
Q 39.703125 17 39.703125 22.796875 
z
" id="ArialMT-97"/>
      <path d="M 6.390625 0 
L 6.390625 71.578125 
L 15.1875 71.578125 
L 15.1875 0 
z
" id="ArialMT-108"/>
      <path id="ArialMT-32"/>
      <path d="M 39.65625 -19.875 
L 39.65625 5.515625 
Q 37.59375 2.640625 33.90625 0.734375 
Q 30.21875 -1.171875 26.078125 -1.171875 
Q 16.84375 -1.171875 10.171875 6.203125 
Q 3.515625 13.578125 3.515625 26.421875 
Q 3.515625 34.234375 6.21875 40.421875 
Q 8.9375 46.625 14.078125 49.828125 
Q 19.234375 53.03125 25.390625 53.03125 
Q 35.015625 53.03125 40.53125 44.921875 
L 40.53125 51.859375 
L 48.4375 51.859375 
L 48.4375 -19.875 
z
M 12.546875 26.078125 
Q 12.546875 16.0625 16.75 11.0625 
Q 20.953125 6.0625 26.8125 6.0625 
Q 32.421875 6.0625 36.46875 10.8125 
Q 40.53125 15.578125 40.53125 25.296875 
Q 40.53125 35.640625 36.25 40.859375 
Q 31.984375 46.09375 26.21875 46.09375 
Q 20.515625 46.09375 16.53125 41.234375 
Q 12.546875 36.375 12.546875 26.078125 
z
" id="ArialMT-113"/>
      <path d="M 40.578125 0 
L 40.578125 7.625 
Q 34.515625 -1.171875 24.125 -1.171875 
Q 19.53125 -1.171875 15.546875 0.578125 
Q 11.578125 2.34375 9.640625 5 
Q 7.71875 7.671875 6.9375 11.53125 
Q 6.390625 14.109375 6.390625 19.734375 
L 6.390625 51.859375 
L 15.1875 51.859375 
L 15.1875 23.09375 
Q 15.1875 16.21875 15.71875 13.8125 
Q 16.546875 10.359375 19.234375 8.375 
Q 21.921875 6.390625 25.875 6.390625 
Q 29.828125 6.390625 33.296875 8.421875 
Q 36.765625 10.453125 38.203125 13.9375 
Q 39.65625 17.4375 39.65625 24.078125 
L 39.65625 51.859375 
L 48.4375 51.859375 
L 48.4375 0 
z
" id="ArialMT-117"/>
      <path d="M 6.59375 0 
L 6.59375 51.859375 
L 14.5 51.859375 
L 14.5 44.484375 
Q 20.21875 53.03125 31 53.03125 
Q 35.6875 53.03125 39.625 51.34375 
Q 43.5625 49.65625 45.515625 46.921875 
Q 47.46875 44.1875 48.25 40.4375 
Q 48.734375 37.984375 48.734375 31.890625 
L 48.734375 0 
L 39.9375 0 
L 39.9375 31.546875 
Q 39.9375 36.921875 38.90625 39.578125 
Q 37.890625 42.234375 35.28125 43.8125 
Q 32.671875 45.40625 29.15625 45.40625 
Q 23.53125 45.40625 19.453125 41.84375 
Q 15.375 38.28125 15.375 28.328125 
L 15.375 0 
z
" id="ArialMT-110"/>
      <path d="M 3.078125 15.484375 
L 11.765625 16.84375 
Q 12.5 11.625 15.84375 8.84375 
Q 19.1875 6.0625 25.203125 6.0625 
Q 31.25 6.0625 34.171875 8.515625 
Q 37.109375 10.984375 37.109375 14.3125 
Q 37.109375 17.28125 34.515625 19 
Q 32.71875 20.171875 25.53125 21.96875 
Q 15.875 24.421875 12.140625 26.203125 
Q 8.40625 27.984375 6.46875 31.125 
Q 4.546875 34.28125 4.546875 38.09375 
Q 4.546875 41.546875 6.125 44.5 
Q 7.71875 47.46875 10.453125 49.421875 
Q 12.5 50.921875 16.03125 51.96875 
Q 19.578125 53.03125 23.640625 53.03125 
Q 29.734375 53.03125 34.34375 51.265625 
Q 38.96875 49.515625 41.15625 46.5 
Q 43.359375 43.5 44.1875 38.484375 
L 35.59375 37.3125 
Q 35.015625 41.3125 32.203125 43.546875 
Q 29.390625 45.796875 24.265625 45.796875 
Q 18.21875 45.796875 15.625 43.796875 
Q 13.03125 41.796875 13.03125 39.109375 
Q 13.03125 37.40625 14.109375 36.03125 
Q 15.1875 34.625 17.484375 33.6875 
Q 18.796875 33.203125 25.25 31.453125 
Q 34.578125 28.953125 38.25 27.359375 
Q 41.9375 25.78125 44.03125 22.75 
Q 46.140625 19.734375 46.140625 15.234375 
Q 46.140625 10.84375 43.578125 6.953125 
Q 41.015625 3.078125 36.171875 0.953125 
Q 31.34375 -1.171875 25.25 -1.171875 
Q 15.140625 -1.171875 9.84375 3.03125 
Q 4.546875 7.234375 3.078125 15.484375 
z
" id="ArialMT-115"/>
     </defs>
     <g style="fill:#262626;" transform="translate(311.537812 520.345716)scale(0.18 -0.18)">
      <use xlink:href="#ArialMT-84"/>
      <use x="61.083984" xlink:href="#ArialMT-104"/>
      <use x="116.699219" xlink:href="#ArialMT-101"/>
      <use x="172.314453" xlink:href="#ArialMT-111"/>
      <use x="227.929688" xlink:href="#ArialMT-114"/>
      <use x="261.230469" xlink:href="#ArialMT-101"/>
      <use x="316.845703" xlink:href="#ArialMT-116"/>
      <use x="344.628906" xlink:href="#ArialMT-105"/>
      <use x="366.845703" xlink:href="#ArialMT-99"/>
      <use x="416.845703" xlink:href="#ArialMT-97"/>
      <use x="472.460938" xlink:href="#ArialMT-108"/>
      <use x="494.677734" xlink:href="#ArialMT-32"/>
      <use x="522.460938" xlink:href="#ArialMT-113"/>
      <use x="578.076172" xlink:href="#ArialMT-117"/>
      <use x="633.691406" xlink:href="#ArialMT-97"/>
      <use x="689.306641" xlink:href="#ArialMT-110"/>
      <use x="744.921875" xlink:href="#ArialMT-116"/>
      <use x="772.705078" xlink:href="#ArialMT-105"/>
      <use x="794.921875" xlink:href="#ArialMT-108"/>
      <use x="817.138672" xlink:href="#ArialMT-101"/>
      <use x="872.753906" xlink:href="#ArialMT-115"/>
     </g>
    </g>
   </g>
   <g id="matplotlib.axis_2">
    <g id="ytick_1">
     <g id="line2d_6">
      <path clip-path="url(#p0ff53afa6b)" d="M 68.149687 461.293002 
L 721.009687 461.293002 
" style="fill:none;stroke:#cccccc;stroke-linecap:round;stroke-width:1.5;"/>
     </g>
     <g id="text_7">
      <!-- −20 -->
      <g style="fill:#262626;" transform="translate(27.661562 467.198198)scale(0.165 -0.165)">
       <use xlink:href="#ArialMT-8722"/>
       <use x="58.398438" xlink:href="#ArialMT-50"/>
       <use x="114.013672" xlink:href="#ArialMT-48"/>
      </g>
     </g>
    </g>
    <g id="ytick_2">
     <g id="line2d_7">
      <path clip-path="url(#p0ff53afa6b)" d="M 68.149687 400.686638 
L 721.009687 400.686638 
" style="fill:none;stroke:#cccccc;stroke-linecap:round;stroke-width:1.5;"/>
     </g>
     <g id="text_8">
      <!-- −15 -->
      <defs>
       <path d="M 4.15625 18.75 
L 13.375 19.53125 
Q 14.40625 12.796875 18.140625 9.390625 
Q 21.875 6 27.15625 6 
Q 33.5 6 37.890625 10.78125 
Q 42.28125 15.578125 42.28125 23.484375 
Q 42.28125 31 38.0625 35.34375 
Q 33.84375 39.703125 27 39.703125 
Q 22.75 39.703125 19.328125 37.765625 
Q 15.921875 35.84375 13.96875 32.765625 
L 5.71875 33.84375 
L 12.640625 70.609375 
L 48.25 70.609375 
L 48.25 62.203125 
L 19.671875 62.203125 
L 15.828125 42.96875 
Q 22.265625 47.46875 29.34375 47.46875 
Q 38.71875 47.46875 45.15625 40.96875 
Q 51.609375 34.46875 51.609375 24.265625 
Q 51.609375 14.546875 45.953125 7.46875 
Q 39.0625 -1.21875 27.15625 -1.21875 
Q 17.390625 -1.21875 11.203125 4.25 
Q 5.03125 9.71875 4.15625 18.75 
z
" id="ArialMT-53"/>
      </defs>
      <g style="fill:#262626;" transform="translate(27.661562 406.591833)scale(0.165 -0.165)">
       <use xlink:href="#ArialMT-8722"/>
       <use x="58.398438" xlink:href="#ArialMT-49"/>
       <use x="114.013672" xlink:href="#ArialMT-53"/>
      </g>
     </g>
    </g>
    <g id="ytick_3">
     <g id="line2d_8">
      <path clip-path="url(#p0ff53afa6b)" d="M 68.149687 340.080274 
L 721.009687 340.080274 
" style="fill:none;stroke:#cccccc;stroke-linecap:round;stroke-width:1.5;"/>
     </g>
     <g id="text_9">
      <!-- −10 -->
      <g style="fill:#262626;" transform="translate(27.661562 345.985469)scale(0.165 -0.165)">
       <use xlink:href="#ArialMT-8722"/>
       <use x="58.398438" xlink:href="#ArialMT-49"/>
       <use x="114.013672" xlink:href="#ArialMT-48"/>
      </g>
     </g>
    </g>
    <g id="ytick_4">
     <g id="line2d_9">
      <path clip-path="url(#p0ff53afa6b)" d="M 68.149687 279.47391 
L 721.009687 279.47391 
" style="fill:none;stroke:#cccccc;stroke-linecap:round;stroke-width:1.5;"/>
     </g>
     <g id="text_10">
      <!-- −5 -->
      <g style="fill:#262626;" transform="translate(36.837109 285.379105)scale(0.165 -0.165)">
       <use xlink:href="#ArialMT-8722"/>
       <use x="58.398438" xlink:href="#ArialMT-53"/>
      </g>
     </g>
    </g>
    <g id="ytick_5">
     <g id="line2d_10">
      <path clip-path="url(#p0ff53afa6b)" d="M 68.149687 218.867545 
L 721.009687 218.867545 
" style="fill:none;stroke:#cccccc;stroke-linecap:round;stroke-width:1.5;"/>
     </g>
     <g id="text_11">
      <!-- 0 -->
      <g style="fill:#262626;" transform="translate(46.474141 224.772741)scale(0.165 -0.165)">
       <use xlink:href="#ArialMT-48"/>
      </g>
     </g>
    </g>
    <g id="ytick_6">
     <g id="line2d_11">
      <path clip-path="url(#p0ff53afa6b)" d="M 68.149687 158.261181 
L 721.009687 158.261181 
" style="fill:none;stroke:#cccccc;stroke-linecap:round;stroke-width:1.5;"/>
     </g>
     <g id="text_12">
      <!-- 5 -->
      <g style="fill:#262626;" transform="translate(46.474141 164.166376)scale(0.165 -0.165)">
       <use xlink:href="#ArialMT-53"/>
      </g>
     </g>
    </g>
    <g id="ytick_7">
     <g id="line2d_12">
      <path clip-path="url(#p0ff53afa6b)" d="M 68.149687 97.654817 
L 721.009687 97.654817 
" style="fill:none;stroke:#cccccc;stroke-linecap:round;stroke-width:1.5;"/>
     </g>
     <g id="text_13">
      <!-- 10 -->
      <g style="fill:#262626;" transform="translate(37.298594 103.560012)scale(0.165 -0.165)">
       <use xlink:href="#ArialMT-49"/>
       <use x="55.615234" xlink:href="#ArialMT-48"/>
      </g>
     </g>
    </g>
    <g id="ytick_8">
     <g id="line2d_13">
      <path clip-path="url(#p0ff53afa6b)" d="M 68.149687 37.048452 
L 721.009687 37.048452 
" style="fill:none;stroke:#cccccc;stroke-linecap:round;stroke-width:1.5;"/>
     </g>
     <g id="text_14">
      <!-- 15 -->
      <g style="fill:#262626;" transform="translate(37.298594 42.953648)scale(0.165 -0.165)">
       <use xlink:href="#ArialMT-49"/>
       <use x="55.615234" xlink:href="#ArialMT-53"/>
      </g>
     </g>
    </g>
    <g id="text_15">
     <!-- Ordered Values -->
     <defs>
      <path d="M 4.828125 34.859375 
Q 4.828125 52.6875 14.390625 62.765625 
Q 23.96875 72.859375 39.109375 72.859375 
Q 49.03125 72.859375 56.984375 68.109375 
Q 64.9375 63.375 69.109375 54.90625 
Q 73.296875 46.4375 73.296875 35.6875 
Q 73.296875 24.8125 68.890625 16.21875 
Q 64.5 7.625 56.4375 3.203125 
Q 48.390625 -1.21875 39.0625 -1.21875 
Q 28.953125 -1.21875 20.984375 3.65625 
Q 13.03125 8.546875 8.921875 16.984375 
Q 4.828125 25.4375 4.828125 34.859375 
z
M 14.59375 34.71875 
Q 14.59375 21.78125 21.546875 14.328125 
Q 28.515625 6.890625 39.015625 6.890625 
Q 49.703125 6.890625 56.609375 14.40625 
Q 63.53125 21.921875 63.53125 35.75 
Q 63.53125 44.484375 60.578125 51 
Q 57.625 57.515625 51.921875 61.109375 
Q 46.234375 64.703125 39.15625 64.703125 
Q 29.109375 64.703125 21.84375 57.78125 
Q 14.59375 50.875 14.59375 34.71875 
z
" id="ArialMT-79"/>
      <path d="M 40.234375 0 
L 40.234375 6.546875 
Q 35.296875 -1.171875 25.734375 -1.171875 
Q 19.53125 -1.171875 14.328125 2.25 
Q 9.125 5.671875 6.265625 11.796875 
Q 3.421875 17.921875 3.421875 25.875 
Q 3.421875 33.640625 6 39.96875 
Q 8.59375 46.296875 13.765625 49.65625 
Q 18.953125 53.03125 25.34375 53.03125 
Q 30.03125 53.03125 33.6875 51.046875 
Q 37.359375 49.078125 39.65625 45.90625 
L 39.65625 71.578125 
L 48.390625 71.578125 
L 48.390625 0 
z
M 12.453125 25.875 
Q 12.453125 15.921875 16.640625 10.984375 
Q 20.84375 6.0625 26.5625 6.0625 
Q 32.328125 6.0625 36.34375 10.765625 
Q 40.375 15.484375 40.375 25.140625 
Q 40.375 35.796875 36.265625 40.765625 
Q 32.171875 45.75 26.171875 45.75 
Q 20.3125 45.75 16.375 40.96875 
Q 12.453125 36.1875 12.453125 25.875 
z
" id="ArialMT-100"/>
      <path d="M 28.171875 0 
L 0.4375 71.578125 
L 10.6875 71.578125 
L 29.296875 19.578125 
Q 31.546875 13.328125 33.0625 7.859375 
Q 34.71875 13.71875 36.921875 19.578125 
L 56.25 71.578125 
L 65.921875 71.578125 
L 37.890625 0 
z
" id="ArialMT-86"/>
     </defs>
     <g style="fill:#262626;" transform="translate(20.084062 314.114381)rotate(-90)scale(0.18 -0.18)">
      <use xlink:href="#ArialMT-79"/>
      <use x="77.783203" xlink:href="#ArialMT-114"/>
      <use x="111.083984" xlink:href="#ArialMT-100"/>
      <use x="166.699219" xlink:href="#ArialMT-101"/>
      <use x="222.314453" xlink:href="#ArialMT-114"/>
      <use x="255.615234" xlink:href="#ArialMT-101"/>
      <use x="311.230469" xlink:href="#ArialMT-100"/>
      <use x="366.845703" xlink:href="#ArialMT-32"/>
      <use x="394.628906" xlink:href="#ArialMT-86"/>
      <use x="461.21875" xlink:href="#ArialMT-97"/>
      <use x="516.833984" xlink:href="#ArialMT-108"/>
      <use x="539.050781" xlink:href="#ArialMT-117"/>
      <use x="594.666016" xlink:href="#ArialMT-101"/>
      <use x="650.28125" xlink:href="#ArialMT-115"/>
     </g>
    </g>
   </g>
   <g id="line2d_14">
    <defs>
     <path d="M 0 4.5 
C 1.193414 4.5 2.338109 4.025852 3.181981 3.181981 
C 4.025852 2.338109 4.5 1.193414 4.5 0 
C 4.5 -1.193414 4.025852 -2.338109 3.181981 -3.181981 
C 2.338109 -4.025852 1.193414 -4.5 0 -4.5 
C -1.193414 -4.5 -2.338109 -4.025852 -3.181981 -3.181981 
C -4.025852 -2.338109 -4.5 -1.193414 -4.5 0 
C -4.5 1.193414 -4.025852 2.338109 -3.181981 3.181981 
C -2.338109 4.025852 -1.193414 4.5 0 4.5 
z
" id="mfa9efe82f8" style="stroke:#0000ff;"/>
    </defs>
    <g clip-path="url(#p0ff53afa6b)">
     <use style="fill:#0000ff;stroke:#0000ff;" x="97.825142" xlink:href="#mfa9efe82f8" y="455.437469"/>
     <use style="fill:#0000ff;stroke:#0000ff;" x="136.862689" xlink:href="#mfa9efe82f8" y="374.547048"/>
     <use style="fill:#0000ff;stroke:#0000ff;" x="159.361474" xlink:href="#mfa9efe82f8" y="373.591637"/>
     <use style="fill:#0000ff;stroke:#0000ff;" x="175.606986" xlink:href="#mfa9efe82f8" y="339.447707"/>
     <use style="fill:#0000ff;stroke:#0000ff;" x="188.532169" xlink:href="#mfa9efe82f8" y="332.783545"/>
     <use style="fill:#0000ff;stroke:#0000ff;" x="199.377816" xlink:href="#mfa9efe82f8" y="331.926305"/>
     <use style="fill:#0000ff;stroke:#0000ff;" x="208.790949" xlink:href="#mfa9efe82f8" y="327.109507"/>
     <use style="fill:#0000ff;stroke:#0000ff;" x="217.153742" xlink:href="#mfa9efe82f8" y="320.905098"/>
     <use style="fill:#0000ff;stroke:#0000ff;" x="224.711643" xlink:href="#mfa9efe82f8" y="316.621432"/>
     <use style="fill:#0000ff;stroke:#0000ff;" x="231.6321" xlink:href="#mfa9efe82f8" y="309.871086"/>
     <use style="fill:#0000ff;stroke:#0000ff;" x="238.0347" xlink:href="#mfa9efe82f8" y="309.597382"/>
     <use style="fill:#0000ff;stroke:#0000ff;" x="244.007975" xlink:href="#mfa9efe82f8" y="296.70619"/>
     <use style="fill:#0000ff;stroke:#0000ff;" x="249.619393" xlink:href="#mfa9efe82f8" y="289.992239"/>
     <use style="fill:#0000ff;stroke:#0000ff;" x="254.921616" xlink:href="#mfa9efe82f8" y="288.698111"/>
     <use style="fill:#0000ff;stroke:#0000ff;" x="259.956579" xlink:href="#mfa9efe82f8" y="287.040204"/>
     <use style="fill:#0000ff;stroke:#0000ff;" x="264.758259" xlink:href="#mfa9efe82f8" y="282.109343"/>
     <use style="fill:#0000ff;stroke:#0000ff;" x="269.354587" xlink:href="#mfa9efe82f8" y="280.78824"/>
     <use style="fill:#0000ff;stroke:#0000ff;" x="273.768827" xlink:href="#mfa9efe82f8" y="279.18108"/>
     <use style="fill:#0000ff;stroke:#0000ff;" x="278.020574" xlink:href="#mfa9efe82f8" y="277.47072"/>
     <use style="fill:#0000ff;stroke:#0000ff;" x="282.126503" xlink:href="#mfa9efe82f8" y="275.492004"/>
     <use style="fill:#0000ff;stroke:#0000ff;" x="286.100931" xlink:href="#mfa9efe82f8" y="274.436968"/>
     <use style="fill:#0000ff;stroke:#0000ff;" x="289.956252" xlink:href="#mfa9efe82f8" y="273.331646"/>
     <use style="fill:#0000ff;stroke:#0000ff;" x="293.703273" xlink:href="#mfa9efe82f8" y="272.794859"/>
     <use style="fill:#0000ff;stroke:#0000ff;" x="297.351486" xlink:href="#mfa9efe82f8" y="269.079247"/>
     <use style="fill:#0000ff;stroke:#0000ff;" x="300.909275" xlink:href="#mfa9efe82f8" y="268.60705"/>
     <use style="fill:#0000ff;stroke:#0000ff;" x="304.384091" xlink:href="#mfa9efe82f8" y="267.962115"/>
     <use style="fill:#0000ff;stroke:#0000ff;" x="307.782591" xlink:href="#mfa9efe82f8" y="267.85735"/>
     <use style="fill:#0000ff;stroke:#0000ff;" x="311.110749" xlink:href="#mfa9efe82f8" y="266.08401"/>
     <use style="fill:#0000ff;stroke:#0000ff;" x="314.373957" xlink:href="#mfa9efe82f8" y="266.043237"/>
     <use style="fill:#0000ff;stroke:#0000ff;" x="317.5771" xlink:href="#mfa9efe82f8" y="262.483591"/>
     <use style="fill:#0000ff;stroke:#0000ff;" x="320.724621" xlink:href="#mfa9efe82f8" y="260.035443"/>
     <use style="fill:#0000ff;stroke:#0000ff;" x="323.820579" xlink:href="#mfa9efe82f8" y="260.030751"/>
     <use style="fill:#0000ff;stroke:#0000ff;" x="326.868696" xlink:href="#mfa9efe82f8" y="259.843802"/>
     <use style="fill:#0000ff;stroke:#0000ff;" x="329.872398" xlink:href="#mfa9efe82f8" y="255.324568"/>
     <use style="fill:#0000ff;stroke:#0000ff;" x="332.834848" xlink:href="#mfa9efe82f8" y="253.83924"/>
     <use style="fill:#0000ff;stroke:#0000ff;" x="335.758977" xlink:href="#mfa9efe82f8" y="252.095964"/>
     <use style="fill:#0000ff;stroke:#0000ff;" x="338.647513" xlink:href="#mfa9efe82f8" y="250.403168"/>
     <use style="fill:#0000ff;stroke:#0000ff;" x="341.502996" xlink:href="#mfa9efe82f8" y="247.646338"/>
     <use style="fill:#0000ff;stroke:#0000ff;" x="344.327807" xlink:href="#mfa9efe82f8" y="245.479639"/>
     <use style="fill:#0000ff;stroke:#0000ff;" x="347.12418" xlink:href="#mfa9efe82f8" y="244.828319"/>
     <use style="fill:#0000ff;stroke:#0000ff;" x="349.894217" xlink:href="#mfa9efe82f8" y="240.392393"/>
     <use style="fill:#0000ff;stroke:#0000ff;" x="352.639906" xlink:href="#mfa9efe82f8" y="239.883014"/>
     <use style="fill:#0000ff;stroke:#0000ff;" x="355.363129" xlink:href="#mfa9efe82f8" y="238.345231"/>
     <use style="fill:#0000ff;stroke:#0000ff;" x="358.065674" xlink:href="#mfa9efe82f8" y="237.821958"/>
     <use style="fill:#0000ff;stroke:#0000ff;" x="360.749248" xlink:href="#mfa9efe82f8" y="237.469511"/>
     <use style="fill:#0000ff;stroke:#0000ff;" x="363.41548" xlink:href="#mfa9efe82f8" y="233.476111"/>
     <use style="fill:#0000ff;stroke:#0000ff;" x="366.065935" xlink:href="#mfa9efe82f8" y="231.334085"/>
     <use style="fill:#0000ff;stroke:#0000ff;" x="368.702117" xlink:href="#mfa9efe82f8" y="231.211539"/>
     <use style="fill:#0000ff;stroke:#0000ff;" x="371.325478" xlink:href="#mfa9efe82f8" y="228.264976"/>
     <use style="fill:#0000ff;stroke:#0000ff;" x="373.937423" xlink:href="#mfa9efe82f8" y="228.122218"/>
     <use style="fill:#0000ff;stroke:#0000ff;" x="376.539319" xlink:href="#mfa9efe82f8" y="226.590526"/>
     <use style="fill:#0000ff;stroke:#0000ff;" x="379.132494" xlink:href="#mfa9efe82f8" y="225.583277"/>
     <use style="fill:#0000ff;stroke:#0000ff;" x="381.718249" xlink:href="#mfa9efe82f8" y="221.185378"/>
     <use style="fill:#0000ff;stroke:#0000ff;" x="384.297858" xlink:href="#mfa9efe82f8" y="220.532082"/>
     <use style="fill:#0000ff;stroke:#0000ff;" x="386.872575" xlink:href="#mfa9efe82f8" y="219.490079"/>
     <use style="fill:#0000ff;stroke:#0000ff;" x="389.443637" xlink:href="#mfa9efe82f8" y="219.167353"/>
     <use style="fill:#0000ff;stroke:#0000ff;" x="392.012269" xlink:href="#mfa9efe82f8" y="217.436963"/>
     <use style="fill:#0000ff;stroke:#0000ff;" x="394.579687" xlink:href="#mfa9efe82f8" y="214.795635"/>
     <use style="fill:#0000ff;stroke:#0000ff;" x="397.147106" xlink:href="#mfa9efe82f8" y="214.265137"/>
     <use style="fill:#0000ff;stroke:#0000ff;" x="399.715738" xlink:href="#mfa9efe82f8" y="210.68159"/>
     <use style="fill:#0000ff;stroke:#0000ff;" x="402.2868" xlink:href="#mfa9efe82f8" y="209.154017"/>
     <use style="fill:#0000ff;stroke:#0000ff;" x="404.861517" xlink:href="#mfa9efe82f8" y="208.631575"/>
     <use style="fill:#0000ff;stroke:#0000ff;" x="407.441126" xlink:href="#mfa9efe82f8" y="208.135964"/>
     <use style="fill:#0000ff;stroke:#0000ff;" x="410.026881" xlink:href="#mfa9efe82f8" y="208.061101"/>
     <use style="fill:#0000ff;stroke:#0000ff;" x="412.620056" xlink:href="#mfa9efe82f8" y="205.863018"/>
     <use style="fill:#0000ff;stroke:#0000ff;" x="415.221952" xlink:href="#mfa9efe82f8" y="205.307599"/>
     <use style="fill:#0000ff;stroke:#0000ff;" x="417.833897" xlink:href="#mfa9efe82f8" y="204.184278"/>
     <use style="fill:#0000ff;stroke:#0000ff;" x="420.457258" xlink:href="#mfa9efe82f8" y="202.425671"/>
     <use style="fill:#0000ff;stroke:#0000ff;" x="423.09344" xlink:href="#mfa9efe82f8" y="200.936671"/>
     <use style="fill:#0000ff;stroke:#0000ff;" x="425.743895" xlink:href="#mfa9efe82f8" y="199.882539"/>
     <use style="fill:#0000ff;stroke:#0000ff;" x="428.410127" xlink:href="#mfa9efe82f8" y="199.286627"/>
     <use style="fill:#0000ff;stroke:#0000ff;" x="431.093701" xlink:href="#mfa9efe82f8" y="198.786486"/>
     <use style="fill:#0000ff;stroke:#0000ff;" x="433.796246" xlink:href="#mfa9efe82f8" y="197.332222"/>
     <use style="fill:#0000ff;stroke:#0000ff;" x="436.519469" xlink:href="#mfa9efe82f8" y="195.141921"/>
     <use style="fill:#0000ff;stroke:#0000ff;" x="439.265158" xlink:href="#mfa9efe82f8" y="195.092889"/>
     <use style="fill:#0000ff;stroke:#0000ff;" x="442.035195" xlink:href="#mfa9efe82f8" y="191.432819"/>
     <use style="fill:#0000ff;stroke:#0000ff;" x="444.831568" xlink:href="#mfa9efe82f8" y="190.584939"/>
     <use style="fill:#0000ff;stroke:#0000ff;" x="447.656379" xlink:href="#mfa9efe82f8" y="189.655798"/>
     <use style="fill:#0000ff;stroke:#0000ff;" x="450.511862" xlink:href="#mfa9efe82f8" y="187.874662"/>
     <use style="fill:#0000ff;stroke:#0000ff;" x="453.400398" xlink:href="#mfa9efe82f8" y="187.477823"/>
     <use style="fill:#0000ff;stroke:#0000ff;" x="456.324527" xlink:href="#mfa9efe82f8" y="186.777138"/>
     <use style="fill:#0000ff;stroke:#0000ff;" x="459.286977" xlink:href="#mfa9efe82f8" y="185.47933"/>
     <use style="fill:#0000ff;stroke:#0000ff;" x="462.290679" xlink:href="#mfa9efe82f8" y="183.009774"/>
     <use style="fill:#0000ff;stroke:#0000ff;" x="465.338796" xlink:href="#mfa9efe82f8" y="182.770511"/>
     <use style="fill:#0000ff;stroke:#0000ff;" x="468.434754" xlink:href="#mfa9efe82f8" y="180.385606"/>
     <use style="fill:#0000ff;stroke:#0000ff;" x="471.582275" xlink:href="#mfa9efe82f8" y="180.008386"/>
     <use style="fill:#0000ff;stroke:#0000ff;" x="474.785418" xlink:href="#mfa9efe82f8" y="178.837388"/>
     <use style="fill:#0000ff;stroke:#0000ff;" x="478.048626" xlink:href="#mfa9efe82f8" y="177.042761"/>
     <use style="fill:#0000ff;stroke:#0000ff;" x="481.376784" xlink:href="#mfa9efe82f8" y="172.402783"/>
     <use style="fill:#0000ff;stroke:#0000ff;" x="484.775284" xlink:href="#mfa9efe82f8" y="171.408212"/>
     <use style="fill:#0000ff;stroke:#0000ff;" x="488.2501" xlink:href="#mfa9efe82f8" y="170.644424"/>
     <use style="fill:#0000ff;stroke:#0000ff;" x="491.807889" xlink:href="#mfa9efe82f8" y="167.680831"/>
     <use style="fill:#0000ff;stroke:#0000ff;" x="495.456102" xlink:href="#mfa9efe82f8" y="164.098968"/>
     <use style="fill:#0000ff;stroke:#0000ff;" x="499.203123" xlink:href="#mfa9efe82f8" y="161.933093"/>
     <use style="fill:#0000ff;stroke:#0000ff;" x="503.058444" xlink:href="#mfa9efe82f8" y="159.821076"/>
     <use style="fill:#0000ff;stroke:#0000ff;" x="507.032872" xlink:href="#mfa9efe82f8" y="159.281759"/>
     <use style="fill:#0000ff;stroke:#0000ff;" x="511.138801" xlink:href="#mfa9efe82f8" y="157.216379"/>
     <use style="fill:#0000ff;stroke:#0000ff;" x="515.390548" xlink:href="#mfa9efe82f8" y="156.977782"/>
     <use style="fill:#0000ff;stroke:#0000ff;" x="519.804788" xlink:href="#mfa9efe82f8" y="142.069521"/>
     <use style="fill:#0000ff;stroke:#0000ff;" x="524.401116" xlink:href="#mfa9efe82f8" y="140.984118"/>
     <use style="fill:#0000ff;stroke:#0000ff;" x="529.202796" xlink:href="#mfa9efe82f8" y="140.339233"/>
     <use style="fill:#0000ff;stroke:#0000ff;" x="534.237759" xlink:href="#mfa9efe82f8" y="137.161866"/>
     <use style="fill:#0000ff;stroke:#0000ff;" x="539.539982" xlink:href="#mfa9efe82f8" y="135.724728"/>
     <use style="fill:#0000ff;stroke:#0000ff;" x="545.1514" xlink:href="#mfa9efe82f8" y="133.489649"/>
     <use style="fill:#0000ff;stroke:#0000ff;" x="551.124675" xlink:href="#mfa9efe82f8" y="117.88295"/>
     <use style="fill:#0000ff;stroke:#0000ff;" x="557.527275" xlink:href="#mfa9efe82f8" y="117.406322"/>
     <use style="fill:#0000ff;stroke:#0000ff;" x="564.447732" xlink:href="#mfa9efe82f8" y="114.626469"/>
     <use style="fill:#0000ff;stroke:#0000ff;" x="572.005633" xlink:href="#mfa9efe82f8" y="107.061083"/>
     <use style="fill:#0000ff;stroke:#0000ff;" x="580.368426" xlink:href="#mfa9efe82f8" y="106.961183"/>
     <use style="fill:#0000ff;stroke:#0000ff;" x="589.781559" xlink:href="#mfa9efe82f8" y="106.344202"/>
     <use style="fill:#0000ff;stroke:#0000ff;" x="600.627206" xlink:href="#mfa9efe82f8" y="94.643127"/>
     <use style="fill:#0000ff;stroke:#0000ff;" x="613.552389" xlink:href="#mfa9efe82f8" y="86.773928"/>
     <use style="fill:#0000ff;stroke:#0000ff;" x="629.797901" xlink:href="#mfa9efe82f8" y="76.454609"/>
     <use style="fill:#0000ff;stroke:#0000ff;" x="652.296686" xlink:href="#mfa9efe82f8" y="75.047339"/>
     <use style="fill:#0000ff;stroke:#0000ff;" x="691.334233" xlink:href="#mfa9efe82f8" y="72.900546"/>
    </g>
   </g>
   <g id="line2d_15">
    <path clip-path="url(#p0ff53afa6b)" d="M 97.825142 389.606867 
L 136.862689 367.055694 
L 159.361474 354.058618 
L 175.606986 344.673925 
L 188.532169 337.207318 
L 199.377816 330.942015 
L 208.790949 325.504246 
L 217.153742 320.673235 
L 224.711643 316.307195 
L 231.6321 312.309392 
L 238.0347 308.610744 
L 244.007975 305.160108 
L 249.619393 301.918509 
L 254.921616 298.855527 
L 259.956579 295.946934 
L 264.758259 293.173104 
L 269.354587 290.517902 
L 273.768827 287.967888 
L 278.020574 285.511743 
L 282.126503 283.139833 
L 286.100931 280.84389 
L 289.956252 278.616752 
L 293.703273 276.452176 
L 297.351486 274.34468 
L 300.909275 272.28942 
L 304.384091 270.282091 
L 307.782591 268.31885 
L 311.110749 266.396242 
L 314.373957 264.511155 
L 317.5771 262.660767 
L 320.724621 260.84251 
L 323.820579 259.05404 
L 326.868696 257.293207 
L 329.872398 255.558031 
L 332.834848 253.846686 
L 335.758977 252.157477 
L 338.647513 250.488831 
L 341.502996 248.839278 
L 344.327807 247.207444 
L 347.12418 245.592038 
L 349.894217 243.991846 
L 352.639906 242.405719 
L 355.363129 240.83257 
L 358.065674 239.271366 
L 360.749248 237.721122 
L 363.41548 236.180896 
L 366.065935 234.649783 
L 368.702117 233.126916 
L 371.325478 231.611456 
L 373.937423 230.102589 
L 376.539319 228.599529 
L 379.132494 227.101506 
L 381.718249 225.607769 
L 384.297858 224.117583 
L 386.872575 222.630223 
L 389.443637 221.144975 
L 392.012269 219.66113 
L 394.579687 218.177986 
L 397.147106 216.694842 
L 399.715738 215.210997 
L 402.2868 213.725749 
L 404.861517 212.238389 
L 407.441126 210.748203 
L 410.026881 209.254466 
L 412.620056 207.756443 
L 415.221952 206.253383 
L 417.833897 204.744516 
L 420.457258 203.229056 
L 423.09344 201.706189 
L 425.743895 200.175077 
L 428.410127 198.63485 
L 431.093701 197.084606 
L 433.796246 195.523402 
L 436.519469 193.950253 
L 439.265158 192.364127 
L 442.035195 190.763934 
L 444.831568 189.148528 
L 447.656379 187.516694 
L 450.511862 185.867141 
L 453.400398 184.198495 
L 456.324527 182.509286 
L 459.286977 180.797941 
L 462.290679 179.062766 
L 465.338796 177.301932 
L 468.434754 175.513462 
L 471.582275 173.695205 
L 474.785418 171.844817 
L 478.048626 169.95973 
L 481.376784 168.037123 
L 484.775284 166.073881 
L 488.2501 164.066553 
L 491.807889 162.011292 
L 495.456102 159.903796 
L 499.203123 157.73922 
L 503.058444 155.512082 
L 507.032872 153.216139 
L 511.138801 150.844229 
L 515.390548 148.388084 
L 519.804788 145.83807 
L 524.401116 143.182868 
L 529.202796 140.409038 
L 534.237759 137.500445 
L 539.539982 134.437463 
L 545.1514 131.195864 
L 551.124675 127.745228 
L 557.527275 124.04658 
L 564.447732 120.048777 
L 572.005633 115.682737 
L 580.368426 110.851726 
L 589.781559 105.413957 
L 600.627206 99.148654 
L 613.552389 91.682047 
L 629.797901 82.297355 
L 652.296686 69.300278 
L 691.334233 46.749106 
" style="fill:none;stroke:#ff0000;stroke-linecap:round;stroke-width:2.25;"/>
   </g>
   <g id="patch_3">
    <path d="M 68.149687 475.871887 
L 68.149687 26.314687 
" style="fill:none;stroke:#cccccc;stroke-linecap:square;stroke-linejoin:miter;stroke-width:1.875;"/>
   </g>
   <g id="patch_4">
    <path d="M 721.009687 475.871887 
L 721.009687 26.314687 
" style="fill:none;stroke:#cccccc;stroke-linecap:square;stroke-linejoin:miter;stroke-width:1.875;"/>
   </g>
   <g id="patch_5">
    <path d="M 68.149688 475.871887 
L 721.009687 475.871887 
" style="fill:none;stroke:#cccccc;stroke-linecap:square;stroke-linejoin:miter;stroke-width:1.875;"/>
   </g>
   <g id="patch_6">
    <path d="M 68.149688 26.314687 
L 721.009687 26.314687 
" style="fill:none;stroke:#cccccc;stroke-linecap:square;stroke-linejoin:miter;stroke-width:1.875;"/>
   </g>
   <g id="text_16">
    <!-- Normal Q-Q plot -->
    <defs>
     <path d="M 7.625 0 
L 7.625 71.578125 
L 17.328125 71.578125 
L 54.9375 15.375 
L 54.9375 71.578125 
L 64.015625 71.578125 
L 64.015625 0 
L 54.296875 0 
L 16.703125 56.25 
L 16.703125 0 
z
" id="ArialMT-78"/>
     <path d="M 6.59375 0 
L 6.59375 51.859375 
L 14.453125 51.859375 
L 14.453125 44.578125 
Q 16.890625 48.390625 20.9375 50.703125 
Q 25 53.03125 30.171875 53.03125 
Q 35.9375 53.03125 39.625 50.640625 
Q 43.3125 48.25 44.828125 43.953125 
Q 50.984375 53.03125 60.84375 53.03125 
Q 68.5625 53.03125 72.703125 48.75 
Q 76.859375 44.484375 76.859375 35.59375 
L 76.859375 0 
L 68.109375 0 
L 68.109375 32.671875 
Q 68.109375 37.9375 67.25 40.25 
Q 66.40625 42.578125 64.15625 43.984375 
Q 61.921875 45.40625 58.890625 45.40625 
Q 53.421875 45.40625 49.796875 41.765625 
Q 46.1875 38.140625 46.1875 30.125 
L 46.1875 0 
L 37.40625 0 
L 37.40625 33.6875 
Q 37.40625 39.546875 35.25 42.46875 
Q 33.109375 45.40625 28.21875 45.40625 
Q 24.515625 45.40625 21.359375 43.453125 
Q 18.21875 41.5 16.796875 37.734375 
Q 15.375 33.984375 15.375 26.90625 
L 15.375 0 
z
" id="ArialMT-109"/>
     <path d="M 61.96875 7.671875 
Q 68.5625 3.125 74.125 1.03125 
L 71.34375 -5.5625 
Q 63.625 -2.78125 55.953125 3.21875 
Q 48 -1.21875 38.375 -1.21875 
Q 28.65625 -1.21875 20.75 3.46875 
Q 12.84375 8.15625 8.5625 16.640625 
Q 4.296875 25.140625 4.296875 35.796875 
Q 4.296875 46.390625 8.59375 55.078125 
Q 12.890625 63.765625 20.828125 68.3125 
Q 28.765625 72.859375 38.578125 72.859375 
Q 48.484375 72.859375 56.4375 68.140625 
Q 64.40625 63.421875 68.578125 54.953125 
Q 72.75 46.484375 72.75 35.84375 
Q 72.75 27 70.0625 19.9375 
Q 67.390625 12.890625 61.96875 7.671875 
z
M 41.109375 19.78125 
Q 49.3125 17.484375 54.640625 12.9375 
Q 62.984375 20.5625 62.984375 35.84375 
Q 62.984375 44.53125 60.03125 51.015625 
Q 57.078125 57.515625 51.390625 61.109375 
Q 45.703125 64.703125 38.625 64.703125 
Q 28.03125 64.703125 21.046875 57.453125 
Q 14.0625 50.203125 14.0625 35.796875 
Q 14.0625 21.828125 20.96875 14.359375 
Q 27.875 6.890625 38.625 6.890625 
Q 43.703125 6.890625 48.1875 8.796875 
Q 43.75 11.671875 38.8125 12.890625 
z
" id="ArialMT-81"/>
     <path d="M 3.171875 21.484375 
L 3.171875 30.328125 
L 30.171875 30.328125 
L 30.171875 21.484375 
z
" id="ArialMT-45"/>
     <path d="M 6.59375 -19.875 
L 6.59375 51.859375 
L 14.59375 51.859375 
L 14.59375 45.125 
Q 17.4375 49.078125 21 51.046875 
Q 24.5625 53.03125 29.640625 53.03125 
Q 36.28125 53.03125 41.359375 49.609375 
Q 46.4375 46.1875 49.015625 39.953125 
Q 51.609375 33.734375 51.609375 26.3125 
Q 51.609375 18.359375 48.75 11.984375 
Q 45.90625 5.609375 40.453125 2.21875 
Q 35.015625 -1.171875 29 -1.171875 
Q 24.609375 -1.171875 21.109375 0.6875 
Q 17.625 2.546875 15.375 5.375 
L 15.375 -19.875 
z
M 14.546875 25.640625 
Q 14.546875 15.625 18.59375 10.84375 
Q 22.65625 6.0625 28.421875 6.0625 
Q 34.28125 6.0625 38.453125 11.015625 
Q 42.625 15.96875 42.625 26.375 
Q 42.625 36.28125 38.546875 41.203125 
Q 34.46875 46.140625 28.8125 46.140625 
Q 23.1875 46.140625 18.859375 40.890625 
Q 14.546875 35.640625 14.546875 25.640625 
z
" id="ArialMT-112"/>
    </defs>
    <g style="fill:#262626;" transform="translate(329.069531 20.314687)scale(0.18 -0.18)">
     <use xlink:href="#ArialMT-78"/>
     <use x="72.216797" xlink:href="#ArialMT-111"/>
     <use x="127.832031" xlink:href="#ArialMT-114"/>
     <use x="161.132812" xlink:href="#ArialMT-109"/>
     <use x="244.433594" xlink:href="#ArialMT-97"/>
     <use x="300.048828" xlink:href="#ArialMT-108"/>
     <use x="322.265625" xlink:href="#ArialMT-32"/>
     <use x="350.048828" xlink:href="#ArialMT-81"/>
     <use x="427.832031" xlink:href="#ArialMT-45"/>
     <use x="461.132812" xlink:href="#ArialMT-81"/>
     <use x="538.916016" xlink:href="#ArialMT-32"/>
     <use x="566.699219" xlink:href="#ArialMT-112"/>
     <use x="622.314453" xlink:href="#ArialMT-108"/>
     <use x="644.53125" xlink:href="#ArialMT-111"/>
     <use x="700.146484" xlink:href="#ArialMT-116"/>
    </g>
   </g>
  </g>
 </g>
 <defs>
  <clipPath id="p0ff53afa6b">
   <rect height="449.5572" width="652.86" x="68.149687" y="26.314687"/>
  </clipPath>
 </defs>
</svg>
