<?xml version="1.0" encoding="utf-8" standalone="no"?>
<!DOCTYPE svg PUBLIC "-//W3C//DTD SVG 1.1//EN"
  "http://www.w3.org/Graphics/SVG/1.1/DTD/svg11.dtd">
<!-- Created with matplotlib (https://matplotlib.org/) -->
<svg height="509.431575pt" version="1.1" viewBox="0 0 712.542812 509.431575" width="712.542812pt" xmlns="http://www.w3.org/2000/svg" xmlns:xlink="http://www.w3.org/1999/xlink">
 <defs>
  <style type="text/css">
*{stroke-linecap:butt;stroke-linejoin:round;}
  </style>
 </defs>
 <g id="figure_1">
  <g id="patch_1">
   <path d="M 0 509.431575 
L 712.542812 509.431575 
L 712.542812 0 
L 0 0 
z
" style="fill:#ffffff;"/>
  </g>
  <g id="axes_1">
   <g id="patch_2">
    <path d="M 48.982813 471.875325 
L 701.842812 471.875325 
L 701.842812 22.318125 
L 48.982813 22.318125 
z
" style="fill:#ffffff;"/>
   </g>
   <g id="matplotlib.axis_1">
    <g id="xtick_1">
     <g id="line2d_1">
      <defs>
       <path d="M 0 0 
L 0 3.5 
" id="m6fb84589e1" style="stroke:#000000;stroke-width:0.8;"/>
      </defs>
      <g>
       <use style="stroke:#000000;stroke-width:0.8;" x="139.105767" xlink:href="#m6fb84589e1" y="471.875325"/>
      </g>
     </g>
     <g id="text_1">
      <!-- −2 -->
      <defs>
       <path d="M 10.59375 35.5 
L 73.1875 35.5 
L 73.1875 27.203125 
L 10.59375 27.203125 
z
" id="DejaVuSans-8722"/>
       <path d="M 19.1875 8.296875 
L 53.609375 8.296875 
L 53.609375 0 
L 7.328125 0 
L 7.328125 8.296875 
Q 12.9375 14.109375 22.625 23.890625 
Q 32.328125 33.6875 34.8125 36.53125 
Q 39.546875 41.84375 41.421875 45.53125 
Q 43.3125 49.21875 43.3125 52.78125 
Q 43.3125 58.59375 39.234375 62.25 
Q 35.15625 65.921875 28.609375 65.921875 
Q 23.96875 65.921875 18.8125 64.3125 
Q 13.671875 62.703125 7.8125 59.421875 
L 7.8125 69.390625 
Q 13.765625 71.78125 18.9375 73 
Q 24.125 74.21875 28.421875 74.21875 
Q 39.75 74.21875 46.484375 68.546875 
Q 53.21875 62.890625 53.21875 53.421875 
Q 53.21875 48.921875 51.53125 44.890625 
Q 49.859375 40.875 45.40625 35.40625 
Q 44.1875 33.984375 37.640625 27.21875 
Q 31.109375 20.453125 19.1875 8.296875 
z
" id="DejaVuSans-50"/>
      </defs>
      <g transform="translate(131.734674 486.473762)scale(0.1 -0.1)">
       <use xlink:href="#DejaVuSans-8722"/>
       <use x="83.789062" xlink:href="#DejaVuSans-50"/>
      </g>
     </g>
    </g>
    <g id="xtick_2">
     <g id="line2d_2">
      <g>
       <use style="stroke:#000000;stroke-width:0.8;" x="257.25929" xlink:href="#m6fb84589e1" y="471.875325"/>
      </g>
     </g>
     <g id="text_2">
      <!-- −1 -->
      <defs>
       <path d="M 12.40625 8.296875 
L 28.515625 8.296875 
L 28.515625 63.921875 
L 10.984375 60.40625 
L 10.984375 69.390625 
L 28.421875 72.90625 
L 38.28125 72.90625 
L 38.28125 8.296875 
L 54.390625 8.296875 
L 54.390625 0 
L 12.40625 0 
z
" id="DejaVuSans-49"/>
      </defs>
      <g transform="translate(249.888196 486.473762)scale(0.1 -0.1)">
       <use xlink:href="#DejaVuSans-8722"/>
       <use x="83.789062" xlink:href="#DejaVuSans-49"/>
      </g>
     </g>
    </g>
    <g id="xtick_3">
     <g id="line2d_3">
      <g>
       <use style="stroke:#000000;stroke-width:0.8;" x="375.412812" xlink:href="#m6fb84589e1" y="471.875325"/>
      </g>
     </g>
     <g id="text_3">
      <!-- 0 -->
      <defs>
       <path d="M 31.78125 66.40625 
Q 24.171875 66.40625 20.328125 58.90625 
Q 16.5 51.421875 16.5 36.375 
Q 16.5 21.390625 20.328125 13.890625 
Q 24.171875 6.390625 31.78125 6.390625 
Q 39.453125 6.390625 43.28125 13.890625 
Q 47.125 21.390625 47.125 36.375 
Q 47.125 51.421875 43.28125 58.90625 
Q 39.453125 66.40625 31.78125 66.40625 
z
M 31.78125 74.21875 
Q 44.046875 74.21875 50.515625 64.515625 
Q 56.984375 54.828125 56.984375 36.375 
Q 56.984375 17.96875 50.515625 8.265625 
Q 44.046875 -1.421875 31.78125 -1.421875 
Q 19.53125 -1.421875 13.0625 8.265625 
Q 6.59375 17.96875 6.59375 36.375 
Q 6.59375 54.828125 13.0625 64.515625 
Q 19.53125 74.21875 31.78125 74.21875 
z
" id="DejaVuSans-48"/>
      </defs>
      <g transform="translate(372.231562 486.473762)scale(0.1 -0.1)">
       <use xlink:href="#DejaVuSans-48"/>
      </g>
     </g>
    </g>
    <g id="xtick_4">
     <g id="line2d_4">
      <g>
       <use style="stroke:#000000;stroke-width:0.8;" x="493.566335" xlink:href="#m6fb84589e1" y="471.875325"/>
      </g>
     </g>
     <g id="text_4">
      <!-- 1 -->
      <g transform="translate(490.385085 486.473762)scale(0.1 -0.1)">
       <use xlink:href="#DejaVuSans-49"/>
      </g>
     </g>
    </g>
    <g id="xtick_5">
     <g id="line2d_5">
      <g>
       <use style="stroke:#000000;stroke-width:0.8;" x="611.719858" xlink:href="#m6fb84589e1" y="471.875325"/>
      </g>
     </g>
     <g id="text_5">
      <!-- 2 -->
      <g transform="translate(608.538608 486.473762)scale(0.1 -0.1)">
       <use xlink:href="#DejaVuSans-50"/>
      </g>
     </g>
    </g>
    <g id="text_6">
     <!-- Theoretical quantiles -->
     <defs>
      <path d="M -0.296875 72.90625 
L 61.375 72.90625 
L 61.375 64.59375 
L 35.5 64.59375 
L 35.5 0 
L 25.59375 0 
L 25.59375 64.59375 
L -0.296875 64.59375 
z
" id="DejaVuSans-84"/>
      <path d="M 54.890625 33.015625 
L 54.890625 0 
L 45.90625 0 
L 45.90625 32.71875 
Q 45.90625 40.484375 42.875 44.328125 
Q 39.84375 48.1875 33.796875 48.1875 
Q 26.515625 48.1875 22.3125 43.546875 
Q 18.109375 38.921875 18.109375 30.90625 
L 18.109375 0 
L 9.078125 0 
L 9.078125 75.984375 
L 18.109375 75.984375 
L 18.109375 46.1875 
Q 21.34375 51.125 25.703125 53.5625 
Q 30.078125 56 35.796875 56 
Q 45.21875 56 50.046875 50.171875 
Q 54.890625 44.34375 54.890625 33.015625 
z
" id="DejaVuSans-104"/>
      <path d="M 56.203125 29.59375 
L 56.203125 25.203125 
L 14.890625 25.203125 
Q 15.484375 15.921875 20.484375 11.0625 
Q 25.484375 6.203125 34.421875 6.203125 
Q 39.59375 6.203125 44.453125 7.46875 
Q 49.3125 8.734375 54.109375 11.28125 
L 54.109375 2.78125 
Q 49.265625 0.734375 44.1875 -0.34375 
Q 39.109375 -1.421875 33.890625 -1.421875 
Q 20.796875 -1.421875 13.15625 6.1875 
Q 5.515625 13.8125 5.515625 26.8125 
Q 5.515625 40.234375 12.765625 48.109375 
Q 20.015625 56 32.328125 56 
Q 43.359375 56 49.78125 48.890625 
Q 56.203125 41.796875 56.203125 29.59375 
z
M 47.21875 32.234375 
Q 47.125 39.59375 43.09375 43.984375 
Q 39.0625 48.390625 32.421875 48.390625 
Q 24.90625 48.390625 20.390625 44.140625 
Q 15.875 39.890625 15.1875 32.171875 
z
" id="DejaVuSans-101"/>
      <path d="M 30.609375 48.390625 
Q 23.390625 48.390625 19.1875 42.75 
Q 14.984375 37.109375 14.984375 27.296875 
Q 14.984375 17.484375 19.15625 11.84375 
Q 23.34375 6.203125 30.609375 6.203125 
Q 37.796875 6.203125 41.984375 11.859375 
Q 46.1875 17.53125 46.1875 27.296875 
Q 46.1875 37.015625 41.984375 42.703125 
Q 37.796875 48.390625 30.609375 48.390625 
z
M 30.609375 56 
Q 42.328125 56 49.015625 48.375 
Q 55.71875 40.765625 55.71875 27.296875 
Q 55.71875 13.875 49.015625 6.21875 
Q 42.328125 -1.421875 30.609375 -1.421875 
Q 18.84375 -1.421875 12.171875 6.21875 
Q 5.515625 13.875 5.515625 27.296875 
Q 5.515625 40.765625 12.171875 48.375 
Q 18.84375 56 30.609375 56 
z
" id="DejaVuSans-111"/>
      <path d="M 41.109375 46.296875 
Q 39.59375 47.171875 37.8125 47.578125 
Q 36.03125 48 33.890625 48 
Q 26.265625 48 22.1875 43.046875 
Q 18.109375 38.09375 18.109375 28.8125 
L 18.109375 0 
L 9.078125 0 
L 9.078125 54.6875 
L 18.109375 54.6875 
L 18.109375 46.1875 
Q 20.953125 51.171875 25.484375 53.578125 
Q 30.03125 56 36.53125 56 
Q 37.453125 56 38.578125 55.875 
Q 39.703125 55.765625 41.0625 55.515625 
z
" id="DejaVuSans-114"/>
      <path d="M 18.3125 70.21875 
L 18.3125 54.6875 
L 36.8125 54.6875 
L 36.8125 47.703125 
L 18.3125 47.703125 
L 18.3125 18.015625 
Q 18.3125 11.328125 20.140625 9.421875 
Q 21.96875 7.515625 27.59375 7.515625 
L 36.8125 7.515625 
L 36.8125 0 
L 27.59375 0 
Q 17.1875 0 13.234375 3.875 
Q 9.28125 7.765625 9.28125 18.015625 
L 9.28125 47.703125 
L 2.6875 47.703125 
L 2.6875 54.6875 
L 9.28125 54.6875 
L 9.28125 70.21875 
z
" id="DejaVuSans-116"/>
      <path d="M 9.421875 54.6875 
L 18.40625 54.6875 
L 18.40625 0 
L 9.421875 0 
z
M 9.421875 75.984375 
L 18.40625 75.984375 
L 18.40625 64.59375 
L 9.421875 64.59375 
z
" id="DejaVuSans-105"/>
      <path d="M 48.78125 52.59375 
L 48.78125 44.1875 
Q 44.96875 46.296875 41.140625 47.34375 
Q 37.3125 48.390625 33.40625 48.390625 
Q 24.65625 48.390625 19.8125 42.84375 
Q 14.984375 37.3125 14.984375 27.296875 
Q 14.984375 17.28125 19.8125 11.734375 
Q 24.65625 6.203125 33.40625 6.203125 
Q 37.3125 6.203125 41.140625 7.25 
Q 44.96875 8.296875 48.78125 10.40625 
L 48.78125 2.09375 
Q 45.015625 0.34375 40.984375 -0.53125 
Q 36.96875 -1.421875 32.421875 -1.421875 
Q 20.0625 -1.421875 12.78125 6.34375 
Q 5.515625 14.109375 5.515625 27.296875 
Q 5.515625 40.671875 12.859375 48.328125 
Q 20.21875 56 33.015625 56 
Q 37.15625 56 41.109375 55.140625 
Q 45.0625 54.296875 48.78125 52.59375 
z
" id="DejaVuSans-99"/>
      <path d="M 34.28125 27.484375 
Q 23.390625 27.484375 19.1875 25 
Q 14.984375 22.515625 14.984375 16.5 
Q 14.984375 11.71875 18.140625 8.90625 
Q 21.296875 6.109375 26.703125 6.109375 
Q 34.1875 6.109375 38.703125 11.40625 
Q 43.21875 16.703125 43.21875 25.484375 
L 43.21875 27.484375 
z
M 52.203125 31.203125 
L 52.203125 0 
L 43.21875 0 
L 43.21875 8.296875 
Q 40.140625 3.328125 35.546875 0.953125 
Q 30.953125 -1.421875 24.3125 -1.421875 
Q 15.921875 -1.421875 10.953125 3.296875 
Q 6 8.015625 6 15.921875 
Q 6 25.140625 12.171875 29.828125 
Q 18.359375 34.515625 30.609375 34.515625 
L 43.21875 34.515625 
L 43.21875 35.40625 
Q 43.21875 41.609375 39.140625 45 
Q 35.0625 48.390625 27.6875 48.390625 
Q 23 48.390625 18.546875 47.265625 
Q 14.109375 46.140625 10.015625 43.890625 
L 10.015625 52.203125 
Q 14.9375 54.109375 19.578125 55.046875 
Q 24.21875 56 28.609375 56 
Q 40.484375 56 46.34375 49.84375 
Q 52.203125 43.703125 52.203125 31.203125 
z
" id="DejaVuSans-97"/>
      <path d="M 9.421875 75.984375 
L 18.40625 75.984375 
L 18.40625 0 
L 9.421875 0 
z
" id="DejaVuSans-108"/>
      <path id="DejaVuSans-32"/>
      <path d="M 14.796875 27.296875 
Q 14.796875 17.390625 18.875 11.75 
Q 22.953125 6.109375 30.078125 6.109375 
Q 37.203125 6.109375 41.296875 11.75 
Q 45.40625 17.390625 45.40625 27.296875 
Q 45.40625 37.203125 41.296875 42.84375 
Q 37.203125 48.484375 30.078125 48.484375 
Q 22.953125 48.484375 18.875 42.84375 
Q 14.796875 37.203125 14.796875 27.296875 
z
M 45.40625 8.203125 
Q 42.578125 3.328125 38.25 0.953125 
Q 33.9375 -1.421875 27.875 -1.421875 
Q 17.96875 -1.421875 11.734375 6.484375 
Q 5.515625 14.40625 5.515625 27.296875 
Q 5.515625 40.1875 11.734375 48.09375 
Q 17.96875 56 27.875 56 
Q 33.9375 56 38.25 53.625 
Q 42.578125 51.265625 45.40625 46.390625 
L 45.40625 54.6875 
L 54.390625 54.6875 
L 54.390625 -20.796875 
L 45.40625 -20.796875 
z
" id="DejaVuSans-113"/>
      <path d="M 8.5 21.578125 
L 8.5 54.6875 
L 17.484375 54.6875 
L 17.484375 21.921875 
Q 17.484375 14.15625 20.5 10.265625 
Q 23.53125 6.390625 29.59375 6.390625 
Q 36.859375 6.390625 41.078125 11.03125 
Q 45.3125 15.671875 45.3125 23.6875 
L 45.3125 54.6875 
L 54.296875 54.6875 
L 54.296875 0 
L 45.3125 0 
L 45.3125 8.40625 
Q 42.046875 3.421875 37.71875 1 
Q 33.40625 -1.421875 27.6875 -1.421875 
Q 18.265625 -1.421875 13.375 4.4375 
Q 8.5 10.296875 8.5 21.578125 
z
M 31.109375 56 
z
" id="DejaVuSans-117"/>
      <path d="M 54.890625 33.015625 
L 54.890625 0 
L 45.90625 0 
L 45.90625 32.71875 
Q 45.90625 40.484375 42.875 44.328125 
Q 39.84375 48.1875 33.796875 48.1875 
Q 26.515625 48.1875 22.3125 43.546875 
Q 18.109375 38.921875 18.109375 30.90625 
L 18.109375 0 
L 9.078125 0 
L 9.078125 54.6875 
L 18.109375 54.6875 
L 18.109375 46.1875 
Q 21.34375 51.125 25.703125 53.5625 
Q 30.078125 56 35.796875 56 
Q 45.21875 56 50.046875 50.171875 
Q 54.890625 44.34375 54.890625 33.015625 
z
" id="DejaVuSans-110"/>
      <path d="M 44.28125 53.078125 
L 44.28125 44.578125 
Q 40.484375 46.53125 36.375 47.5 
Q 32.28125 48.484375 27.875 48.484375 
Q 21.1875 48.484375 17.84375 46.4375 
Q 14.5 44.390625 14.5 40.28125 
Q 14.5 37.15625 16.890625 35.375 
Q 19.28125 33.59375 26.515625 31.984375 
L 29.59375 31.296875 
Q 39.15625 29.25 43.1875 25.515625 
Q 47.21875 21.78125 47.21875 15.09375 
Q 47.21875 7.46875 41.1875 3.015625 
Q 35.15625 -1.421875 24.609375 -1.421875 
Q 20.21875 -1.421875 15.453125 -0.5625 
Q 10.6875 0.296875 5.421875 2 
L 5.421875 11.28125 
Q 10.40625 8.6875 15.234375 7.390625 
Q 20.0625 6.109375 24.8125 6.109375 
Q 31.15625 6.109375 34.5625 8.28125 
Q 37.984375 10.453125 37.984375 14.40625 
Q 37.984375 18.0625 35.515625 20.015625 
Q 33.0625 21.96875 24.703125 23.78125 
L 21.578125 24.515625 
Q 13.234375 26.265625 9.515625 29.90625 
Q 5.8125 33.546875 5.8125 39.890625 
Q 5.8125 47.609375 11.28125 51.796875 
Q 16.75 56 26.8125 56 
Q 31.78125 56 36.171875 55.265625 
Q 40.578125 54.546875 44.28125 53.078125 
z
" id="DejaVuSans-115"/>
     </defs>
     <g transform="translate(322.787812 500.151887)scale(0.1 -0.1)">
      <use xlink:href="#DejaVuSans-84"/>
      <use x="61.083984" xlink:href="#DejaVuSans-104"/>
      <use x="124.462891" xlink:href="#DejaVuSans-101"/>
      <use x="185.986328" xlink:href="#DejaVuSans-111"/>
      <use x="247.167969" xlink:href="#DejaVuSans-114"/>
      <use x="288.25" xlink:href="#DejaVuSans-101"/>
      <use x="349.773438" xlink:href="#DejaVuSans-116"/>
      <use x="388.982422" xlink:href="#DejaVuSans-105"/>
      <use x="416.765625" xlink:href="#DejaVuSans-99"/>
      <use x="471.746094" xlink:href="#DejaVuSans-97"/>
      <use x="533.025391" xlink:href="#DejaVuSans-108"/>
      <use x="560.808594" xlink:href="#DejaVuSans-32"/>
      <use x="592.595703" xlink:href="#DejaVuSans-113"/>
      <use x="656.072266" xlink:href="#DejaVuSans-117"/>
      <use x="719.451172" xlink:href="#DejaVuSans-97"/>
      <use x="780.730469" xlink:href="#DejaVuSans-110"/>
      <use x="844.109375" xlink:href="#DejaVuSans-116"/>
      <use x="883.318359" xlink:href="#DejaVuSans-105"/>
      <use x="911.101562" xlink:href="#DejaVuSans-108"/>
      <use x="938.884766" xlink:href="#DejaVuSans-101"/>
      <use x="1000.408203" xlink:href="#DejaVuSans-115"/>
     </g>
    </g>
   </g>
   <g id="matplotlib.axis_2">
    <g id="ytick_1">
     <g id="line2d_6">
      <defs>
       <path d="M 0 0 
L -3.5 0 
" id="m4fc57a563e" style="stroke:#000000;stroke-width:0.8;"/>
      </defs>
      <g>
       <use style="stroke:#000000;stroke-width:0.8;" x="48.982813" xlink:href="#m4fc57a563e" y="457.300869"/>
      </g>
     </g>
     <g id="text_7">
      <!-- −20 -->
      <g transform="translate(20.878125 461.100087)scale(0.1 -0.1)">
       <use xlink:href="#DejaVuSans-8722"/>
       <use x="83.789062" xlink:href="#DejaVuSans-50"/>
       <use x="147.412109" xlink:href="#DejaVuSans-48"/>
      </g>
     </g>
    </g>
    <g id="ytick_2">
     <g id="line2d_7">
      <g>
       <use style="stroke:#000000;stroke-width:0.8;" x="48.982813" xlink:href="#m4fc57a563e" y="396.69351"/>
      </g>
     </g>
     <g id="text_8">
      <!-- −15 -->
      <defs>
       <path d="M 10.796875 72.90625 
L 49.515625 72.90625 
L 49.515625 64.59375 
L 19.828125 64.59375 
L 19.828125 46.734375 
Q 21.96875 47.46875 24.109375 47.828125 
Q 26.265625 48.1875 28.421875 48.1875 
Q 40.625 48.1875 47.75 41.5 
Q 54.890625 34.8125 54.890625 23.390625 
Q 54.890625 11.625 47.5625 5.09375 
Q 40.234375 -1.421875 26.90625 -1.421875 
Q 22.3125 -1.421875 17.546875 -0.640625 
Q 12.796875 0.140625 7.71875 1.703125 
L 7.71875 11.625 
Q 12.109375 9.234375 16.796875 8.0625 
Q 21.484375 6.890625 26.703125 6.890625 
Q 35.15625 6.890625 40.078125 11.328125 
Q 45.015625 15.765625 45.015625 23.390625 
Q 45.015625 31 40.078125 35.4375 
Q 35.15625 39.890625 26.703125 39.890625 
Q 22.75 39.890625 18.8125 39.015625 
Q 14.890625 38.140625 10.796875 36.28125 
z
" id="DejaVuSans-53"/>
      </defs>
      <g transform="translate(20.878125 400.492729)scale(0.1 -0.1)">
       <use xlink:href="#DejaVuSans-8722"/>
       <use x="83.789062" xlink:href="#DejaVuSans-49"/>
       <use x="147.412109" xlink:href="#DejaVuSans-53"/>
      </g>
     </g>
    </g>
    <g id="ytick_3">
     <g id="line2d_8">
      <g>
       <use style="stroke:#000000;stroke-width:0.8;" x="48.982813" xlink:href="#m4fc57a563e" y="336.086152"/>
      </g>
     </g>
     <g id="text_9">
      <!-- −10 -->
      <g transform="translate(20.878125 339.885371)scale(0.1 -0.1)">
       <use xlink:href="#DejaVuSans-8722"/>
       <use x="83.789062" xlink:href="#DejaVuSans-49"/>
       <use x="147.412109" xlink:href="#DejaVuSans-48"/>
      </g>
     </g>
    </g>
    <g id="ytick_4">
     <g id="line2d_9">
      <g>
       <use style="stroke:#000000;stroke-width:0.8;" x="48.982813" xlink:href="#m4fc57a563e" y="275.478793"/>
      </g>
     </g>
     <g id="text_10">
      <!-- −5 -->
      <g transform="translate(27.240625 279.278012)scale(0.1 -0.1)">
       <use xlink:href="#DejaVuSans-8722"/>
       <use x="83.789062" xlink:href="#DejaVuSans-53"/>
      </g>
     </g>
    </g>
    <g id="ytick_5">
     <g id="line2d_10">
      <g>
       <use style="stroke:#000000;stroke-width:0.8;" x="48.982813" xlink:href="#m4fc57a563e" y="214.871435"/>
      </g>
     </g>
     <g id="text_11">
      <!-- 0 -->
      <g transform="translate(35.620312 218.670654)scale(0.1 -0.1)">
       <use xlink:href="#DejaVuSans-48"/>
      </g>
     </g>
    </g>
    <g id="ytick_6">
     <g id="line2d_11">
      <g>
       <use style="stroke:#000000;stroke-width:0.8;" x="48.982813" xlink:href="#m4fc57a563e" y="154.264077"/>
      </g>
     </g>
     <g id="text_12">
      <!-- 5 -->
      <g transform="translate(35.620312 158.063295)scale(0.1 -0.1)">
       <use xlink:href="#DejaVuSans-53"/>
      </g>
     </g>
    </g>
    <g id="ytick_7">
     <g id="line2d_12">
      <g>
       <use style="stroke:#000000;stroke-width:0.8;" x="48.982813" xlink:href="#m4fc57a563e" y="93.656718"/>
      </g>
     </g>
     <g id="text_13">
      <!-- 10 -->
      <g transform="translate(29.257812 97.455937)scale(0.1 -0.1)">
       <use xlink:href="#DejaVuSans-49"/>
       <use x="63.623047" xlink:href="#DejaVuSans-48"/>
      </g>
     </g>
    </g>
    <g id="ytick_8">
     <g id="line2d_13">
      <g>
       <use style="stroke:#000000;stroke-width:0.8;" x="48.982813" xlink:href="#m4fc57a563e" y="33.04936"/>
      </g>
     </g>
     <g id="text_14">
      <!-- 15 -->
      <g transform="translate(29.257812 36.848579)scale(0.1 -0.1)">
       <use xlink:href="#DejaVuSans-49"/>
       <use x="63.623047" xlink:href="#DejaVuSans-53"/>
      </g>
     </g>
    </g>
    <g id="text_15">
     <!-- Ordered Values -->
     <defs>
      <path d="M 39.40625 66.21875 
Q 28.65625 66.21875 22.328125 58.203125 
Q 16.015625 50.203125 16.015625 36.375 
Q 16.015625 22.609375 22.328125 14.59375 
Q 28.65625 6.59375 39.40625 6.59375 
Q 50.140625 6.59375 56.421875 14.59375 
Q 62.703125 22.609375 62.703125 36.375 
Q 62.703125 50.203125 56.421875 58.203125 
Q 50.140625 66.21875 39.40625 66.21875 
z
M 39.40625 74.21875 
Q 54.734375 74.21875 63.90625 63.9375 
Q 73.09375 53.65625 73.09375 36.375 
Q 73.09375 19.140625 63.90625 8.859375 
Q 54.734375 -1.421875 39.40625 -1.421875 
Q 24.03125 -1.421875 14.8125 8.828125 
Q 5.609375 19.09375 5.609375 36.375 
Q 5.609375 53.65625 14.8125 63.9375 
Q 24.03125 74.21875 39.40625 74.21875 
z
" id="DejaVuSans-79"/>
      <path d="M 45.40625 46.390625 
L 45.40625 75.984375 
L 54.390625 75.984375 
L 54.390625 0 
L 45.40625 0 
L 45.40625 8.203125 
Q 42.578125 3.328125 38.25 0.953125 
Q 33.9375 -1.421875 27.875 -1.421875 
Q 17.96875 -1.421875 11.734375 6.484375 
Q 5.515625 14.40625 5.515625 27.296875 
Q 5.515625 40.1875 11.734375 48.09375 
Q 17.96875 56 27.875 56 
Q 33.9375 56 38.25 53.625 
Q 42.578125 51.265625 45.40625 46.390625 
z
M 14.796875 27.296875 
Q 14.796875 17.390625 18.875 11.75 
Q 22.953125 6.109375 30.078125 6.109375 
Q 37.203125 6.109375 41.296875 11.75 
Q 45.40625 17.390625 45.40625 27.296875 
Q 45.40625 37.203125 41.296875 42.84375 
Q 37.203125 48.484375 30.078125 48.484375 
Q 22.953125 48.484375 18.875 42.84375 
Q 14.796875 37.203125 14.796875 27.296875 
z
" id="DejaVuSans-100"/>
      <path d="M 28.609375 0 
L 0.78125 72.90625 
L 11.078125 72.90625 
L 34.1875 11.53125 
L 57.328125 72.90625 
L 67.578125 72.90625 
L 39.796875 0 
z
" id="DejaVuSans-86"/>
     </defs>
     <g transform="translate(14.798437 285.94985)rotate(-90)scale(0.1 -0.1)">
      <use xlink:href="#DejaVuSans-79"/>
      <use x="78.710938" xlink:href="#DejaVuSans-114"/>
      <use x="119.808594" xlink:href="#DejaVuSans-100"/>
      <use x="183.285156" xlink:href="#DejaVuSans-101"/>
      <use x="244.808594" xlink:href="#DejaVuSans-114"/>
      <use x="285.890625" xlink:href="#DejaVuSans-101"/>
      <use x="347.414062" xlink:href="#DejaVuSans-100"/>
      <use x="410.890625" xlink:href="#DejaVuSans-32"/>
      <use x="442.677734" xlink:href="#DejaVuSans-86"/>
      <use x="510.976562" xlink:href="#DejaVuSans-97"/>
      <use x="572.255859" xlink:href="#DejaVuSans-108"/>
      <use x="600.039062" xlink:href="#DejaVuSans-117"/>
      <use x="663.417969" xlink:href="#DejaVuSans-101"/>
      <use x="724.941406" xlink:href="#DejaVuSans-115"/>
     </g>
    </g>
   </g>
   <g id="line2d_14">
    <defs>
     <path d="M 0 3 
C 0.795609 3 1.55874 2.683901 2.12132 2.12132 
C 2.683901 1.55874 3 0.795609 3 0 
C 3 -0.795609 2.683901 -1.55874 2.12132 -2.12132 
C 1.55874 -2.683901 0.795609 -3 0 -3 
C -0.795609 -3 -1.55874 -2.683901 -2.12132 -2.12132 
C -2.683901 -1.55874 -3 -0.795609 -3 0 
C -3 0.795609 -2.683901 1.55874 -2.12132 2.12132 
C -1.55874 2.683901 -0.795609 3 0 3 
z
" id="m688d3bc09c" style="stroke:#0000ff;"/>
    </defs>
    <g clip-path="url(#p7a95916ea7)">
     <use style="fill:#0000ff;stroke:#0000ff;" x="78.658267" xlink:href="#m688d3bc09c" y="451.440907"/>
     <use style="fill:#0000ff;stroke:#0000ff;" x="117.695814" xlink:href="#m688d3bc09c" y="370.551299"/>
     <use style="fill:#0000ff;stroke:#0000ff;" x="140.194599" xlink:href="#m688d3bc09c" y="369.601503"/>
     <use style="fill:#0000ff;stroke:#0000ff;" x="156.440111" xlink:href="#m688d3bc09c" y="335.45773"/>
     <use style="fill:#0000ff;stroke:#0000ff;" x="169.365294" xlink:href="#m688d3bc09c" y="328.786233"/>
     <use style="fill:#0000ff;stroke:#0000ff;" x="180.210941" xlink:href="#m688d3bc09c" y="327.929615"/>
     <use style="fill:#0000ff;stroke:#0000ff;" x="189.624074" xlink:href="#m688d3bc09c" y="323.12354"/>
     <use style="fill:#0000ff;stroke:#0000ff;" x="197.986867" xlink:href="#m688d3bc09c" y="316.905173"/>
     <use style="fill:#0000ff;stroke:#0000ff;" x="205.544768" xlink:href="#m688d3bc09c" y="312.631608"/>
     <use style="fill:#0000ff;stroke:#0000ff;" x="212.465225" xlink:href="#m688d3bc09c" y="305.882006"/>
     <use style="fill:#0000ff;stroke:#0000ff;" x="218.867825" xlink:href="#m688d3bc09c" y="305.600607"/>
     <use style="fill:#0000ff;stroke:#0000ff;" x="224.8411" xlink:href="#m688d3bc09c" y="292.720007"/>
     <use style="fill:#0000ff;stroke:#0000ff;" x="230.452518" xlink:href="#m688d3bc09c" y="285.990767"/>
     <use style="fill:#0000ff;stroke:#0000ff;" x="235.754741" xlink:href="#m688d3bc09c" y="284.711715"/>
     <use style="fill:#0000ff;stroke:#0000ff;" x="240.789704" xlink:href="#m688d3bc09c" y="283.048908"/>
     <use style="fill:#0000ff;stroke:#0000ff;" x="245.591384" xlink:href="#m688d3bc09c" y="278.112711"/>
     <use style="fill:#0000ff;stroke:#0000ff;" x="250.187712" xlink:href="#m688d3bc09c" y="276.793464"/>
     <use style="fill:#0000ff;stroke:#0000ff;" x="254.601952" xlink:href="#m688d3bc09c" y="275.182754"/>
     <use style="fill:#0000ff;stroke:#0000ff;" x="258.853699" xlink:href="#m688d3bc09c" y="273.478736"/>
     <use style="fill:#0000ff;stroke:#0000ff;" x="262.959628" xlink:href="#m688d3bc09c" y="271.492483"/>
     <use style="fill:#0000ff;stroke:#0000ff;" x="266.934056" xlink:href="#m688d3bc09c" y="270.431961"/>
     <use style="fill:#0000ff;stroke:#0000ff;" x="270.789377" xlink:href="#m688d3bc09c" y="269.344265"/>
     <use style="fill:#0000ff;stroke:#0000ff;" x="274.536398" xlink:href="#m688d3bc09c" y="268.795802"/>
     <use style="fill:#0000ff;stroke:#0000ff;" x="278.184611" xlink:href="#m688d3bc09c" y="265.088965"/>
     <use style="fill:#0000ff;stroke:#0000ff;" x="281.7424" xlink:href="#m688d3bc09c" y="264.607964"/>
     <use style="fill:#0000ff;stroke:#0000ff;" x="285.217216" xlink:href="#m688d3bc09c" y="263.970984"/>
     <use style="fill:#0000ff;stroke:#0000ff;" x="288.615716" xlink:href="#m688d3bc09c" y="263.869463"/>
     <use style="fill:#0000ff;stroke:#0000ff;" x="291.943874" xlink:href="#m688d3bc09c" y="262.083819"/>
     <use style="fill:#0000ff;stroke:#0000ff;" x="295.207082" xlink:href="#m688d3bc09c" y="262.051422"/>
     <use style="fill:#0000ff;stroke:#0000ff;" x="298.410225" xlink:href="#m688d3bc09c" y="258.482042"/>
     <use style="fill:#0000ff;stroke:#0000ff;" x="301.557746" xlink:href="#m688d3bc09c" y="256.035657"/>
     <use style="fill:#0000ff;stroke:#0000ff;" x="304.653704" xlink:href="#m688d3bc09c" y="256.027129"/>
     <use style="fill:#0000ff;stroke:#0000ff;" x="307.701821" xlink:href="#m688d3bc09c" y="255.858496"/>
     <use style="fill:#0000ff;stroke:#0000ff;" x="310.705523" xlink:href="#m688d3bc09c" y="251.327212"/>
     <use style="fill:#0000ff;stroke:#0000ff;" x="313.667973" xlink:href="#m688d3bc09c" y="249.837312"/>
     <use style="fill:#0000ff;stroke:#0000ff;" x="316.592102" xlink:href="#m688d3bc09c" y="248.100221"/>
     <use style="fill:#0000ff;stroke:#0000ff;" x="319.480638" xlink:href="#m688d3bc09c" y="246.399674"/>
     <use style="fill:#0000ff;stroke:#0000ff;" x="322.336121" xlink:href="#m688d3bc09c" y="243.656054"/>
     <use style="fill:#0000ff;stroke:#0000ff;" x="325.160932" xlink:href="#m688d3bc09c" y="241.484779"/>
     <use style="fill:#0000ff;stroke:#0000ff;" x="327.957305" xlink:href="#m688d3bc09c" y="240.840085"/>
     <use style="fill:#0000ff;stroke:#0000ff;" x="330.727342" xlink:href="#m688d3bc09c" y="236.404827"/>
     <use style="fill:#0000ff;stroke:#0000ff;" x="333.473031" xlink:href="#m688d3bc09c" y="235.891872"/>
     <use style="fill:#0000ff;stroke:#0000ff;" x="336.196254" xlink:href="#m688d3bc09c" y="234.345074"/>
     <use style="fill:#0000ff;stroke:#0000ff;" x="338.898799" xlink:href="#m688d3bc09c" y="233.827882"/>
     <use style="fill:#0000ff;stroke:#0000ff;" x="341.582373" xlink:href="#m688d3bc09c" y="233.465588"/>
     <use style="fill:#0000ff;stroke:#0000ff;" x="344.248605" xlink:href="#m688d3bc09c" y="229.487225"/>
     <use style="fill:#0000ff;stroke:#0000ff;" x="346.89906" xlink:href="#m688d3bc09c" y="227.332617"/>
     <use style="fill:#0000ff;stroke:#0000ff;" x="349.535242" xlink:href="#m688d3bc09c" y="227.209412"/>
     <use style="fill:#0000ff;stroke:#0000ff;" x="352.158603" xlink:href="#m688d3bc09c" y="224.273248"/>
     <use style="fill:#0000ff;stroke:#0000ff;" x="354.770548" xlink:href="#m688d3bc09c" y="224.133449"/>
     <use style="fill:#0000ff;stroke:#0000ff;" x="357.372444" xlink:href="#m688d3bc09c" y="222.595105"/>
     <use style="fill:#0000ff;stroke:#0000ff;" x="359.965619" xlink:href="#m688d3bc09c" y="221.594769"/>
     <use style="fill:#0000ff;stroke:#0000ff;" x="362.551374" xlink:href="#m688d3bc09c" y="217.179655"/>
     <use style="fill:#0000ff;stroke:#0000ff;" x="365.130983" xlink:href="#m688d3bc09c" y="216.535889"/>
     <use style="fill:#0000ff;stroke:#0000ff;" x="367.7057" xlink:href="#m688d3bc09c" y="215.489947"/>
     <use style="fill:#0000ff;stroke:#0000ff;" x="370.276762" xlink:href="#m688d3bc09c" y="215.175561"/>
     <use style="fill:#0000ff;stroke:#0000ff;" x="372.845394" xlink:href="#m688d3bc09c" y="213.429108"/>
     <use style="fill:#0000ff;stroke:#0000ff;" x="375.412812" xlink:href="#m688d3bc09c" y="210.809651"/>
     <use style="fill:#0000ff;stroke:#0000ff;" x="377.980231" xlink:href="#m688d3bc09c" y="210.271593"/>
     <use style="fill:#0000ff;stroke:#0000ff;" x="380.548863" xlink:href="#m688d3bc09c" y="206.692516"/>
     <use style="fill:#0000ff;stroke:#0000ff;" x="383.119925" xlink:href="#m688d3bc09c" y="205.155309"/>
     <use style="fill:#0000ff;stroke:#0000ff;" x="385.694642" xlink:href="#m688d3bc09c" y="204.633139"/>
     <use style="fill:#0000ff;stroke:#0000ff;" x="388.274251" xlink:href="#m688d3bc09c" y="204.143351"/>
     <use style="fill:#0000ff;stroke:#0000ff;" x="390.860006" xlink:href="#m688d3bc09c" y="204.068516"/>
     <use style="fill:#0000ff;stroke:#0000ff;" x="393.453181" xlink:href="#m688d3bc09c" y="201.86459"/>
     <use style="fill:#0000ff;stroke:#0000ff;" x="396.055077" xlink:href="#m688d3bc09c" y="201.312063"/>
     <use style="fill:#0000ff;stroke:#0000ff;" x="398.667022" xlink:href="#m688d3bc09c" y="200.182189"/>
     <use style="fill:#0000ff;stroke:#0000ff;" x="401.290383" xlink:href="#m688d3bc09c" y="198.431269"/>
     <use style="fill:#0000ff;stroke:#0000ff;" x="403.926565" xlink:href="#m688d3bc09c" y="196.936908"/>
     <use style="fill:#0000ff;stroke:#0000ff;" x="406.57702" xlink:href="#m688d3bc09c" y="195.888939"/>
     <use style="fill:#0000ff;stroke:#0000ff;" x="409.243252" xlink:href="#m688d3bc09c" y="195.294162"/>
     <use style="fill:#0000ff;stroke:#0000ff;" x="411.926826" xlink:href="#m688d3bc09c" y="194.786565"/>
     <use style="fill:#0000ff;stroke:#0000ff;" x="414.629371" xlink:href="#m688d3bc09c" y="193.330503"/>
     <use style="fill:#0000ff;stroke:#0000ff;" x="417.352594" xlink:href="#m688d3bc09c" y="191.142357"/>
     <use style="fill:#0000ff;stroke:#0000ff;" x="420.098283" xlink:href="#m688d3bc09c" y="191.095051"/>
     <use style="fill:#0000ff;stroke:#0000ff;" x="422.86832" xlink:href="#m688d3bc09c" y="187.430074"/>
     <use style="fill:#0000ff;stroke:#0000ff;" x="425.664693" xlink:href="#m688d3bc09c" y="186.592011"/>
     <use style="fill:#0000ff;stroke:#0000ff;" x="428.489504" xlink:href="#m688d3bc09c" y="185.666003"/>
     <use style="fill:#0000ff;stroke:#0000ff;" x="431.344987" xlink:href="#m688d3bc09c" y="183.886835"/>
     <use style="fill:#0000ff;stroke:#0000ff;" x="434.233523" xlink:href="#m688d3bc09c" y="183.480102"/>
     <use style="fill:#0000ff;stroke:#0000ff;" x="437.157652" xlink:href="#m688d3bc09c" y="182.787856"/>
     <use style="fill:#0000ff;stroke:#0000ff;" x="440.120102" xlink:href="#m688d3bc09c" y="181.482272"/>
     <use style="fill:#0000ff;stroke:#0000ff;" x="443.123804" xlink:href="#m688d3bc09c" y="179.020581"/>
     <use style="fill:#0000ff;stroke:#0000ff;" x="446.171921" xlink:href="#m688d3bc09c" y="178.773896"/>
     <use style="fill:#0000ff;stroke:#0000ff;" x="449.267879" xlink:href="#m688d3bc09c" y="176.384267"/>
     <use style="fill:#0000ff;stroke:#0000ff;" x="452.4154" xlink:href="#m688d3bc09c" y="176.013245"/>
     <use style="fill:#0000ff;stroke:#0000ff;" x="455.618543" xlink:href="#m688d3bc09c" y="174.84728"/>
     <use style="fill:#0000ff;stroke:#0000ff;" x="458.881751" xlink:href="#m688d3bc09c" y="173.043043"/>
     <use style="fill:#0000ff;stroke:#0000ff;" x="462.209909" xlink:href="#m688d3bc09c" y="168.408451"/>
     <use style="fill:#0000ff;stroke:#0000ff;" x="465.608409" xlink:href="#m688d3bc09c" y="167.405732"/>
     <use style="fill:#0000ff;stroke:#0000ff;" x="469.083225" xlink:href="#m688d3bc09c" y="166.640854"/>
     <use style="fill:#0000ff;stroke:#0000ff;" x="472.641014" xlink:href="#m688d3bc09c" y="163.676759"/>
     <use style="fill:#0000ff;stroke:#0000ff;" x="476.289227" xlink:href="#m688d3bc09c" y="160.10754"/>
     <use style="fill:#0000ff;stroke:#0000ff;" x="480.036248" xlink:href="#m688d3bc09c" y="157.94507"/>
     <use style="fill:#0000ff;stroke:#0000ff;" x="483.891569" xlink:href="#m688d3bc09c" y="155.833092"/>
     <use style="fill:#0000ff;stroke:#0000ff;" x="487.865997" xlink:href="#m688d3bc09c" y="155.293313"/>
     <use style="fill:#0000ff;stroke:#0000ff;" x="491.971926" xlink:href="#m688d3bc09c" y="153.214545"/>
     <use style="fill:#0000ff;stroke:#0000ff;" x="496.223673" xlink:href="#m688d3bc09c" y="152.989432"/>
     <use style="fill:#0000ff;stroke:#0000ff;" x="500.637913" xlink:href="#m688d3bc09c" y="138.065868"/>
     <use style="fill:#0000ff;stroke:#0000ff;" x="505.234241" xlink:href="#m688d3bc09c" y="136.992655"/>
     <use style="fill:#0000ff;stroke:#0000ff;" x="510.035921" xlink:href="#m688d3bc09c" y="136.34489"/>
     <use style="fill:#0000ff;stroke:#0000ff;" x="515.070884" xlink:href="#m688d3bc09c" y="133.161236"/>
     <use style="fill:#0000ff;stroke:#0000ff;" x="520.373107" xlink:href="#m688d3bc09c" y="131.737217"/>
     <use style="fill:#0000ff;stroke:#0000ff;" x="525.984525" xlink:href="#m688d3bc09c" y="129.48759"/>
     <use style="fill:#0000ff;stroke:#0000ff;" x="531.9578" xlink:href="#m688d3bc09c" y="113.889395"/>
     <use style="fill:#0000ff;stroke:#0000ff;" x="538.3604" xlink:href="#m688d3bc09c" y="113.405016"/>
     <use style="fill:#0000ff;stroke:#0000ff;" x="545.280857" xlink:href="#m688d3bc09c" y="110.622405"/>
     <use style="fill:#0000ff;stroke:#0000ff;" x="552.838758" xlink:href="#m688d3bc09c" y="103.066873"/>
     <use style="fill:#0000ff;stroke:#0000ff;" x="561.201551" xlink:href="#m688d3bc09c" y="102.973758"/>
     <use style="fill:#0000ff;stroke:#0000ff;" x="570.614684" xlink:href="#m688d3bc09c" y="102.354136"/>
     <use style="fill:#0000ff;stroke:#0000ff;" x="581.460331" xlink:href="#m688d3bc09c" y="90.645675"/>
     <use style="fill:#0000ff;stroke:#0000ff;" x="594.385514" xlink:href="#m688d3bc09c" y="82.770322"/>
     <use style="fill:#0000ff;stroke:#0000ff;" x="610.631026" xlink:href="#m688d3bc09c" y="72.458443"/>
     <use style="fill:#0000ff;stroke:#0000ff;" x="633.129811" xlink:href="#m688d3bc09c" y="71.050277"/>
     <use style="fill:#0000ff;stroke:#0000ff;" x="672.167358" xlink:href="#m688d3bc09c" y="68.910992"/>
    </g>
   </g>
   <g id="line2d_15">
    <path clip-path="url(#p7a95916ea7)" d="M 78.658267 385.612743 
L 117.695814 363.06141 
L 140.194599 350.064241 
L 156.440111 340.679482 
L 169.365294 333.212822 
L 180.210941 326.947475 
L 189.624074 321.509666 
L 197.986867 316.678622 
L 205.544768 312.31255 
L 212.465225 308.314719 
L 218.867825 304.616044 
L 224.8411 301.165384 
L 230.452518 297.923762 
L 235.754741 294.860758 
L 240.789704 291.952144 
L 245.591384 289.178295 
L 250.187712 286.523074 
L 254.601952 283.973042 
L 258.853699 281.516879 
L 262.959628 279.144953 
L 266.934056 276.848993 
L 270.789377 274.621839 
L 274.536398 272.457248 
L 278.184611 270.349737 
L 281.7424 268.294462 
L 285.217216 266.287119 
L 288.615716 264.323863 
L 291.943874 262.401242 
L 295.207082 260.516142 
L 298.410225 258.66574 
L 301.557746 256.847471 
L 304.653704 255.058988 
L 307.701821 253.298142 
L 310.705523 251.562954 
L 313.667973 249.851597 
L 316.592102 248.162376 
L 319.480638 246.493718 
L 322.336121 244.844153 
L 325.160932 243.212308 
L 327.957305 241.59689 
L 330.727342 239.996686 
L 333.473031 238.410548 
L 336.196254 236.837388 
L 338.898799 235.276173 
L 341.582373 233.725918 
L 344.248605 232.185681 
L 346.89906 230.654558 
L 349.535242 229.13168 
L 352.158603 227.616208 
L 354.770548 226.107331 
L 357.372444 224.60426 
L 359.965619 223.106226 
L 362.551374 221.612479 
L 365.130983 220.122283 
L 367.7057 218.634912 
L 370.276762 217.149653 
L 372.845394 215.665798 
L 375.412812 214.182643 
L 377.980231 212.699489 
L 380.548863 211.215633 
L 383.119925 209.730374 
L 385.694642 208.243004 
L 388.274251 206.752807 
L 390.860006 205.25906 
L 393.453181 203.761026 
L 396.055077 202.257955 
L 398.667022 200.749078 
L 401.290383 199.233607 
L 403.926565 197.710729 
L 406.57702 196.179606 
L 409.243252 194.639368 
L 411.926826 193.089113 
L 414.629371 191.527898 
L 417.352594 189.954738 
L 420.098283 188.3686 
L 422.86832 186.768396 
L 425.664693 185.152979 
L 428.489504 183.521133 
L 431.344987 181.871568 
L 434.233523 180.20291 
L 437.157652 178.51369 
L 440.120102 176.802332 
L 443.123804 175.067144 
L 446.171921 173.306298 
L 449.267879 171.517816 
L 452.4154 169.699546 
L 455.618543 167.849145 
L 458.881751 165.964044 
L 462.209909 164.041423 
L 465.608409 162.078167 
L 469.083225 160.070825 
L 472.641014 158.01555 
L 476.289227 155.908039 
L 480.036248 153.743447 
L 483.891569 151.516294 
L 487.865997 149.220334 
L 491.971926 146.848408 
L 496.223673 144.392245 
L 500.637913 141.842213 
L 505.234241 139.186992 
L 510.035921 136.413142 
L 515.070884 133.504529 
L 520.373107 130.441524 
L 525.984525 127.199903 
L 531.9578 123.749242 
L 538.3604 120.050568 
L 545.280857 116.052736 
L 552.838758 111.686665 
L 561.201551 106.85562 
L 570.614684 101.417812 
L 581.460331 95.152464 
L 594.385514 87.685804 
L 610.631026 78.301045 
L 633.129811 65.303876 
L 672.167358 42.752543 
" style="fill:none;stroke:#ff0000;stroke-linecap:square;stroke-width:1.5;"/>
   </g>
   <g id="patch_3">
    <path d="M 48.982813 471.875325 
L 48.982813 22.318125 
" style="fill:none;stroke:#000000;stroke-linecap:square;stroke-linejoin:miter;stroke-width:0.8;"/>
   </g>
   <g id="patch_4">
    <path d="M 701.842812 471.875325 
L 701.842812 22.318125 
" style="fill:none;stroke:#000000;stroke-linecap:square;stroke-linejoin:miter;stroke-width:0.8;"/>
   </g>
   <g id="patch_5">
    <path d="M 48.982813 471.875325 
L 701.842812 471.875325 
" style="fill:none;stroke:#000000;stroke-linecap:square;stroke-linejoin:miter;stroke-width:0.8;"/>
   </g>
   <g id="patch_6">
    <path d="M 48.982813 22.318125 
L 701.842812 22.318125 
" style="fill:none;stroke:#000000;stroke-linecap:square;stroke-linejoin:miter;stroke-width:0.8;"/>
   </g>
   <g id="text_16">
    <!-- Normal Q-Q plot -->
    <defs>
     <path d="M 9.8125 72.90625 
L 23.09375 72.90625 
L 55.421875 11.921875 
L 55.421875 72.90625 
L 64.984375 72.90625 
L 64.984375 0 
L 51.703125 0 
L 19.390625 60.984375 
L 19.390625 0 
L 9.8125 0 
z
" id="DejaVuSans-78"/>
     <path d="M 52 44.1875 
Q 55.375 50.25 60.0625 53.125 
Q 64.75 56 71.09375 56 
Q 79.640625 56 84.28125 50.015625 
Q 88.921875 44.046875 88.921875 33.015625 
L 88.921875 0 
L 79.890625 0 
L 79.890625 32.71875 
Q 79.890625 40.578125 77.09375 44.375 
Q 74.3125 48.1875 68.609375 48.1875 
Q 61.625 48.1875 57.5625 43.546875 
Q 53.515625 38.921875 53.515625 30.90625 
L 53.515625 0 
L 44.484375 0 
L 44.484375 32.71875 
Q 44.484375 40.625 41.703125 44.40625 
Q 38.921875 48.1875 33.109375 48.1875 
Q 26.21875 48.1875 22.15625 43.53125 
Q 18.109375 38.875 18.109375 30.90625 
L 18.109375 0 
L 9.078125 0 
L 9.078125 54.6875 
L 18.109375 54.6875 
L 18.109375 46.1875 
Q 21.1875 51.21875 25.484375 53.609375 
Q 29.78125 56 35.6875 56 
Q 41.65625 56 45.828125 52.96875 
Q 50 49.953125 52 44.1875 
z
" id="DejaVuSans-109"/>
     <path d="M 39.40625 66.21875 
Q 28.65625 66.21875 22.328125 58.203125 
Q 16.015625 50.203125 16.015625 36.375 
Q 16.015625 22.609375 22.328125 14.59375 
Q 28.65625 6.59375 39.40625 6.59375 
Q 50.140625 6.59375 56.421875 14.59375 
Q 62.703125 22.609375 62.703125 36.375 
Q 62.703125 50.203125 56.421875 58.203125 
Q 50.140625 66.21875 39.40625 66.21875 
z
M 53.21875 1.3125 
L 66.21875 -12.890625 
L 54.296875 -12.890625 
L 43.5 -1.21875 
Q 41.890625 -1.3125 41.03125 -1.359375 
Q 40.1875 -1.421875 39.40625 -1.421875 
Q 24.03125 -1.421875 14.8125 8.859375 
Q 5.609375 19.140625 5.609375 36.375 
Q 5.609375 53.65625 14.8125 63.9375 
Q 24.03125 74.21875 39.40625 74.21875 
Q 54.734375 74.21875 63.90625 63.9375 
Q 73.09375 53.65625 73.09375 36.375 
Q 73.09375 23.6875 67.984375 14.640625 
Q 62.890625 5.609375 53.21875 1.3125 
z
" id="DejaVuSans-81"/>
     <path d="M 4.890625 31.390625 
L 31.203125 31.390625 
L 31.203125 23.390625 
L 4.890625 23.390625 
z
" id="DejaVuSans-45"/>
     <path d="M 18.109375 8.203125 
L 18.109375 -20.796875 
L 9.078125 -20.796875 
L 9.078125 54.6875 
L 18.109375 54.6875 
L 18.109375 46.390625 
Q 20.953125 51.265625 25.265625 53.625 
Q 29.59375 56 35.59375 56 
Q 45.5625 56 51.78125 48.09375 
Q 58.015625 40.1875 58.015625 27.296875 
Q 58.015625 14.40625 51.78125 6.484375 
Q 45.5625 -1.421875 35.59375 -1.421875 
Q 29.59375 -1.421875 25.265625 0.953125 
Q 20.953125 3.328125 18.109375 8.203125 
z
M 48.6875 27.296875 
Q 48.6875 37.203125 44.609375 42.84375 
Q 40.53125 48.484375 33.40625 48.484375 
Q 26.265625 48.484375 22.1875 42.84375 
Q 18.109375 37.203125 18.109375 27.296875 
Q 18.109375 17.390625 22.1875 11.75 
Q 26.265625 6.109375 33.40625 6.109375 
Q 40.53125 6.109375 44.609375 11.75 
Q 48.6875 17.390625 48.6875 27.296875 
z
" id="DejaVuSans-112"/>
    </defs>
    <g transform="translate(326.670312 16.318125)scale(0.12 -0.12)">
     <use xlink:href="#DejaVuSans-78"/>
     <use x="74.804688" xlink:href="#DejaVuSans-111"/>
     <use x="135.986328" xlink:href="#DejaVuSans-114"/>
     <use x="177.083984" xlink:href="#DejaVuSans-109"/>
     <use x="274.496094" xlink:href="#DejaVuSans-97"/>
     <use x="335.775391" xlink:href="#DejaVuSans-108"/>
     <use x="363.558594" xlink:href="#DejaVuSans-32"/>
     <use x="395.345703" xlink:href="#DejaVuSans-81"/>
     <use x="474.087891" xlink:href="#DejaVuSans-45"/>
     <use x="510.21875" xlink:href="#DejaVuSans-81"/>
     <use x="588.929688" xlink:href="#DejaVuSans-32"/>
     <use x="620.716797" xlink:href="#DejaVuSans-112"/>
     <use x="684.193359" xlink:href="#DejaVuSans-108"/>
     <use x="711.976562" xlink:href="#DejaVuSans-111"/>
     <use x="773.158203" xlink:href="#DejaVuSans-116"/>
    </g>
   </g>
  </g>
 </g>
 <defs>
  <clipPath id="p7a95916ea7">
   <rect height="449.5572" width="652.86" x="48.982813" y="22.318125"/>
  </clipPath>
 </defs>
</svg>
