<?xml version="1.0" encoding="utf-8" standalone="no"?>
<!DOCTYPE svg PUBLIC "-//W3C//DTD SVG 1.1//EN"
  "http://www.w3.org/Graphics/SVG/1.1/DTD/svg11.dtd">
<!-- Created with matplotlib (https://matplotlib.org/) -->
<svg height="509.431575pt" version="1.1" viewBox="0 0 713.70375 509.431575" width="713.70375pt" xmlns="http://www.w3.org/2000/svg" xmlns:xlink="http://www.w3.org/1999/xlink">
 <defs>
  <style type="text/css">
*{stroke-linecap:butt;stroke-linejoin:round;}
  </style>
 </defs>
 <g id="figure_1">
  <g id="patch_1">
   <path d="M 0 509.431575 
L 713.70375 509.431575 
L 713.70375 0 
L 0 0 
z
" style="fill:#ffffff;"/>
  </g>
  <g id="axes_1">
   <g id="patch_2">
    <path d="M 50.14375 471.875325 
L 703.00375 471.875325 
L 703.00375 22.318125 
L 50.14375 22.318125 
z
" style="fill:#ffffff;"/>
   </g>
   <g id="PolyCollection_1">
    <defs>
     <path d="M 79.819205 -446.116119 
L 79.819205 -446.116119 
L 82.801662 -455.213539 
L 85.78412 -456.913775 
L 88.766578 -458.395855 
L 91.749036 -459.466692 
L 94.731493 -460.183836 
L 97.713951 -460.417233 
L 100.696409 -460.833945 
L 103.678866 -461.115728 
L 106.661324 -461.208442 
L 109.643782 -461.621634 
L 112.62624 -461.511286 
L 115.608697 -461.740744 
L 118.591155 -461.515115 
L 121.573613 -461.660541 
L 124.556071 -461.50801 
L 127.538528 -461.235533 
L 130.520986 -461.354856 
L 133.503444 -460.921056 
L 136.485902 -461.052048 
L 139.468359 -460.494246 
L 142.450817 -459.992061 
L 145.433275 -459.901366 
L 148.415733 -459.497261 
L 151.39819 -459.367831 
L 154.380648 -458.671158 
L 157.363106 -458.412244 
L 160.345564 -457.872423 
L 163.328021 -457.218827 
L 166.310479 -456.783392 
L 169.292937 -455.903555 
L 172.275395 -455.566658 
L 175.257852 -454.483849 
L 178.24031 -454.086297 
L 181.222768 -453.340786 
L 184.205226 -452.443986 
L 187.187683 -451.611738 
L 190.170141 -450.972768 
L 193.152599 -449.820843 
L 196.135057 -448.885011 
L 199.117514 -448.148588 
L 202.099972 -446.995761 
L 205.08243 -446.005082 
L 208.064888 -444.525142 
L 211.047345 -443.716266 
L 214.029803 -442.448033 
L 217.012261 -441.079774 
L 219.994718 -439.944789 
L 222.977176 -438.798672 
L 225.959634 -436.864661 
L 228.942092 -435.73967 
L 231.924549 -434.743899 
L 234.907007 -433.185604 
L 237.889465 -431.823058 
L 240.871923 -430.452948 
L 243.85438 -428.974734 
L 246.836838 -427.490399 
L 249.819296 -425.592911 
L 252.801754 -424.3657 
L 255.784211 -423.000018 
L 258.766669 -421.613499 
L 261.749127 -419.260516 
L 264.731585 -418.541329 
L 267.714042 -416.78132 
L 270.6965 -414.847262 
L 273.678958 -413.158702 
L 276.661416 -411.310181 
L 279.643873 -409.303951 
L 282.626331 -408.182579 
L 285.608789 -405.996621 
L 288.591247 -403.546748 
L 291.573704 -402.331044 
L 294.556162 -399.734776 
L 297.53862 -398.009922 
L 300.521078 -397.680222 
L 303.503535 -395.386037 
L 306.485993 -393.205765 
L 309.468451 -390.477008 
L 312.450909 -388.694472 
L 315.433366 -387.438992 
L 318.415824 -384.89385 
L 321.398282 -382.202138 
L 324.380739 -379.90732 
L 327.363197 -379.535959 
L 330.345655 -376.564676 
L 333.328113 -375.285373 
L 336.31057 -371.947925 
L 339.293028 -371.027423 
L 342.275486 -369.671965 
L 345.257944 -366.878835 
L 348.240401 -363.539722 
L 351.222859 -361.41629 
L 354.205317 -359.959098 
L 357.187775 -357.353844 
L 360.170232 -356.009933 
L 363.15269 -351.95095 
L 366.135148 -352.239724 
L 369.117606 -350.230646 
L 372.100063 -346.316942 
L 375.082521 -342.829626 
L 378.064979 -341.847294 
L 381.047437 -339.424669 
L 384.029894 -338.447568 
L 387.012352 -334.897751 
L 389.99481 -332.225963 
L 392.977268 -330.555338 
L 395.959725 -330.844744 
L 398.942183 -327.342001 
L 401.924641 -320.69167 
L 404.907099 -318.999349 
L 407.889556 -319.816685 
L 410.872014 -315.579733 
L 413.854472 -312.639856 
L 416.83693 -311.069399 
L 419.819387 -311.487204 
L 422.801845 -307.997158 
L 425.784303 -303.229938 
L 428.766761 -301.049213 
L 431.749218 -299.695925 
L 434.731676 -297.551004 
L 437.714134 -295.359945 
L 440.696591 -289.319961 
L 443.679049 -290.843182 
L 446.661507 -286.60075 
L 449.643965 -282.68815 
L 452.626422 -282.51686 
L 455.60888 -278.812918 
L 458.591338 -276.727418 
L 461.573796 -274.044271 
L 464.556253 -268.558843 
L 467.538711 -267.864001 
L 470.521169 -265.871825 
L 473.503627 -261.67075 
L 476.486084 -259.445419 
L 479.468542 -256.816166 
L 482.451 -252.821898 
L 485.433458 -252.635178 
L 488.415915 -248.599329 
L 491.398373 -246.728439 
L 494.380831 -242.287527 
L 497.363289 -241.694147 
L 500.345746 -237.472332 
L 503.328204 -236.451734 
L 506.310662 -232.049378 
L 509.29312 -227.850371 
L 512.275577 -225.201454 
L 515.258035 -222.780472 
L 518.240493 -218.238243 
L 521.222951 -216.97901 
L 524.205408 -213.171585 
L 527.187866 -213.333387 
L 530.170324 -210.424938 
L 533.152782 -206.555837 
L 536.135239 -202.190489 
L 539.117697 -201.063201 
L 542.100155 -196.921943 
L 545.082612 -192.365555 
L 548.06507 -193.072893 
L 551.047528 -186.224761 
L 554.029986 -184.895363 
L 557.012443 -182.856022 
L 559.994901 -181.997396 
L 562.977359 -175.527828 
L 565.959817 -172.193845 
L 568.942274 -172.56966 
L 571.924732 -164.075887 
L 574.90719 -166.004165 
L 577.889648 -160.622049 
L 580.872105 -157.786585 
L 583.854563 -157.351091 
L 586.837021 -153.025172 
L 589.819479 -149.03094 
L 592.801936 -145.573912 
L 595.784394 -143.340706 
L 598.766852 -139.784557 
L 601.74931 -134.101045 
L 604.731767 -133.824622 
L 607.714225 -132.791561 
L 610.696683 -127.797156 
L 613.679141 -127.560616 
L 616.661598 -121.602332 
L 619.644056 -120.430689 
L 622.626514 -117.275994 
L 625.608972 -111.730338 
L 628.591429 -109.262174 
L 631.573887 -108.076808 
L 634.556345 -99.711075 
L 637.538803 -102.486121 
L 640.52126 -96.240009 
L 643.503718 -90.498377 
L 646.486176 -83.815331 
L 649.468634 -83.470697 
L 652.451091 -80.364252 
L 655.433549 -80.307475 
L 658.416007 -76.909535 
L 661.398464 -73.976091 
L 664.380922 -67.149041 
L 667.36338 -70.161199 
L 670.345838 -63.910213 
L 673.328295 -57.990668 
L 673.328295 -170.63619 
L 673.328295 -170.63619 
L 670.345838 -174.629258 
L 667.36338 -178.038488 
L 664.380922 -175.26287 
L 661.398464 -180.705123 
L 658.416007 -177.155126 
L 655.433549 -182.652502 
L 652.451091 -186.200419 
L 649.468634 -188.647219 
L 646.486176 -193.539802 
L 643.503718 -196.204816 
L 640.52126 -195.239489 
L 637.538803 -198.811303 
L 634.556345 -201.154519 
L 631.573887 -206.461449 
L 628.591429 -206.41347 
L 625.608972 -209.838097 
L 622.626514 -214.395032 
L 619.644056 -213.150162 
L 616.661598 -219.655282 
L 613.679141 -221.771077 
L 610.696683 -221.381997 
L 607.714225 -227.533227 
L 604.731767 -226.625185 
L 601.74931 -232.222573 
L 598.766852 -232.504763 
L 595.784394 -237.129658 
L 592.801936 -239.306296 
L 589.819479 -241.495939 
L 586.837021 -244.752077 
L 583.854563 -242.22427 
L 580.872105 -249.308643 
L 577.889648 -247.247679 
L 574.90719 -250.43174 
L 571.924732 -251.399476 
L 568.942274 -255.261043 
L 565.959817 -263.15355 
L 562.977359 -262.322258 
L 559.994901 -263.706475 
L 557.012443 -270.095733 
L 554.029986 -268.283806 
L 551.047528 -272.580462 
L 548.06507 -273.170017 
L 545.082612 -277.204845 
L 542.100155 -277.728368 
L 539.117697 -279.742407 
L 536.135239 -280.940981 
L 533.152782 -286.092668 
L 530.170324 -285.966411 
L 527.187866 -291.885986 
L 524.205408 -290.565675 
L 521.222951 -292.38461 
L 518.240493 -293.985595 
L 515.258035 -296.936922 
L 512.275577 -302.194639 
L 509.29312 -303.034529 
L 506.310662 -304.19839 
L 503.328204 -306.632976 
L 500.345746 -309.148853 
L 497.363289 -309.993064 
L 494.380831 -315.361882 
L 491.398373 -314.814113 
L 488.415915 -318.477339 
L 485.433458 -319.169441 
L 482.451 -321.536995 
L 479.468542 -323.220185 
L 476.486084 -326.51387 
L 473.503627 -326.456395 
L 470.521169 -332.386943 
L 467.538711 -330.3433 
L 464.556253 -333.223244 
L 461.573796 -334.938899 
L 458.591338 -335.33477 
L 455.60888 -338.989698 
L 452.626422 -340.724327 
L 449.643965 -345.91769 
L 446.661507 -345.294018 
L 443.679049 -348.980389 
L 440.696591 -352.340838 
L 437.714134 -349.926171 
L 434.731676 -354.143014 
L 431.749218 -354.933221 
L 428.766761 -356.823545 
L 425.784303 -358.07887 
L 422.801845 -361.384758 
L 419.819387 -363.242941 
L 416.83693 -364.750118 
L 413.854472 -365.191392 
L 410.872014 -367.16377 
L 407.889556 -369.774629 
L 404.907099 -370.700796 
L 401.924641 -373.149092 
L 398.942183 -375.754923 
L 395.959725 -375.158715 
L 392.977268 -377.844239 
L 389.99481 -377.722817 
L 387.012352 -380.487511 
L 384.029894 -383.636504 
L 381.047437 -383.538491 
L 378.064979 -386.653315 
L 375.082521 -388.630321 
L 372.100063 -388.681586 
L 369.117606 -389.104813 
L 366.135148 -392.591505 
L 363.15269 -393.745008 
L 360.170232 -394.013834 
L 357.187775 -397.01174 
L 354.205317 -398.865662 
L 351.222859 -399.923482 
L 348.240401 -400.571258 
L 345.257944 -401.40435 
L 342.275486 -404.397201 
L 339.293028 -406.120966 
L 336.31057 -406.977093 
L 333.328113 -408.913968 
L 330.345655 -409.797174 
L 327.363197 -410.643792 
L 324.380739 -411.338785 
L 321.398282 -414.339541 
L 318.415824 -414.785029 
L 315.433366 -415.436566 
L 312.450909 -417.079353 
L 309.468451 -418.432002 
L 306.485993 -419.796552 
L 303.503535 -421.338125 
L 300.521078 -422.144635 
L 297.53862 -423.205866 
L 294.556162 -424.576782 
L 291.573704 -425.72908 
L 288.591247 -427.417382 
L 285.608789 -428.877884 
L 282.626331 -428.742421 
L 279.643873 -430.231656 
L 276.661416 -431.872725 
L 273.678958 -433.124921 
L 270.6965 -432.885368 
L 267.714042 -434.130402 
L 264.731585 -435.503393 
L 261.749127 -436.264322 
L 258.766669 -437.463486 
L 255.784211 -438.287446 
L 252.801754 -438.7492 
L 249.819296 -440.244702 
L 246.836838 -440.76194 
L 243.85438 -441.432356 
L 240.871923 -442.833097 
L 237.889465 -443.883998 
L 234.907007 -444.11897 
L 231.924549 -445.197847 
L 228.942092 -445.70865 
L 225.959634 -446.968162 
L 222.977176 -447.278811 
L 219.994718 -447.984512 
L 217.012261 -449.005648 
L 214.029803 -449.854756 
L 211.047345 -450.611584 
L 208.064888 -450.985346 
L 205.08243 -451.775934 
L 202.099972 -452.513035 
L 199.117514 -453.182817 
L 196.135057 -453.877232 
L 193.152599 -454.484836 
L 190.170141 -455.23875 
L 187.187683 -456.015654 
L 184.205226 -456.678333 
L 181.222768 -457.31326 
L 178.24031 -458.148448 
L 175.257852 -458.694124 
L 172.275395 -459.498286 
L 169.292937 -460.092933 
L 166.310479 -460.689772 
L 163.328021 -461.434887 
L 160.345564 -461.906718 
L 157.363106 -462.506573 
L 154.380648 -463.106821 
L 151.39819 -463.555915 
L 148.415733 -464.124729 
L 145.433275 -464.511078 
L 142.450817 -464.950461 
L 139.468359 -465.379721 
L 136.485902 -465.704635 
L 133.503444 -466.11592 
L 130.520986 -466.143648 
L 127.538528 -466.442705 
L 124.556071 -466.59733 
L 121.573613 -466.630617 
L 118.591155 -466.500436 
L 115.608697 -466.679032 
L 112.62624 -466.368506 
L 109.643782 -466.137032 
L 106.661324 -465.919646 
L 103.678866 -465.475632 
L 100.696409 -464.82723 
L 97.713951 -464.268068 
L 94.731493 -463.513382 
L 91.749036 -462.461752 
L 88.766578 -460.866987 
L 85.78412 -458.831506 
L 82.801662 -455.970045 
L 79.819205 -446.116119 
z
" id="m82aefeb27e" style="stroke:#1f77b4;stroke-opacity:0.2;"/>
    </defs>
    <g clip-path="url(#p688a8dfd81)">
     <use style="fill:#1f77b4;fill-opacity:0.2;stroke:#1f77b4;stroke-opacity:0.2;" x="0" xlink:href="#m82aefeb27e" y="509.431575"/>
    </g>
   </g>
   <g id="matplotlib.axis_1">
    <g id="xtick_1">
     <g id="line2d_1">
      <defs>
       <path d="M 0 0 
L 0 3.5 
" id="m29751e8950" style="stroke:#000000;stroke-width:0.8;"/>
      </defs>
      <g>
       <use style="stroke:#000000;stroke-width:0.8;" x="79.819205" xlink:href="#m29751e8950" y="471.875325"/>
      </g>
     </g>
     <g id="text_1">
      <!-- 0.00 -->
      <defs>
       <path d="M 31.78125 66.40625 
Q 24.171875 66.40625 20.328125 58.90625 
Q 16.5 51.421875 16.5 36.375 
Q 16.5 21.390625 20.328125 13.890625 
Q 24.171875 6.390625 31.78125 6.390625 
Q 39.453125 6.390625 43.28125 13.890625 
Q 47.125 21.390625 47.125 36.375 
Q 47.125 51.421875 43.28125 58.90625 
Q 39.453125 66.40625 31.78125 66.40625 
z
M 31.78125 74.21875 
Q 44.046875 74.21875 50.515625 64.515625 
Q 56.984375 54.828125 56.984375 36.375 
Q 56.984375 17.96875 50.515625 8.265625 
Q 44.046875 -1.421875 31.78125 -1.421875 
Q 19.53125 -1.421875 13.0625 8.265625 
Q 6.59375 17.96875 6.59375 36.375 
Q 6.59375 54.828125 13.0625 64.515625 
Q 19.53125 74.21875 31.78125 74.21875 
z
" id="DejaVuSans-48"/>
       <path d="M 10.6875 12.40625 
L 21 12.40625 
L 21 0 
L 10.6875 0 
z
" id="DejaVuSans-46"/>
      </defs>
      <g transform="translate(68.686392 486.473762)scale(0.1 -0.1)">
       <use xlink:href="#DejaVuSans-48"/>
       <use x="63.623047" xlink:href="#DejaVuSans-46"/>
       <use x="95.410156" xlink:href="#DejaVuSans-48"/>
       <use x="159.033203" xlink:href="#DejaVuSans-48"/>
      </g>
     </g>
    </g>
    <g id="xtick_2">
     <g id="line2d_2">
      <g>
       <use style="stroke:#000000;stroke-width:0.8;" x="154.007841" xlink:href="#m29751e8950" y="471.875325"/>
      </g>
     </g>
     <g id="text_2">
      <!-- 0.25 -->
      <defs>
       <path d="M 19.1875 8.296875 
L 53.609375 8.296875 
L 53.609375 0 
L 7.328125 0 
L 7.328125 8.296875 
Q 12.9375 14.109375 22.625 23.890625 
Q 32.328125 33.6875 34.8125 36.53125 
Q 39.546875 41.84375 41.421875 45.53125 
Q 43.3125 49.21875 43.3125 52.78125 
Q 43.3125 58.59375 39.234375 62.25 
Q 35.15625 65.921875 28.609375 65.921875 
Q 23.96875 65.921875 18.8125 64.3125 
Q 13.671875 62.703125 7.8125 59.421875 
L 7.8125 69.390625 
Q 13.765625 71.78125 18.9375 73 
Q 24.125 74.21875 28.421875 74.21875 
Q 39.75 74.21875 46.484375 68.546875 
Q 53.21875 62.890625 53.21875 53.421875 
Q 53.21875 48.921875 51.53125 44.890625 
Q 49.859375 40.875 45.40625 35.40625 
Q 44.1875 33.984375 37.640625 27.21875 
Q 31.109375 20.453125 19.1875 8.296875 
z
" id="DejaVuSans-50"/>
       <path d="M 10.796875 72.90625 
L 49.515625 72.90625 
L 49.515625 64.59375 
L 19.828125 64.59375 
L 19.828125 46.734375 
Q 21.96875 47.46875 24.109375 47.828125 
Q 26.265625 48.1875 28.421875 48.1875 
Q 40.625 48.1875 47.75 41.5 
Q 54.890625 34.8125 54.890625 23.390625 
Q 54.890625 11.625 47.5625 5.09375 
Q 40.234375 -1.421875 26.90625 -1.421875 
Q 22.3125 -1.421875 17.546875 -0.640625 
Q 12.796875 0.140625 7.71875 1.703125 
L 7.71875 11.625 
Q 12.109375 9.234375 16.796875 8.0625 
Q 21.484375 6.890625 26.703125 6.890625 
Q 35.15625 6.890625 40.078125 11.328125 
Q 45.015625 15.765625 45.015625 23.390625 
Q 45.015625 31 40.078125 35.4375 
Q 35.15625 39.890625 26.703125 39.890625 
Q 22.75 39.890625 18.8125 39.015625 
Q 14.890625 38.140625 10.796875 36.28125 
z
" id="DejaVuSans-53"/>
      </defs>
      <g transform="translate(142.875028 486.473762)scale(0.1 -0.1)">
       <use xlink:href="#DejaVuSans-48"/>
       <use x="63.623047" xlink:href="#DejaVuSans-46"/>
       <use x="95.410156" xlink:href="#DejaVuSans-50"/>
       <use x="159.033203" xlink:href="#DejaVuSans-53"/>
      </g>
     </g>
    </g>
    <g id="xtick_3">
     <g id="line2d_3">
      <g>
       <use style="stroke:#000000;stroke-width:0.8;" x="228.196477" xlink:href="#m29751e8950" y="471.875325"/>
      </g>
     </g>
     <g id="text_3">
      <!-- 0.50 -->
      <g transform="translate(217.063665 486.473762)scale(0.1 -0.1)">
       <use xlink:href="#DejaVuSans-48"/>
       <use x="63.623047" xlink:href="#DejaVuSans-46"/>
       <use x="95.410156" xlink:href="#DejaVuSans-53"/>
       <use x="159.033203" xlink:href="#DejaVuSans-48"/>
      </g>
     </g>
    </g>
    <g id="xtick_4">
     <g id="line2d_4">
      <g>
       <use style="stroke:#000000;stroke-width:0.8;" x="302.385114" xlink:href="#m29751e8950" y="471.875325"/>
      </g>
     </g>
     <g id="text_4">
      <!-- 0.75 -->
      <defs>
       <path d="M 8.203125 72.90625 
L 55.078125 72.90625 
L 55.078125 68.703125 
L 28.609375 0 
L 18.3125 0 
L 43.21875 64.59375 
L 8.203125 64.59375 
z
" id="DejaVuSans-55"/>
      </defs>
      <g transform="translate(291.252301 486.473762)scale(0.1 -0.1)">
       <use xlink:href="#DejaVuSans-48"/>
       <use x="63.623047" xlink:href="#DejaVuSans-46"/>
       <use x="95.410156" xlink:href="#DejaVuSans-55"/>
       <use x="159.033203" xlink:href="#DejaVuSans-53"/>
      </g>
     </g>
    </g>
    <g id="xtick_5">
     <g id="line2d_5">
      <g>
       <use style="stroke:#000000;stroke-width:0.8;" x="376.57375" xlink:href="#m29751e8950" y="471.875325"/>
      </g>
     </g>
     <g id="text_5">
      <!-- 1.00 -->
      <defs>
       <path d="M 12.40625 8.296875 
L 28.515625 8.296875 
L 28.515625 63.921875 
L 10.984375 60.40625 
L 10.984375 69.390625 
L 28.421875 72.90625 
L 38.28125 72.90625 
L 38.28125 8.296875 
L 54.390625 8.296875 
L 54.390625 0 
L 12.40625 0 
z
" id="DejaVuSans-49"/>
      </defs>
      <g transform="translate(365.440938 486.473762)scale(0.1 -0.1)">
       <use xlink:href="#DejaVuSans-49"/>
       <use x="63.623047" xlink:href="#DejaVuSans-46"/>
       <use x="95.410156" xlink:href="#DejaVuSans-48"/>
       <use x="159.033203" xlink:href="#DejaVuSans-48"/>
      </g>
     </g>
    </g>
    <g id="xtick_6">
     <g id="line2d_6">
      <g>
       <use style="stroke:#000000;stroke-width:0.8;" x="450.762386" xlink:href="#m29751e8950" y="471.875325"/>
      </g>
     </g>
     <g id="text_6">
      <!-- 1.25 -->
      <g transform="translate(439.629574 486.473762)scale(0.1 -0.1)">
       <use xlink:href="#DejaVuSans-49"/>
       <use x="63.623047" xlink:href="#DejaVuSans-46"/>
       <use x="95.410156" xlink:href="#DejaVuSans-50"/>
       <use x="159.033203" xlink:href="#DejaVuSans-53"/>
      </g>
     </g>
    </g>
    <g id="xtick_7">
     <g id="line2d_7">
      <g>
       <use style="stroke:#000000;stroke-width:0.8;" x="524.951023" xlink:href="#m29751e8950" y="471.875325"/>
      </g>
     </g>
     <g id="text_7">
      <!-- 1.50 -->
      <g transform="translate(513.81821 486.473762)scale(0.1 -0.1)">
       <use xlink:href="#DejaVuSans-49"/>
       <use x="63.623047" xlink:href="#DejaVuSans-46"/>
       <use x="95.410156" xlink:href="#DejaVuSans-53"/>
       <use x="159.033203" xlink:href="#DejaVuSans-48"/>
      </g>
     </g>
    </g>
    <g id="xtick_8">
     <g id="line2d_8">
      <g>
       <use style="stroke:#000000;stroke-width:0.8;" x="599.139659" xlink:href="#m29751e8950" y="471.875325"/>
      </g>
     </g>
     <g id="text_8">
      <!-- 1.75 -->
      <g transform="translate(588.006847 486.473762)scale(0.1 -0.1)">
       <use xlink:href="#DejaVuSans-49"/>
       <use x="63.623047" xlink:href="#DejaVuSans-46"/>
       <use x="95.410156" xlink:href="#DejaVuSans-55"/>
       <use x="159.033203" xlink:href="#DejaVuSans-53"/>
      </g>
     </g>
    </g>
    <g id="xtick_9">
     <g id="line2d_9">
      <g>
       <use style="stroke:#000000;stroke-width:0.8;" x="673.328295" xlink:href="#m29751e8950" y="471.875325"/>
      </g>
     </g>
     <g id="text_9">
      <!-- 2.00 -->
      <g transform="translate(662.195483 486.473762)scale(0.1 -0.1)">
       <use xlink:href="#DejaVuSans-50"/>
       <use x="63.623047" xlink:href="#DejaVuSans-46"/>
       <use x="95.410156" xlink:href="#DejaVuSans-48"/>
       <use x="159.033203" xlink:href="#DejaVuSans-48"/>
      </g>
     </g>
    </g>
    <g id="text_10">
     <!-- Lamba Tuning Grid -->
     <defs>
      <path d="M 9.8125 72.90625 
L 19.671875 72.90625 
L 19.671875 8.296875 
L 55.171875 8.296875 
L 55.171875 0 
L 9.8125 0 
z
" id="DejaVuSans-76"/>
      <path d="M 34.28125 27.484375 
Q 23.390625 27.484375 19.1875 25 
Q 14.984375 22.515625 14.984375 16.5 
Q 14.984375 11.71875 18.140625 8.90625 
Q 21.296875 6.109375 26.703125 6.109375 
Q 34.1875 6.109375 38.703125 11.40625 
Q 43.21875 16.703125 43.21875 25.484375 
L 43.21875 27.484375 
z
M 52.203125 31.203125 
L 52.203125 0 
L 43.21875 0 
L 43.21875 8.296875 
Q 40.140625 3.328125 35.546875 0.953125 
Q 30.953125 -1.421875 24.3125 -1.421875 
Q 15.921875 -1.421875 10.953125 3.296875 
Q 6 8.015625 6 15.921875 
Q 6 25.140625 12.171875 29.828125 
Q 18.359375 34.515625 30.609375 34.515625 
L 43.21875 34.515625 
L 43.21875 35.40625 
Q 43.21875 41.609375 39.140625 45 
Q 35.0625 48.390625 27.6875 48.390625 
Q 23 48.390625 18.546875 47.265625 
Q 14.109375 46.140625 10.015625 43.890625 
L 10.015625 52.203125 
Q 14.9375 54.109375 19.578125 55.046875 
Q 24.21875 56 28.609375 56 
Q 40.484375 56 46.34375 49.84375 
Q 52.203125 43.703125 52.203125 31.203125 
z
" id="DejaVuSans-97"/>
      <path d="M 52 44.1875 
Q 55.375 50.25 60.0625 53.125 
Q 64.75 56 71.09375 56 
Q 79.640625 56 84.28125 50.015625 
Q 88.921875 44.046875 88.921875 33.015625 
L 88.921875 0 
L 79.890625 0 
L 79.890625 32.71875 
Q 79.890625 40.578125 77.09375 44.375 
Q 74.3125 48.1875 68.609375 48.1875 
Q 61.625 48.1875 57.5625 43.546875 
Q 53.515625 38.921875 53.515625 30.90625 
L 53.515625 0 
L 44.484375 0 
L 44.484375 32.71875 
Q 44.484375 40.625 41.703125 44.40625 
Q 38.921875 48.1875 33.109375 48.1875 
Q 26.21875 48.1875 22.15625 43.53125 
Q 18.109375 38.875 18.109375 30.90625 
L 18.109375 0 
L 9.078125 0 
L 9.078125 54.6875 
L 18.109375 54.6875 
L 18.109375 46.1875 
Q 21.1875 51.21875 25.484375 53.609375 
Q 29.78125 56 35.6875 56 
Q 41.65625 56 45.828125 52.96875 
Q 50 49.953125 52 44.1875 
z
" id="DejaVuSans-109"/>
      <path d="M 48.6875 27.296875 
Q 48.6875 37.203125 44.609375 42.84375 
Q 40.53125 48.484375 33.40625 48.484375 
Q 26.265625 48.484375 22.1875 42.84375 
Q 18.109375 37.203125 18.109375 27.296875 
Q 18.109375 17.390625 22.1875 11.75 
Q 26.265625 6.109375 33.40625 6.109375 
Q 40.53125 6.109375 44.609375 11.75 
Q 48.6875 17.390625 48.6875 27.296875 
z
M 18.109375 46.390625 
Q 20.953125 51.265625 25.265625 53.625 
Q 29.59375 56 35.59375 56 
Q 45.5625 56 51.78125 48.09375 
Q 58.015625 40.1875 58.015625 27.296875 
Q 58.015625 14.40625 51.78125 6.484375 
Q 45.5625 -1.421875 35.59375 -1.421875 
Q 29.59375 -1.421875 25.265625 0.953125 
Q 20.953125 3.328125 18.109375 8.203125 
L 18.109375 0 
L 9.078125 0 
L 9.078125 75.984375 
L 18.109375 75.984375 
z
" id="DejaVuSans-98"/>
      <path id="DejaVuSans-32"/>
      <path d="M -0.296875 72.90625 
L 61.375 72.90625 
L 61.375 64.59375 
L 35.5 64.59375 
L 35.5 0 
L 25.59375 0 
L 25.59375 64.59375 
L -0.296875 64.59375 
z
" id="DejaVuSans-84"/>
      <path d="M 8.5 21.578125 
L 8.5 54.6875 
L 17.484375 54.6875 
L 17.484375 21.921875 
Q 17.484375 14.15625 20.5 10.265625 
Q 23.53125 6.390625 29.59375 6.390625 
Q 36.859375 6.390625 41.078125 11.03125 
Q 45.3125 15.671875 45.3125 23.6875 
L 45.3125 54.6875 
L 54.296875 54.6875 
L 54.296875 0 
L 45.3125 0 
L 45.3125 8.40625 
Q 42.046875 3.421875 37.71875 1 
Q 33.40625 -1.421875 27.6875 -1.421875 
Q 18.265625 -1.421875 13.375 4.4375 
Q 8.5 10.296875 8.5 21.578125 
z
M 31.109375 56 
z
" id="DejaVuSans-117"/>
      <path d="M 54.890625 33.015625 
L 54.890625 0 
L 45.90625 0 
L 45.90625 32.71875 
Q 45.90625 40.484375 42.875 44.328125 
Q 39.84375 48.1875 33.796875 48.1875 
Q 26.515625 48.1875 22.3125 43.546875 
Q 18.109375 38.921875 18.109375 30.90625 
L 18.109375 0 
L 9.078125 0 
L 9.078125 54.6875 
L 18.109375 54.6875 
L 18.109375 46.1875 
Q 21.34375 51.125 25.703125 53.5625 
Q 30.078125 56 35.796875 56 
Q 45.21875 56 50.046875 50.171875 
Q 54.890625 44.34375 54.890625 33.015625 
z
" id="DejaVuSans-110"/>
      <path d="M 9.421875 54.6875 
L 18.40625 54.6875 
L 18.40625 0 
L 9.421875 0 
z
M 9.421875 75.984375 
L 18.40625 75.984375 
L 18.40625 64.59375 
L 9.421875 64.59375 
z
" id="DejaVuSans-105"/>
      <path d="M 45.40625 27.984375 
Q 45.40625 37.75 41.375 43.109375 
Q 37.359375 48.484375 30.078125 48.484375 
Q 22.859375 48.484375 18.828125 43.109375 
Q 14.796875 37.75 14.796875 27.984375 
Q 14.796875 18.265625 18.828125 12.890625 
Q 22.859375 7.515625 30.078125 7.515625 
Q 37.359375 7.515625 41.375 12.890625 
Q 45.40625 18.265625 45.40625 27.984375 
z
M 54.390625 6.78125 
Q 54.390625 -7.171875 48.1875 -13.984375 
Q 42 -20.796875 29.203125 -20.796875 
Q 24.46875 -20.796875 20.265625 -20.09375 
Q 16.0625 -19.390625 12.109375 -17.921875 
L 12.109375 -9.1875 
Q 16.0625 -11.328125 19.921875 -12.34375 
Q 23.78125 -13.375 27.78125 -13.375 
Q 36.625 -13.375 41.015625 -8.765625 
Q 45.40625 -4.15625 45.40625 5.171875 
L 45.40625 9.625 
Q 42.625 4.78125 38.28125 2.390625 
Q 33.9375 0 27.875 0 
Q 17.828125 0 11.671875 7.65625 
Q 5.515625 15.328125 5.515625 27.984375 
Q 5.515625 40.671875 11.671875 48.328125 
Q 17.828125 56 27.875 56 
Q 33.9375 56 38.28125 53.609375 
Q 42.625 51.21875 45.40625 46.390625 
L 45.40625 54.6875 
L 54.390625 54.6875 
z
" id="DejaVuSans-103"/>
      <path d="M 59.515625 10.40625 
L 59.515625 29.984375 
L 43.40625 29.984375 
L 43.40625 38.09375 
L 69.28125 38.09375 
L 69.28125 6.78125 
Q 63.578125 2.734375 56.6875 0.65625 
Q 49.8125 -1.421875 42 -1.421875 
Q 24.90625 -1.421875 15.25 8.5625 
Q 5.609375 18.5625 5.609375 36.375 
Q 5.609375 54.25 15.25 64.234375 
Q 24.90625 74.21875 42 74.21875 
Q 49.125 74.21875 55.546875 72.453125 
Q 61.96875 70.703125 67.390625 67.28125 
L 67.390625 56.78125 
Q 61.921875 61.421875 55.765625 63.765625 
Q 49.609375 66.109375 42.828125 66.109375 
Q 29.4375 66.109375 22.71875 58.640625 
Q 16.015625 51.171875 16.015625 36.375 
Q 16.015625 21.625 22.71875 14.15625 
Q 29.4375 6.6875 42.828125 6.6875 
Q 48.046875 6.6875 52.140625 7.59375 
Q 56.25 8.5 59.515625 10.40625 
z
" id="DejaVuSans-71"/>
      <path d="M 41.109375 46.296875 
Q 39.59375 47.171875 37.8125 47.578125 
Q 36.03125 48 33.890625 48 
Q 26.265625 48 22.1875 43.046875 
Q 18.109375 38.09375 18.109375 28.8125 
L 18.109375 0 
L 9.078125 0 
L 9.078125 54.6875 
L 18.109375 54.6875 
L 18.109375 46.1875 
Q 20.953125 51.171875 25.484375 53.578125 
Q 30.03125 56 36.53125 56 
Q 37.453125 56 38.578125 55.875 
Q 39.703125 55.765625 41.0625 55.515625 
z
" id="DejaVuSans-114"/>
      <path d="M 45.40625 46.390625 
L 45.40625 75.984375 
L 54.390625 75.984375 
L 54.390625 0 
L 45.40625 0 
L 45.40625 8.203125 
Q 42.578125 3.328125 38.25 0.953125 
Q 33.9375 -1.421875 27.875 -1.421875 
Q 17.96875 -1.421875 11.734375 6.484375 
Q 5.515625 14.40625 5.515625 27.296875 
Q 5.515625 40.1875 11.734375 48.09375 
Q 17.96875 56 27.875 56 
Q 33.9375 56 38.25 53.625 
Q 42.578125 51.265625 45.40625 46.390625 
z
M 14.796875 27.296875 
Q 14.796875 17.390625 18.875 11.75 
Q 22.953125 6.109375 30.078125 6.109375 
Q 37.203125 6.109375 41.296875 11.75 
Q 45.40625 17.390625 45.40625 27.296875 
Q 45.40625 37.203125 41.296875 42.84375 
Q 37.203125 48.484375 30.078125 48.484375 
Q 22.953125 48.484375 18.875 42.84375 
Q 14.796875 37.203125 14.796875 27.296875 
z
" id="DejaVuSans-100"/>
     </defs>
     <g transform="translate(328.832344 500.151887)scale(0.1 -0.1)">
      <use xlink:href="#DejaVuSans-76"/>
      <use x="55.712891" xlink:href="#DejaVuSans-97"/>
      <use x="116.992188" xlink:href="#DejaVuSans-109"/>
      <use x="214.404297" xlink:href="#DejaVuSans-98"/>
      <use x="277.880859" xlink:href="#DejaVuSans-97"/>
      <use x="339.160156" xlink:href="#DejaVuSans-32"/>
      <use x="370.947266" xlink:href="#DejaVuSans-84"/>
      <use x="431.796875" xlink:href="#DejaVuSans-117"/>
      <use x="495.175781" xlink:href="#DejaVuSans-110"/>
      <use x="558.554688" xlink:href="#DejaVuSans-105"/>
      <use x="586.337891" xlink:href="#DejaVuSans-110"/>
      <use x="649.716797" xlink:href="#DejaVuSans-103"/>
      <use x="713.193359" xlink:href="#DejaVuSans-32"/>
      <use x="744.980469" xlink:href="#DejaVuSans-71"/>
      <use x="822.470703" xlink:href="#DejaVuSans-114"/>
      <use x="863.583984" xlink:href="#DejaVuSans-105"/>
      <use x="891.367188" xlink:href="#DejaVuSans-100"/>
     </g>
    </g>
   </g>
   <g id="matplotlib.axis_2">
    <g id="ytick_1">
     <g id="line2d_10">
      <defs>
       <path d="M 0 0 
L -3.5 0 
" id="m32f9fb91b4" style="stroke:#000000;stroke-width:0.8;"/>
      </defs>
      <g>
       <use style="stroke:#000000;stroke-width:0.8;" x="50.14375" xlink:href="#m32f9fb91b4" y="443.925453"/>
      </g>
     </g>
     <g id="text_11">
      <!-- 0.79 -->
      <defs>
       <path d="M 10.984375 1.515625 
L 10.984375 10.5 
Q 14.703125 8.734375 18.5 7.8125 
Q 22.3125 6.890625 25.984375 6.890625 
Q 35.75 6.890625 40.890625 13.453125 
Q 46.046875 20.015625 46.78125 33.40625 
Q 43.953125 29.203125 39.59375 26.953125 
Q 35.25 24.703125 29.984375 24.703125 
Q 19.046875 24.703125 12.671875 31.3125 
Q 6.296875 37.9375 6.296875 49.421875 
Q 6.296875 60.640625 12.9375 67.421875 
Q 19.578125 74.21875 30.609375 74.21875 
Q 43.265625 74.21875 49.921875 64.515625 
Q 56.59375 54.828125 56.59375 36.375 
Q 56.59375 19.140625 48.40625 8.859375 
Q 40.234375 -1.421875 26.421875 -1.421875 
Q 22.703125 -1.421875 18.890625 -0.6875 
Q 15.09375 0.046875 10.984375 1.515625 
z
M 30.609375 32.421875 
Q 37.25 32.421875 41.125 36.953125 
Q 45.015625 41.5 45.015625 49.421875 
Q 45.015625 57.28125 41.125 61.84375 
Q 37.25 66.40625 30.609375 66.40625 
Q 23.96875 66.40625 20.09375 61.84375 
Q 16.21875 57.28125 16.21875 49.421875 
Q 16.21875 41.5 20.09375 36.953125 
Q 23.96875 32.421875 30.609375 32.421875 
z
" id="DejaVuSans-57"/>
      </defs>
      <g transform="translate(20.878125 447.724672)scale(0.1 -0.1)">
       <use xlink:href="#DejaVuSans-48"/>
       <use x="63.623047" xlink:href="#DejaVuSans-46"/>
       <use x="95.410156" xlink:href="#DejaVuSans-55"/>
       <use x="159.033203" xlink:href="#DejaVuSans-57"/>
      </g>
     </g>
    </g>
    <g id="ytick_2">
     <g id="line2d_11">
      <g>
       <use style="stroke:#000000;stroke-width:0.8;" x="50.14375" xlink:href="#m32f9fb91b4" y="375.279311"/>
      </g>
     </g>
     <g id="text_12">
      <!-- 0.80 -->
      <defs>
       <path d="M 31.78125 34.625 
Q 24.75 34.625 20.71875 30.859375 
Q 16.703125 27.09375 16.703125 20.515625 
Q 16.703125 13.921875 20.71875 10.15625 
Q 24.75 6.390625 31.78125 6.390625 
Q 38.8125 6.390625 42.859375 10.171875 
Q 46.921875 13.96875 46.921875 20.515625 
Q 46.921875 27.09375 42.890625 30.859375 
Q 38.875 34.625 31.78125 34.625 
z
M 21.921875 38.8125 
Q 15.578125 40.375 12.03125 44.71875 
Q 8.5 49.078125 8.5 55.328125 
Q 8.5 64.0625 14.71875 69.140625 
Q 20.953125 74.21875 31.78125 74.21875 
Q 42.671875 74.21875 48.875 69.140625 
Q 55.078125 64.0625 55.078125 55.328125 
Q 55.078125 49.078125 51.53125 44.71875 
Q 48 40.375 41.703125 38.8125 
Q 48.828125 37.15625 52.796875 32.3125 
Q 56.78125 27.484375 56.78125 20.515625 
Q 56.78125 9.90625 50.3125 4.234375 
Q 43.84375 -1.421875 31.78125 -1.421875 
Q 19.734375 -1.421875 13.25 4.234375 
Q 6.78125 9.90625 6.78125 20.515625 
Q 6.78125 27.484375 10.78125 32.3125 
Q 14.796875 37.15625 21.921875 38.8125 
z
M 18.3125 54.390625 
Q 18.3125 48.734375 21.84375 45.5625 
Q 25.390625 42.390625 31.78125 42.390625 
Q 38.140625 42.390625 41.71875 45.5625 
Q 45.3125 48.734375 45.3125 54.390625 
Q 45.3125 60.0625 41.71875 63.234375 
Q 38.140625 66.40625 31.78125 66.40625 
Q 25.390625 66.40625 21.84375 63.234375 
Q 18.3125 60.0625 18.3125 54.390625 
z
" id="DejaVuSans-56"/>
      </defs>
      <g transform="translate(20.878125 379.07853)scale(0.1 -0.1)">
       <use xlink:href="#DejaVuSans-48"/>
       <use x="63.623047" xlink:href="#DejaVuSans-46"/>
       <use x="95.410156" xlink:href="#DejaVuSans-56"/>
       <use x="159.033203" xlink:href="#DejaVuSans-48"/>
      </g>
     </g>
    </g>
    <g id="ytick_3">
     <g id="line2d_12">
      <g>
       <use style="stroke:#000000;stroke-width:0.8;" x="50.14375" xlink:href="#m32f9fb91b4" y="306.633169"/>
      </g>
     </g>
     <g id="text_13">
      <!-- 0.81 -->
      <g transform="translate(20.878125 310.432388)scale(0.1 -0.1)">
       <use xlink:href="#DejaVuSans-48"/>
       <use x="63.623047" xlink:href="#DejaVuSans-46"/>
       <use x="95.410156" xlink:href="#DejaVuSans-56"/>
       <use x="159.033203" xlink:href="#DejaVuSans-49"/>
      </g>
     </g>
    </g>
    <g id="ytick_4">
     <g id="line2d_13">
      <g>
       <use style="stroke:#000000;stroke-width:0.8;" x="50.14375" xlink:href="#m32f9fb91b4" y="237.987027"/>
      </g>
     </g>
     <g id="text_14">
      <!-- 0.82 -->
      <g transform="translate(20.878125 241.786246)scale(0.1 -0.1)">
       <use xlink:href="#DejaVuSans-48"/>
       <use x="63.623047" xlink:href="#DejaVuSans-46"/>
       <use x="95.410156" xlink:href="#DejaVuSans-56"/>
       <use x="159.033203" xlink:href="#DejaVuSans-50"/>
      </g>
     </g>
    </g>
    <g id="ytick_5">
     <g id="line2d_14">
      <g>
       <use style="stroke:#000000;stroke-width:0.8;" x="50.14375" xlink:href="#m32f9fb91b4" y="169.340886"/>
      </g>
     </g>
     <g id="text_15">
      <!-- 0.83 -->
      <defs>
       <path d="M 40.578125 39.3125 
Q 47.65625 37.796875 51.625 33 
Q 55.609375 28.21875 55.609375 21.1875 
Q 55.609375 10.40625 48.1875 4.484375 
Q 40.765625 -1.421875 27.09375 -1.421875 
Q 22.515625 -1.421875 17.65625 -0.515625 
Q 12.796875 0.390625 7.625 2.203125 
L 7.625 11.71875 
Q 11.71875 9.328125 16.59375 8.109375 
Q 21.484375 6.890625 26.8125 6.890625 
Q 36.078125 6.890625 40.9375 10.546875 
Q 45.796875 14.203125 45.796875 21.1875 
Q 45.796875 27.640625 41.28125 31.265625 
Q 36.765625 34.90625 28.71875 34.90625 
L 20.21875 34.90625 
L 20.21875 43.015625 
L 29.109375 43.015625 
Q 36.375 43.015625 40.234375 45.921875 
Q 44.09375 48.828125 44.09375 54.296875 
Q 44.09375 59.90625 40.109375 62.90625 
Q 36.140625 65.921875 28.71875 65.921875 
Q 24.65625 65.921875 20.015625 65.03125 
Q 15.375 64.15625 9.8125 62.3125 
L 9.8125 71.09375 
Q 15.4375 72.65625 20.34375 73.4375 
Q 25.25 74.21875 29.59375 74.21875 
Q 40.828125 74.21875 47.359375 69.109375 
Q 53.90625 64.015625 53.90625 55.328125 
Q 53.90625 49.265625 50.4375 45.09375 
Q 46.96875 40.921875 40.578125 39.3125 
z
" id="DejaVuSans-51"/>
      </defs>
      <g transform="translate(20.878125 173.140104)scale(0.1 -0.1)">
       <use xlink:href="#DejaVuSans-48"/>
       <use x="63.623047" xlink:href="#DejaVuSans-46"/>
       <use x="95.410156" xlink:href="#DejaVuSans-56"/>
       <use x="159.033203" xlink:href="#DejaVuSans-51"/>
      </g>
     </g>
    </g>
    <g id="ytick_6">
     <g id="line2d_15">
      <g>
       <use style="stroke:#000000;stroke-width:0.8;" x="50.14375" xlink:href="#m32f9fb91b4" y="100.694744"/>
      </g>
     </g>
     <g id="text_16">
      <!-- 0.84 -->
      <defs>
       <path d="M 37.796875 64.3125 
L 12.890625 25.390625 
L 37.796875 25.390625 
z
M 35.203125 72.90625 
L 47.609375 72.90625 
L 47.609375 25.390625 
L 58.015625 25.390625 
L 58.015625 17.1875 
L 47.609375 17.1875 
L 47.609375 0 
L 37.796875 0 
L 37.796875 17.1875 
L 4.890625 17.1875 
L 4.890625 26.703125 
z
" id="DejaVuSans-52"/>
      </defs>
      <g transform="translate(20.878125 104.493963)scale(0.1 -0.1)">
       <use xlink:href="#DejaVuSans-48"/>
       <use x="63.623047" xlink:href="#DejaVuSans-46"/>
       <use x="95.410156" xlink:href="#DejaVuSans-56"/>
       <use x="159.033203" xlink:href="#DejaVuSans-52"/>
      </g>
     </g>
    </g>
    <g id="ytick_7">
     <g id="line2d_16">
      <g>
       <use style="stroke:#000000;stroke-width:0.8;" x="50.14375" xlink:href="#m32f9fb91b4" y="32.048602"/>
      </g>
     </g>
     <g id="text_17">
      <!-- 0.85 -->
      <g transform="translate(20.878125 35.847821)scale(0.1 -0.1)">
       <use xlink:href="#DejaVuSans-48"/>
       <use x="63.623047" xlink:href="#DejaVuSans-46"/>
       <use x="95.410156" xlink:href="#DejaVuSans-56"/>
       <use x="159.033203" xlink:href="#DejaVuSans-53"/>
      </g>
     </g>
    </g>
    <g id="text_18">
     <!-- R Squared -->
     <defs>
      <path d="M 44.390625 34.1875 
Q 47.5625 33.109375 50.5625 29.59375 
Q 53.5625 26.078125 56.59375 19.921875 
L 66.609375 0 
L 56 0 
L 46.6875 18.703125 
Q 43.0625 26.03125 39.671875 28.421875 
Q 36.28125 30.8125 30.421875 30.8125 
L 19.671875 30.8125 
L 19.671875 0 
L 9.8125 0 
L 9.8125 72.90625 
L 32.078125 72.90625 
Q 44.578125 72.90625 50.734375 67.671875 
Q 56.890625 62.453125 56.890625 51.90625 
Q 56.890625 45.015625 53.6875 40.46875 
Q 50.484375 35.9375 44.390625 34.1875 
z
M 19.671875 64.796875 
L 19.671875 38.921875 
L 32.078125 38.921875 
Q 39.203125 38.921875 42.84375 42.21875 
Q 46.484375 45.515625 46.484375 51.90625 
Q 46.484375 58.296875 42.84375 61.546875 
Q 39.203125 64.796875 32.078125 64.796875 
z
" id="DejaVuSans-82"/>
      <path d="M 53.515625 70.515625 
L 53.515625 60.890625 
Q 47.90625 63.578125 42.921875 64.890625 
Q 37.9375 66.21875 33.296875 66.21875 
Q 25.25 66.21875 20.875 63.09375 
Q 16.5 59.96875 16.5 54.203125 
Q 16.5 49.359375 19.40625 46.890625 
Q 22.3125 44.4375 30.421875 42.921875 
L 36.375 41.703125 
Q 47.40625 39.59375 52.65625 34.296875 
Q 57.90625 29 57.90625 20.125 
Q 57.90625 9.515625 50.796875 4.046875 
Q 43.703125 -1.421875 29.984375 -1.421875 
Q 24.8125 -1.421875 18.96875 -0.25 
Q 13.140625 0.921875 6.890625 3.21875 
L 6.890625 13.375 
Q 12.890625 10.015625 18.65625 8.296875 
Q 24.421875 6.59375 29.984375 6.59375 
Q 38.421875 6.59375 43.015625 9.90625 
Q 47.609375 13.234375 47.609375 19.390625 
Q 47.609375 24.75 44.3125 27.78125 
Q 41.015625 30.8125 33.5 32.328125 
L 27.484375 33.5 
Q 16.453125 35.6875 11.515625 40.375 
Q 6.59375 45.0625 6.59375 53.421875 
Q 6.59375 63.09375 13.40625 68.65625 
Q 20.21875 74.21875 32.171875 74.21875 
Q 37.3125 74.21875 42.625 73.28125 
Q 47.953125 72.359375 53.515625 70.515625 
z
" id="DejaVuSans-83"/>
      <path d="M 14.796875 27.296875 
Q 14.796875 17.390625 18.875 11.75 
Q 22.953125 6.109375 30.078125 6.109375 
Q 37.203125 6.109375 41.296875 11.75 
Q 45.40625 17.390625 45.40625 27.296875 
Q 45.40625 37.203125 41.296875 42.84375 
Q 37.203125 48.484375 30.078125 48.484375 
Q 22.953125 48.484375 18.875 42.84375 
Q 14.796875 37.203125 14.796875 27.296875 
z
M 45.40625 8.203125 
Q 42.578125 3.328125 38.25 0.953125 
Q 33.9375 -1.421875 27.875 -1.421875 
Q 17.96875 -1.421875 11.734375 6.484375 
Q 5.515625 14.40625 5.515625 27.296875 
Q 5.515625 40.1875 11.734375 48.09375 
Q 17.96875 56 27.875 56 
Q 33.9375 56 38.25 53.625 
Q 42.578125 51.265625 45.40625 46.390625 
L 45.40625 54.6875 
L 54.390625 54.6875 
L 54.390625 -20.796875 
L 45.40625 -20.796875 
z
" id="DejaVuSans-113"/>
      <path d="M 56.203125 29.59375 
L 56.203125 25.203125 
L 14.890625 25.203125 
Q 15.484375 15.921875 20.484375 11.0625 
Q 25.484375 6.203125 34.421875 6.203125 
Q 39.59375 6.203125 44.453125 7.46875 
Q 49.3125 8.734375 54.109375 11.28125 
L 54.109375 2.78125 
Q 49.265625 0.734375 44.1875 -0.34375 
Q 39.109375 -1.421875 33.890625 -1.421875 
Q 20.796875 -1.421875 13.15625 6.1875 
Q 5.515625 13.8125 5.515625 26.8125 
Q 5.515625 40.234375 12.765625 48.109375 
Q 20.015625 56 32.328125 56 
Q 43.359375 56 49.78125 48.890625 
Q 56.203125 41.796875 56.203125 29.59375 
z
M 47.21875 32.234375 
Q 47.125 39.59375 43.09375 43.984375 
Q 39.0625 48.390625 32.421875 48.390625 
Q 24.90625 48.390625 20.390625 44.140625 
Q 15.875 39.890625 15.1875 32.171875 
z
" id="DejaVuSans-101"/>
     </defs>
     <g transform="translate(14.798438 273.045944)rotate(-90)scale(0.1 -0.1)">
      <use xlink:href="#DejaVuSans-82"/>
      <use x="69.482422" xlink:href="#DejaVuSans-32"/>
      <use x="101.269531" xlink:href="#DejaVuSans-83"/>
      <use x="164.746094" xlink:href="#DejaVuSans-113"/>
      <use x="228.222656" xlink:href="#DejaVuSans-117"/>
      <use x="291.601562" xlink:href="#DejaVuSans-97"/>
      <use x="352.880859" xlink:href="#DejaVuSans-114"/>
      <use x="393.962891" xlink:href="#DejaVuSans-101"/>
      <use x="455.486328" xlink:href="#DejaVuSans-100"/>
     </g>
    </g>
   </g>
   <g id="line2d_17">
    <path clip-path="url(#p688a8dfd81)" d="M 79.819205 63.315456 
L 82.801662 53.821111 
L 85.78412 51.525826 
L 88.766578 49.745055 
L 91.749036 48.380878 
L 94.731493 47.608105 
L 100.696409 46.485098 
L 106.661324 45.729646 
L 112.62624 45.303345 
L 118.591155 45.132906 
L 124.556071 45.191767 
L 130.520986 45.46189 
L 136.485902 45.902402 
L 142.450817 46.52019 
L 148.415733 47.299092 
L 157.363106 48.755215 
L 166.310479 50.520817 
L 178.24031 53.236026 
L 187.187683 55.471404 
L 196.135057 57.883086 
L 205.08243 60.472466 
L 217.012261 64.221895 
L 225.959634 67.250168 
L 237.889465 71.575154 
L 246.836838 75.024898 
L 255.784211 78.656798 
L 267.714042 83.77313 
L 276.661416 87.803615 
L 288.591247 93.438765 
L 297.53862 97.870369 
L 309.468451 104.048333 
L 321.398282 110.49845 
L 333.328113 117.228696 
L 345.257944 124.205877 
L 357.187775 131.443552 
L 369.117606 138.930029 
L 381.047437 146.663266 
L 392.977268 154.622346 
L 404.907099 162.809397 
L 419.819387 173.344344 
L 434.731676 184.203415 
L 449.643965 195.384482 
L 464.556253 206.871081 
L 479.468542 218.641382 
L 494.380831 230.684475 
L 509.29312 242.998328 
L 524.205408 255.578679 
L 539.117697 268.423512 
L 557.012443 284.167326 
L 574.90719 300.245034 
L 592.801936 316.647287 
L 610.696683 333.361498 
L 628.591429 350.376728 
L 646.486176 367.68208 
L 664.380922 385.268284 
L 673.328295 394.166304 
L 673.328295 394.166304 
" style="fill:none;stroke:#1f77b4;stroke-linecap:square;stroke-width:1.5;"/>
   </g>
   <g id="patch_3">
    <path d="M 50.14375 471.875325 
L 50.14375 22.318125 
" style="fill:none;stroke:#000000;stroke-linecap:square;stroke-linejoin:miter;stroke-width:0.8;"/>
   </g>
   <g id="patch_4">
    <path d="M 703.00375 471.875325 
L 703.00375 22.318125 
" style="fill:none;stroke:#000000;stroke-linecap:square;stroke-linejoin:miter;stroke-width:0.8;"/>
   </g>
   <g id="patch_5">
    <path d="M 50.14375 471.875325 
L 703.00375 471.875325 
" style="fill:none;stroke:#000000;stroke-linecap:square;stroke-linejoin:miter;stroke-width:0.8;"/>
   </g>
   <g id="patch_6">
    <path d="M 50.14375 22.318125 
L 703.00375 22.318125 
" style="fill:none;stroke:#000000;stroke-linecap:square;stroke-linejoin:miter;stroke-width:0.8;"/>
   </g>
   <g id="text_19">
    <!-- Model Performance by 5-fold Cross Validation -->
    <defs>
     <path d="M 9.8125 72.90625 
L 24.515625 72.90625 
L 43.109375 23.296875 
L 61.8125 72.90625 
L 76.515625 72.90625 
L 76.515625 0 
L 66.890625 0 
L 66.890625 64.015625 
L 48.09375 14.015625 
L 38.1875 14.015625 
L 19.390625 64.015625 
L 19.390625 0 
L 9.8125 0 
z
" id="DejaVuSans-77"/>
     <path d="M 30.609375 48.390625 
Q 23.390625 48.390625 19.1875 42.75 
Q 14.984375 37.109375 14.984375 27.296875 
Q 14.984375 17.484375 19.15625 11.84375 
Q 23.34375 6.203125 30.609375 6.203125 
Q 37.796875 6.203125 41.984375 11.859375 
Q 46.1875 17.53125 46.1875 27.296875 
Q 46.1875 37.015625 41.984375 42.703125 
Q 37.796875 48.390625 30.609375 48.390625 
z
M 30.609375 56 
Q 42.328125 56 49.015625 48.375 
Q 55.71875 40.765625 55.71875 27.296875 
Q 55.71875 13.875 49.015625 6.21875 
Q 42.328125 -1.421875 30.609375 -1.421875 
Q 18.84375 -1.421875 12.171875 6.21875 
Q 5.515625 13.875 5.515625 27.296875 
Q 5.515625 40.765625 12.171875 48.375 
Q 18.84375 56 30.609375 56 
z
" id="DejaVuSans-111"/>
     <path d="M 9.421875 75.984375 
L 18.40625 75.984375 
L 18.40625 0 
L 9.421875 0 
z
" id="DejaVuSans-108"/>
     <path d="M 19.671875 64.796875 
L 19.671875 37.40625 
L 32.078125 37.40625 
Q 38.96875 37.40625 42.71875 40.96875 
Q 46.484375 44.53125 46.484375 51.125 
Q 46.484375 57.671875 42.71875 61.234375 
Q 38.96875 64.796875 32.078125 64.796875 
z
M 9.8125 72.90625 
L 32.078125 72.90625 
Q 44.34375 72.90625 50.609375 67.359375 
Q 56.890625 61.8125 56.890625 51.125 
Q 56.890625 40.328125 50.609375 34.8125 
Q 44.34375 29.296875 32.078125 29.296875 
L 19.671875 29.296875 
L 19.671875 0 
L 9.8125 0 
z
" id="DejaVuSans-80"/>
     <path d="M 37.109375 75.984375 
L 37.109375 68.5 
L 28.515625 68.5 
Q 23.6875 68.5 21.796875 66.546875 
Q 19.921875 64.59375 19.921875 59.515625 
L 19.921875 54.6875 
L 34.71875 54.6875 
L 34.71875 47.703125 
L 19.921875 47.703125 
L 19.921875 0 
L 10.890625 0 
L 10.890625 47.703125 
L 2.296875 47.703125 
L 2.296875 54.6875 
L 10.890625 54.6875 
L 10.890625 58.5 
Q 10.890625 67.625 15.140625 71.796875 
Q 19.390625 75.984375 28.609375 75.984375 
z
" id="DejaVuSans-102"/>
     <path d="M 48.78125 52.59375 
L 48.78125 44.1875 
Q 44.96875 46.296875 41.140625 47.34375 
Q 37.3125 48.390625 33.40625 48.390625 
Q 24.65625 48.390625 19.8125 42.84375 
Q 14.984375 37.3125 14.984375 27.296875 
Q 14.984375 17.28125 19.8125 11.734375 
Q 24.65625 6.203125 33.40625 6.203125 
Q 37.3125 6.203125 41.140625 7.25 
Q 44.96875 8.296875 48.78125 10.40625 
L 48.78125 2.09375 
Q 45.015625 0.34375 40.984375 -0.53125 
Q 36.96875 -1.421875 32.421875 -1.421875 
Q 20.0625 -1.421875 12.78125 6.34375 
Q 5.515625 14.109375 5.515625 27.296875 
Q 5.515625 40.671875 12.859375 48.328125 
Q 20.21875 56 33.015625 56 
Q 37.15625 56 41.109375 55.140625 
Q 45.0625 54.296875 48.78125 52.59375 
z
" id="DejaVuSans-99"/>
     <path d="M 32.171875 -5.078125 
Q 28.375 -14.84375 24.75 -17.8125 
Q 21.140625 -20.796875 15.09375 -20.796875 
L 7.90625 -20.796875 
L 7.90625 -13.28125 
L 13.1875 -13.28125 
Q 16.890625 -13.28125 18.9375 -11.515625 
Q 21 -9.765625 23.484375 -3.21875 
L 25.09375 0.875 
L 2.984375 54.6875 
L 12.5 54.6875 
L 29.59375 11.921875 
L 46.6875 54.6875 
L 56.203125 54.6875 
z
" id="DejaVuSans-121"/>
     <path d="M 4.890625 31.390625 
L 31.203125 31.390625 
L 31.203125 23.390625 
L 4.890625 23.390625 
z
" id="DejaVuSans-45"/>
     <path d="M 64.40625 67.28125 
L 64.40625 56.890625 
Q 59.421875 61.53125 53.78125 63.8125 
Q 48.140625 66.109375 41.796875 66.109375 
Q 29.296875 66.109375 22.65625 58.46875 
Q 16.015625 50.828125 16.015625 36.375 
Q 16.015625 21.96875 22.65625 14.328125 
Q 29.296875 6.6875 41.796875 6.6875 
Q 48.140625 6.6875 53.78125 8.984375 
Q 59.421875 11.28125 64.40625 15.921875 
L 64.40625 5.609375 
Q 59.234375 2.09375 53.4375 0.328125 
Q 47.65625 -1.421875 41.21875 -1.421875 
Q 24.65625 -1.421875 15.125 8.703125 
Q 5.609375 18.84375 5.609375 36.375 
Q 5.609375 53.953125 15.125 64.078125 
Q 24.65625 74.21875 41.21875 74.21875 
Q 47.75 74.21875 53.53125 72.484375 
Q 59.328125 70.75 64.40625 67.28125 
z
" id="DejaVuSans-67"/>
     <path d="M 44.28125 53.078125 
L 44.28125 44.578125 
Q 40.484375 46.53125 36.375 47.5 
Q 32.28125 48.484375 27.875 48.484375 
Q 21.1875 48.484375 17.84375 46.4375 
Q 14.5 44.390625 14.5 40.28125 
Q 14.5 37.15625 16.890625 35.375 
Q 19.28125 33.59375 26.515625 31.984375 
L 29.59375 31.296875 
Q 39.15625 29.25 43.1875 25.515625 
Q 47.21875 21.78125 47.21875 15.09375 
Q 47.21875 7.46875 41.1875 3.015625 
Q 35.15625 -1.421875 24.609375 -1.421875 
Q 20.21875 -1.421875 15.453125 -0.5625 
Q 10.6875 0.296875 5.421875 2 
L 5.421875 11.28125 
Q 10.40625 8.6875 15.234375 7.390625 
Q 20.0625 6.109375 24.8125 6.109375 
Q 31.15625 6.109375 34.5625 8.28125 
Q 37.984375 10.453125 37.984375 14.40625 
Q 37.984375 18.0625 35.515625 20.015625 
Q 33.0625 21.96875 24.703125 23.78125 
L 21.578125 24.515625 
Q 13.234375 26.265625 9.515625 29.90625 
Q 5.8125 33.546875 5.8125 39.890625 
Q 5.8125 47.609375 11.28125 51.796875 
Q 16.75 56 26.8125 56 
Q 31.78125 56 36.171875 55.265625 
Q 40.578125 54.546875 44.28125 53.078125 
z
" id="DejaVuSans-115"/>
     <path d="M 28.609375 0 
L 0.78125 72.90625 
L 11.078125 72.90625 
L 34.1875 11.53125 
L 57.328125 72.90625 
L 67.578125 72.90625 
L 39.796875 0 
z
" id="DejaVuSans-86"/>
     <path d="M 18.3125 70.21875 
L 18.3125 54.6875 
L 36.8125 54.6875 
L 36.8125 47.703125 
L 18.3125 47.703125 
L 18.3125 18.015625 
Q 18.3125 11.328125 20.140625 9.421875 
Q 21.96875 7.515625 27.59375 7.515625 
L 36.8125 7.515625 
L 36.8125 0 
L 27.59375 0 
Q 17.1875 0 13.234375 3.875 
Q 9.28125 7.765625 9.28125 18.015625 
L 9.28125 47.703125 
L 2.6875 47.703125 
L 2.6875 54.6875 
L 9.28125 54.6875 
L 9.28125 70.21875 
z
" id="DejaVuSans-116"/>
    </defs>
    <g transform="translate(239.420313 16.318125)scale(0.12 -0.12)">
     <use xlink:href="#DejaVuSans-77"/>
     <use x="86.279297" xlink:href="#DejaVuSans-111"/>
     <use x="147.460938" xlink:href="#DejaVuSans-100"/>
     <use x="210.9375" xlink:href="#DejaVuSans-101"/>
     <use x="272.460938" xlink:href="#DejaVuSans-108"/>
     <use x="300.244141" xlink:href="#DejaVuSans-32"/>
     <use x="332.03125" xlink:href="#DejaVuSans-80"/>
     <use x="392.287109" xlink:href="#DejaVuSans-101"/>
     <use x="453.810547" xlink:href="#DejaVuSans-114"/>
     <use x="494.923828" xlink:href="#DejaVuSans-102"/>
     <use x="530.128906" xlink:href="#DejaVuSans-111"/>
     <use x="591.310547" xlink:href="#DejaVuSans-114"/>
     <use x="632.408203" xlink:href="#DejaVuSans-109"/>
     <use x="729.820312" xlink:href="#DejaVuSans-97"/>
     <use x="791.099609" xlink:href="#DejaVuSans-110"/>
     <use x="854.478516" xlink:href="#DejaVuSans-99"/>
     <use x="909.458984" xlink:href="#DejaVuSans-101"/>
     <use x="970.982422" xlink:href="#DejaVuSans-32"/>
     <use x="1002.769531" xlink:href="#DejaVuSans-98"/>
     <use x="1066.246094" xlink:href="#DejaVuSans-121"/>
     <use x="1125.425781" xlink:href="#DejaVuSans-32"/>
     <use x="1157.212891" xlink:href="#DejaVuSans-53"/>
     <use x="1220.835938" xlink:href="#DejaVuSans-45"/>
     <use x="1256.919922" xlink:href="#DejaVuSans-102"/>
     <use x="1292.125" xlink:href="#DejaVuSans-111"/>
     <use x="1353.306641" xlink:href="#DejaVuSans-108"/>
     <use x="1381.089844" xlink:href="#DejaVuSans-100"/>
     <use x="1444.566406" xlink:href="#DejaVuSans-32"/>
     <use x="1476.353516" xlink:href="#DejaVuSans-67"/>
     <use x="1546.177734" xlink:href="#DejaVuSans-114"/>
     <use x="1587.259766" xlink:href="#DejaVuSans-111"/>
     <use x="1648.441406" xlink:href="#DejaVuSans-115"/>
     <use x="1700.541016" xlink:href="#DejaVuSans-115"/>
     <use x="1752.640625" xlink:href="#DejaVuSans-32"/>
     <use x="1784.427734" xlink:href="#DejaVuSans-86"/>
     <use x="1852.726562" xlink:href="#DejaVuSans-97"/>
     <use x="1914.005859" xlink:href="#DejaVuSans-108"/>
     <use x="1941.789062" xlink:href="#DejaVuSans-105"/>
     <use x="1969.572266" xlink:href="#DejaVuSans-100"/>
     <use x="2033.048828" xlink:href="#DejaVuSans-97"/>
     <use x="2094.328125" xlink:href="#DejaVuSans-116"/>
     <use x="2133.537109" xlink:href="#DejaVuSans-105"/>
     <use x="2161.320312" xlink:href="#DejaVuSans-111"/>
     <use x="2222.501953" xlink:href="#DejaVuSans-110"/>
    </g>
   </g>
  </g>
 </g>
 <defs>
  <clipPath id="p688a8dfd81">
   <rect height="449.5572" width="652.86" x="50.14375" y="22.318125"/>
  </clipPath>
 </defs>
</svg>
