<?xml version="1.0" encoding="utf-8" standalone="no"?>
<!DOCTYPE svg PUBLIC "-//W3C//DTD SVG 1.1//EN"
  "http://www.w3.org/Graphics/SVG/1.1/DTD/svg11.dtd">
<!-- Created with matplotlib (https://matplotlib.org/) -->
<svg height="509.431575pt" version="1.1" viewBox="0 0 713.70375 509.431575" width="713.70375pt" xmlns="http://www.w3.org/2000/svg" xmlns:xlink="http://www.w3.org/1999/xlink">
 <defs>
  <style type="text/css">
*{stroke-linecap:butt;stroke-linejoin:round;}
  </style>
 </defs>
 <g id="figure_1">
  <g id="patch_1">
   <path d="M 0 509.431575 
L 713.70375 509.431575 
L 713.70375 0 
L 0 0 
z
" style="fill:#ffffff;"/>
  </g>
  <g id="axes_1">
   <g id="patch_2">
    <path d="M 50.14375 471.875325 
L 703.00375 471.875325 
L 703.00375 22.318125 
L 50.14375 22.318125 
z
" style="fill:#ffffff;"/>
   </g>
   <g id="PolyCollection_1">
    <defs>
     <path d="M 79.819205 -448.715048 
L 79.819205 -448.715048 
L 82.801662 -455.151797 
L 85.78412 -456.914333 
L 88.766578 -458.473041 
L 91.749036 -459.580428 
L 94.731493 -460.179579 
L 97.713951 -460.458739 
L 100.696409 -460.72108 
L 103.678866 -461.098737 
L 106.661324 -461.427728 
L 109.643782 -461.477164 
L 112.62624 -461.819032 
L 115.608697 -461.61002 
L 118.591155 -461.525197 
L 121.573613 -461.756851 
L 124.556071 -461.283423 
L 127.538528 -461.294629 
L 130.520986 -461.2449 
L 133.503444 -461.044672 
L 136.485902 -460.832568 
L 139.468359 -460.562098 
L 142.450817 -460.163883 
L 145.433275 -460.135819 
L 148.415733 -459.535649 
L 151.39819 -459.02341 
L 154.380648 -458.743557 
L 157.363106 -458.250952 
L 160.345564 -457.698579 
L 163.328021 -457.357065 
L 166.310479 -456.527322 
L 169.292937 -456.044475 
L 172.275395 -455.211716 
L 175.257852 -454.417618 
L 178.24031 -454.018703 
L 181.222768 -453.132435 
L 184.205226 -452.453514 
L 187.187683 -451.746729 
L 190.170141 -450.877295 
L 193.152599 -449.756831 
L 196.135057 -448.878022 
L 199.117514 -447.683901 
L 202.099972 -446.822704 
L 205.08243 -445.678089 
L 208.064888 -444.864351 
L 211.047345 -443.602077 
L 214.029803 -442.102947 
L 217.012261 -440.832687 
L 219.994718 -439.684713 
L 222.977176 -438.365077 
L 225.959634 -436.80048 
L 228.942092 -435.740844 
L 231.924549 -434.33698 
L 234.907007 -432.569252 
L 237.889465 -431.78376 
L 240.871923 -430.10558 
L 243.85438 -428.371221 
L 246.836838 -427.233816 
L 249.819296 -425.767015 
L 252.801754 -423.833663 
L 255.784211 -422.351054 
L 258.766669 -420.413354 
L 261.749127 -419.53279 
L 264.731585 -416.933788 
L 267.714042 -416.430675 
L 270.6965 -414.927975 
L 273.678958 -413.335463 
L 276.661416 -411.209101 
L 279.643873 -409.783715 
L 282.626331 -407.367361 
L 285.608789 -405.504449 
L 288.591247 -403.848844 
L 291.573704 -402.866922 
L 294.556162 -398.936704 
L 297.53862 -398.231009 
L 300.521078 -396.337475 
L 303.503535 -394.249972 
L 306.485993 -391.943466 
L 309.468451 -390.640952 
L 312.450909 -388.935395 
L 315.433366 -386.530534 
L 318.415824 -385.404479 
L 321.398282 -383.183148 
L 324.380739 -380.917597 
L 327.363197 -377.974438 
L 330.345655 -375.08224 
L 333.328113 -374.120192 
L 336.31057 -372.44653 
L 339.293028 -370.335901 
L 342.275486 -369.140202 
L 345.257944 -367.280985 
L 348.240401 -364.055662 
L 351.222859 -361.873537 
L 354.205317 -359.93292 
L 357.187775 -356.952817 
L 360.170232 -354.026512 
L 363.15269 -351.75978 
L 366.135148 -351.79243 
L 369.117606 -349.566084 
L 372.100063 -345.168918 
L 375.082521 -346.244121 
L 378.064979 -340.199882 
L 381.047437 -338.563281 
L 384.029894 -336.201066 
L 387.012352 -335.015264 
L 389.99481 -333.275104 
L 392.977268 -330.559458 
L 395.959725 -326.013449 
L 398.942183 -325.610846 
L 401.924641 -320.377957 
L 404.907099 -320.866533 
L 407.889556 -318.618941 
L 410.872014 -316.359459 
L 413.854472 -314.232245 
L 416.83693 -307.954266 
L 419.819387 -306.995514 
L 422.801845 -307.006029 
L 425.784303 -301.439774 
L 428.766761 -298.331481 
L 431.749218 -295.174037 
L 434.731676 -294.69313 
L 437.714134 -291.57 
L 440.696591 -289.287483 
L 443.679049 -288.194242 
L 446.661507 -283.337246 
L 449.643965 -281.265391 
L 452.626422 -276.929639 
L 455.60888 -277.201941 
L 458.591338 -273.286462 
L 461.573796 -270.22353 
L 464.556253 -267.229835 
L 467.538711 -266.34318 
L 470.521169 -261.361394 
L 473.503627 -260.144587 
L 476.486084 -261.586381 
L 479.468542 -256.299075 
L 482.451 -252.135901 
L 485.433458 -250.117372 
L 488.415915 -250.278653 
L 491.398373 -243.0717 
L 494.380831 -238.8145 
L 497.363289 -237.387012 
L 500.345746 -238.120891 
L 503.328204 -234.320878 
L 506.310662 -228.867327 
L 509.29312 -227.637643 
L 512.275577 -224.102777 
L 515.258035 -222.078909 
L 518.240493 -217.831006 
L 521.222951 -216.583675 
L 524.205408 -212.342833 
L 527.187866 -212.685632 
L 530.170324 -206.478127 
L 533.152782 -204.958323 
L 536.135239 -200.966908 
L 539.117697 -197.969496 
L 542.100155 -196.123955 
L 545.082612 -190.849152 
L 548.06507 -187.285759 
L 551.047528 -186.162403 
L 554.029986 -184.140109 
L 557.012443 -182.316737 
L 559.994901 -179.354518 
L 562.977359 -175.260171 
L 565.959817 -171.67661 
L 568.942274 -168.35443 
L 571.924732 -165.604478 
L 574.90719 -159.510164 
L 577.889648 -159.228221 
L 580.872105 -161.117537 
L 583.854563 -153.111767 
L 586.837021 -147.215838 
L 589.819479 -147.592546 
L 592.801936 -144.080038 
L 595.784394 -138.676237 
L 598.766852 -138.123014 
L 601.74931 -137.391053 
L 604.731767 -131.620966 
L 607.714225 -125.680273 
L 610.696683 -127.907536 
L 613.679141 -121.724942 
L 616.661598 -118.892299 
L 619.644056 -116.026495 
L 622.626514 -112.097364 
L 625.608972 -109.192485 
L 628.591429 -106.705349 
L 631.573887 -106.102682 
L 634.556345 -102.982067 
L 637.538803 -99.159211 
L 640.52126 -96.343408 
L 643.503718 -90.820334 
L 646.486176 -90.593518 
L 649.468634 -84.562435 
L 652.451091 -80.985055 
L 655.433549 -80.969943 
L 658.416007 -74.759872 
L 661.398464 -74.044331 
L 664.380922 -68.161872 
L 667.36338 -64.883882 
L 670.345838 -57.990668 
L 673.328295 -58.412971 
L 673.328295 -161.916632 
L 673.328295 -161.916632 
L 670.345838 -169.536333 
L 667.36338 -173.32902 
L 664.380922 -172.073601 
L 661.398464 -178.804343 
L 658.416007 -178.287622 
L 655.433549 -179.933664 
L 652.451091 -187.022696 
L 649.468634 -186.769863 
L 646.486176 -189.396777 
L 643.503718 -193.685987 
L 640.52126 -196.450469 
L 637.538803 -200.155491 
L 634.556345 -201.401472 
L 631.573887 -201.899119 
L 628.591429 -204.776854 
L 625.608972 -210.206155 
L 622.626514 -210.333009 
L 619.644056 -214.58556 
L 616.661598 -215.337961 
L 613.679141 -218.110127 
L 610.696683 -222.371952 
L 607.714225 -229.495189 
L 604.731767 -226.39071 
L 601.74931 -229.791893 
L 598.766852 -233.701314 
L 595.784394 -233.138927 
L 592.801936 -235.96994 
L 589.819479 -237.421521 
L 586.837021 -242.023963 
L 583.854563 -242.698734 
L 580.872105 -244.98375 
L 577.889648 -247.701621 
L 574.90719 -252.822843 
L 571.924732 -251.773553 
L 568.942274 -257.031527 
L 565.959817 -257.846336 
L 562.977359 -259.763683 
L 559.994901 -267.030145 
L 557.012443 -264.137284 
L 554.029986 -266.58301 
L 551.047528 -270.768463 
L 548.06507 -275.7089 
L 545.082612 -278.710597 
L 542.100155 -275.840934 
L 539.117697 -279.533697 
L 536.135239 -284.671514 
L 533.152782 -284.588124 
L 530.170324 -283.346707 
L 527.187866 -288.219339 
L 524.205408 -289.82636 
L 521.222951 -295.53554 
L 518.240493 -295.618036 
L 515.258035 -298.578442 
L 512.275577 -298.36578 
L 509.29312 -300.789209 
L 506.310662 -304.267431 
L 503.328204 -305.132062 
L 500.345746 -304.547042 
L 497.363289 -310.183162 
L 494.380831 -312.862867 
L 491.398373 -313.218366 
L 488.415915 -315.032166 
L 485.433458 -318.465454 
L 482.451 -320.242665 
L 479.468542 -325.932919 
L 476.486084 -324.911966 
L 473.503627 -327.595318 
L 470.521169 -329.852782 
L 467.538711 -330.410597 
L 464.556253 -334.578249 
L 461.573796 -336.201103 
L 458.591338 -337.444576 
L 455.60888 -339.057184 
L 452.626422 -340.053718 
L 449.643965 -343.934066 
L 446.661507 -344.145745 
L 443.679049 -344.902401 
L 440.696591 -349.456636 
L 437.714134 -351.195854 
L 434.731676 -354.14576 
L 431.749218 -353.75427 
L 428.766761 -358.197002 
L 425.784303 -358.769558 
L 422.801845 -361.553159 
L 419.819387 -361.731829 
L 416.83693 -363.643416 
L 413.854472 -364.24108 
L 410.872014 -365.966319 
L 407.889556 -367.292893 
L 404.907099 -370.829662 
L 401.924641 -372.607321 
L 398.942183 -376.056657 
L 395.959725 -376.62844 
L 392.977268 -376.102908 
L 389.99481 -379.194803 
L 387.012352 -379.707606 
L 384.029894 -382.950293 
L 381.047437 -382.334769 
L 378.064979 -384.901769 
L 375.082521 -387.146534 
L 372.100063 -388.829218 
L 369.117606 -389.906421 
L 366.135148 -392.619267 
L 363.15269 -392.728282 
L 360.170232 -394.42253 
L 357.187775 -396.122218 
L 354.205317 -397.783751 
L 351.222859 -399.595197 
L 348.240401 -400.579707 
L 345.257944 -402.906583 
L 342.275486 -403.737533 
L 339.293028 -405.855532 
L 336.31057 -405.814035 
L 333.328113 -408.089476 
L 330.345655 -409.756563 
L 327.363197 -409.111355 
L 324.380739 -412.836818 
L 321.398282 -413.905753 
L 318.415824 -414.510902 
L 315.433366 -415.990204 
L 312.450909 -417.64885 
L 309.468451 -418.031468 
L 306.485993 -419.626077 
L 303.503535 -421.384857 
L 300.521078 -421.586215 
L 297.53862 -422.936005 
L 294.556162 -424.80935 
L 291.573704 -425.52885 
L 288.591247 -426.339759 
L 285.608789 -428.111579 
L 282.626331 -428.885238 
L 279.643873 -429.973423 
L 276.661416 -431.713061 
L 273.678958 -431.598713 
L 270.6965 -433.589609 
L 267.714042 -434.245393 
L 264.731585 -434.96568 
L 261.749127 -436.753461 
L 258.766669 -437.100945 
L 255.784211 -437.748097 
L 252.801754 -438.883932 
L 249.819296 -439.368461 
L 246.836838 -441.040903 
L 243.85438 -441.311546 
L 240.871923 -442.678001 
L 237.889465 -443.264575 
L 234.907007 -444.18194 
L 231.924549 -444.759428 
L 228.942092 -445.564363 
L 225.959634 -446.395569 
L 222.977176 -447.369897 
L 219.994718 -448.30113 
L 217.012261 -448.935657 
L 214.029803 -449.594605 
L 211.047345 -450.654123 
L 208.064888 -451.017413 
L 205.08243 -451.917627 
L 202.099972 -452.471623 
L 199.117514 -453.302477 
L 196.135057 -453.764363 
L 193.152599 -454.350568 
L 190.170141 -455.307102 
L 187.187683 -456.095623 
L 184.205226 -456.721237 
L 181.222768 -457.257041 
L 178.24031 -457.937646 
L 175.257852 -458.929329 
L 172.275395 -459.448749 
L 169.292937 -460.116339 
L 166.310479 -460.698051 
L 163.328021 -461.280358 
L 160.345564 -461.851495 
L 157.363106 -462.564761 
L 154.380648 -463.091371 
L 151.39819 -463.567533 
L 148.415733 -464.083595 
L 145.433275 -464.625252 
L 142.450817 -465.002082 
L 139.468359 -465.369756 
L 136.485902 -465.693491 
L 133.503444 -465.966408 
L 130.520986 -466.19591 
L 127.538528 -466.403301 
L 124.556071 -466.482119 
L 121.573613 -466.613473 
L 118.591155 -466.679032 
L 115.608697 -466.554775 
L 112.62624 -466.530416 
L 109.643782 -466.3251 
L 106.661324 -465.89038 
L 103.678866 -465.572264 
L 100.696409 -464.927137 
L 97.713951 -464.197589 
L 94.731493 -463.360585 
L 91.749036 -462.485799 
L 88.766578 -460.859816 
L 85.78412 -458.861075 
L 82.801662 -455.938401 
L 79.819205 -448.715048 
z
" id="m808c816860" style="stroke:#008000;stroke-opacity:0.2;"/>
    </defs>
    <g clip-path="url(#pe0d4012b7e)">
     <use style="fill:#008000;fill-opacity:0.2;stroke:#008000;stroke-opacity:0.2;" x="0" xlink:href="#m808c816860" y="509.431575"/>
    </g>
   </g>
   <g id="matplotlib.axis_1">
    <g id="xtick_1">
     <g id="line2d_1">
      <defs>
       <path d="M 0 0 
L 0 3.5 
" id="ma0b90807b3" style="stroke:#000000;stroke-width:0.8;"/>
      </defs>
      <g>
       <use style="stroke:#000000;stroke-width:0.8;" x="79.819205" xlink:href="#ma0b90807b3" y="471.875325"/>
      </g>
     </g>
     <g id="text_1">
      <!-- 0.00 -->
      <defs>
       <path d="M 31.78125 66.40625 
Q 24.171875 66.40625 20.328125 58.90625 
Q 16.5 51.421875 16.5 36.375 
Q 16.5 21.390625 20.328125 13.890625 
Q 24.171875 6.390625 31.78125 6.390625 
Q 39.453125 6.390625 43.28125 13.890625 
Q 47.125 21.390625 47.125 36.375 
Q 47.125 51.421875 43.28125 58.90625 
Q 39.453125 66.40625 31.78125 66.40625 
z
M 31.78125 74.21875 
Q 44.046875 74.21875 50.515625 64.515625 
Q 56.984375 54.828125 56.984375 36.375 
Q 56.984375 17.96875 50.515625 8.265625 
Q 44.046875 -1.421875 31.78125 -1.421875 
Q 19.53125 -1.421875 13.0625 8.265625 
Q 6.59375 17.96875 6.59375 36.375 
Q 6.59375 54.828125 13.0625 64.515625 
Q 19.53125 74.21875 31.78125 74.21875 
z
" id="DejaVuSans-48"/>
       <path d="M 10.6875 12.40625 
L 21 12.40625 
L 21 0 
L 10.6875 0 
z
" id="DejaVuSans-46"/>
      </defs>
      <g transform="translate(68.686392 486.473762)scale(0.1 -0.1)">
       <use xlink:href="#DejaVuSans-48"/>
       <use x="63.623047" xlink:href="#DejaVuSans-46"/>
       <use x="95.410156" xlink:href="#DejaVuSans-48"/>
       <use x="159.033203" xlink:href="#DejaVuSans-48"/>
      </g>
     </g>
    </g>
    <g id="xtick_2">
     <g id="line2d_2">
      <g>
       <use style="stroke:#000000;stroke-width:0.8;" x="154.007841" xlink:href="#ma0b90807b3" y="471.875325"/>
      </g>
     </g>
     <g id="text_2">
      <!-- 0.25 -->
      <defs>
       <path d="M 19.1875 8.296875 
L 53.609375 8.296875 
L 53.609375 0 
L 7.328125 0 
L 7.328125 8.296875 
Q 12.9375 14.109375 22.625 23.890625 
Q 32.328125 33.6875 34.8125 36.53125 
Q 39.546875 41.84375 41.421875 45.53125 
Q 43.3125 49.21875 43.3125 52.78125 
Q 43.3125 58.59375 39.234375 62.25 
Q 35.15625 65.921875 28.609375 65.921875 
Q 23.96875 65.921875 18.8125 64.3125 
Q 13.671875 62.703125 7.8125 59.421875 
L 7.8125 69.390625 
Q 13.765625 71.78125 18.9375 73 
Q 24.125 74.21875 28.421875 74.21875 
Q 39.75 74.21875 46.484375 68.546875 
Q 53.21875 62.890625 53.21875 53.421875 
Q 53.21875 48.921875 51.53125 44.890625 
Q 49.859375 40.875 45.40625 35.40625 
Q 44.1875 33.984375 37.640625 27.21875 
Q 31.109375 20.453125 19.1875 8.296875 
z
" id="DejaVuSans-50"/>
       <path d="M 10.796875 72.90625 
L 49.515625 72.90625 
L 49.515625 64.59375 
L 19.828125 64.59375 
L 19.828125 46.734375 
Q 21.96875 47.46875 24.109375 47.828125 
Q 26.265625 48.1875 28.421875 48.1875 
Q 40.625 48.1875 47.75 41.5 
Q 54.890625 34.8125 54.890625 23.390625 
Q 54.890625 11.625 47.5625 5.09375 
Q 40.234375 -1.421875 26.90625 -1.421875 
Q 22.3125 -1.421875 17.546875 -0.640625 
Q 12.796875 0.140625 7.71875 1.703125 
L 7.71875 11.625 
Q 12.109375 9.234375 16.796875 8.0625 
Q 21.484375 6.890625 26.703125 6.890625 
Q 35.15625 6.890625 40.078125 11.328125 
Q 45.015625 15.765625 45.015625 23.390625 
Q 45.015625 31 40.078125 35.4375 
Q 35.15625 39.890625 26.703125 39.890625 
Q 22.75 39.890625 18.8125 39.015625 
Q 14.890625 38.140625 10.796875 36.28125 
z
" id="DejaVuSans-53"/>
      </defs>
      <g transform="translate(142.875028 486.473762)scale(0.1 -0.1)">
       <use xlink:href="#DejaVuSans-48"/>
       <use x="63.623047" xlink:href="#DejaVuSans-46"/>
       <use x="95.410156" xlink:href="#DejaVuSans-50"/>
       <use x="159.033203" xlink:href="#DejaVuSans-53"/>
      </g>
     </g>
    </g>
    <g id="xtick_3">
     <g id="line2d_3">
      <g>
       <use style="stroke:#000000;stroke-width:0.8;" x="228.196477" xlink:href="#ma0b90807b3" y="471.875325"/>
      </g>
     </g>
     <g id="text_3">
      <!-- 0.50 -->
      <g transform="translate(217.063665 486.473762)scale(0.1 -0.1)">
       <use xlink:href="#DejaVuSans-48"/>
       <use x="63.623047" xlink:href="#DejaVuSans-46"/>
       <use x="95.410156" xlink:href="#DejaVuSans-53"/>
       <use x="159.033203" xlink:href="#DejaVuSans-48"/>
      </g>
     </g>
    </g>
    <g id="xtick_4">
     <g id="line2d_4">
      <g>
       <use style="stroke:#000000;stroke-width:0.8;" x="302.385114" xlink:href="#ma0b90807b3" y="471.875325"/>
      </g>
     </g>
     <g id="text_4">
      <!-- 0.75 -->
      <defs>
       <path d="M 8.203125 72.90625 
L 55.078125 72.90625 
L 55.078125 68.703125 
L 28.609375 0 
L 18.3125 0 
L 43.21875 64.59375 
L 8.203125 64.59375 
z
" id="DejaVuSans-55"/>
      </defs>
      <g transform="translate(291.252301 486.473762)scale(0.1 -0.1)">
       <use xlink:href="#DejaVuSans-48"/>
       <use x="63.623047" xlink:href="#DejaVuSans-46"/>
       <use x="95.410156" xlink:href="#DejaVuSans-55"/>
       <use x="159.033203" xlink:href="#DejaVuSans-53"/>
      </g>
     </g>
    </g>
    <g id="xtick_5">
     <g id="line2d_5">
      <g>
       <use style="stroke:#000000;stroke-width:0.8;" x="376.57375" xlink:href="#ma0b90807b3" y="471.875325"/>
      </g>
     </g>
     <g id="text_5">
      <!-- 1.00 -->
      <defs>
       <path d="M 12.40625 8.296875 
L 28.515625 8.296875 
L 28.515625 63.921875 
L 10.984375 60.40625 
L 10.984375 69.390625 
L 28.421875 72.90625 
L 38.28125 72.90625 
L 38.28125 8.296875 
L 54.390625 8.296875 
L 54.390625 0 
L 12.40625 0 
z
" id="DejaVuSans-49"/>
      </defs>
      <g transform="translate(365.440938 486.473762)scale(0.1 -0.1)">
       <use xlink:href="#DejaVuSans-49"/>
       <use x="63.623047" xlink:href="#DejaVuSans-46"/>
       <use x="95.410156" xlink:href="#DejaVuSans-48"/>
       <use x="159.033203" xlink:href="#DejaVuSans-48"/>
      </g>
     </g>
    </g>
    <g id="xtick_6">
     <g id="line2d_6">
      <g>
       <use style="stroke:#000000;stroke-width:0.8;" x="450.762386" xlink:href="#ma0b90807b3" y="471.875325"/>
      </g>
     </g>
     <g id="text_6">
      <!-- 1.25 -->
      <g transform="translate(439.629574 486.473762)scale(0.1 -0.1)">
       <use xlink:href="#DejaVuSans-49"/>
       <use x="63.623047" xlink:href="#DejaVuSans-46"/>
       <use x="95.410156" xlink:href="#DejaVuSans-50"/>
       <use x="159.033203" xlink:href="#DejaVuSans-53"/>
      </g>
     </g>
    </g>
    <g id="xtick_7">
     <g id="line2d_7">
      <g>
       <use style="stroke:#000000;stroke-width:0.8;" x="524.951023" xlink:href="#ma0b90807b3" y="471.875325"/>
      </g>
     </g>
     <g id="text_7">
      <!-- 1.50 -->
      <g transform="translate(513.81821 486.473762)scale(0.1 -0.1)">
       <use xlink:href="#DejaVuSans-49"/>
       <use x="63.623047" xlink:href="#DejaVuSans-46"/>
       <use x="95.410156" xlink:href="#DejaVuSans-53"/>
       <use x="159.033203" xlink:href="#DejaVuSans-48"/>
      </g>
     </g>
    </g>
    <g id="xtick_8">
     <g id="line2d_8">
      <g>
       <use style="stroke:#000000;stroke-width:0.8;" x="599.139659" xlink:href="#ma0b90807b3" y="471.875325"/>
      </g>
     </g>
     <g id="text_8">
      <!-- 1.75 -->
      <g transform="translate(588.006847 486.473762)scale(0.1 -0.1)">
       <use xlink:href="#DejaVuSans-49"/>
       <use x="63.623047" xlink:href="#DejaVuSans-46"/>
       <use x="95.410156" xlink:href="#DejaVuSans-55"/>
       <use x="159.033203" xlink:href="#DejaVuSans-53"/>
      </g>
     </g>
    </g>
    <g id="xtick_9">
     <g id="line2d_9">
      <g>
       <use style="stroke:#000000;stroke-width:0.8;" x="673.328295" xlink:href="#ma0b90807b3" y="471.875325"/>
      </g>
     </g>
     <g id="text_9">
      <!-- 2.00 -->
      <g transform="translate(662.195483 486.473762)scale(0.1 -0.1)">
       <use xlink:href="#DejaVuSans-50"/>
       <use x="63.623047" xlink:href="#DejaVuSans-46"/>
       <use x="95.410156" xlink:href="#DejaVuSans-48"/>
       <use x="159.033203" xlink:href="#DejaVuSans-48"/>
      </g>
     </g>
    </g>
    <g id="text_10">
     <!-- Lamba Tuning Grid -->
     <defs>
      <path d="M 9.8125 72.90625 
L 19.671875 72.90625 
L 19.671875 8.296875 
L 55.171875 8.296875 
L 55.171875 0 
L 9.8125 0 
z
" id="DejaVuSans-76"/>
      <path d="M 34.28125 27.484375 
Q 23.390625 27.484375 19.1875 25 
Q 14.984375 22.515625 14.984375 16.5 
Q 14.984375 11.71875 18.140625 8.90625 
Q 21.296875 6.109375 26.703125 6.109375 
Q 34.1875 6.109375 38.703125 11.40625 
Q 43.21875 16.703125 43.21875 25.484375 
L 43.21875 27.484375 
z
M 52.203125 31.203125 
L 52.203125 0 
L 43.21875 0 
L 43.21875 8.296875 
Q 40.140625 3.328125 35.546875 0.953125 
Q 30.953125 -1.421875 24.3125 -1.421875 
Q 15.921875 -1.421875 10.953125 3.296875 
Q 6 8.015625 6 15.921875 
Q 6 25.140625 12.171875 29.828125 
Q 18.359375 34.515625 30.609375 34.515625 
L 43.21875 34.515625 
L 43.21875 35.40625 
Q 43.21875 41.609375 39.140625 45 
Q 35.0625 48.390625 27.6875 48.390625 
Q 23 48.390625 18.546875 47.265625 
Q 14.109375 46.140625 10.015625 43.890625 
L 10.015625 52.203125 
Q 14.9375 54.109375 19.578125 55.046875 
Q 24.21875 56 28.609375 56 
Q 40.484375 56 46.34375 49.84375 
Q 52.203125 43.703125 52.203125 31.203125 
z
" id="DejaVuSans-97"/>
      <path d="M 52 44.1875 
Q 55.375 50.25 60.0625 53.125 
Q 64.75 56 71.09375 56 
Q 79.640625 56 84.28125 50.015625 
Q 88.921875 44.046875 88.921875 33.015625 
L 88.921875 0 
L 79.890625 0 
L 79.890625 32.71875 
Q 79.890625 40.578125 77.09375 44.375 
Q 74.3125 48.1875 68.609375 48.1875 
Q 61.625 48.1875 57.5625 43.546875 
Q 53.515625 38.921875 53.515625 30.90625 
L 53.515625 0 
L 44.484375 0 
L 44.484375 32.71875 
Q 44.484375 40.625 41.703125 44.40625 
Q 38.921875 48.1875 33.109375 48.1875 
Q 26.21875 48.1875 22.15625 43.53125 
Q 18.109375 38.875 18.109375 30.90625 
L 18.109375 0 
L 9.078125 0 
L 9.078125 54.6875 
L 18.109375 54.6875 
L 18.109375 46.1875 
Q 21.1875 51.21875 25.484375 53.609375 
Q 29.78125 56 35.6875 56 
Q 41.65625 56 45.828125 52.96875 
Q 50 49.953125 52 44.1875 
z
" id="DejaVuSans-109"/>
      <path d="M 48.6875 27.296875 
Q 48.6875 37.203125 44.609375 42.84375 
Q 40.53125 48.484375 33.40625 48.484375 
Q 26.265625 48.484375 22.1875 42.84375 
Q 18.109375 37.203125 18.109375 27.296875 
Q 18.109375 17.390625 22.1875 11.75 
Q 26.265625 6.109375 33.40625 6.109375 
Q 40.53125 6.109375 44.609375 11.75 
Q 48.6875 17.390625 48.6875 27.296875 
z
M 18.109375 46.390625 
Q 20.953125 51.265625 25.265625 53.625 
Q 29.59375 56 35.59375 56 
Q 45.5625 56 51.78125 48.09375 
Q 58.015625 40.1875 58.015625 27.296875 
Q 58.015625 14.40625 51.78125 6.484375 
Q 45.5625 -1.421875 35.59375 -1.421875 
Q 29.59375 -1.421875 25.265625 0.953125 
Q 20.953125 3.328125 18.109375 8.203125 
L 18.109375 0 
L 9.078125 0 
L 9.078125 75.984375 
L 18.109375 75.984375 
z
" id="DejaVuSans-98"/>
      <path id="DejaVuSans-32"/>
      <path d="M -0.296875 72.90625 
L 61.375 72.90625 
L 61.375 64.59375 
L 35.5 64.59375 
L 35.5 0 
L 25.59375 0 
L 25.59375 64.59375 
L -0.296875 64.59375 
z
" id="DejaVuSans-84"/>
      <path d="M 8.5 21.578125 
L 8.5 54.6875 
L 17.484375 54.6875 
L 17.484375 21.921875 
Q 17.484375 14.15625 20.5 10.265625 
Q 23.53125 6.390625 29.59375 6.390625 
Q 36.859375 6.390625 41.078125 11.03125 
Q 45.3125 15.671875 45.3125 23.6875 
L 45.3125 54.6875 
L 54.296875 54.6875 
L 54.296875 0 
L 45.3125 0 
L 45.3125 8.40625 
Q 42.046875 3.421875 37.71875 1 
Q 33.40625 -1.421875 27.6875 -1.421875 
Q 18.265625 -1.421875 13.375 4.4375 
Q 8.5 10.296875 8.5 21.578125 
z
M 31.109375 56 
z
" id="DejaVuSans-117"/>
      <path d="M 54.890625 33.015625 
L 54.890625 0 
L 45.90625 0 
L 45.90625 32.71875 
Q 45.90625 40.484375 42.875 44.328125 
Q 39.84375 48.1875 33.796875 48.1875 
Q 26.515625 48.1875 22.3125 43.546875 
Q 18.109375 38.921875 18.109375 30.90625 
L 18.109375 0 
L 9.078125 0 
L 9.078125 54.6875 
L 18.109375 54.6875 
L 18.109375 46.1875 
Q 21.34375 51.125 25.703125 53.5625 
Q 30.078125 56 35.796875 56 
Q 45.21875 56 50.046875 50.171875 
Q 54.890625 44.34375 54.890625 33.015625 
z
" id="DejaVuSans-110"/>
      <path d="M 9.421875 54.6875 
L 18.40625 54.6875 
L 18.40625 0 
L 9.421875 0 
z
M 9.421875 75.984375 
L 18.40625 75.984375 
L 18.40625 64.59375 
L 9.421875 64.59375 
z
" id="DejaVuSans-105"/>
      <path d="M 45.40625 27.984375 
Q 45.40625 37.75 41.375 43.109375 
Q 37.359375 48.484375 30.078125 48.484375 
Q 22.859375 48.484375 18.828125 43.109375 
Q 14.796875 37.75 14.796875 27.984375 
Q 14.796875 18.265625 18.828125 12.890625 
Q 22.859375 7.515625 30.078125 7.515625 
Q 37.359375 7.515625 41.375 12.890625 
Q 45.40625 18.265625 45.40625 27.984375 
z
M 54.390625 6.78125 
Q 54.390625 -7.171875 48.1875 -13.984375 
Q 42 -20.796875 29.203125 -20.796875 
Q 24.46875 -20.796875 20.265625 -20.09375 
Q 16.0625 -19.390625 12.109375 -17.921875 
L 12.109375 -9.1875 
Q 16.0625 -11.328125 19.921875 -12.34375 
Q 23.78125 -13.375 27.78125 -13.375 
Q 36.625 -13.375 41.015625 -8.765625 
Q 45.40625 -4.15625 45.40625 5.171875 
L 45.40625 9.625 
Q 42.625 4.78125 38.28125 2.390625 
Q 33.9375 0 27.875 0 
Q 17.828125 0 11.671875 7.65625 
Q 5.515625 15.328125 5.515625 27.984375 
Q 5.515625 40.671875 11.671875 48.328125 
Q 17.828125 56 27.875 56 
Q 33.9375 56 38.28125 53.609375 
Q 42.625 51.21875 45.40625 46.390625 
L 45.40625 54.6875 
L 54.390625 54.6875 
z
" id="DejaVuSans-103"/>
      <path d="M 59.515625 10.40625 
L 59.515625 29.984375 
L 43.40625 29.984375 
L 43.40625 38.09375 
L 69.28125 38.09375 
L 69.28125 6.78125 
Q 63.578125 2.734375 56.6875 0.65625 
Q 49.8125 -1.421875 42 -1.421875 
Q 24.90625 -1.421875 15.25 8.5625 
Q 5.609375 18.5625 5.609375 36.375 
Q 5.609375 54.25 15.25 64.234375 
Q 24.90625 74.21875 42 74.21875 
Q 49.125 74.21875 55.546875 72.453125 
Q 61.96875 70.703125 67.390625 67.28125 
L 67.390625 56.78125 
Q 61.921875 61.421875 55.765625 63.765625 
Q 49.609375 66.109375 42.828125 66.109375 
Q 29.4375 66.109375 22.71875 58.640625 
Q 16.015625 51.171875 16.015625 36.375 
Q 16.015625 21.625 22.71875 14.15625 
Q 29.4375 6.6875 42.828125 6.6875 
Q 48.046875 6.6875 52.140625 7.59375 
Q 56.25 8.5 59.515625 10.40625 
z
" id="DejaVuSans-71"/>
      <path d="M 41.109375 46.296875 
Q 39.59375 47.171875 37.8125 47.578125 
Q 36.03125 48 33.890625 48 
Q 26.265625 48 22.1875 43.046875 
Q 18.109375 38.09375 18.109375 28.8125 
L 18.109375 0 
L 9.078125 0 
L 9.078125 54.6875 
L 18.109375 54.6875 
L 18.109375 46.1875 
Q 20.953125 51.171875 25.484375 53.578125 
Q 30.03125 56 36.53125 56 
Q 37.453125 56 38.578125 55.875 
Q 39.703125 55.765625 41.0625 55.515625 
z
" id="DejaVuSans-114"/>
      <path d="M 45.40625 46.390625 
L 45.40625 75.984375 
L 54.390625 75.984375 
L 54.390625 0 
L 45.40625 0 
L 45.40625 8.203125 
Q 42.578125 3.328125 38.25 0.953125 
Q 33.9375 -1.421875 27.875 -1.421875 
Q 17.96875 -1.421875 11.734375 6.484375 
Q 5.515625 14.40625 5.515625 27.296875 
Q 5.515625 40.1875 11.734375 48.09375 
Q 17.96875 56 27.875 56 
Q 33.9375 56 38.25 53.625 
Q 42.578125 51.265625 45.40625 46.390625 
z
M 14.796875 27.296875 
Q 14.796875 17.390625 18.875 11.75 
Q 22.953125 6.109375 30.078125 6.109375 
Q 37.203125 6.109375 41.296875 11.75 
Q 45.40625 17.390625 45.40625 27.296875 
Q 45.40625 37.203125 41.296875 42.84375 
Q 37.203125 48.484375 30.078125 48.484375 
Q 22.953125 48.484375 18.875 42.84375 
Q 14.796875 37.203125 14.796875 27.296875 
z
" id="DejaVuSans-100"/>
     </defs>
     <g transform="translate(328.832344 500.151887)scale(0.1 -0.1)">
      <use xlink:href="#DejaVuSans-76"/>
      <use x="55.712891" xlink:href="#DejaVuSans-97"/>
      <use x="116.992188" xlink:href="#DejaVuSans-109"/>
      <use x="214.404297" xlink:href="#DejaVuSans-98"/>
      <use x="277.880859" xlink:href="#DejaVuSans-97"/>
      <use x="339.160156" xlink:href="#DejaVuSans-32"/>
      <use x="370.947266" xlink:href="#DejaVuSans-84"/>
      <use x="431.796875" xlink:href="#DejaVuSans-117"/>
      <use x="495.175781" xlink:href="#DejaVuSans-110"/>
      <use x="558.554688" xlink:href="#DejaVuSans-105"/>
      <use x="586.337891" xlink:href="#DejaVuSans-110"/>
      <use x="649.716797" xlink:href="#DejaVuSans-103"/>
      <use x="713.193359" xlink:href="#DejaVuSans-32"/>
      <use x="744.980469" xlink:href="#DejaVuSans-71"/>
      <use x="822.470703" xlink:href="#DejaVuSans-114"/>
      <use x="863.583984" xlink:href="#DejaVuSans-105"/>
      <use x="891.367188" xlink:href="#DejaVuSans-100"/>
     </g>
    </g>
   </g>
   <g id="matplotlib.axis_2">
    <g id="ytick_1">
     <g id="line2d_10">
      <defs>
       <path d="M 0 0 
L -3.5 0 
" id="mf48eb70b6d" style="stroke:#000000;stroke-width:0.8;"/>
      </defs>
      <g>
       <use style="stroke:#000000;stroke-width:0.8;" x="50.14375" xlink:href="#mf48eb70b6d" y="446.447162"/>
      </g>
     </g>
     <g id="text_11">
      <!-- 0.79 -->
      <defs>
       <path d="M 10.984375 1.515625 
L 10.984375 10.5 
Q 14.703125 8.734375 18.5 7.8125 
Q 22.3125 6.890625 25.984375 6.890625 
Q 35.75 6.890625 40.890625 13.453125 
Q 46.046875 20.015625 46.78125 33.40625 
Q 43.953125 29.203125 39.59375 26.953125 
Q 35.25 24.703125 29.984375 24.703125 
Q 19.046875 24.703125 12.671875 31.3125 
Q 6.296875 37.9375 6.296875 49.421875 
Q 6.296875 60.640625 12.9375 67.421875 
Q 19.578125 74.21875 30.609375 74.21875 
Q 43.265625 74.21875 49.921875 64.515625 
Q 56.59375 54.828125 56.59375 36.375 
Q 56.59375 19.140625 48.40625 8.859375 
Q 40.234375 -1.421875 26.421875 -1.421875 
Q 22.703125 -1.421875 18.890625 -0.6875 
Q 15.09375 0.046875 10.984375 1.515625 
z
M 30.609375 32.421875 
Q 37.25 32.421875 41.125 36.953125 
Q 45.015625 41.5 45.015625 49.421875 
Q 45.015625 57.28125 41.125 61.84375 
Q 37.25 66.40625 30.609375 66.40625 
Q 23.96875 66.40625 20.09375 61.84375 
Q 16.21875 57.28125 16.21875 49.421875 
Q 16.21875 41.5 20.09375 36.953125 
Q 23.96875 32.421875 30.609375 32.421875 
z
" id="DejaVuSans-57"/>
      </defs>
      <g transform="translate(20.878125 450.246381)scale(0.1 -0.1)">
       <use xlink:href="#DejaVuSans-48"/>
       <use x="63.623047" xlink:href="#DejaVuSans-46"/>
       <use x="95.410156" xlink:href="#DejaVuSans-55"/>
       <use x="159.033203" xlink:href="#DejaVuSans-57"/>
      </g>
     </g>
    </g>
    <g id="ytick_2">
     <g id="line2d_11">
      <g>
       <use style="stroke:#000000;stroke-width:0.8;" x="50.14375" xlink:href="#mf48eb70b6d" y="377.366233"/>
      </g>
     </g>
     <g id="text_12">
      <!-- 0.80 -->
      <defs>
       <path d="M 31.78125 34.625 
Q 24.75 34.625 20.71875 30.859375 
Q 16.703125 27.09375 16.703125 20.515625 
Q 16.703125 13.921875 20.71875 10.15625 
Q 24.75 6.390625 31.78125 6.390625 
Q 38.8125 6.390625 42.859375 10.171875 
Q 46.921875 13.96875 46.921875 20.515625 
Q 46.921875 27.09375 42.890625 30.859375 
Q 38.875 34.625 31.78125 34.625 
z
M 21.921875 38.8125 
Q 15.578125 40.375 12.03125 44.71875 
Q 8.5 49.078125 8.5 55.328125 
Q 8.5 64.0625 14.71875 69.140625 
Q 20.953125 74.21875 31.78125 74.21875 
Q 42.671875 74.21875 48.875 69.140625 
Q 55.078125 64.0625 55.078125 55.328125 
Q 55.078125 49.078125 51.53125 44.71875 
Q 48 40.375 41.703125 38.8125 
Q 48.828125 37.15625 52.796875 32.3125 
Q 56.78125 27.484375 56.78125 20.515625 
Q 56.78125 9.90625 50.3125 4.234375 
Q 43.84375 -1.421875 31.78125 -1.421875 
Q 19.734375 -1.421875 13.25 4.234375 
Q 6.78125 9.90625 6.78125 20.515625 
Q 6.78125 27.484375 10.78125 32.3125 
Q 14.796875 37.15625 21.921875 38.8125 
z
M 18.3125 54.390625 
Q 18.3125 48.734375 21.84375 45.5625 
Q 25.390625 42.390625 31.78125 42.390625 
Q 38.140625 42.390625 41.71875 45.5625 
Q 45.3125 48.734375 45.3125 54.390625 
Q 45.3125 60.0625 41.71875 63.234375 
Q 38.140625 66.40625 31.78125 66.40625 
Q 25.390625 66.40625 21.84375 63.234375 
Q 18.3125 60.0625 18.3125 54.390625 
z
" id="DejaVuSans-56"/>
      </defs>
      <g transform="translate(20.878125 381.165451)scale(0.1 -0.1)">
       <use xlink:href="#DejaVuSans-48"/>
       <use x="63.623047" xlink:href="#DejaVuSans-46"/>
       <use x="95.410156" xlink:href="#DejaVuSans-56"/>
       <use x="159.033203" xlink:href="#DejaVuSans-48"/>
      </g>
     </g>
    </g>
    <g id="ytick_3">
     <g id="line2d_12">
      <g>
       <use style="stroke:#000000;stroke-width:0.8;" x="50.14375" xlink:href="#mf48eb70b6d" y="308.285303"/>
      </g>
     </g>
     <g id="text_13">
      <!-- 0.81 -->
      <g transform="translate(20.878125 312.084522)scale(0.1 -0.1)">
       <use xlink:href="#DejaVuSans-48"/>
       <use x="63.623047" xlink:href="#DejaVuSans-46"/>
       <use x="95.410156" xlink:href="#DejaVuSans-56"/>
       <use x="159.033203" xlink:href="#DejaVuSans-49"/>
      </g>
     </g>
    </g>
    <g id="ytick_4">
     <g id="line2d_13">
      <g>
       <use style="stroke:#000000;stroke-width:0.8;" x="50.14375" xlink:href="#mf48eb70b6d" y="239.204373"/>
      </g>
     </g>
     <g id="text_14">
      <!-- 0.82 -->
      <g transform="translate(20.878125 243.003592)scale(0.1 -0.1)">
       <use xlink:href="#DejaVuSans-48"/>
       <use x="63.623047" xlink:href="#DejaVuSans-46"/>
       <use x="95.410156" xlink:href="#DejaVuSans-56"/>
       <use x="159.033203" xlink:href="#DejaVuSans-50"/>
      </g>
     </g>
    </g>
    <g id="ytick_5">
     <g id="line2d_14">
      <g>
       <use style="stroke:#000000;stroke-width:0.8;" x="50.14375" xlink:href="#mf48eb70b6d" y="170.123443"/>
      </g>
     </g>
     <g id="text_15">
      <!-- 0.83 -->
      <defs>
       <path d="M 40.578125 39.3125 
Q 47.65625 37.796875 51.625 33 
Q 55.609375 28.21875 55.609375 21.1875 
Q 55.609375 10.40625 48.1875 4.484375 
Q 40.765625 -1.421875 27.09375 -1.421875 
Q 22.515625 -1.421875 17.65625 -0.515625 
Q 12.796875 0.390625 7.625 2.203125 
L 7.625 11.71875 
Q 11.71875 9.328125 16.59375 8.109375 
Q 21.484375 6.890625 26.8125 6.890625 
Q 36.078125 6.890625 40.9375 10.546875 
Q 45.796875 14.203125 45.796875 21.1875 
Q 45.796875 27.640625 41.28125 31.265625 
Q 36.765625 34.90625 28.71875 34.90625 
L 20.21875 34.90625 
L 20.21875 43.015625 
L 29.109375 43.015625 
Q 36.375 43.015625 40.234375 45.921875 
Q 44.09375 48.828125 44.09375 54.296875 
Q 44.09375 59.90625 40.109375 62.90625 
Q 36.140625 65.921875 28.71875 65.921875 
Q 24.65625 65.921875 20.015625 65.03125 
Q 15.375 64.15625 9.8125 62.3125 
L 9.8125 71.09375 
Q 15.4375 72.65625 20.34375 73.4375 
Q 25.25 74.21875 29.59375 74.21875 
Q 40.828125 74.21875 47.359375 69.109375 
Q 53.90625 64.015625 53.90625 55.328125 
Q 53.90625 49.265625 50.4375 45.09375 
Q 46.96875 40.921875 40.578125 39.3125 
z
" id="DejaVuSans-51"/>
      </defs>
      <g transform="translate(20.878125 173.922662)scale(0.1 -0.1)">
       <use xlink:href="#DejaVuSans-48"/>
       <use x="63.623047" xlink:href="#DejaVuSans-46"/>
       <use x="95.410156" xlink:href="#DejaVuSans-56"/>
       <use x="159.033203" xlink:href="#DejaVuSans-51"/>
      </g>
     </g>
    </g>
    <g id="ytick_6">
     <g id="line2d_15">
      <g>
       <use style="stroke:#000000;stroke-width:0.8;" x="50.14375" xlink:href="#mf48eb70b6d" y="101.042514"/>
      </g>
     </g>
     <g id="text_16">
      <!-- 0.84 -->
      <defs>
       <path d="M 37.796875 64.3125 
L 12.890625 25.390625 
L 37.796875 25.390625 
z
M 35.203125 72.90625 
L 47.609375 72.90625 
L 47.609375 25.390625 
L 58.015625 25.390625 
L 58.015625 17.1875 
L 47.609375 17.1875 
L 47.609375 0 
L 37.796875 0 
L 37.796875 17.1875 
L 4.890625 17.1875 
L 4.890625 26.703125 
z
" id="DejaVuSans-52"/>
      </defs>
      <g transform="translate(20.878125 104.841732)scale(0.1 -0.1)">
       <use xlink:href="#DejaVuSans-48"/>
       <use x="63.623047" xlink:href="#DejaVuSans-46"/>
       <use x="95.410156" xlink:href="#DejaVuSans-56"/>
       <use x="159.033203" xlink:href="#DejaVuSans-52"/>
      </g>
     </g>
    </g>
    <g id="ytick_7">
     <g id="line2d_16">
      <g>
       <use style="stroke:#000000;stroke-width:0.8;" x="50.14375" xlink:href="#mf48eb70b6d" y="31.961584"/>
      </g>
     </g>
     <g id="text_17">
      <!-- 0.85 -->
      <g transform="translate(20.878125 35.760803)scale(0.1 -0.1)">
       <use xlink:href="#DejaVuSans-48"/>
       <use x="63.623047" xlink:href="#DejaVuSans-46"/>
       <use x="95.410156" xlink:href="#DejaVuSans-56"/>
       <use x="159.033203" xlink:href="#DejaVuSans-53"/>
      </g>
     </g>
    </g>
    <g id="text_18">
     <!-- R Squared -->
     <defs>
      <path d="M 44.390625 34.1875 
Q 47.5625 33.109375 50.5625 29.59375 
Q 53.5625 26.078125 56.59375 19.921875 
L 66.609375 0 
L 56 0 
L 46.6875 18.703125 
Q 43.0625 26.03125 39.671875 28.421875 
Q 36.28125 30.8125 30.421875 30.8125 
L 19.671875 30.8125 
L 19.671875 0 
L 9.8125 0 
L 9.8125 72.90625 
L 32.078125 72.90625 
Q 44.578125 72.90625 50.734375 67.671875 
Q 56.890625 62.453125 56.890625 51.90625 
Q 56.890625 45.015625 53.6875 40.46875 
Q 50.484375 35.9375 44.390625 34.1875 
z
M 19.671875 64.796875 
L 19.671875 38.921875 
L 32.078125 38.921875 
Q 39.203125 38.921875 42.84375 42.21875 
Q 46.484375 45.515625 46.484375 51.90625 
Q 46.484375 58.296875 42.84375 61.546875 
Q 39.203125 64.796875 32.078125 64.796875 
z
" id="DejaVuSans-82"/>
      <path d="M 53.515625 70.515625 
L 53.515625 60.890625 
Q 47.90625 63.578125 42.921875 64.890625 
Q 37.9375 66.21875 33.296875 66.21875 
Q 25.25 66.21875 20.875 63.09375 
Q 16.5 59.96875 16.5 54.203125 
Q 16.5 49.359375 19.40625 46.890625 
Q 22.3125 44.4375 30.421875 42.921875 
L 36.375 41.703125 
Q 47.40625 39.59375 52.65625 34.296875 
Q 57.90625 29 57.90625 20.125 
Q 57.90625 9.515625 50.796875 4.046875 
Q 43.703125 -1.421875 29.984375 -1.421875 
Q 24.8125 -1.421875 18.96875 -0.25 
Q 13.140625 0.921875 6.890625 3.21875 
L 6.890625 13.375 
Q 12.890625 10.015625 18.65625 8.296875 
Q 24.421875 6.59375 29.984375 6.59375 
Q 38.421875 6.59375 43.015625 9.90625 
Q 47.609375 13.234375 47.609375 19.390625 
Q 47.609375 24.75 44.3125 27.78125 
Q 41.015625 30.8125 33.5 32.328125 
L 27.484375 33.5 
Q 16.453125 35.6875 11.515625 40.375 
Q 6.59375 45.0625 6.59375 53.421875 
Q 6.59375 63.09375 13.40625 68.65625 
Q 20.21875 74.21875 32.171875 74.21875 
Q 37.3125 74.21875 42.625 73.28125 
Q 47.953125 72.359375 53.515625 70.515625 
z
" id="DejaVuSans-83"/>
      <path d="M 14.796875 27.296875 
Q 14.796875 17.390625 18.875 11.75 
Q 22.953125 6.109375 30.078125 6.109375 
Q 37.203125 6.109375 41.296875 11.75 
Q 45.40625 17.390625 45.40625 27.296875 
Q 45.40625 37.203125 41.296875 42.84375 
Q 37.203125 48.484375 30.078125 48.484375 
Q 22.953125 48.484375 18.875 42.84375 
Q 14.796875 37.203125 14.796875 27.296875 
z
M 45.40625 8.203125 
Q 42.578125 3.328125 38.25 0.953125 
Q 33.9375 -1.421875 27.875 -1.421875 
Q 17.96875 -1.421875 11.734375 6.484375 
Q 5.515625 14.40625 5.515625 27.296875 
Q 5.515625 40.1875 11.734375 48.09375 
Q 17.96875 56 27.875 56 
Q 33.9375 56 38.25 53.625 
Q 42.578125 51.265625 45.40625 46.390625 
L 45.40625 54.6875 
L 54.390625 54.6875 
L 54.390625 -20.796875 
L 45.40625 -20.796875 
z
" id="DejaVuSans-113"/>
      <path d="M 56.203125 29.59375 
L 56.203125 25.203125 
L 14.890625 25.203125 
Q 15.484375 15.921875 20.484375 11.0625 
Q 25.484375 6.203125 34.421875 6.203125 
Q 39.59375 6.203125 44.453125 7.46875 
Q 49.3125 8.734375 54.109375 11.28125 
L 54.109375 2.78125 
Q 49.265625 0.734375 44.1875 -0.34375 
Q 39.109375 -1.421875 33.890625 -1.421875 
Q 20.796875 -1.421875 13.15625 6.1875 
Q 5.515625 13.8125 5.515625 26.8125 
Q 5.515625 40.234375 12.765625 48.109375 
Q 20.015625 56 32.328125 56 
Q 43.359375 56 49.78125 48.890625 
Q 56.203125 41.796875 56.203125 29.59375 
z
M 47.21875 32.234375 
Q 47.125 39.59375 43.09375 43.984375 
Q 39.0625 48.390625 32.421875 48.390625 
Q 24.90625 48.390625 20.390625 44.140625 
Q 15.875 39.890625 15.1875 32.171875 
z
" id="DejaVuSans-101"/>
     </defs>
     <g transform="translate(14.798438 273.045944)rotate(-90)scale(0.1 -0.1)">
      <use xlink:href="#DejaVuSans-82"/>
      <use x="69.482422" xlink:href="#DejaVuSans-32"/>
      <use x="101.269531" xlink:href="#DejaVuSans-83"/>
      <use x="164.746094" xlink:href="#DejaVuSans-113"/>
      <use x="228.222656" xlink:href="#DejaVuSans-117"/>
      <use x="291.601562" xlink:href="#DejaVuSans-97"/>
      <use x="352.880859" xlink:href="#DejaVuSans-114"/>
      <use x="393.962891" xlink:href="#DejaVuSans-101"/>
      <use x="455.486328" xlink:href="#DejaVuSans-100"/>
     </g>
    </g>
   </g>
   <g id="line2d_17">
    <path clip-path="url(#pe0d4012b7e)" d="M 79.819205 60.716527 
L 82.801662 53.859672 
L 85.78412 51.560746 
L 88.766578 49.770671 
L 91.749036 48.404035 
L 94.731493 47.625971 
L 100.696409 46.495724 
L 106.661324 45.731178 
L 112.62624 45.303882 
L 118.591155 45.13202 
L 124.556071 45.189673 
L 130.520986 45.457842 
L 136.485902 45.905236 
L 142.450817 46.524695 
L 148.415733 47.309655 
L 157.363106 48.771481 
L 166.310479 50.545529 
L 178.24031 53.276102 
L 187.187683 55.524818 
L 196.135057 57.951998 
L 205.08243 60.557716 
L 217.012261 64.332263 
L 225.959634 67.379812 
L 237.889465 71.732878 
L 246.836838 75.204212 
L 255.784211 78.858818 
L 267.714042 84.007776 
L 276.661416 88.063942 
L 288.591247 93.734602 
L 297.53862 98.194545 
L 309.468451 104.411676 
L 321.398282 110.902529 
L 333.328113 117.675246 
L 345.257944 124.696763 
L 357.187775 131.979964 
L 369.117606 139.513753 
L 381.047437 147.295967 
L 392.977268 155.30602 
L 404.907099 163.544816 
L 419.819387 174.146457 
L 434.731676 185.074406 
L 449.643965 196.326278 
L 464.556253 207.885654 
L 479.468542 219.730887 
L 494.380831 231.850029 
L 509.29312 244.242048 
L 524.205408 256.902075 
L 539.117697 269.828638 
L 557.012443 285.672499 
L 574.90719 301.852087 
L 592.801936 318.358569 
L 610.696683 335.178776 
L 628.591429 352.301546 
L 646.486176 369.716577 
L 664.380922 387.414346 
L 673.328295 396.368867 
L 673.328295 396.368867 
" style="fill:none;stroke:#008000;stroke-linecap:square;stroke-width:1.5;"/>
   </g>
   <g id="patch_3">
    <path d="M 50.14375 471.875325 
L 50.14375 22.318125 
" style="fill:none;stroke:#000000;stroke-linecap:square;stroke-linejoin:miter;stroke-width:0.8;"/>
   </g>
   <g id="patch_4">
    <path d="M 703.00375 471.875325 
L 703.00375 22.318125 
" style="fill:none;stroke:#000000;stroke-linecap:square;stroke-linejoin:miter;stroke-width:0.8;"/>
   </g>
   <g id="patch_5">
    <path d="M 50.14375 471.875325 
L 703.00375 471.875325 
" style="fill:none;stroke:#000000;stroke-linecap:square;stroke-linejoin:miter;stroke-width:0.8;"/>
   </g>
   <g id="patch_6">
    <path d="M 50.14375 22.318125 
L 703.00375 22.318125 
" style="fill:none;stroke:#000000;stroke-linecap:square;stroke-linejoin:miter;stroke-width:0.8;"/>
   </g>
   <g id="text_19">
    <!-- Model Performance by 5-fold Cross Validation -->
    <defs>
     <path d="M 9.8125 72.90625 
L 24.515625 72.90625 
L 43.109375 23.296875 
L 61.8125 72.90625 
L 76.515625 72.90625 
L 76.515625 0 
L 66.890625 0 
L 66.890625 64.015625 
L 48.09375 14.015625 
L 38.1875 14.015625 
L 19.390625 64.015625 
L 19.390625 0 
L 9.8125 0 
z
" id="DejaVuSans-77"/>
     <path d="M 30.609375 48.390625 
Q 23.390625 48.390625 19.1875 42.75 
Q 14.984375 37.109375 14.984375 27.296875 
Q 14.984375 17.484375 19.15625 11.84375 
Q 23.34375 6.203125 30.609375 6.203125 
Q 37.796875 6.203125 41.984375 11.859375 
Q 46.1875 17.53125 46.1875 27.296875 
Q 46.1875 37.015625 41.984375 42.703125 
Q 37.796875 48.390625 30.609375 48.390625 
z
M 30.609375 56 
Q 42.328125 56 49.015625 48.375 
Q 55.71875 40.765625 55.71875 27.296875 
Q 55.71875 13.875 49.015625 6.21875 
Q 42.328125 -1.421875 30.609375 -1.421875 
Q 18.84375 -1.421875 12.171875 6.21875 
Q 5.515625 13.875 5.515625 27.296875 
Q 5.515625 40.765625 12.171875 48.375 
Q 18.84375 56 30.609375 56 
z
" id="DejaVuSans-111"/>
     <path d="M 9.421875 75.984375 
L 18.40625 75.984375 
L 18.40625 0 
L 9.421875 0 
z
" id="DejaVuSans-108"/>
     <path d="M 19.671875 64.796875 
L 19.671875 37.40625 
L 32.078125 37.40625 
Q 38.96875 37.40625 42.71875 40.96875 
Q 46.484375 44.53125 46.484375 51.125 
Q 46.484375 57.671875 42.71875 61.234375 
Q 38.96875 64.796875 32.078125 64.796875 
z
M 9.8125 72.90625 
L 32.078125 72.90625 
Q 44.34375 72.90625 50.609375 67.359375 
Q 56.890625 61.8125 56.890625 51.125 
Q 56.890625 40.328125 50.609375 34.8125 
Q 44.34375 29.296875 32.078125 29.296875 
L 19.671875 29.296875 
L 19.671875 0 
L 9.8125 0 
z
" id="DejaVuSans-80"/>
     <path d="M 37.109375 75.984375 
L 37.109375 68.5 
L 28.515625 68.5 
Q 23.6875 68.5 21.796875 66.546875 
Q 19.921875 64.59375 19.921875 59.515625 
L 19.921875 54.6875 
L 34.71875 54.6875 
L 34.71875 47.703125 
L 19.921875 47.703125 
L 19.921875 0 
L 10.890625 0 
L 10.890625 47.703125 
L 2.296875 47.703125 
L 2.296875 54.6875 
L 10.890625 54.6875 
L 10.890625 58.5 
Q 10.890625 67.625 15.140625 71.796875 
Q 19.390625 75.984375 28.609375 75.984375 
z
" id="DejaVuSans-102"/>
     <path d="M 48.78125 52.59375 
L 48.78125 44.1875 
Q 44.96875 46.296875 41.140625 47.34375 
Q 37.3125 48.390625 33.40625 48.390625 
Q 24.65625 48.390625 19.8125 42.84375 
Q 14.984375 37.3125 14.984375 27.296875 
Q 14.984375 17.28125 19.8125 11.734375 
Q 24.65625 6.203125 33.40625 6.203125 
Q 37.3125 6.203125 41.140625 7.25 
Q 44.96875 8.296875 48.78125 10.40625 
L 48.78125 2.09375 
Q 45.015625 0.34375 40.984375 -0.53125 
Q 36.96875 -1.421875 32.421875 -1.421875 
Q 20.0625 -1.421875 12.78125 6.34375 
Q 5.515625 14.109375 5.515625 27.296875 
Q 5.515625 40.671875 12.859375 48.328125 
Q 20.21875 56 33.015625 56 
Q 37.15625 56 41.109375 55.140625 
Q 45.0625 54.296875 48.78125 52.59375 
z
" id="DejaVuSans-99"/>
     <path d="M 32.171875 -5.078125 
Q 28.375 -14.84375 24.75 -17.8125 
Q 21.140625 -20.796875 15.09375 -20.796875 
L 7.90625 -20.796875 
L 7.90625 -13.28125 
L 13.1875 -13.28125 
Q 16.890625 -13.28125 18.9375 -11.515625 
Q 21 -9.765625 23.484375 -3.21875 
L 25.09375 0.875 
L 2.984375 54.6875 
L 12.5 54.6875 
L 29.59375 11.921875 
L 46.6875 54.6875 
L 56.203125 54.6875 
z
" id="DejaVuSans-121"/>
     <path d="M 4.890625 31.390625 
L 31.203125 31.390625 
L 31.203125 23.390625 
L 4.890625 23.390625 
z
" id="DejaVuSans-45"/>
     <path d="M 64.40625 67.28125 
L 64.40625 56.890625 
Q 59.421875 61.53125 53.78125 63.8125 
Q 48.140625 66.109375 41.796875 66.109375 
Q 29.296875 66.109375 22.65625 58.46875 
Q 16.015625 50.828125 16.015625 36.375 
Q 16.015625 21.96875 22.65625 14.328125 
Q 29.296875 6.6875 41.796875 6.6875 
Q 48.140625 6.6875 53.78125 8.984375 
Q 59.421875 11.28125 64.40625 15.921875 
L 64.40625 5.609375 
Q 59.234375 2.09375 53.4375 0.328125 
Q 47.65625 -1.421875 41.21875 -1.421875 
Q 24.65625 -1.421875 15.125 8.703125 
Q 5.609375 18.84375 5.609375 36.375 
Q 5.609375 53.953125 15.125 64.078125 
Q 24.65625 74.21875 41.21875 74.21875 
Q 47.75 74.21875 53.53125 72.484375 
Q 59.328125 70.75 64.40625 67.28125 
z
" id="DejaVuSans-67"/>
     <path d="M 44.28125 53.078125 
L 44.28125 44.578125 
Q 40.484375 46.53125 36.375 47.5 
Q 32.28125 48.484375 27.875 48.484375 
Q 21.1875 48.484375 17.84375 46.4375 
Q 14.5 44.390625 14.5 40.28125 
Q 14.5 37.15625 16.890625 35.375 
Q 19.28125 33.59375 26.515625 31.984375 
L 29.59375 31.296875 
Q 39.15625 29.25 43.1875 25.515625 
Q 47.21875 21.78125 47.21875 15.09375 
Q 47.21875 7.46875 41.1875 3.015625 
Q 35.15625 -1.421875 24.609375 -1.421875 
Q 20.21875 -1.421875 15.453125 -0.5625 
Q 10.6875 0.296875 5.421875 2 
L 5.421875 11.28125 
Q 10.40625 8.6875 15.234375 7.390625 
Q 20.0625 6.109375 24.8125 6.109375 
Q 31.15625 6.109375 34.5625 8.28125 
Q 37.984375 10.453125 37.984375 14.40625 
Q 37.984375 18.0625 35.515625 20.015625 
Q 33.0625 21.96875 24.703125 23.78125 
L 21.578125 24.515625 
Q 13.234375 26.265625 9.515625 29.90625 
Q 5.8125 33.546875 5.8125 39.890625 
Q 5.8125 47.609375 11.28125 51.796875 
Q 16.75 56 26.8125 56 
Q 31.78125 56 36.171875 55.265625 
Q 40.578125 54.546875 44.28125 53.078125 
z
" id="DejaVuSans-115"/>
     <path d="M 28.609375 0 
L 0.78125 72.90625 
L 11.078125 72.90625 
L 34.1875 11.53125 
L 57.328125 72.90625 
L 67.578125 72.90625 
L 39.796875 0 
z
" id="DejaVuSans-86"/>
     <path d="M 18.3125 70.21875 
L 18.3125 54.6875 
L 36.8125 54.6875 
L 36.8125 47.703125 
L 18.3125 47.703125 
L 18.3125 18.015625 
Q 18.3125 11.328125 20.140625 9.421875 
Q 21.96875 7.515625 27.59375 7.515625 
L 36.8125 7.515625 
L 36.8125 0 
L 27.59375 0 
Q 17.1875 0 13.234375 3.875 
Q 9.28125 7.765625 9.28125 18.015625 
L 9.28125 47.703125 
L 2.6875 47.703125 
L 2.6875 54.6875 
L 9.28125 54.6875 
L 9.28125 70.21875 
z
" id="DejaVuSans-116"/>
    </defs>
    <g transform="translate(239.420313 16.318125)scale(0.12 -0.12)">
     <use xlink:href="#DejaVuSans-77"/>
     <use x="86.279297" xlink:href="#DejaVuSans-111"/>
     <use x="147.460938" xlink:href="#DejaVuSans-100"/>
     <use x="210.9375" xlink:href="#DejaVuSans-101"/>
     <use x="272.460938" xlink:href="#DejaVuSans-108"/>
     <use x="300.244141" xlink:href="#DejaVuSans-32"/>
     <use x="332.03125" xlink:href="#DejaVuSans-80"/>
     <use x="392.287109" xlink:href="#DejaVuSans-101"/>
     <use x="453.810547" xlink:href="#DejaVuSans-114"/>
     <use x="494.923828" xlink:href="#DejaVuSans-102"/>
     <use x="530.128906" xlink:href="#DejaVuSans-111"/>
     <use x="591.310547" xlink:href="#DejaVuSans-114"/>
     <use x="632.408203" xlink:href="#DejaVuSans-109"/>
     <use x="729.820312" xlink:href="#DejaVuSans-97"/>
     <use x="791.099609" xlink:href="#DejaVuSans-110"/>
     <use x="854.478516" xlink:href="#DejaVuSans-99"/>
     <use x="909.458984" xlink:href="#DejaVuSans-101"/>
     <use x="970.982422" xlink:href="#DejaVuSans-32"/>
     <use x="1002.769531" xlink:href="#DejaVuSans-98"/>
     <use x="1066.246094" xlink:href="#DejaVuSans-121"/>
     <use x="1125.425781" xlink:href="#DejaVuSans-32"/>
     <use x="1157.212891" xlink:href="#DejaVuSans-53"/>
     <use x="1220.835938" xlink:href="#DejaVuSans-45"/>
     <use x="1256.919922" xlink:href="#DejaVuSans-102"/>
     <use x="1292.125" xlink:href="#DejaVuSans-111"/>
     <use x="1353.306641" xlink:href="#DejaVuSans-108"/>
     <use x="1381.089844" xlink:href="#DejaVuSans-100"/>
     <use x="1444.566406" xlink:href="#DejaVuSans-32"/>
     <use x="1476.353516" xlink:href="#DejaVuSans-67"/>
     <use x="1546.177734" xlink:href="#DejaVuSans-114"/>
     <use x="1587.259766" xlink:href="#DejaVuSans-111"/>
     <use x="1648.441406" xlink:href="#DejaVuSans-115"/>
     <use x="1700.541016" xlink:href="#DejaVuSans-115"/>
     <use x="1752.640625" xlink:href="#DejaVuSans-32"/>
     <use x="1784.427734" xlink:href="#DejaVuSans-86"/>
     <use x="1852.726562" xlink:href="#DejaVuSans-97"/>
     <use x="1914.005859" xlink:href="#DejaVuSans-108"/>
     <use x="1941.789062" xlink:href="#DejaVuSans-105"/>
     <use x="1969.572266" xlink:href="#DejaVuSans-100"/>
     <use x="2033.048828" xlink:href="#DejaVuSans-97"/>
     <use x="2094.328125" xlink:href="#DejaVuSans-116"/>
     <use x="2133.537109" xlink:href="#DejaVuSans-105"/>
     <use x="2161.320312" xlink:href="#DejaVuSans-111"/>
     <use x="2222.501953" xlink:href="#DejaVuSans-110"/>
    </g>
   </g>
  </g>
 </g>
 <defs>
  <clipPath id="pe0d4012b7e">
   <rect height="449.5572" width="652.86" x="50.14375" y="22.318125"/>
  </clipPath>
 </defs>
</svg>
