<?xml version="1.0" encoding="utf-8" standalone="no"?>
<!DOCTYPE svg PUBLIC "-//W3C//DTD SVG 1.1//EN"
  "http://www.w3.org/Graphics/SVG/1.1/DTD/svg11.dtd">
<!-- Created with matplotlib (https://matplotlib.org/) -->
<svg height="497.915012pt" version="1.1" viewBox="0 0 710.525625 497.915012" width="710.525625pt" xmlns="http://www.w3.org/2000/svg" xmlns:xlink="http://www.w3.org/1999/xlink">
 <defs>
  <style type="text/css">
*{stroke-linecap:butt;stroke-linejoin:round;}
  </style>
 </defs>
 <g id="figure_1">
  <g id="patch_1">
   <path d="M 0 497.915012 
L 710.525625 497.915012 
L 710.525625 -0 
L 0 -0 
z
" style="fill:#ffffff;"/>
  </g>
  <g id="axes_1">
   <g id="patch_2">
    <path d="M 46.965625 460.2572 
L 699.825625 460.2572 
L 699.825625 10.7 
L 46.965625 10.7 
z
" style="fill:#ffffff;"/>
   </g>
   <g id="PolyCollection_1">
    <defs>
     <path d="M 79.629001 -144.786581 
L 79.588249 -144.786581 
L 79.571706 -148.039046 
L 79.54635 -151.291511 
L 79.510646 -154.543976 
L 79.464455 -157.796441 
L 79.409419 -161.048905 
L 79.348543 -164.30137 
L 79.284768 -167.553835 
L 79.2188 -170.8063 
L 79.146984 -174.058764 
L 79.060191 -177.311229 
L 78.944438 -180.563694 
L 78.783318 -183.816159 
L 78.561604 -187.068624 
L 78.268929 -190.321088 
L 77.90223 -193.573553 
L 77.465889 -196.826018 
L 76.969189 -200.078483 
L 76.421796 -203.330947 
L 75.829166 -206.583412 
L 75.190179 -209.835877 
L 74.498572 -213.088342 
L 73.747871 -216.340807 
L 72.937554 -219.593271 
L 72.077268 -222.845736 
L 71.186558 -226.098201 
L 70.289676 -229.350666 
L 69.407644 -232.60313 
L 68.551541 -235.855595 
L 67.72089 -239.10806 
L 66.908688 -242.360525 
L 66.111069 -245.61299 
L 65.337014 -248.865454 
L 64.613459 -252.117919 
L 63.983402 -255.370384 
L 63.497586 -258.622849 
L 63.202316 -261.875313 
L 63.126884 -265.127778 
L 63.274291 -268.380243 
L 63.618489 -271.632708 
L 64.109587 -274.885173 
L 64.68555 -278.137637 
L 65.286194 -281.390102 
L 65.864736 -284.642567 
L 66.393995 -287.895032 
L 66.86716 -291.147496 
L 67.29463 -294.399961 
L 67.698443 -297.652426 
L 68.10516 -300.904891 
L 68.538143 -304.157356 
L 69.011043 -307.40982 
L 69.52479 -310.662285 
L 70.069535 -313.91475 
L 70.63095 -317.167215 
L 71.198096 -320.419679 
L 71.769102 -323.672144 
L 72.351654 -326.924609 
L 72.957712 -330.177074 
L 73.594738 -333.429538 
L 74.257768 -336.682003 
L 74.926524 -339.934468 
L 75.569419 -343.186933 
L 76.152869 -346.439398 
L 76.651783 -349.691862 
L 77.056751 -352.944327 
L 77.375207 -356.196792 
L 77.626704 -359.449257 
L 77.834769 -362.701721 
L 78.018877 -365.954186 
L 78.18964 -369.206651 
L 78.348629 -372.459116 
L 78.492153 -375.711581 
L 78.616541 -378.964045 
L 78.722045 -382.21651 
L 78.813513 -385.468975 
L 78.897992 -388.72144 
L 78.981128 -391.973904 
L 79.064665 -395.226369 
L 79.146319 -398.478834 
L 79.221729 -401.731299 
L 79.28705 -404.983764 
L 79.340716 -408.236228 
L 79.383679 -411.488693 
L 79.418334 -414.741158 
L 79.446999 -417.993623 
L 79.470784 -421.246087 
L 79.489394 -424.498552 
L 79.501846 -427.751017 
L 79.507639 -431.003482 
L 79.507719 -434.255947 
L 79.504685 -437.508411 
L 79.502124 -440.760876 
L 79.503366 -444.013341 
L 79.510311 -447.265806 
L 79.522862 -450.51827 
L 79.539189 -453.770735 
L 79.556619 -457.0232 
L 79.572651 -460.275665 
L 79.585662 -463.52813 
L 79.595104 -466.780594 
L 79.622146 -466.780594 
L 79.622146 -466.780594 
L 79.631588 -463.52813 
L 79.644599 -460.275665 
L 79.660631 -457.0232 
L 79.678061 -453.770735 
L 79.694388 -450.51827 
L 79.706939 -447.265806 
L 79.713884 -444.013341 
L 79.715126 -440.760876 
L 79.712565 -437.508411 
L 79.709531 -434.255947 
L 79.709611 -431.003482 
L 79.715404 -427.751017 
L 79.727856 -424.498552 
L 79.746466 -421.246087 
L 79.770251 -417.993623 
L 79.798916 -414.741158 
L 79.833571 -411.488693 
L 79.876534 -408.236228 
L 79.9302 -404.983764 
L 79.995521 -401.731299 
L 80.070931 -398.478834 
L 80.152585 -395.226369 
L 80.236122 -391.973904 
L 80.319258 -388.72144 
L 80.403737 -385.468975 
L 80.495205 -382.21651 
L 80.600709 -378.964045 
L 80.725097 -375.711581 
L 80.868621 -372.459116 
L 81.02761 -369.206651 
L 81.198373 -365.954186 
L 81.382481 -362.701721 
L 81.590546 -359.449257 
L 81.842043 -356.196792 
L 82.160499 -352.944327 
L 82.565467 -349.691862 
L 83.064381 -346.439398 
L 83.647831 -343.186933 
L 84.290726 -339.934468 
L 84.959482 -336.682003 
L 85.622512 -333.429538 
L 86.259538 -330.177074 
L 86.865596 -326.924609 
L 87.448148 -323.672144 
L 88.019154 -320.419679 
L 88.5863 -317.167215 
L 89.147715 -313.91475 
L 89.69246 -310.662285 
L 90.206207 -307.40982 
L 90.679107 -304.157356 
L 91.11209 -300.904891 
L 91.518807 -297.652426 
L 91.92262 -294.399961 
L 92.35009 -291.147496 
L 92.823255 -287.895032 
L 93.352514 -284.642567 
L 93.931056 -281.390102 
L 94.5317 -278.137637 
L 95.107663 -274.885173 
L 95.598761 -271.632708 
L 95.942959 -268.380243 
L 96.090366 -265.127778 
L 96.014934 -261.875313 
L 95.719664 -258.622849 
L 95.233848 -255.370384 
L 94.603791 -252.117919 
L 93.880236 -248.865454 
L 93.106181 -245.61299 
L 92.308562 -242.360525 
L 91.49636 -239.10806 
L 90.665709 -235.855595 
L 89.809606 -232.60313 
L 88.927574 -229.350666 
L 88.030692 -226.098201 
L 87.139982 -222.845736 
L 86.279696 -219.593271 
L 85.469379 -216.340807 
L 84.718678 -213.088342 
L 84.027071 -209.835877 
L 83.388084 -206.583412 
L 82.795454 -203.330947 
L 82.248061 -200.078483 
L 81.751361 -196.826018 
L 81.31502 -193.573553 
L 80.948321 -190.321088 
L 80.655646 -187.068624 
L 80.433932 -183.816159 
L 80.272812 -180.563694 
L 80.157059 -177.311229 
L 80.070266 -174.058764 
L 79.99845 -170.8063 
L 79.932482 -167.553835 
L 79.868707 -164.30137 
L 79.807831 -161.048905 
L 79.752795 -157.796441 
L 79.706604 -154.543976 
L 79.6709 -151.291511 
L 79.645544 -148.039046 
L 79.629001 -144.786581 
z
" id="m9cb53e5797" style="stroke:#3d3d3d;stroke-width:1.5;"/>
    </defs>
    <g clip-path="url(#p8e87549025)">
     <use style="fill:#3274a1;stroke:#3d3d3d;stroke-width:1.5;" x="0" xlink:href="#m9cb53e5797" y="497.915012"/>
    </g>
   </g>
   <g id="PolyCollection_2">
    <defs>
     <path d="M 144.914683 -134.629287 
L 144.874567 -134.629287 
L 144.861759 -136.900674 
L 144.843143 -139.172061 
L 144.817331 -141.443449 
L 144.783054 -143.714836 
L 144.739237 -145.986223 
L 144.68499 -148.257611 
L 144.619487 -150.528998 
L 144.541782 -152.800386 
L 144.450602 -155.071773 
L 144.34421 -157.34316 
L 144.220379 -159.614548 
L 144.076538 -161.885935 
L 143.910107 -164.157322 
L 143.718974 -166.42871 
L 143.502 -168.700097 
L 143.259338 -170.971484 
L 142.992247 -173.242872 
L 142.702212 -175.514259 
L 142.389405 -177.785647 
L 142.050912 -180.057034 
L 141.679453 -182.328421 
L 141.263347 -184.599809 
L 140.788135 -186.871196 
L 140.23968 -189.142583 
L 139.607983 -191.413971 
L 138.890634 -193.685358 
L 138.094951 -195.956745 
L 137.238213 -198.228133 
L 136.345918 -200.49952 
L 135.448413 -202.770908 
L 134.5765 -205.042295 
L 133.756819 -207.313682 
L 133.007846 -209.58507 
L 132.337322 -211.856457 
L 131.741748 -214.127844 
L 131.208116 -216.399232 
L 130.71754 -218.670619 
L 130.249912 -220.942006 
L 129.788374 -223.213394 
L 129.322493 -225.484781 
L 128.849428 -227.756169 
L 128.37309 -230.027556 
L 127.902013 -232.298943 
L 127.447075 -234.570331 
L 127.020236 -236.841718 
L 126.634848 -239.113105 
L 126.307258 -241.384493 
L 126.058584 -243.65588 
L 125.915175 -245.927268 
L 125.90661 -248.198655 
L 126.061055 -250.470042 
L 126.398884 -252.74143 
L 126.926346 -255.012817 
L 127.631178 -257.284204 
L 128.481547 -259.555592 
L 129.428763 -261.826979 
L 130.413245 -264.098366 
L 131.372539 -266.369754 
L 132.249927 -268.641141 
L 133.002188 -270.912529 
L 133.605288 -273.183916 
L 134.05709 -275.455303 
L 134.376586 -277.726691 
L 134.599665 -279.998078 
L 134.77212 -282.269465 
L 134.941222 -284.540853 
L 135.147661 -286.81224 
L 135.419643 -289.083627 
L 135.770419 -291.355015 
L 136.199494 -293.626402 
L 136.696695 -295.89779 
L 137.24739 -298.169177 
L 137.83697 -300.440564 
L 138.453186 -302.711952 
L 139.085994 -304.983339 
L 139.725613 -307.254726 
L 140.360209 -309.526114 
L 140.974611 -311.797501 
L 141.550891 -314.068888 
L 142.07072 -316.340276 
L 142.518712 -318.611663 
L 142.885602 -320.883051 
L 143.170257 -323.154438 
L 143.37997 -325.425825 
L 143.52903 -327.697213 
L 143.635996 -329.9686 
L 143.720369 -332.239987 
L 143.79938 -334.511375 
L 143.885538 -336.782762 
L 143.985335 -339.05415 
L 144.099267 -341.325537 
L 144.222991 -343.596924 
L 144.349245 -345.868312 
L 144.469999 -348.139699 
L 144.578321 -350.411086 
L 144.669592 -352.682474 
L 144.741931 -354.953861 
L 144.795924 -357.225248 
L 144.833909 -359.496636 
L 144.955341 -359.496636 
L 144.955341 -359.496636 
L 144.993326 -357.225248 
L 145.047319 -354.953861 
L 145.119658 -352.682474 
L 145.210929 -350.411086 
L 145.319251 -348.139699 
L 145.440005 -345.868312 
L 145.566259 -343.596924 
L 145.689983 -341.325537 
L 145.803915 -339.05415 
L 145.903712 -336.782762 
L 145.98987 -334.511375 
L 146.068881 -332.239987 
L 146.153254 -329.9686 
L 146.26022 -327.697213 
L 146.40928 -325.425825 
L 146.618993 -323.154438 
L 146.903648 -320.883051 
L 147.270538 -318.611663 
L 147.71853 -316.340276 
L 148.238359 -314.068888 
L 148.814639 -311.797501 
L 149.429041 -309.526114 
L 150.063637 -307.254726 
L 150.703256 -304.983339 
L 151.336064 -302.711952 
L 151.95228 -300.440564 
L 152.54186 -298.169177 
L 153.092555 -295.89779 
L 153.589756 -293.626402 
L 154.018831 -291.355015 
L 154.369607 -289.083627 
L 154.641589 -286.81224 
L 154.848028 -284.540853 
L 155.01713 -282.269465 
L 155.189585 -279.998078 
L 155.412664 -277.726691 
L 155.73216 -275.455303 
L 156.183962 -273.183916 
L 156.787062 -270.912529 
L 157.539323 -268.641141 
L 158.416711 -266.369754 
L 159.376005 -264.098366 
L 160.360487 -261.826979 
L 161.307703 -259.555592 
L 162.158072 -257.284204 
L 162.862904 -255.012817 
L 163.390366 -252.74143 
L 163.728195 -250.470042 
L 163.88264 -248.198655 
L 163.874075 -245.927268 
L 163.730666 -243.65588 
L 163.481992 -241.384493 
L 163.154402 -239.113105 
L 162.769014 -236.841718 
L 162.342175 -234.570331 
L 161.887237 -232.298943 
L 161.41616 -230.027556 
L 160.939822 -227.756169 
L 160.466757 -225.484781 
L 160.000876 -223.213394 
L 159.539338 -220.942006 
L 159.07171 -218.670619 
L 158.581134 -216.399232 
L 158.047502 -214.127844 
L 157.451928 -211.856457 
L 156.781404 -209.58507 
L 156.032431 -207.313682 
L 155.21275 -205.042295 
L 154.340837 -202.770908 
L 153.443332 -200.49952 
L 152.551037 -198.228133 
L 151.694299 -195.956745 
L 150.898616 -193.685358 
L 150.181267 -191.413971 
L 149.54957 -189.142583 
L 149.001115 -186.871196 
L 148.525903 -184.599809 
L 148.109797 -182.328421 
L 147.738338 -180.057034 
L 147.399845 -177.785647 
L 147.087038 -175.514259 
L 146.797003 -173.242872 
L 146.529912 -170.971484 
L 146.28725 -168.700097 
L 146.070276 -166.42871 
L 145.879143 -164.157322 
L 145.712712 -161.885935 
L 145.568871 -159.614548 
L 145.44504 -157.34316 
L 145.338648 -155.071773 
L 145.247468 -152.800386 
L 145.169763 -150.528998 
L 145.10426 -148.257611 
L 145.050013 -145.986223 
L 145.006196 -143.714836 
L 144.971919 -141.443449 
L 144.946107 -139.172061 
L 144.927491 -136.900674 
L 144.914683 -134.629287 
z
" id="m2c4a23fde1" style="stroke:#3d3d3d;stroke-width:1.5;"/>
    </defs>
    <g clip-path="url(#p8e87549025)">
     <use style="fill:#e1812c;stroke:#3d3d3d;stroke-width:1.5;" x="0" xlink:href="#m2c4a23fde1" y="497.915012"/>
    </g>
   </g>
   <g id="PolyCollection_3">
    <defs>
     <path d="M 210.216968 -114.638395 
L 210.144282 -114.638395 
L 210.121306 -116.964734 
L 210.089431 -119.291073 
L 210.048437 -121.617412 
L 209.99967 -123.943752 
L 209.946123 -126.270091 
L 209.891845 -128.59643 
L 209.840656 -130.922769 
L 209.794389 -133.249109 
L 209.751181 -135.575448 
L 209.704412 -137.901787 
L 209.642748 -140.228127 
L 209.55144 -142.554466 
L 209.414609 -144.880805 
L 209.21796 -147.207144 
L 208.951273 -149.533484 
L 208.610163 -151.859823 
L 208.196849 -154.186162 
L 207.720001 -156.512501 
L 207.193846 -158.838841 
L 206.636709 -161.16518 
L 206.068986 -163.491519 
L 205.510403 -165.817859 
L 204.976548 -168.144198 
L 204.475012 -170.470537 
L 204.002113 -172.796876 
L 203.541552 -175.123216 
L 203.066248 -177.449555 
L 202.5437 -179.775894 
L 201.94392 -182.102234 
L 201.247725 -184.428573 
L 200.452747 -186.754912 
L 199.575104 -189.081251 
L 198.646186 -191.407591 
L 197.705728 -193.73393 
L 196.793472 -196.060269 
L 195.941953 -198.386608 
L 195.172106 -200.712948 
L 194.492212 -203.039287 
L 193.899695 -205.365626 
L 193.384812 -207.691966 
L 192.935292 -210.018305 
L 192.541098 -212.344644 
L 192.198331 -214.670983 
L 191.911147 -216.997323 
L 191.690627 -219.323662 
L 191.550408 -221.650001 
L 191.500227 -223.97634 
L 191.539817 -226.30268 
L 191.655984 -228.629019 
L 191.824786 -230.955358 
L 192.01878 -233.281698 
L 192.217132 -235.608037 
L 192.414962 -237.934376 
L 192.628239 -240.260715 
L 192.891954 -242.587055 
L 193.251567 -244.913394 
L 193.750136 -247.239733 
L 194.415045 -249.566072 
L 195.248511 -251.892412 
L 196.224812 -254.218751 
L 197.295002 -256.54509 
L 198.397538 -258.87143 
L 199.471437 -261.197769 
L 200.468111 -263.524108 
L 201.358749 -265.850447 
L 202.135899 -268.176787 
L 202.809813 -270.503126 
L 203.401594 -272.829465 
L 203.935676 -275.155805 
L 204.433704 -277.482144 
L 204.910901 -279.808483 
L 205.374979 -282.134822 
L 205.827049 -284.461162 
L 206.263752 -286.787501 
L 206.679853 -289.11384 
L 207.070643 -291.440179 
L 207.433517 -293.766519 
L 207.768371 -296.092858 
L 208.076785 -298.419197 
L 208.360504 -300.745537 
L 208.619983 -303.071876 
L 208.853739 -305.398215 
L 209.058828 -307.724554 
L 209.232215 -310.050894 
L 209.372438 -312.377233 
L 209.48086 -314.703572 
L 209.562072 -317.029911 
L 209.623286 -319.356251 
L 209.672949 -321.68259 
L 209.718994 -324.008929 
L 209.767251 -326.335269 
L 209.820474 -328.661608 
L 209.87824 -330.987947 
L 209.937698 -333.314286 
L 209.994843 -335.640626 
L 210.045867 -337.966965 
L 210.088156 -340.293304 
L 210.120715 -342.619643 
L 210.144027 -344.945983 
L 210.217223 -344.945983 
L 210.217223 -344.945983 
L 210.240535 -342.619643 
L 210.273094 -340.293304 
L 210.315383 -337.966965 
L 210.366407 -335.640626 
L 210.423552 -333.314286 
L 210.48301 -330.987947 
L 210.540776 -328.661608 
L 210.593999 -326.335269 
L 210.642256 -324.008929 
L 210.688301 -321.68259 
L 210.737964 -319.356251 
L 210.799178 -317.029911 
L 210.88039 -314.703572 
L 210.988812 -312.377233 
L 211.129035 -310.050894 
L 211.302422 -307.724554 
L 211.507511 -305.398215 
L 211.741267 -303.071876 
L 212.000746 -300.745537 
L 212.284465 -298.419197 
L 212.592879 -296.092858 
L 212.927733 -293.766519 
L 213.290607 -291.440179 
L 213.681397 -289.11384 
L 214.097498 -286.787501 
L 214.534201 -284.461162 
L 214.986271 -282.134822 
L 215.450349 -279.808483 
L 215.927546 -277.482144 
L 216.425574 -275.155805 
L 216.959656 -272.829465 
L 217.551437 -270.503126 
L 218.225351 -268.176787 
L 219.002501 -265.850447 
L 219.893139 -263.524108 
L 220.889813 -261.197769 
L 221.963712 -258.87143 
L 223.066248 -256.54509 
L 224.136438 -254.218751 
L 225.112739 -251.892412 
L 225.946205 -249.566072 
L 226.611114 -247.239733 
L 227.109683 -244.913394 
L 227.469296 -242.587055 
L 227.733011 -240.260715 
L 227.946288 -237.934376 
L 228.144118 -235.608037 
L 228.34247 -233.281698 
L 228.536464 -230.955358 
L 228.705266 -228.629019 
L 228.821433 -226.30268 
L 228.861023 -223.97634 
L 228.810842 -221.650001 
L 228.670623 -219.323662 
L 228.450103 -216.997323 
L 228.162919 -214.670983 
L 227.820152 -212.344644 
L 227.425958 -210.018305 
L 226.976438 -207.691966 
L 226.461555 -205.365626 
L 225.869038 -203.039287 
L 225.189144 -200.712948 
L 224.419297 -198.386608 
L 223.567778 -196.060269 
L 222.655522 -193.73393 
L 221.715064 -191.407591 
L 220.786146 -189.081251 
L 219.908503 -186.754912 
L 219.113525 -184.428573 
L 218.41733 -182.102234 
L 217.81755 -179.775894 
L 217.295002 -177.449555 
L 216.819698 -175.123216 
L 216.359137 -172.796876 
L 215.886238 -170.470537 
L 215.384702 -168.144198 
L 214.850847 -165.817859 
L 214.292264 -163.491519 
L 213.724541 -161.16518 
L 213.167404 -158.838841 
L 212.641249 -156.512501 
L 212.164401 -154.186162 
L 211.751087 -151.859823 
L 211.409977 -149.533484 
L 211.14329 -147.207144 
L 210.946641 -144.880805 
L 210.80981 -142.554466 
L 210.718502 -140.228127 
L 210.656838 -137.901787 
L 210.610069 -135.575448 
L 210.566861 -133.249109 
L 210.520594 -130.922769 
L 210.469405 -128.59643 
L 210.415127 -126.270091 
L 210.36158 -123.943752 
L 210.312813 -121.617412 
L 210.271819 -119.291073 
L 210.239944 -116.964734 
L 210.216968 -114.638395 
z
" id="m297fb1bfb1" style="stroke:#3d3d3d;stroke-width:1.5;"/>
    </defs>
    <g clip-path="url(#p8e87549025)">
     <use style="fill:#3a923a;stroke:#3d3d3d;stroke-width:1.5;" x="0" xlink:href="#m297fb1bfb1" y="497.915012"/>
    </g>
   </g>
   <g id="PolyCollection_4">
    <defs>
     <path d="M 275.487194 -88.008674 
L 275.446056 -88.008674 
L 275.430639 -90.454302 
L 275.407883 -92.89993 
L 275.376947 -95.345558 
L 275.338211 -97.791186 
L 275.293516 -100.236814 
L 275.24594 -102.682442 
L 275.199057 -105.12807 
L 275.155894 -107.573698 
L 275.117886 -110.019326 
L 275.084091 -112.464954 
L 275.050819 -114.910582 
L 275.011614 -117.35621 
L 274.957596 -119.801838 
L 274.878205 -122.247466 
L 274.762495 -124.693094 
L 274.600979 -127.138722 
L 274.387688 -129.58435 
L 274.121702 -132.029978 
L 273.807215 -134.475606 
L 273.451621 -136.921234 
L 273.062007 -139.366863 
L 272.641449 -141.812491 
L 272.186997 -144.258119 
L 271.690626 -146.703747 
L 271.142956 -149.149375 
L 270.537847 -151.595003 
L 269.875189 -154.040631 
L 269.16 -156.486259 
L 268.398107 -158.931887 
L 267.591066 -161.377515 
L 266.733853 -163.823143 
L 265.817463 -166.268771 
L 264.835509 -168.714399 
L 263.79125 -171.160027 
L 262.701052 -173.605655 
L 261.592421 -176.051283 
L 260.497985 -178.496911 
L 259.448982 -180.942539 
L 258.471697 -183.388167 
L 257.588207 -185.833795 
L 256.820003 -188.279423 
L 256.191092 -190.725051 
L 255.727037 -193.170679 
L 255.448348 -195.616307 
L 255.360165 -198.061935 
L 255.443746 -200.507563 
L 255.656394 -202.953191 
L 255.943385 -205.39882 
L 256.258584 -207.844448 
L 256.583774 -210.290076 
L 256.935226 -212.735704 
L 257.35218 -215.181332 
L 257.872494 -217.62696 
L 258.508746 -220.072588 
L 259.237797 -222.518216 
L 260.008584 -224.963844 
L 260.762522 -227.409472 
L 261.455193 -229.8551 
L 262.069506 -232.300728 
L 262.616753 -234.746356 
L 263.128233 -237.191984 
L 263.643073 -239.637612 
L 264.197205 -242.08324 
L 264.816023 -244.528868 
L 265.510976 -246.974496 
L 266.279292 -249.420124 
L 267.105989 -251.865752 
L 267.967538 -254.31138 
L 268.836584 -256.757008 
L 269.686737 -259.202636 
L 270.496258 -261.648264 
L 271.249728 -264.093892 
L 271.937587 -266.53952 
L 272.554376 -268.985148 
L 273.096969 -271.430777 
L 273.563889 -273.876405 
L 273.955875 -276.322033 
L 274.276991 -278.767661 
L 274.535089 -281.213289 
L 274.740869 -283.658917 
L 274.905667 -286.104545 
L 275.038977 -288.550173 
L 275.146882 -290.995801 
L 275.232041 -293.441429 
L 275.295008 -295.887057 
L 275.336105 -298.332685 
L 275.356982 -300.778313 
L 275.361371 -303.223941 
L 275.354929 -305.669569 
L 275.344329 -308.115197 
L 275.335921 -310.560825 
L 275.334351 -313.006453 
L 275.341629 -315.452081 
L 275.356988 -317.897709 
L 275.377586 -320.343337 
L 275.399741 -322.788965 
L 275.420173 -325.234593 
L 275.436801 -327.680221 
L 275.448926 -330.125849 
L 275.484324 -330.125849 
L 275.484324 -330.125849 
L 275.496449 -327.680221 
L 275.513077 -325.234593 
L 275.533509 -322.788965 
L 275.555664 -320.343337 
L 275.576262 -317.897709 
L 275.591621 -315.452081 
L 275.598899 -313.006453 
L 275.597329 -310.560825 
L 275.588921 -308.115197 
L 275.578321 -305.669569 
L 275.571879 -303.223941 
L 275.576268 -300.778313 
L 275.597145 -298.332685 
L 275.638242 -295.887057 
L 275.701209 -293.441429 
L 275.786368 -290.995801 
L 275.894273 -288.550173 
L 276.027583 -286.104545 
L 276.192381 -283.658917 
L 276.398161 -281.213289 
L 276.656259 -278.767661 
L 276.977375 -276.322033 
L 277.369361 -273.876405 
L 277.836281 -271.430777 
L 278.378874 -268.985148 
L 278.995663 -266.53952 
L 279.683522 -264.093892 
L 280.436992 -261.648264 
L 281.246513 -259.202636 
L 282.096666 -256.757008 
L 282.965712 -254.31138 
L 283.827261 -251.865752 
L 284.653958 -249.420124 
L 285.422274 -246.974496 
L 286.117227 -244.528868 
L 286.736045 -242.08324 
L 287.290177 -239.637612 
L 287.805017 -237.191984 
L 288.316497 -234.746356 
L 288.863744 -232.300728 
L 289.478057 -229.8551 
L 290.170728 -227.409472 
L 290.924666 -224.963844 
L 291.695453 -222.518216 
L 292.424504 -220.072588 
L 293.060756 -217.62696 
L 293.58107 -215.181332 
L 293.998024 -212.735704 
L 294.349476 -210.290076 
L 294.674666 -207.844448 
L 294.989865 -205.39882 
L 295.276856 -202.953191 
L 295.489504 -200.507563 
L 295.573085 -198.061935 
L 295.484902 -195.616307 
L 295.206213 -193.170679 
L 294.742158 -190.725051 
L 294.113247 -188.279423 
L 293.345043 -185.833795 
L 292.461553 -183.388167 
L 291.484268 -180.942539 
L 290.435265 -178.496911 
L 289.340829 -176.051283 
L 288.232198 -173.605655 
L 287.142 -171.160027 
L 286.097741 -168.714399 
L 285.115787 -166.268771 
L 284.199397 -163.823143 
L 283.342184 -161.377515 
L 282.535143 -158.931887 
L 281.77325 -156.486259 
L 281.058061 -154.040631 
L 280.395403 -151.595003 
L 279.790294 -149.149375 
L 279.242624 -146.703747 
L 278.746253 -144.258119 
L 278.291801 -141.812491 
L 277.871243 -139.366863 
L 277.481629 -136.921234 
L 277.126035 -134.475606 
L 276.811548 -132.029978 
L 276.545562 -129.58435 
L 276.332271 -127.138722 
L 276.170755 -124.693094 
L 276.055045 -122.247466 
L 275.975654 -119.801838 
L 275.921636 -117.35621 
L 275.882431 -114.910582 
L 275.849159 -112.464954 
L 275.815364 -110.019326 
L 275.777356 -107.573698 
L 275.734193 -105.12807 
L 275.68731 -102.682442 
L 275.639734 -100.236814 
L 275.595039 -97.791186 
L 275.556303 -95.345558 
L 275.525367 -92.89993 
L 275.502611 -90.454302 
L 275.487194 -88.008674 
z
" id="m1124dd08f6" style="stroke:#3d3d3d;stroke-width:1.5;"/>
    </defs>
    <g clip-path="url(#p8e87549025)">
     <use style="fill:#c03d3e;stroke:#3d3d3d;stroke-width:1.5;" x="0" xlink:href="#m1124dd08f6" y="497.915012"/>
    </g>
   </g>
   <g id="PolyCollection_5">
    <defs>
     <path d="M 340.793813 -58.092231 
L 340.711437 -58.092231 
L 340.684951 -60.444422 
L 340.646718 -62.796614 
L 340.594534 -65.148806 
L 340.52712 -67.500997 
L 340.44457 -69.853189 
L 340.348493 -72.20538 
L 340.241735 -74.557572 
L 340.12762 -76.909764 
L 340.008899 -79.261955 
L 339.886662 -81.614147 
L 339.759594 -83.966339 
L 339.623851 -86.31853 
L 339.473661 -88.670722 
L 339.30257 -91.022914 
L 339.105065 -93.375105 
L 338.878235 -95.727297 
L 338.623085 -98.079488 
L 338.345155 -100.43168 
L 338.054116 -102.783872 
L 337.762141 -105.136063 
L 337.481143 -107.488255 
L 337.219346 -109.840447 
L 336.978143 -112.192638 
L 336.750319 -114.54483 
L 336.520538 -116.897021 
L 336.268321 -119.249213 
L 335.972891 -121.601405 
L 335.618568 -123.953596 
L 335.199102 -126.305788 
L 334.719554 -128.65798 
L 334.195002 -131.010171 
L 333.646178 -133.362363 
L 333.093067 -135.714555 
L 332.548169 -138.066746 
L 332.011455 -140.418938 
L 331.468787 -142.771129 
L 330.894666 -145.123321 
L 330.258944 -147.475513 
L 329.53582 -149.827704 
L 328.712645 -152.179896 
L 327.796019 -154.532088 
L 326.813395 -156.884279 
L 325.809682 -159.236471 
L 324.839715 -161.588662 
L 323.958637 -163.940854 
L 323.212721 -166.293046 
L 322.632931 -168.645237 
L 322.232526 -170.997429 
L 322.008628 -173.349621 
L 321.94646 -175.701812 
L 322.024455 -178.054004 
L 322.218703 -180.406196 
L 322.506083 -182.758387 
L 322.866238 -185.110579 
L 323.282813 -187.46277 
L 323.744156 -189.814962 
L 324.243188 -192.167154 
L 324.776017 -194.519345 
L 325.339289 -196.871537 
L 325.926995 -199.223729 
L 326.528032 -201.57592 
L 327.125838 -203.928112 
L 327.700668 -206.280303 
L 328.234069 -208.632495 
L 328.714082 -210.984687 
L 329.139396 -213.336878 
L 329.520963 -215.68907 
L 329.880478 -218.041262 
L 330.246184 -220.393453 
L 330.647225 -222.745645 
L 331.108078 -225.097837 
L 331.644373 -227.450028 
L 332.260813 -229.80222 
L 332.95124 -232.154411 
L 333.700339 -234.506603 
L 334.486269 -236.858795 
L 335.283572 -239.210986 
L 336.065955 -241.563178 
L 336.808782 -243.91537 
L 337.49126 -246.267561 
L 338.098189 -248.619753 
L 338.621075 -250.971944 
L 339.058346 -253.324136 
L 339.414544 -255.676328 
L 339.698664 -258.028519 
L 339.922076 -260.380711 
L 340.096566 -262.732903 
L 340.232922 -265.085094 
L 340.340201 -267.437286 
L 340.425562 -269.789478 
L 340.494418 -272.141669 
L 340.550703 -274.493861 
L 340.597133 -276.846052 
L 340.63547 -279.198244 
L 340.66681 -281.550436 
L 340.691876 -283.902627 
L 340.711277 -286.254819 
L 340.725682 -288.607011 
L 340.735874 -290.959202 
L 340.769376 -290.959202 
L 340.769376 -290.959202 
L 340.779568 -288.607011 
L 340.793973 -286.254819 
L 340.813374 -283.902627 
L 340.83844 -281.550436 
L 340.86978 -279.198244 
L 340.908117 -276.846052 
L 340.954547 -274.493861 
L 341.010832 -272.141669 
L 341.079688 -269.789478 
L 341.165049 -267.437286 
L 341.272328 -265.085094 
L 341.408684 -262.732903 
L 341.583174 -260.380711 
L 341.806586 -258.028519 
L 342.090706 -255.676328 
L 342.446904 -253.324136 
L 342.884175 -250.971944 
L 343.407061 -248.619753 
L 344.01399 -246.267561 
L 344.696468 -243.91537 
L 345.439295 -241.563178 
L 346.221678 -239.210986 
L 347.018981 -236.858795 
L 347.804911 -234.506603 
L 348.55401 -232.154411 
L 349.244437 -229.80222 
L 349.860877 -227.450028 
L 350.397172 -225.097837 
L 350.858025 -222.745645 
L 351.259066 -220.393453 
L 351.624772 -218.041262 
L 351.984287 -215.68907 
L 352.365854 -213.336878 
L 352.791168 -210.984687 
L 353.271181 -208.632495 
L 353.804582 -206.280303 
L 354.379412 -203.928112 
L 354.977218 -201.57592 
L 355.578255 -199.223729 
L 356.165961 -196.871537 
L 356.729233 -194.519345 
L 357.262062 -192.167154 
L 357.761094 -189.814962 
L 358.222437 -187.46277 
L 358.639012 -185.110579 
L 358.999167 -182.758387 
L 359.286547 -180.406196 
L 359.480795 -178.054004 
L 359.55879 -175.701812 
L 359.496622 -173.349621 
L 359.272724 -170.997429 
L 358.872319 -168.645237 
L 358.292529 -166.293046 
L 357.546613 -163.940854 
L 356.665535 -161.588662 
L 355.695568 -159.236471 
L 354.691855 -156.884279 
L 353.709231 -154.532088 
L 352.792605 -152.179896 
L 351.96943 -149.827704 
L 351.246306 -147.475513 
L 350.610584 -145.123321 
L 350.036463 -142.771129 
L 349.493795 -140.418938 
L 348.957081 -138.066746 
L 348.412183 -135.714555 
L 347.859072 -133.362363 
L 347.310248 -131.010171 
L 346.785696 -128.65798 
L 346.306148 -126.305788 
L 345.886682 -123.953596 
L 345.532359 -121.601405 
L 345.236929 -119.249213 
L 344.984712 -116.897021 
L 344.754931 -114.54483 
L 344.527107 -112.192638 
L 344.285904 -109.840447 
L 344.024107 -107.488255 
L 343.743109 -105.136063 
L 343.451134 -102.783872 
L 343.160095 -100.43168 
L 342.882165 -98.079488 
L 342.627015 -95.727297 
L 342.400185 -93.375105 
L 342.20268 -91.022914 
L 342.031589 -88.670722 
L 341.881399 -86.31853 
L 341.745656 -83.966339 
L 341.618588 -81.614147 
L 341.496351 -79.261955 
L 341.37763 -76.909764 
L 341.263515 -74.557572 
L 341.156757 -72.20538 
L 341.06068 -69.853189 
L 340.97813 -67.500997 
L 340.910716 -65.148806 
L 340.858532 -62.796614 
L 340.820299 -60.444422 
L 340.793813 -58.092231 
z
" id="m2ab04bc892" style="stroke:#3d3d3d;stroke-width:1.5;"/>
    </defs>
    <g clip-path="url(#p8e87549025)">
     <use style="fill:#9372b2;stroke:#3d3d3d;stroke-width:1.5;" x="0" xlink:href="#m2ab04bc892" y="497.915012"/>
    </g>
   </g>
   <g id="PolyCollection_6">
    <defs>
     <path d="M 406.215348 -154.821868 
L 405.861902 -154.821868 
L 405.747728 -156.475982 
L 405.588643 -158.130096 
L 405.383526 -159.784209 
L 405.139299 -161.438323 
L 404.871471 -163.092437 
L 404.601911 -164.746551 
L 404.35404 -166.400664 
L 404.14687 -168.054778 
L 403.989931 -169.708892 
L 403.880796 -171.363005 
L 403.805839 -173.017119 
L 403.743601 -174.671233 
L 403.669422 -176.325347 
L 403.559972 -177.97946 
L 403.396691 -179.633574 
L 403.167626 -181.287688 
L 402.867385 -182.941802 
L 402.495217 -184.595915 
L 402.051651 -186.250029 
L 401.534785 -187.904143 
L 400.9378 -189.558256 
L 400.249132 -191.21237 
L 399.455808 -192.866484 
L 398.548917 -194.520598 
L 397.528876 -196.174711 
L 396.407828 -197.828825 
L 395.207627 -199.482939 
L 393.95399 -201.137053 
L 392.669565 -202.791166 
L 391.369478 -204.44528 
L 390.061857 -206.099394 
L 388.753264 -207.753507 
L 387.456303 -209.407621 
L 386.195263 -211.061735 
L 385.006389 -212.715849 
L 383.931917 -214.369962 
L 383.010103 -216.024076 
L 382.265562 -217.67819 
L 381.704011 -219.332304 
L 381.313194 -220.986417 
L 381.068672 -222.640531 
L 380.941066 -224.294645 
L 380.901294 -225.948758 
L 380.922094 -227.602872 
L 380.976601 -229.256986 
L 381.036703 -230.9111 
L 381.074254 -232.565213 
L 381.066711 -234.219327 
L 381.005966 -235.873441 
L 380.906504 -237.527555 
L 380.808134 -239.181668 
L 380.77022 -240.835782 
L 380.858061 -242.489896 
L 381.125965 -244.144009 
L 381.603479 -245.798123 
L 382.289956 -247.452237 
L 383.158821 -249.106351 
L 384.168745 -250.760464 
L 385.276609 -252.414578 
L 386.447546 -254.068692 
L 387.659586 -255.722806 
L 388.903018 -257.376919 
L 390.176212 -259.031033 
L 391.480079 -260.685147 
L 392.812907 -262.33926 
L 394.166616 -263.993374 
L 395.52499 -265.647488 
L 396.864159 -267.301602 
L 398.155231 -268.955715 
L 399.368456 -270.609829 
L 400.477771 -272.263943 
L 401.464477 -273.918057 
L 402.319222 -275.57217 
L 403.042114 -277.226284 
L 403.641363 -278.880398 
L 404.130983 -280.534511 
L 404.528064 -282.188625 
L 404.850044 -283.842739 
L 405.112392 -285.496853 
L 405.327092 -287.150966 
L 405.502172 -288.80508 
L 405.642234 -290.459194 
L 405.749695 -292.113308 
L 405.826275 -293.767421 
L 405.874276 -295.421535 
L 405.8974 -297.075649 
L 405.901008 -298.729762 
L 405.891841 -300.383876 
L 405.877287 -302.03799 
L 405.864335 -303.692104 
L 405.858437 -305.346217 
L 405.862614 -307.000331 
L 405.877104 -308.654445 
L 405.899723 -310.308559 
L 405.926808 -311.962672 
L 405.954402 -313.616786 
L 405.979279 -315.2709 
L 405.99951 -316.925013 
L 406.01451 -318.579127 
L 406.06274 -318.579127 
L 406.06274 -318.579127 
L 406.07774 -316.925013 
L 406.097971 -315.2709 
L 406.122848 -313.616786 
L 406.150442 -311.962672 
L 406.177527 -310.308559 
L 406.200146 -308.654445 
L 406.214636 -307.000331 
L 406.218813 -305.346217 
L 406.212915 -303.692104 
L 406.199963 -302.03799 
L 406.185409 -300.383876 
L 406.176242 -298.729762 
L 406.17985 -297.075649 
L 406.202974 -295.421535 
L 406.250975 -293.767421 
L 406.327555 -292.113308 
L 406.435016 -290.459194 
L 406.575078 -288.80508 
L 406.750158 -287.150966 
L 406.964858 -285.496853 
L 407.227206 -283.842739 
L 407.549186 -282.188625 
L 407.946267 -280.534511 
L 408.435887 -278.880398 
L 409.035136 -277.226284 
L 409.758028 -275.57217 
L 410.612773 -273.918057 
L 411.599479 -272.263943 
L 412.708794 -270.609829 
L 413.922019 -268.955715 
L 415.213091 -267.301602 
L 416.55226 -265.647488 
L 417.910634 -263.993374 
L 419.264343 -262.33926 
L 420.597171 -260.685147 
L 421.901038 -259.031033 
L 423.174232 -257.376919 
L 424.417664 -255.722806 
L 425.629704 -254.068692 
L 426.800641 -252.414578 
L 427.908505 -250.760464 
L 428.918429 -249.106351 
L 429.787294 -247.452237 
L 430.473771 -245.798123 
L 430.951285 -244.144009 
L 431.219189 -242.489896 
L 431.30703 -240.835782 
L 431.269116 -239.181668 
L 431.170746 -237.527555 
L 431.071284 -235.873441 
L 431.010539 -234.219327 
L 431.002996 -232.565213 
L 431.040547 -230.9111 
L 431.100649 -229.256986 
L 431.155156 -227.602872 
L 431.175956 -225.948758 
L 431.136184 -224.294645 
L 431.008578 -222.640531 
L 430.764056 -220.986417 
L 430.373239 -219.332304 
L 429.811688 -217.67819 
L 429.067147 -216.024076 
L 428.145333 -214.369962 
L 427.070861 -212.715849 
L 425.881987 -211.061735 
L 424.620947 -209.407621 
L 423.323986 -207.753507 
L 422.015393 -206.099394 
L 420.707772 -204.44528 
L 419.407685 -202.791166 
L 418.12326 -201.137053 
L 416.869623 -199.482939 
L 415.669422 -197.828825 
L 414.548374 -196.174711 
L 413.528333 -194.520598 
L 412.621442 -192.866484 
L 411.828118 -191.21237 
L 411.13945 -189.558256 
L 410.542465 -187.904143 
L 410.025599 -186.250029 
L 409.582033 -184.595915 
L 409.209865 -182.941802 
L 408.909624 -181.287688 
L 408.680559 -179.633574 
L 408.517278 -177.97946 
L 408.407828 -176.325347 
L 408.333649 -174.671233 
L 408.271411 -173.017119 
L 408.196454 -171.363005 
L 408.087319 -169.708892 
L 407.93038 -168.054778 
L 407.72321 -166.400664 
L 407.475339 -164.746551 
L 407.205779 -163.092437 
L 406.937951 -161.438323 
L 406.693724 -159.784209 
L 406.488607 -158.130096 
L 406.329522 -156.475982 
L 406.215348 -154.821868 
z
" id="mf76ed13e61" style="stroke:#3d3d3d;stroke-width:1.5;"/>
    </defs>
    <g clip-path="url(#p8e87549025)">
     <use style="fill:#845b53;stroke:#3d3d3d;stroke-width:1.5;" x="0" xlink:href="#mf76ed13e61" y="497.915012"/>
    </g>
   </g>
   <g id="PolyCollection_7">
    <defs>
     <path d="M 471.3617 -140.383556 
L 471.28755 -140.383556 
L 471.258835 -142.05023 
L 471.212909 -143.716903 
L 471.142946 -145.383576 
L 471.041534 -147.050249 
L 470.901911 -148.716922 
L 470.719757 -150.383596 
L 470.495189 -152.050269 
L 470.234316 -153.716942 
L 469.949555 -155.383615 
L 469.658091 -157.050288 
L 469.3785 -158.716962 
L 469.126315 -160.383635 
L 468.909874 -162.050308 
L 468.727863 -163.716981 
L 468.569279 -165.383654 
L 468.415669 -167.050328 
L 468.244655 -168.717001 
L 468.033515 -170.383674 
L 467.761843 -172.050347 
L 467.412969 -173.71702 
L 466.974347 -175.383693 
L 466.43749 -177.050367 
L 465.797958 -178.71704 
L 465.055745 -180.383713 
L 464.216042 -182.050386 
L 463.290146 -183.717059 
L 462.296063 -185.383733 
L 461.258297 -187.050406 
L 460.206347 -188.717079 
L 459.171588 -190.383752 
L 458.182659 -192.050425 
L 457.260053 -193.717099 
L 456.411358 -195.383772 
L 455.628835 -197.050445 
L 454.890679 -198.717118 
L 454.166109 -200.383791 
L 453.42304 -202.050465 
L 452.636084 -203.717138 
L 451.792615 -205.383811 
L 450.895505 -207.050484 
L 449.962431 -208.717157 
L 449.022709 -210.383831 
L 448.112939 -212.050504 
L 447.27254 -213.717177 
L 446.53966 -215.38385 
L 445.947558 -217.050523 
L 445.521344 -218.717197 
L 445.275166 -220.38387 
L 445.210225 -222.050543 
L 445.314347 -223.717216 
L 445.563807 -225.383889 
L 445.927626 -227.050563 
L 446.373583 -228.717236 
L 446.874329 -230.383909 
L 447.411674 -232.050582 
L 447.977746 -233.717255 
L 448.573047 -235.383929 
L 449.202757 -237.050602 
L 449.873277 -238.717275 
L 450.590628 -240.383948 
L 451.360991 -242.050621 
L 452.19223 -243.717295 
L 453.094422 -245.383968 
L 454.077787 -247.050641 
L 455.147847 -248.717314 
L 456.299528 -250.383987 
L 457.513053 -252.050661 
L 458.754315 -253.717334 
L 459.980617 -255.384007 
L 461.150225 -257.05068 
L 462.232239 -258.717353 
L 463.212981 -260.384027 
L 464.096634 -262.0507 
L 464.900339 -263.717373 
L 465.646151 -265.384046 
L 466.35309 -267.050719 
L 467.031902 -268.717393 
L 467.683546 -270.384066 
L 468.300893 -272.050739 
L 468.872213 -273.717412 
L 469.384963 -275.384085 
L 469.828875 -277.050759 
L 470.19791 -278.717432 
L 470.491087 -280.384105 
L 470.712399 -282.050778 
L 470.870065 -283.717451 
L 470.975362 -285.384125 
L 471.041207 -287.050798 
L 471.080643 -288.717471 
L 471.105383 -290.384144 
L 471.124627 -292.050817 
L 471.144346 -293.717491 
L 471.16721 -295.384164 
L 471.193155 -297.050837 
L 471.220381 -298.71751 
L 471.246486 -300.384183 
L 471.269387 -302.050856 
L 471.287847 -303.71753 
L 471.30158 -305.384203 
L 471.34767 -305.384203 
L 471.34767 -305.384203 
L 471.361403 -303.71753 
L 471.379863 -302.050856 
L 471.402764 -300.384183 
L 471.428869 -298.71751 
L 471.456095 -297.050837 
L 471.48204 -295.384164 
L 471.504904 -293.717491 
L 471.524623 -292.050817 
L 471.543867 -290.384144 
L 471.568607 -288.717471 
L 471.608043 -287.050798 
L 471.673888 -285.384125 
L 471.779185 -283.717451 
L 471.936851 -282.050778 
L 472.158163 -280.384105 
L 472.45134 -278.717432 
L 472.820375 -277.050759 
L 473.264287 -275.384085 
L 473.777037 -273.717412 
L 474.348357 -272.050739 
L 474.965704 -270.384066 
L 475.617348 -268.717393 
L 476.29616 -267.050719 
L 477.003099 -265.384046 
L 477.748911 -263.717373 
L 478.552616 -262.0507 
L 479.436269 -260.384027 
L 480.417011 -258.717353 
L 481.499025 -257.05068 
L 482.668633 -255.384007 
L 483.894935 -253.717334 
L 485.136197 -252.050661 
L 486.349722 -250.383987 
L 487.501403 -248.717314 
L 488.571463 -247.050641 
L 489.554828 -245.383968 
L 490.45702 -243.717295 
L 491.288259 -242.050621 
L 492.058622 -240.383948 
L 492.775973 -238.717275 
L 493.446493 -237.050602 
L 494.076203 -235.383929 
L 494.671504 -233.717255 
L 495.237576 -232.050582 
L 495.774921 -230.383909 
L 496.275667 -228.717236 
L 496.721624 -227.050563 
L 497.085443 -225.383889 
L 497.334903 -223.717216 
L 497.439025 -222.050543 
L 497.374084 -220.38387 
L 497.127906 -218.717197 
L 496.701692 -217.050523 
L 496.10959 -215.38385 
L 495.37671 -213.717177 
L 494.536311 -212.050504 
L 493.626541 -210.383831 
L 492.686819 -208.717157 
L 491.753745 -207.050484 
L 490.856635 -205.383811 
L 490.013166 -203.717138 
L 489.22621 -202.050465 
L 488.483141 -200.383791 
L 487.758571 -198.717118 
L 487.020415 -197.050445 
L 486.237892 -195.383772 
L 485.389197 -193.717099 
L 484.466591 -192.050425 
L 483.477662 -190.383752 
L 482.442903 -188.717079 
L 481.390953 -187.050406 
L 480.353187 -185.383733 
L 479.359104 -183.717059 
L 478.433208 -182.050386 
L 477.593505 -180.383713 
L 476.851292 -178.71704 
L 476.21176 -177.050367 
L 475.674903 -175.383693 
L 475.236281 -173.71702 
L 474.887407 -172.050347 
L 474.615735 -170.383674 
L 474.404595 -168.717001 
L 474.233581 -167.050328 
L 474.079971 -165.383654 
L 473.921387 -163.716981 
L 473.739376 -162.050308 
L 473.522935 -160.383635 
L 473.27075 -158.716962 
L 472.991159 -157.050288 
L 472.699695 -155.383615 
L 472.414934 -153.716942 
L 472.154061 -152.050269 
L 471.929493 -150.383596 
L 471.747339 -148.716922 
L 471.607716 -147.050249 
L 471.506304 -145.383576 
L 471.436341 -143.716903 
L 471.390415 -142.05023 
L 471.3617 -140.383556 
z
" id="m8b3a0147fc" style="stroke:#3d3d3d;stroke-width:1.5;"/>
    </defs>
    <g clip-path="url(#p8e87549025)">
     <use style="fill:#d684bd;stroke:#3d3d3d;stroke-width:1.5;" x="0" xlink:href="#m8b3a0147fc" y="497.915012"/>
    </g>
   </g>
   <g id="PolyCollection_8">
    <defs>
     <path d="M 536.633783 -126.327319 
L 536.587467 -126.327319 
L 536.571963 -128.138394 
L 536.549756 -129.94947 
L 536.519599 -131.760546 
L 536.479954 -133.571622 
L 536.428039 -135.382698 
L 536.358458 -137.193773 
L 536.262085 -139.004849 
L 536.126247 -140.815925 
L 535.937147 -142.627001 
L 535.684599 -144.438077 
L 535.367707 -146.249152 
L 534.998941 -148.060228 
L 534.603971 -149.871304 
L 534.216159 -151.68238 
L 533.867131 -153.493456 
L 533.577014 -155.304531 
L 533.348306 -157.115607 
L 533.16559 -158.926683 
L 533.000386 -160.737759 
L 532.818181 -162.548835 
L 532.584237 -164.35991 
L 532.266372 -166.170986 
L 531.835216 -167.982062 
L 531.264186 -169.793138 
L 530.531398 -171.604214 
L 529.624334 -173.415289 
L 528.545968 -175.226365 
L 527.319703 -177.037441 
L 525.99045 -178.848517 
L 524.620453 -180.659593 
L 523.280186 -182.470668 
L 522.036111 -184.281744 
L 520.937887 -186.09282 
L 520.008015 -187.903896 
L 519.236891 -189.714972 
L 518.58533 -191.526047 
L 517.99471 -193.337123 
L 517.402271 -195.148199 
L 516.757051 -196.959275 
L 516.031788 -198.770351 
L 515.227803 -200.581426 
L 514.372602 -202.392502 
L 513.512143 -204.203578 
L 512.700642 -206.014654 
L 511.99059 -207.82573 
L 511.424896 -209.636805 
L 511.032263 -211.447881 
L 510.826056 -213.258957 
L 510.806104 -215.070033 
L 510.962217 -216.881108 
L 511.278043 -218.692184 
L 511.734207 -220.50326 
L 512.310398 -222.314336 
L 512.986631 -224.125412 
L 513.744278 -225.936487 
L 514.567276 -227.747563 
L 515.443535 -229.558639 
L 516.36608 -231.369715 
L 517.333327 -233.180791 
L 518.347985 -234.991866 
L 519.41451 -236.802942 
L 520.535468 -238.614018 
L 521.707557 -240.425094 
L 522.918364 -242.23617 
L 524.145102 -244.047245 
L 525.356353 -245.858321 
L 526.517137 -247.669397 
L 527.596285 -249.480473 
L 528.573823 -251.291549 
L 529.445549 -253.102624 
L 530.222837 -254.9137 
L 530.92768 -256.724776 
L 531.584933 -258.535852 
L 532.214748 -260.346928 
L 532.827667 -262.158003 
L 533.423423 -263.969079 
L 533.992967 -265.780155 
L 534.52237 -267.591231 
L 534.997114 -269.402307 
L 535.405656 -271.213382 
L 535.741632 -273.024458 
L 536.004505 -274.835534 
L 536.198868 -276.64661 
L 536.332927 -278.457686 
L 536.416821 -280.268761 
L 536.461307 -282.079837 
L 536.477015 -283.890913 
L 536.474117 -285.701989 
L 536.462086 -287.513065 
L 536.449232 -289.32414 
L 536.441979 -291.135216 
L 536.444138 -292.946292 
L 536.456552 -294.757368 
L 536.477402 -296.568444 
L 536.503142 -298.379519 
L 536.529764 -300.190595 
L 536.553913 -302.001671 
L 536.573548 -303.812747 
L 536.588031 -305.623823 
L 536.633219 -305.623823 
L 536.633219 -305.623823 
L 536.647702 -303.812747 
L 536.667337 -302.001671 
L 536.691486 -300.190595 
L 536.718108 -298.379519 
L 536.743848 -296.568444 
L 536.764698 -294.757368 
L 536.777112 -292.946292 
L 536.779271 -291.135216 
L 536.772018 -289.32414 
L 536.759164 -287.513065 
L 536.747133 -285.701989 
L 536.744235 -283.890913 
L 536.759943 -282.079837 
L 536.804429 -280.268761 
L 536.888323 -278.457686 
L 537.022382 -276.64661 
L 537.216745 -274.835534 
L 537.479618 -273.024458 
L 537.815594 -271.213382 
L 538.224136 -269.402307 
L 538.69888 -267.591231 
L 539.228283 -265.780155 
L 539.797827 -263.969079 
L 540.393583 -262.158003 
L 541.006502 -260.346928 
L 541.636317 -258.535852 
L 542.29357 -256.724776 
L 542.998413 -254.9137 
L 543.775701 -253.102624 
L 544.647427 -251.291549 
L 545.624965 -249.480473 
L 546.704113 -247.669397 
L 547.864897 -245.858321 
L 549.076148 -244.047245 
L 550.302886 -242.23617 
L 551.513693 -240.425094 
L 552.685782 -238.614018 
L 553.80674 -236.802942 
L 554.873265 -234.991866 
L 555.887923 -233.180791 
L 556.85517 -231.369715 
L 557.777715 -229.558639 
L 558.653974 -227.747563 
L 559.476972 -225.936487 
L 560.234619 -224.125412 
L 560.910852 -222.314336 
L 561.487043 -220.50326 
L 561.943207 -218.692184 
L 562.259033 -216.881108 
L 562.415146 -215.070033 
L 562.395194 -213.258957 
L 562.188987 -211.447881 
L 561.796354 -209.636805 
L 561.23066 -207.82573 
L 560.520608 -206.014654 
L 559.709107 -204.203578 
L 558.848648 -202.392502 
L 557.993447 -200.581426 
L 557.189462 -198.770351 
L 556.464199 -196.959275 
L 555.818979 -195.148199 
L 555.22654 -193.337123 
L 554.63592 -191.526047 
L 553.984359 -189.714972 
L 553.213235 -187.903896 
L 552.283363 -186.09282 
L 551.185139 -184.281744 
L 549.941064 -182.470668 
L 548.600797 -180.659593 
L 547.2308 -178.848517 
L 545.901547 -177.037441 
L 544.675282 -175.226365 
L 543.596916 -173.415289 
L 542.689852 -171.604214 
L 541.957064 -169.793138 
L 541.386034 -167.982062 
L 540.954878 -166.170986 
L 540.637013 -164.35991 
L 540.403069 -162.548835 
L 540.220864 -160.737759 
L 540.05566 -158.926683 
L 539.872944 -157.115607 
L 539.644236 -155.304531 
L 539.354119 -153.493456 
L 539.005091 -151.68238 
L 538.617279 -149.871304 
L 538.222309 -148.060228 
L 537.853543 -146.249152 
L 537.536651 -144.438077 
L 537.284103 -142.627001 
L 537.095003 -140.815925 
L 536.959165 -139.004849 
L 536.862792 -137.193773 
L 536.793211 -135.382698 
L 536.741296 -133.571622 
L 536.701651 -131.760546 
L 536.671494 -129.94947 
L 536.649287 -128.138394 
L 536.633783 -126.327319 
z
" id="m2deac63c0e" style="stroke:#3d3d3d;stroke-width:1.5;"/>
    </defs>
    <g clip-path="url(#p8e87549025)">
     <use style="fill:#7f7f7f;stroke:#3d3d3d;stroke-width:1.5;" x="0" xlink:href="#m2deac63c0e" y="497.915012"/>
    </g>
   </g>
   <g id="PolyCollection_9">
    <defs>
     <path d="M 601.922661 -112.214661 
L 601.870589 -112.214661 
L 601.851389 -114.101498 
L 601.822584 -115.988336 
L 601.782072 -117.875173 
L 601.72841 -119.76201 
L 601.661044 -121.648847 
L 601.580196 -123.535685 
L 601.486352 -125.422522 
L 601.379451 -127.309359 
L 601.25801 -129.196197 
L 601.118553 -131.083034 
L 600.955738 -132.969871 
L 600.763476 -134.856708 
L 600.536975 -136.743546 
L 600.275121 -138.630383 
L 599.982087 -140.51722 
L 599.666988 -142.404058 
L 599.341022 -144.290895 
L 599.012823 -146.177732 
L 598.683907 -148.06457 
L 598.346448 -149.951407 
L 597.984604 -151.838244 
L 597.578841 -153.725081 
L 597.111076 -155.611919 
L 596.568219 -157.498756 
L 595.942777 -159.385593 
L 595.231078 -161.272431 
L 594.431012 -163.159268 
L 593.541316 -165.046105 
L 592.563305 -166.932943 
L 591.504418 -168.81978 
L 590.381758 -170.706617 
L 589.223602 -172.593454 
L 588.067354 -174.480292 
L 586.953564 -176.367129 
L 585.91695 -178.253966 
L 584.97687 -180.140804 
L 584.13079 -182.027641 
L 583.354243 -183.914478 
L 582.608921 -185.801315 
L 581.857111 -187.688153 
L 581.077348 -189.57499 
L 580.274971 -191.461827 
L 579.483128 -193.348665 
L 578.753843 -195.235502 
L 578.142735 -197.122339 
L 577.693025 -199.009177 
L 577.424048 -200.896014 
L 577.327487 -202.782851 
L 577.372087 -204.669688 
L 577.515158 -206.556526 
L 577.717089 -208.443363 
L 577.95383 -210.3302 
L 578.222805 -212.217038 
L 578.540395 -214.103875 
L 578.93287 -215.990712 
L 579.425656 -217.877549 
L 580.035998 -219.764387 
L 580.771578 -221.651224 
L 581.633781 -223.538061 
L 582.621811 -225.424899 
L 583.733924 -227.311736 
L 584.964661 -229.198573 
L 586.299949 -231.085411 
L 587.71358 -232.972248 
L 589.16775 -234.859085 
L 590.617875 -236.745922 
L 592.019545 -238.63276 
L 593.334663 -240.519597 
L 594.534864 -242.406434 
L 595.60223 -244.293272 
L 596.528681 -246.180109 
L 597.315504 -248.066946 
L 597.973347 -249.953784 
L 598.521701 -251.840621 
L 598.986459 -253.727458 
L 599.39495 -255.614295 
L 599.76962 -257.501133 
L 600.122813 -259.38797 
L 600.455138 -261.274807 
L 600.758248 -263.161645 
L 601.020678 -265.048482 
L 601.233889 -266.935319 
L 601.395861 -268.822156 
L 601.511203 -270.708994 
L 601.588627 -272.595831 
L 601.637752 -274.482668 
L 601.666951 -276.369506 
L 601.682846 -278.256343 
L 601.690916 -280.14318 
L 601.69617 -282.030018 
L 601.703171 -283.916855 
L 601.715355 -285.803692 
L 601.734209 -287.690529 
L 601.758946 -289.577367 
L 601.786969 -291.464204 
L 601.814921 -293.351041 
L 601.839824 -295.237879 
L 601.859839 -297.124716 
L 601.874452 -299.011553 
L 601.918798 -299.011553 
L 601.918798 -299.011553 
L 601.933411 -297.124716 
L 601.953426 -295.237879 
L 601.978329 -293.351041 
L 602.006281 -291.464204 
L 602.034304 -289.577367 
L 602.059041 -287.690529 
L 602.077895 -285.803692 
L 602.090079 -283.916855 
L 602.09708 -282.030018 
L 602.102334 -280.14318 
L 602.110404 -278.256343 
L 602.126299 -276.369506 
L 602.155498 -274.482668 
L 602.204623 -272.595831 
L 602.282047 -270.708994 
L 602.397389 -268.822156 
L 602.559361 -266.935319 
L 602.772572 -265.048482 
L 603.035002 -263.161645 
L 603.338112 -261.274807 
L 603.670437 -259.38797 
L 604.02363 -257.501133 
L 604.3983 -255.614295 
L 604.806791 -253.727458 
L 605.271549 -251.840621 
L 605.819903 -249.953784 
L 606.477746 -248.066946 
L 607.264569 -246.180109 
L 608.19102 -244.293272 
L 609.258386 -242.406434 
L 610.458587 -240.519597 
L 611.773705 -238.63276 
L 613.175375 -236.745922 
L 614.6255 -234.859085 
L 616.07967 -232.972248 
L 617.493301 -231.085411 
L 618.828589 -229.198573 
L 620.059326 -227.311736 
L 621.171439 -225.424899 
L 622.159469 -223.538061 
L 623.021672 -221.651224 
L 623.757252 -219.764387 
L 624.367594 -217.877549 
L 624.86038 -215.990712 
L 625.252855 -214.103875 
L 625.570445 -212.217038 
L 625.83942 -210.3302 
L 626.076161 -208.443363 
L 626.278092 -206.556526 
L 626.421163 -204.669688 
L 626.465763 -202.782851 
L 626.369202 -200.896014 
L 626.100225 -199.009177 
L 625.650515 -197.122339 
L 625.039407 -195.235502 
L 624.310122 -193.348665 
L 623.518279 -191.461827 
L 622.715902 -189.57499 
L 621.936139 -187.688153 
L 621.184329 -185.801315 
L 620.439007 -183.914478 
L 619.66246 -182.027641 
L 618.81638 -180.140804 
L 617.8763 -178.253966 
L 616.839686 -176.367129 
L 615.725896 -174.480292 
L 614.569648 -172.593454 
L 613.411492 -170.706617 
L 612.288832 -168.81978 
L 611.229945 -166.932943 
L 610.251934 -165.046105 
L 609.362238 -163.159268 
L 608.562172 -161.272431 
L 607.850473 -159.385593 
L 607.225031 -157.498756 
L 606.682174 -155.611919 
L 606.214409 -153.725081 
L 605.808646 -151.838244 
L 605.446802 -149.951407 
L 605.109343 -148.06457 
L 604.780427 -146.177732 
L 604.452228 -144.290895 
L 604.126262 -142.404058 
L 603.811163 -140.51722 
L 603.518129 -138.630383 
L 603.256275 -136.743546 
L 603.029774 -134.856708 
L 602.837512 -132.969871 
L 602.674697 -131.083034 
L 602.53524 -129.196197 
L 602.413799 -127.309359 
L 602.306898 -125.422522 
L 602.213054 -123.535685 
L 602.132206 -121.648847 
L 602.06484 -119.76201 
L 602.011178 -117.875173 
L 601.970666 -115.988336 
L 601.941861 -114.101498 
L 601.922661 -112.214661 
z
" id="mfdb319c0cc" style="stroke:#3d3d3d;stroke-width:1.5;"/>
    </defs>
    <g clip-path="url(#p8e87549025)">
     <use style="fill:#a9aa35;stroke:#3d3d3d;stroke-width:1.5;" x="0" xlink:href="#mfdb319c0cc" y="497.915012"/>
    </g>
   </g>
   <g id="PolyCollection_10">
    <defs>
     <path d="M 667.254317 -96.749078 
L 667.110933 -96.749078 
L 667.067667 -98.529666 
L 667.006063 -100.310254 
L 666.922404 -102.090842 
L 666.813806 -103.871429 
L 666.678662 -105.652017 
L 666.516832 -107.432605 
L 666.329488 -109.213193 
L 666.11864 -110.993781 
L 665.886485 -112.774369 
L 665.634815 -114.554957 
L 665.364713 -116.335545 
L 665.076672 -118.116133 
L 664.771147 -119.896721 
L 664.449333 -121.677309 
L 664.113865 -123.457897 
L 663.769057 -125.238485 
L 663.420404 -127.019072 
L 663.073282 -128.79966 
L 662.731106 -130.580248 
L 662.393482 -132.360836 
L 662.055046 -134.141424 
L 661.705546 -135.922012 
L 661.331346 -137.7026 
L 660.918073 -139.483188 
L 660.453668 -141.263776 
L 659.931001 -143.044364 
L 659.349363 -144.824952 
L 658.714556 -146.60554 
L 658.037745 -148.386128 
L 657.333519 -150.166715 
L 656.617717 -151.947303 
L 655.905396 -153.727891 
L 655.209175 -155.508479 
L 654.538004 -157.289067 
L 653.896362 -159.069655 
L 653.283905 -160.850243 
L 652.69568 -162.630831 
L 652.122989 -164.411419 
L 651.554969 -166.192007 
L 650.980767 -167.972595 
L 650.392039 -169.753183 
L 649.785295 -171.533771 
L 649.163547 -173.314358 
L 648.536749 -175.094946 
L 647.920753 -176.875534 
L 647.334851 -178.656122 
L 646.798413 -180.43671 
L 646.32744 -182.217298 
L 645.931987 -183.997886 
L 645.615196 -185.778474 
L 645.374269 -187.559062 
L 645.203094 -189.33965 
L 645.095739 -191.120238 
L 645.049657 -192.900826 
L 645.067488 -194.681414 
L 645.156726 -196.462001 
L 645.327239 -198.242589 
L 645.587475 -200.023177 
L 645.940856 -201.803765 
L 646.383947 -203.584353 
L 646.907403 -205.364941 
L 647.499541 -207.145529 
L 648.15114 -208.926117 
L 648.859359 -210.706705 
L 649.628897 -212.487293 
L 650.469656 -214.267881 
L 651.391665 -216.048469 
L 652.399199 -217.829057 
L 653.486312 -219.609644 
L 654.635311 -221.390232 
L 655.818432 -223.17082 
L 657.001865 -224.951408 
L 658.150644 -226.731996 
L 659.233097 -228.512584 
L 660.224096 -230.293172 
L 661.107018 -232.07376 
L 661.874617 -233.854348 
L 662.529007 -235.634936 
L 663.080756 -237.415524 
L 663.546959 -239.196112 
L 663.948299 -240.9767 
L 664.305499 -242.757287 
L 664.635871 -244.537875 
L 664.950855 -246.318463 
L 665.255158 -248.099051 
L 665.547607 -249.879639 
L 665.823248 -251.660227 
L 666.075905 -253.440815 
L 666.300361 -255.221403 
L 666.493652 -257.001991 
L 666.655374 -258.782579 
L 666.787251 -260.563167 
L 666.892357 -262.343755 
L 666.974349 -264.124343 
L 667.036933 -265.90493 
L 667.083571 -267.685518 
L 667.117382 -269.466106 
L 667.141127 -271.246694 
L 667.15721 -273.027282 
L 667.20804 -273.027282 
L 667.20804 -273.027282 
L 667.224123 -271.246694 
L 667.247868 -269.466106 
L 667.281679 -267.685518 
L 667.328317 -265.90493 
L 667.390901 -264.124343 
L 667.472893 -262.343755 
L 667.577999 -260.563167 
L 667.709876 -258.782579 
L 667.871598 -257.001991 
L 668.064889 -255.221403 
L 668.289345 -253.440815 
L 668.542002 -251.660227 
L 668.817643 -249.879639 
L 669.110092 -248.099051 
L 669.414395 -246.318463 
L 669.729379 -244.537875 
L 670.059751 -242.757287 
L 670.416951 -240.9767 
L 670.818291 -239.196112 
L 671.284494 -237.415524 
L 671.836243 -235.634936 
L 672.490633 -233.854348 
L 673.258232 -232.07376 
L 674.141154 -230.293172 
L 675.132153 -228.512584 
L 676.214606 -226.731996 
L 677.363385 -224.951408 
L 678.546818 -223.17082 
L 679.729939 -221.390232 
L 680.878938 -219.609644 
L 681.966051 -217.829057 
L 682.973585 -216.048469 
L 683.895594 -214.267881 
L 684.736353 -212.487293 
L 685.505891 -210.706705 
L 686.21411 -208.926117 
L 686.865709 -207.145529 
L 687.457847 -205.364941 
L 687.981303 -203.584353 
L 688.424394 -201.803765 
L 688.777775 -200.023177 
L 689.038011 -198.242589 
L 689.208524 -196.462001 
L 689.297762 -194.681414 
L 689.315593 -192.900826 
L 689.269511 -191.120238 
L 689.162156 -189.33965 
L 688.990981 -187.559062 
L 688.750054 -185.778474 
L 688.433263 -183.997886 
L 688.03781 -182.217298 
L 687.566837 -180.43671 
L 687.030399 -178.656122 
L 686.444497 -176.875534 
L 685.828501 -175.094946 
L 685.201703 -173.314358 
L 684.579955 -171.533771 
L 683.973211 -169.753183 
L 683.384483 -167.972595 
L 682.810281 -166.192007 
L 682.242261 -164.411419 
L 681.66957 -162.630831 
L 681.081345 -160.850243 
L 680.468888 -159.069655 
L 679.827246 -157.289067 
L 679.156075 -155.508479 
L 678.459854 -153.727891 
L 677.747533 -151.947303 
L 677.031731 -150.166715 
L 676.327505 -148.386128 
L 675.650694 -146.60554 
L 675.015887 -144.824952 
L 674.434249 -143.044364 
L 673.911582 -141.263776 
L 673.447177 -139.483188 
L 673.033904 -137.7026 
L 672.659704 -135.922012 
L 672.310204 -134.141424 
L 671.971768 -132.360836 
L 671.634144 -130.580248 
L 671.291968 -128.79966 
L 670.944846 -127.019072 
L 670.596193 -125.238485 
L 670.251385 -123.457897 
L 669.915917 -121.677309 
L 669.594103 -119.896721 
L 669.288578 -118.116133 
L 669.000537 -116.335545 
L 668.730435 -114.554957 
L 668.478765 -112.774369 
L 668.24661 -110.993781 
L 668.035762 -109.213193 
L 667.848418 -107.432605 
L 667.686588 -105.652017 
L 667.551444 -103.871429 
L 667.442846 -102.090842 
L 667.359187 -100.310254 
L 667.297583 -98.529666 
L 667.254317 -96.749078 
z
" id="m7f0a7814fd" style="stroke:#3d3d3d;stroke-width:1.5;"/>
    </defs>
    <g clip-path="url(#p8e87549025)">
     <use style="fill:#2eabb8;stroke:#3d3d3d;stroke-width:1.5;" x="0" xlink:href="#m7f0a7814fd" y="497.915012"/>
    </g>
   </g>
   <g id="matplotlib.axis_1">
    <g id="xtick_1">
     <g id="line2d_1">
      <defs>
       <path d="M 0 0 
L 0 3.5 
" id="mc48ba80577" style="stroke:#000000;stroke-width:0.8;"/>
      </defs>
      <g>
       <use style="stroke:#000000;stroke-width:0.8;" x="79.608625" xlink:href="#mc48ba80577" y="460.2572"/>
      </g>
     </g>
     <g id="text_1">
      <!-- ORtg_p1 -->
      <defs>
       <path d="M 39.40625 66.21875 
Q 28.65625 66.21875 22.328125 58.203125 
Q 16.015625 50.203125 16.015625 36.375 
Q 16.015625 22.609375 22.328125 14.59375 
Q 28.65625 6.59375 39.40625 6.59375 
Q 50.140625 6.59375 56.421875 14.59375 
Q 62.703125 22.609375 62.703125 36.375 
Q 62.703125 50.203125 56.421875 58.203125 
Q 50.140625 66.21875 39.40625 66.21875 
z
M 39.40625 74.21875 
Q 54.734375 74.21875 63.90625 63.9375 
Q 73.09375 53.65625 73.09375 36.375 
Q 73.09375 19.140625 63.90625 8.859375 
Q 54.734375 -1.421875 39.40625 -1.421875 
Q 24.03125 -1.421875 14.8125 8.828125 
Q 5.609375 19.09375 5.609375 36.375 
Q 5.609375 53.65625 14.8125 63.9375 
Q 24.03125 74.21875 39.40625 74.21875 
z
" id="DejaVuSans-79"/>
       <path d="M 44.390625 34.1875 
Q 47.5625 33.109375 50.5625 29.59375 
Q 53.5625 26.078125 56.59375 19.921875 
L 66.609375 0 
L 56 0 
L 46.6875 18.703125 
Q 43.0625 26.03125 39.671875 28.421875 
Q 36.28125 30.8125 30.421875 30.8125 
L 19.671875 30.8125 
L 19.671875 0 
L 9.8125 0 
L 9.8125 72.90625 
L 32.078125 72.90625 
Q 44.578125 72.90625 50.734375 67.671875 
Q 56.890625 62.453125 56.890625 51.90625 
Q 56.890625 45.015625 53.6875 40.46875 
Q 50.484375 35.9375 44.390625 34.1875 
z
M 19.671875 64.796875 
L 19.671875 38.921875 
L 32.078125 38.921875 
Q 39.203125 38.921875 42.84375 42.21875 
Q 46.484375 45.515625 46.484375 51.90625 
Q 46.484375 58.296875 42.84375 61.546875 
Q 39.203125 64.796875 32.078125 64.796875 
z
" id="DejaVuSans-82"/>
       <path d="M 18.3125 70.21875 
L 18.3125 54.6875 
L 36.8125 54.6875 
L 36.8125 47.703125 
L 18.3125 47.703125 
L 18.3125 18.015625 
Q 18.3125 11.328125 20.140625 9.421875 
Q 21.96875 7.515625 27.59375 7.515625 
L 36.8125 7.515625 
L 36.8125 0 
L 27.59375 0 
Q 17.1875 0 13.234375 3.875 
Q 9.28125 7.765625 9.28125 18.015625 
L 9.28125 47.703125 
L 2.6875 47.703125 
L 2.6875 54.6875 
L 9.28125 54.6875 
L 9.28125 70.21875 
z
" id="DejaVuSans-116"/>
       <path d="M 45.40625 27.984375 
Q 45.40625 37.75 41.375 43.109375 
Q 37.359375 48.484375 30.078125 48.484375 
Q 22.859375 48.484375 18.828125 43.109375 
Q 14.796875 37.75 14.796875 27.984375 
Q 14.796875 18.265625 18.828125 12.890625 
Q 22.859375 7.515625 30.078125 7.515625 
Q 37.359375 7.515625 41.375 12.890625 
Q 45.40625 18.265625 45.40625 27.984375 
z
M 54.390625 6.78125 
Q 54.390625 -7.171875 48.1875 -13.984375 
Q 42 -20.796875 29.203125 -20.796875 
Q 24.46875 -20.796875 20.265625 -20.09375 
Q 16.0625 -19.390625 12.109375 -17.921875 
L 12.109375 -9.1875 
Q 16.0625 -11.328125 19.921875 -12.34375 
Q 23.78125 -13.375 27.78125 -13.375 
Q 36.625 -13.375 41.015625 -8.765625 
Q 45.40625 -4.15625 45.40625 5.171875 
L 45.40625 9.625 
Q 42.625 4.78125 38.28125 2.390625 
Q 33.9375 0 27.875 0 
Q 17.828125 0 11.671875 7.65625 
Q 5.515625 15.328125 5.515625 27.984375 
Q 5.515625 40.671875 11.671875 48.328125 
Q 17.828125 56 27.875 56 
Q 33.9375 56 38.28125 53.609375 
Q 42.625 51.21875 45.40625 46.390625 
L 45.40625 54.6875 
L 54.390625 54.6875 
z
" id="DejaVuSans-103"/>
       <path d="M 50.984375 -16.609375 
L 50.984375 -23.578125 
L -0.984375 -23.578125 
L -0.984375 -16.609375 
z
" id="DejaVuSans-95"/>
       <path d="M 18.109375 8.203125 
L 18.109375 -20.796875 
L 9.078125 -20.796875 
L 9.078125 54.6875 
L 18.109375 54.6875 
L 18.109375 46.390625 
Q 20.953125 51.265625 25.265625 53.625 
Q 29.59375 56 35.59375 56 
Q 45.5625 56 51.78125 48.09375 
Q 58.015625 40.1875 58.015625 27.296875 
Q 58.015625 14.40625 51.78125 6.484375 
Q 45.5625 -1.421875 35.59375 -1.421875 
Q 29.59375 -1.421875 25.265625 0.953125 
Q 20.953125 3.328125 18.109375 8.203125 
z
M 48.6875 27.296875 
Q 48.6875 37.203125 44.609375 42.84375 
Q 40.53125 48.484375 33.40625 48.484375 
Q 26.265625 48.484375 22.1875 42.84375 
Q 18.109375 37.203125 18.109375 27.296875 
Q 18.109375 17.390625 22.1875 11.75 
Q 26.265625 6.109375 33.40625 6.109375 
Q 40.53125 6.109375 44.609375 11.75 
Q 48.6875 17.390625 48.6875 27.296875 
z
" id="DejaVuSans-112"/>
       <path d="M 12.40625 8.296875 
L 28.515625 8.296875 
L 28.515625 63.921875 
L 10.984375 60.40625 
L 10.984375 69.390625 
L 28.421875 72.90625 
L 38.28125 72.90625 
L 38.28125 8.296875 
L 54.390625 8.296875 
L 54.390625 0 
L 12.40625 0 
z
" id="DejaVuSans-49"/>
      </defs>
      <g transform="translate(58.208625 474.679075)scale(0.1 -0.1)">
       <use xlink:href="#DejaVuSans-79"/>
       <use x="78.710938" xlink:href="#DejaVuSans-82"/>
       <use x="148.193359" xlink:href="#DejaVuSans-116"/>
       <use x="187.402344" xlink:href="#DejaVuSans-103"/>
       <use x="250.878906" xlink:href="#DejaVuSans-95"/>
       <use x="300.878906" xlink:href="#DejaVuSans-112"/>
       <use x="364.355469" xlink:href="#DejaVuSans-49"/>
      </g>
     </g>
    </g>
    <g id="xtick_2">
     <g id="line2d_2">
      <g>
       <use style="stroke:#000000;stroke-width:0.8;" x="144.894625" xlink:href="#mc48ba80577" y="460.2572"/>
      </g>
     </g>
     <g id="text_2">
      <!-- ORtg_p2 -->
      <defs>
       <path d="M 19.1875 8.296875 
L 53.609375 8.296875 
L 53.609375 0 
L 7.328125 0 
L 7.328125 8.296875 
Q 12.9375 14.109375 22.625 23.890625 
Q 32.328125 33.6875 34.8125 36.53125 
Q 39.546875 41.84375 41.421875 45.53125 
Q 43.3125 49.21875 43.3125 52.78125 
Q 43.3125 58.59375 39.234375 62.25 
Q 35.15625 65.921875 28.609375 65.921875 
Q 23.96875 65.921875 18.8125 64.3125 
Q 13.671875 62.703125 7.8125 59.421875 
L 7.8125 69.390625 
Q 13.765625 71.78125 18.9375 73 
Q 24.125 74.21875 28.421875 74.21875 
Q 39.75 74.21875 46.484375 68.546875 
Q 53.21875 62.890625 53.21875 53.421875 
Q 53.21875 48.921875 51.53125 44.890625 
Q 49.859375 40.875 45.40625 35.40625 
Q 44.1875 33.984375 37.640625 27.21875 
Q 31.109375 20.453125 19.1875 8.296875 
z
" id="DejaVuSans-50"/>
      </defs>
      <g transform="translate(123.494625 474.679075)scale(0.1 -0.1)">
       <use xlink:href="#DejaVuSans-79"/>
       <use x="78.710938" xlink:href="#DejaVuSans-82"/>
       <use x="148.193359" xlink:href="#DejaVuSans-116"/>
       <use x="187.402344" xlink:href="#DejaVuSans-103"/>
       <use x="250.878906" xlink:href="#DejaVuSans-95"/>
       <use x="300.878906" xlink:href="#DejaVuSans-112"/>
       <use x="364.355469" xlink:href="#DejaVuSans-50"/>
      </g>
     </g>
    </g>
    <g id="xtick_3">
     <g id="line2d_3">
      <g>
       <use style="stroke:#000000;stroke-width:0.8;" x="210.180625" xlink:href="#mc48ba80577" y="460.2572"/>
      </g>
     </g>
     <g id="text_3">
      <!-- ORtg_p3 -->
      <defs>
       <path d="M 40.578125 39.3125 
Q 47.65625 37.796875 51.625 33 
Q 55.609375 28.21875 55.609375 21.1875 
Q 55.609375 10.40625 48.1875 4.484375 
Q 40.765625 -1.421875 27.09375 -1.421875 
Q 22.515625 -1.421875 17.65625 -0.515625 
Q 12.796875 0.390625 7.625 2.203125 
L 7.625 11.71875 
Q 11.71875 9.328125 16.59375 8.109375 
Q 21.484375 6.890625 26.8125 6.890625 
Q 36.078125 6.890625 40.9375 10.546875 
Q 45.796875 14.203125 45.796875 21.1875 
Q 45.796875 27.640625 41.28125 31.265625 
Q 36.765625 34.90625 28.71875 34.90625 
L 20.21875 34.90625 
L 20.21875 43.015625 
L 29.109375 43.015625 
Q 36.375 43.015625 40.234375 45.921875 
Q 44.09375 48.828125 44.09375 54.296875 
Q 44.09375 59.90625 40.109375 62.90625 
Q 36.140625 65.921875 28.71875 65.921875 
Q 24.65625 65.921875 20.015625 65.03125 
Q 15.375 64.15625 9.8125 62.3125 
L 9.8125 71.09375 
Q 15.4375 72.65625 20.34375 73.4375 
Q 25.25 74.21875 29.59375 74.21875 
Q 40.828125 74.21875 47.359375 69.109375 
Q 53.90625 64.015625 53.90625 55.328125 
Q 53.90625 49.265625 50.4375 45.09375 
Q 46.96875 40.921875 40.578125 39.3125 
z
" id="DejaVuSans-51"/>
      </defs>
      <g transform="translate(188.780625 474.679075)scale(0.1 -0.1)">
       <use xlink:href="#DejaVuSans-79"/>
       <use x="78.710938" xlink:href="#DejaVuSans-82"/>
       <use x="148.193359" xlink:href="#DejaVuSans-116"/>
       <use x="187.402344" xlink:href="#DejaVuSans-103"/>
       <use x="250.878906" xlink:href="#DejaVuSans-95"/>
       <use x="300.878906" xlink:href="#DejaVuSans-112"/>
       <use x="364.355469" xlink:href="#DejaVuSans-51"/>
      </g>
     </g>
    </g>
    <g id="xtick_4">
     <g id="line2d_4">
      <g>
       <use style="stroke:#000000;stroke-width:0.8;" x="275.466625" xlink:href="#mc48ba80577" y="460.2572"/>
      </g>
     </g>
     <g id="text_4">
      <!-- ORtg_p4 -->
      <defs>
       <path d="M 37.796875 64.3125 
L 12.890625 25.390625 
L 37.796875 25.390625 
z
M 35.203125 72.90625 
L 47.609375 72.90625 
L 47.609375 25.390625 
L 58.015625 25.390625 
L 58.015625 17.1875 
L 47.609375 17.1875 
L 47.609375 0 
L 37.796875 0 
L 37.796875 17.1875 
L 4.890625 17.1875 
L 4.890625 26.703125 
z
" id="DejaVuSans-52"/>
      </defs>
      <g transform="translate(254.066625 474.679075)scale(0.1 -0.1)">
       <use xlink:href="#DejaVuSans-79"/>
       <use x="78.710938" xlink:href="#DejaVuSans-82"/>
       <use x="148.193359" xlink:href="#DejaVuSans-116"/>
       <use x="187.402344" xlink:href="#DejaVuSans-103"/>
       <use x="250.878906" xlink:href="#DejaVuSans-95"/>
       <use x="300.878906" xlink:href="#DejaVuSans-112"/>
       <use x="364.355469" xlink:href="#DejaVuSans-52"/>
      </g>
     </g>
    </g>
    <g id="xtick_5">
     <g id="line2d_5">
      <g>
       <use style="stroke:#000000;stroke-width:0.8;" x="340.752625" xlink:href="#mc48ba80577" y="460.2572"/>
      </g>
     </g>
     <g id="text_5">
      <!-- ORtg_p5 -->
      <defs>
       <path d="M 10.796875 72.90625 
L 49.515625 72.90625 
L 49.515625 64.59375 
L 19.828125 64.59375 
L 19.828125 46.734375 
Q 21.96875 47.46875 24.109375 47.828125 
Q 26.265625 48.1875 28.421875 48.1875 
Q 40.625 48.1875 47.75 41.5 
Q 54.890625 34.8125 54.890625 23.390625 
Q 54.890625 11.625 47.5625 5.09375 
Q 40.234375 -1.421875 26.90625 -1.421875 
Q 22.3125 -1.421875 17.546875 -0.640625 
Q 12.796875 0.140625 7.71875 1.703125 
L 7.71875 11.625 
Q 12.109375 9.234375 16.796875 8.0625 
Q 21.484375 6.890625 26.703125 6.890625 
Q 35.15625 6.890625 40.078125 11.328125 
Q 45.015625 15.765625 45.015625 23.390625 
Q 45.015625 31 40.078125 35.4375 
Q 35.15625 39.890625 26.703125 39.890625 
Q 22.75 39.890625 18.8125 39.015625 
Q 14.890625 38.140625 10.796875 36.28125 
z
" id="DejaVuSans-53"/>
      </defs>
      <g transform="translate(319.352625 474.679075)scale(0.1 -0.1)">
       <use xlink:href="#DejaVuSans-79"/>
       <use x="78.710938" xlink:href="#DejaVuSans-82"/>
       <use x="148.193359" xlink:href="#DejaVuSans-116"/>
       <use x="187.402344" xlink:href="#DejaVuSans-103"/>
       <use x="250.878906" xlink:href="#DejaVuSans-95"/>
       <use x="300.878906" xlink:href="#DejaVuSans-112"/>
       <use x="364.355469" xlink:href="#DejaVuSans-53"/>
      </g>
     </g>
    </g>
    <g id="xtick_6">
     <g id="line2d_6">
      <g>
       <use style="stroke:#000000;stroke-width:0.8;" x="406.038625" xlink:href="#mc48ba80577" y="460.2572"/>
      </g>
     </g>
     <g id="text_6">
      <!-- DRtg_p1 -->
      <defs>
       <path d="M 19.671875 64.796875 
L 19.671875 8.109375 
L 31.59375 8.109375 
Q 46.6875 8.109375 53.6875 14.9375 
Q 60.6875 21.78125 60.6875 36.53125 
Q 60.6875 51.171875 53.6875 57.984375 
Q 46.6875 64.796875 31.59375 64.796875 
z
M 9.8125 72.90625 
L 30.078125 72.90625 
Q 51.265625 72.90625 61.171875 64.09375 
Q 71.09375 55.28125 71.09375 36.53125 
Q 71.09375 17.671875 61.125 8.828125 
Q 51.171875 0 30.078125 0 
L 9.8125 0 
z
" id="DejaVuSans-68"/>
      </defs>
      <g transform="translate(384.724562 474.577512)scale(0.1 -0.1)">
       <use xlink:href="#DejaVuSans-68"/>
       <use x="77.001953" xlink:href="#DejaVuSans-82"/>
       <use x="146.484375" xlink:href="#DejaVuSans-116"/>
       <use x="185.693359" xlink:href="#DejaVuSans-103"/>
       <use x="249.169922" xlink:href="#DejaVuSans-95"/>
       <use x="299.169922" xlink:href="#DejaVuSans-112"/>
       <use x="362.646484" xlink:href="#DejaVuSans-49"/>
      </g>
     </g>
    </g>
    <g id="xtick_7">
     <g id="line2d_7">
      <g>
       <use style="stroke:#000000;stroke-width:0.8;" x="471.324625" xlink:href="#mc48ba80577" y="460.2572"/>
      </g>
     </g>
     <g id="text_7">
      <!-- DRtg_p2 -->
      <g transform="translate(450.010562 474.679075)scale(0.1 -0.1)">
       <use xlink:href="#DejaVuSans-68"/>
       <use x="77.001953" xlink:href="#DejaVuSans-82"/>
       <use x="146.484375" xlink:href="#DejaVuSans-116"/>
       <use x="185.693359" xlink:href="#DejaVuSans-103"/>
       <use x="249.169922" xlink:href="#DejaVuSans-95"/>
       <use x="299.169922" xlink:href="#DejaVuSans-112"/>
       <use x="362.646484" xlink:href="#DejaVuSans-50"/>
      </g>
     </g>
    </g>
    <g id="xtick_8">
     <g id="line2d_8">
      <g>
       <use style="stroke:#000000;stroke-width:0.8;" x="536.610625" xlink:href="#mc48ba80577" y="460.2572"/>
      </g>
     </g>
     <g id="text_8">
      <!-- DRtg_p3 -->
      <g transform="translate(515.296562 474.679075)scale(0.1 -0.1)">
       <use xlink:href="#DejaVuSans-68"/>
       <use x="77.001953" xlink:href="#DejaVuSans-82"/>
       <use x="146.484375" xlink:href="#DejaVuSans-116"/>
       <use x="185.693359" xlink:href="#DejaVuSans-103"/>
       <use x="249.169922" xlink:href="#DejaVuSans-95"/>
       <use x="299.169922" xlink:href="#DejaVuSans-112"/>
       <use x="362.646484" xlink:href="#DejaVuSans-51"/>
      </g>
     </g>
    </g>
    <g id="xtick_9">
     <g id="line2d_9">
      <g>
       <use style="stroke:#000000;stroke-width:0.8;" x="601.896625" xlink:href="#mc48ba80577" y="460.2572"/>
      </g>
     </g>
     <g id="text_9">
      <!-- DRtg_p4 -->
      <g transform="translate(580.582562 474.577512)scale(0.1 -0.1)">
       <use xlink:href="#DejaVuSans-68"/>
       <use x="77.001953" xlink:href="#DejaVuSans-82"/>
       <use x="146.484375" xlink:href="#DejaVuSans-116"/>
       <use x="185.693359" xlink:href="#DejaVuSans-103"/>
       <use x="249.169922" xlink:href="#DejaVuSans-95"/>
       <use x="299.169922" xlink:href="#DejaVuSans-112"/>
       <use x="362.646484" xlink:href="#DejaVuSans-52"/>
      </g>
     </g>
    </g>
    <g id="xtick_10">
     <g id="line2d_10">
      <g>
       <use style="stroke:#000000;stroke-width:0.8;" x="667.182625" xlink:href="#mc48ba80577" y="460.2572"/>
      </g>
     </g>
     <g id="text_10">
      <!-- DRtg_p5 -->
      <g transform="translate(645.868562 474.577512)scale(0.1 -0.1)">
       <use xlink:href="#DejaVuSans-68"/>
       <use x="77.001953" xlink:href="#DejaVuSans-82"/>
       <use x="146.484375" xlink:href="#DejaVuSans-116"/>
       <use x="185.693359" xlink:href="#DejaVuSans-103"/>
       <use x="249.169922" xlink:href="#DejaVuSans-95"/>
       <use x="299.169922" xlink:href="#DejaVuSans-112"/>
       <use x="362.646484" xlink:href="#DejaVuSans-53"/>
      </g>
     </g>
    </g>
    <g id="text_11">
     <!-- Features -->
     <defs>
      <path d="M 9.8125 72.90625 
L 51.703125 72.90625 
L 51.703125 64.59375 
L 19.671875 64.59375 
L 19.671875 43.109375 
L 48.578125 43.109375 
L 48.578125 34.8125 
L 19.671875 34.8125 
L 19.671875 0 
L 9.8125 0 
z
" id="DejaVuSans-70"/>
      <path d="M 56.203125 29.59375 
L 56.203125 25.203125 
L 14.890625 25.203125 
Q 15.484375 15.921875 20.484375 11.0625 
Q 25.484375 6.203125 34.421875 6.203125 
Q 39.59375 6.203125 44.453125 7.46875 
Q 49.3125 8.734375 54.109375 11.28125 
L 54.109375 2.78125 
Q 49.265625 0.734375 44.1875 -0.34375 
Q 39.109375 -1.421875 33.890625 -1.421875 
Q 20.796875 -1.421875 13.15625 6.1875 
Q 5.515625 13.8125 5.515625 26.8125 
Q 5.515625 40.234375 12.765625 48.109375 
Q 20.015625 56 32.328125 56 
Q 43.359375 56 49.78125 48.890625 
Q 56.203125 41.796875 56.203125 29.59375 
z
M 47.21875 32.234375 
Q 47.125 39.59375 43.09375 43.984375 
Q 39.0625 48.390625 32.421875 48.390625 
Q 24.90625 48.390625 20.390625 44.140625 
Q 15.875 39.890625 15.1875 32.171875 
z
" id="DejaVuSans-101"/>
      <path d="M 34.28125 27.484375 
Q 23.390625 27.484375 19.1875 25 
Q 14.984375 22.515625 14.984375 16.5 
Q 14.984375 11.71875 18.140625 8.90625 
Q 21.296875 6.109375 26.703125 6.109375 
Q 34.1875 6.109375 38.703125 11.40625 
Q 43.21875 16.703125 43.21875 25.484375 
L 43.21875 27.484375 
z
M 52.203125 31.203125 
L 52.203125 0 
L 43.21875 0 
L 43.21875 8.296875 
Q 40.140625 3.328125 35.546875 0.953125 
Q 30.953125 -1.421875 24.3125 -1.421875 
Q 15.921875 -1.421875 10.953125 3.296875 
Q 6 8.015625 6 15.921875 
Q 6 25.140625 12.171875 29.828125 
Q 18.359375 34.515625 30.609375 34.515625 
L 43.21875 34.515625 
L 43.21875 35.40625 
Q 43.21875 41.609375 39.140625 45 
Q 35.0625 48.390625 27.6875 48.390625 
Q 23 48.390625 18.546875 47.265625 
Q 14.109375 46.140625 10.015625 43.890625 
L 10.015625 52.203125 
Q 14.9375 54.109375 19.578125 55.046875 
Q 24.21875 56 28.609375 56 
Q 40.484375 56 46.34375 49.84375 
Q 52.203125 43.703125 52.203125 31.203125 
z
" id="DejaVuSans-97"/>
      <path d="M 8.5 21.578125 
L 8.5 54.6875 
L 17.484375 54.6875 
L 17.484375 21.921875 
Q 17.484375 14.15625 20.5 10.265625 
Q 23.53125 6.390625 29.59375 6.390625 
Q 36.859375 6.390625 41.078125 11.03125 
Q 45.3125 15.671875 45.3125 23.6875 
L 45.3125 54.6875 
L 54.296875 54.6875 
L 54.296875 0 
L 45.3125 0 
L 45.3125 8.40625 
Q 42.046875 3.421875 37.71875 1 
Q 33.40625 -1.421875 27.6875 -1.421875 
Q 18.265625 -1.421875 13.375 4.4375 
Q 8.5 10.296875 8.5 21.578125 
z
M 31.109375 56 
z
" id="DejaVuSans-117"/>
      <path d="M 41.109375 46.296875 
Q 39.59375 47.171875 37.8125 47.578125 
Q 36.03125 48 33.890625 48 
Q 26.265625 48 22.1875 43.046875 
Q 18.109375 38.09375 18.109375 28.8125 
L 18.109375 0 
L 9.078125 0 
L 9.078125 54.6875 
L 18.109375 54.6875 
L 18.109375 46.1875 
Q 20.953125 51.171875 25.484375 53.578125 
Q 30.03125 56 36.53125 56 
Q 37.453125 56 38.578125 55.875 
Q 39.703125 55.765625 41.0625 55.515625 
z
" id="DejaVuSans-114"/>
      <path d="M 44.28125 53.078125 
L 44.28125 44.578125 
Q 40.484375 46.53125 36.375 47.5 
Q 32.28125 48.484375 27.875 48.484375 
Q 21.1875 48.484375 17.84375 46.4375 
Q 14.5 44.390625 14.5 40.28125 
Q 14.5 37.15625 16.890625 35.375 
Q 19.28125 33.59375 26.515625 31.984375 
L 29.59375 31.296875 
Q 39.15625 29.25 43.1875 25.515625 
Q 47.21875 21.78125 47.21875 15.09375 
Q 47.21875 7.46875 41.1875 3.015625 
Q 35.15625 -1.421875 24.609375 -1.421875 
Q 20.21875 -1.421875 15.453125 -0.5625 
Q 10.6875 0.296875 5.421875 2 
L 5.421875 11.28125 
Q 10.40625 8.6875 15.234375 7.390625 
Q 20.0625 6.109375 24.8125 6.109375 
Q 31.15625 6.109375 34.5625 8.28125 
Q 37.984375 10.453125 37.984375 14.40625 
Q 37.984375 18.0625 35.515625 20.015625 
Q 33.0625 21.96875 24.703125 23.78125 
L 21.578125 24.515625 
Q 13.234375 26.265625 9.515625 29.90625 
Q 5.8125 33.546875 5.8125 39.890625 
Q 5.8125 47.609375 11.28125 51.796875 
Q 16.75 56 26.8125 56 
Q 31.78125 56 36.171875 55.265625 
Q 40.578125 54.546875 44.28125 53.078125 
z
" id="DejaVuSans-115"/>
     </defs>
     <g transform="translate(351.519063 488.635325)scale(0.1 -0.1)">
      <use xlink:href="#DejaVuSans-70"/>
      <use x="57.441406" xlink:href="#DejaVuSans-101"/>
      <use x="118.964844" xlink:href="#DejaVuSans-97"/>
      <use x="180.244141" xlink:href="#DejaVuSans-116"/>
      <use x="219.453125" xlink:href="#DejaVuSans-117"/>
      <use x="282.832031" xlink:href="#DejaVuSans-114"/>
      <use x="323.914062" xlink:href="#DejaVuSans-101"/>
      <use x="385.4375" xlink:href="#DejaVuSans-115"/>
     </g>
    </g>
   </g>
   <g id="matplotlib.axis_2">
    <g id="ytick_1">
     <g id="line2d_11">
      <defs>
       <path d="M 0 0 
L -3.5 0 
" id="m70f4930ecc" style="stroke:#000000;stroke-width:0.8;"/>
      </defs>
      <g>
       <use style="stroke:#000000;stroke-width:0.8;" x="46.965625" xlink:href="#m70f4930ecc" y="406.289004"/>
      </g>
     </g>
     <g id="text_12">
      <!-- 90 -->
      <defs>
       <path d="M 10.984375 1.515625 
L 10.984375 10.5 
Q 14.703125 8.734375 18.5 7.8125 
Q 22.3125 6.890625 25.984375 6.890625 
Q 35.75 6.890625 40.890625 13.453125 
Q 46.046875 20.015625 46.78125 33.40625 
Q 43.953125 29.203125 39.59375 26.953125 
Q 35.25 24.703125 29.984375 24.703125 
Q 19.046875 24.703125 12.671875 31.3125 
Q 6.296875 37.9375 6.296875 49.421875 
Q 6.296875 60.640625 12.9375 67.421875 
Q 19.578125 74.21875 30.609375 74.21875 
Q 43.265625 74.21875 49.921875 64.515625 
Q 56.59375 54.828125 56.59375 36.375 
Q 56.59375 19.140625 48.40625 8.859375 
Q 40.234375 -1.421875 26.421875 -1.421875 
Q 22.703125 -1.421875 18.890625 -0.6875 
Q 15.09375 0.046875 10.984375 1.515625 
z
M 30.609375 32.421875 
Q 37.25 32.421875 41.125 36.953125 
Q 45.015625 41.5 45.015625 49.421875 
Q 45.015625 57.28125 41.125 61.84375 
Q 37.25 66.40625 30.609375 66.40625 
Q 23.96875 66.40625 20.09375 61.84375 
Q 16.21875 57.28125 16.21875 49.421875 
Q 16.21875 41.5 20.09375 36.953125 
Q 23.96875 32.421875 30.609375 32.421875 
z
" id="DejaVuSans-57"/>
       <path d="M 31.78125 66.40625 
Q 24.171875 66.40625 20.328125 58.90625 
Q 16.5 51.421875 16.5 36.375 
Q 16.5 21.390625 20.328125 13.890625 
Q 24.171875 6.390625 31.78125 6.390625 
Q 39.453125 6.390625 43.28125 13.890625 
Q 47.125 21.390625 47.125 36.375 
Q 47.125 51.421875 43.28125 58.90625 
Q 39.453125 66.40625 31.78125 66.40625 
z
M 31.78125 74.21875 
Q 44.046875 74.21875 50.515625 64.515625 
Q 56.984375 54.828125 56.984375 36.375 
Q 56.984375 17.96875 50.515625 8.265625 
Q 44.046875 -1.421875 31.78125 -1.421875 
Q 19.53125 -1.421875 13.0625 8.265625 
Q 6.59375 17.96875 6.59375 36.375 
Q 6.59375 54.828125 13.0625 64.515625 
Q 19.53125 74.21875 31.78125 74.21875 
z
" id="DejaVuSans-48"/>
      </defs>
      <g transform="translate(27.240625 410.088223)scale(0.1 -0.1)">
       <use xlink:href="#DejaVuSans-57"/>
       <use x="63.623047" xlink:href="#DejaVuSans-48"/>
      </g>
     </g>
    </g>
    <g id="ytick_2">
     <g id="line2d_12">
      <g>
       <use style="stroke:#000000;stroke-width:0.8;" x="46.965625" xlink:href="#m70f4930ecc" y="337.205914"/>
      </g>
     </g>
     <g id="text_13">
      <!-- 100 -->
      <g transform="translate(20.878125 341.005133)scale(0.1 -0.1)">
       <use xlink:href="#DejaVuSans-49"/>
       <use x="63.623047" xlink:href="#DejaVuSans-48"/>
       <use x="127.246094" xlink:href="#DejaVuSans-48"/>
      </g>
     </g>
    </g>
    <g id="ytick_3">
     <g id="line2d_13">
      <g>
       <use style="stroke:#000000;stroke-width:0.8;" x="46.965625" xlink:href="#m70f4930ecc" y="268.122824"/>
      </g>
     </g>
     <g id="text_14">
      <!-- 110 -->
      <g transform="translate(20.878125 271.922043)scale(0.1 -0.1)">
       <use xlink:href="#DejaVuSans-49"/>
       <use x="63.623047" xlink:href="#DejaVuSans-49"/>
       <use x="127.246094" xlink:href="#DejaVuSans-48"/>
      </g>
     </g>
    </g>
    <g id="ytick_4">
     <g id="line2d_14">
      <g>
       <use style="stroke:#000000;stroke-width:0.8;" x="46.965625" xlink:href="#m70f4930ecc" y="199.039734"/>
      </g>
     </g>
     <g id="text_15">
      <!-- 120 -->
      <g transform="translate(20.878125 202.838952)scale(0.1 -0.1)">
       <use xlink:href="#DejaVuSans-49"/>
       <use x="63.623047" xlink:href="#DejaVuSans-50"/>
       <use x="127.246094" xlink:href="#DejaVuSans-48"/>
      </g>
     </g>
    </g>
    <g id="ytick_5">
     <g id="line2d_15">
      <g>
       <use style="stroke:#000000;stroke-width:0.8;" x="46.965625" xlink:href="#m70f4930ecc" y="129.956643"/>
      </g>
     </g>
     <g id="text_16">
      <!-- 130 -->
      <g transform="translate(20.878125 133.755862)scale(0.1 -0.1)">
       <use xlink:href="#DejaVuSans-49"/>
       <use x="63.623047" xlink:href="#DejaVuSans-51"/>
       <use x="127.246094" xlink:href="#DejaVuSans-48"/>
      </g>
     </g>
    </g>
    <g id="ytick_6">
     <g id="line2d_16">
      <g>
       <use style="stroke:#000000;stroke-width:0.8;" x="46.965625" xlink:href="#m70f4930ecc" y="60.873553"/>
      </g>
     </g>
     <g id="text_17">
      <!-- 140 -->
      <g transform="translate(20.878125 64.672772)scale(0.1 -0.1)">
       <use xlink:href="#DejaVuSans-49"/>
       <use x="63.623047" xlink:href="#DejaVuSans-52"/>
       <use x="127.246094" xlink:href="#DejaVuSans-48"/>
      </g>
     </g>
    </g>
    <g id="text_18">
     <!-- Points Per 100 Possession -->
     <defs>
      <path d="M 19.671875 64.796875 
L 19.671875 37.40625 
L 32.078125 37.40625 
Q 38.96875 37.40625 42.71875 40.96875 
Q 46.484375 44.53125 46.484375 51.125 
Q 46.484375 57.671875 42.71875 61.234375 
Q 38.96875 64.796875 32.078125 64.796875 
z
M 9.8125 72.90625 
L 32.078125 72.90625 
Q 44.34375 72.90625 50.609375 67.359375 
Q 56.890625 61.8125 56.890625 51.125 
Q 56.890625 40.328125 50.609375 34.8125 
Q 44.34375 29.296875 32.078125 29.296875 
L 19.671875 29.296875 
L 19.671875 0 
L 9.8125 0 
z
" id="DejaVuSans-80"/>
      <path d="M 30.609375 48.390625 
Q 23.390625 48.390625 19.1875 42.75 
Q 14.984375 37.109375 14.984375 27.296875 
Q 14.984375 17.484375 19.15625 11.84375 
Q 23.34375 6.203125 30.609375 6.203125 
Q 37.796875 6.203125 41.984375 11.859375 
Q 46.1875 17.53125 46.1875 27.296875 
Q 46.1875 37.015625 41.984375 42.703125 
Q 37.796875 48.390625 30.609375 48.390625 
z
M 30.609375 56 
Q 42.328125 56 49.015625 48.375 
Q 55.71875 40.765625 55.71875 27.296875 
Q 55.71875 13.875 49.015625 6.21875 
Q 42.328125 -1.421875 30.609375 -1.421875 
Q 18.84375 -1.421875 12.171875 6.21875 
Q 5.515625 13.875 5.515625 27.296875 
Q 5.515625 40.765625 12.171875 48.375 
Q 18.84375 56 30.609375 56 
z
" id="DejaVuSans-111"/>
      <path d="M 9.421875 54.6875 
L 18.40625 54.6875 
L 18.40625 0 
L 9.421875 0 
z
M 9.421875 75.984375 
L 18.40625 75.984375 
L 18.40625 64.59375 
L 9.421875 64.59375 
z
" id="DejaVuSans-105"/>
      <path d="M 54.890625 33.015625 
L 54.890625 0 
L 45.90625 0 
L 45.90625 32.71875 
Q 45.90625 40.484375 42.875 44.328125 
Q 39.84375 48.1875 33.796875 48.1875 
Q 26.515625 48.1875 22.3125 43.546875 
Q 18.109375 38.921875 18.109375 30.90625 
L 18.109375 0 
L 9.078125 0 
L 9.078125 54.6875 
L 18.109375 54.6875 
L 18.109375 46.1875 
Q 21.34375 51.125 25.703125 53.5625 
Q 30.078125 56 35.796875 56 
Q 45.21875 56 50.046875 50.171875 
Q 54.890625 44.34375 54.890625 33.015625 
z
" id="DejaVuSans-110"/>
      <path id="DejaVuSans-32"/>
     </defs>
     <g transform="translate(14.798438 300.312975)rotate(-90)scale(0.1 -0.1)">
      <use xlink:href="#DejaVuSans-80"/>
      <use x="60.255859" xlink:href="#DejaVuSans-111"/>
      <use x="121.4375" xlink:href="#DejaVuSans-105"/>
      <use x="149.220703" xlink:href="#DejaVuSans-110"/>
      <use x="212.599609" xlink:href="#DejaVuSans-116"/>
      <use x="251.808594" xlink:href="#DejaVuSans-115"/>
      <use x="303.908203" xlink:href="#DejaVuSans-32"/>
      <use x="335.695312" xlink:href="#DejaVuSans-80"/>
      <use x="395.951172" xlink:href="#DejaVuSans-101"/>
      <use x="457.474609" xlink:href="#DejaVuSans-114"/>
      <use x="498.587891" xlink:href="#DejaVuSans-32"/>
      <use x="530.375" xlink:href="#DejaVuSans-49"/>
      <use x="593.998047" xlink:href="#DejaVuSans-48"/>
      <use x="657.621094" xlink:href="#DejaVuSans-48"/>
      <use x="721.244141" xlink:href="#DejaVuSans-32"/>
      <use x="753.03125" xlink:href="#DejaVuSans-80"/>
      <use x="813.287109" xlink:href="#DejaVuSans-111"/>
      <use x="874.46875" xlink:href="#DejaVuSans-115"/>
      <use x="926.568359" xlink:href="#DejaVuSans-115"/>
      <use x="978.667969" xlink:href="#DejaVuSans-101"/>
      <use x="1040.191406" xlink:href="#DejaVuSans-115"/>
      <use x="1092.291016" xlink:href="#DejaVuSans-115"/>
      <use x="1144.390625" xlink:href="#DejaVuSans-105"/>
      <use x="1172.173828" xlink:href="#DejaVuSans-111"/>
      <use x="1233.355469" xlink:href="#DejaVuSans-110"/>
     </g>
    </g>
   </g>
   <g id="line2d_17">
    <path clip-path="url(#p8e87549025)" d="M 79.608625 330.297605 
L 79.608625 109.231716 
" style="fill:none;stroke:#3d3d3d;stroke-linecap:square;stroke-width:1.5;"/>
   </g>
   <g id="line2d_18">
    <path clip-path="url(#p8e87549025)" d="M 79.608625 247.397897 
L 79.608625 192.131425 
" style="fill:none;stroke:#3d3d3d;stroke-linecap:square;stroke-width:4.5;"/>
   </g>
   <g id="line2d_19">
    <path clip-path="url(#p8e87549025)" d="M 144.894625 344.114223 
L 144.894625 157.589879 
" style="fill:none;stroke:#3d3d3d;stroke-linecap:square;stroke-width:1.5;"/>
   </g>
   <g id="line2d_20">
    <path clip-path="url(#p8e87549025)" d="M 144.894625 275.031133 
L 144.894625 226.67297 
" style="fill:none;stroke:#3d3d3d;stroke-linecap:square;stroke-width:4.5;"/>
   </g>
   <g id="line2d_21">
    <path clip-path="url(#p8e87549025)" d="M 210.180625 364.83915 
L 210.180625 178.314807 
" style="fill:none;stroke:#3d3d3d;stroke-linecap:square;stroke-width:1.5;"/>
   </g>
   <g id="line2d_22">
    <path clip-path="url(#p8e87549025)" d="M 210.180625 295.75606 
L 210.180625 247.397897 
" style="fill:none;stroke:#3d3d3d;stroke-linecap:square;stroke-width:4.5;"/>
   </g>
   <g id="line2d_23">
    <path clip-path="url(#p8e87549025)" d="M 275.466625 385.564077 
L 275.466625 212.856352 
" style="fill:none;stroke:#3d3d3d;stroke-linecap:square;stroke-width:1.5;"/>
   </g>
   <g id="line2d_24">
    <path clip-path="url(#p8e87549025)" d="M 275.466625 316.480987 
L 275.466625 268.122824 
" style="fill:none;stroke:#3d3d3d;stroke-linecap:square;stroke-width:4.5;"/>
   </g>
   <g id="line2d_25">
    <path clip-path="url(#p8e87549025)" d="M 340.752625 399.380695 
L 340.752625 240.489588 
" style="fill:none;stroke:#3d3d3d;stroke-linecap:square;stroke-width:1.5;"/>
   </g>
   <g id="line2d_26">
    <path clip-path="url(#p8e87549025)" d="M 340.752625 337.205914 
L 340.752625 295.75606 
" style="fill:none;stroke:#3d3d3d;stroke-linecap:square;stroke-width:4.5;"/>
   </g>
   <g id="line2d_27">
    <path clip-path="url(#p8e87549025)" d="M 406.038625 323.389296 
L 406.038625 212.856352 
" style="fill:none;stroke:#3d3d3d;stroke-linecap:square;stroke-width:1.5;"/>
   </g>
   <g id="line2d_28">
    <path clip-path="url(#p8e87549025)" d="M 406.038625 281.939442 
L 406.038625 250.852051 
" style="fill:none;stroke:#3d3d3d;stroke-linecap:square;stroke-width:4.5;"/>
   </g>
   <g id="line2d_29">
    <path clip-path="url(#p8e87549025)" d="M 471.324625 337.205914 
L 471.324625 219.764661 
" style="fill:none;stroke:#3d3d3d;stroke-linecap:square;stroke-width:1.5;"/>
   </g>
   <g id="line2d_30">
    <path clip-path="url(#p8e87549025)" d="M 471.324625 292.301905 
L 471.324625 261.214515 
" style="fill:none;stroke:#3d3d3d;stroke-linecap:square;stroke-width:4.5;"/>
   </g>
   <g id="line2d_31">
    <path clip-path="url(#p8e87549025)" d="M 536.610625 344.114223 
L 536.610625 226.67297 
" style="fill:none;stroke:#3d3d3d;stroke-linecap:square;stroke-width:1.5;"/>
   </g>
   <g id="line2d_32">
    <path clip-path="url(#p8e87549025)" d="M 536.610625 302.664369 
L 536.610625 268.122824 
" style="fill:none;stroke:#3d3d3d;stroke-linecap:square;stroke-width:4.5;"/>
   </g>
   <g id="line2d_33">
    <path clip-path="url(#p8e87549025)" d="M 601.896625 357.930841 
L 601.896625 226.67297 
" style="fill:none;stroke:#3d3d3d;stroke-linecap:square;stroke-width:1.5;"/>
   </g>
   <g id="line2d_34">
    <path clip-path="url(#p8e87549025)" d="M 601.896625 309.572678 
L 601.896625 275.031133 
" style="fill:none;stroke:#3d3d3d;stroke-linecap:square;stroke-width:4.5;"/>
   </g>
   <g id="line2d_35">
    <path clip-path="url(#p8e87549025)" d="M 667.182625 385.564077 
L 667.182625 240.489588 
" style="fill:none;stroke:#3d3d3d;stroke-linecap:square;stroke-width:1.5;"/>
   </g>
   <g id="line2d_36">
    <path clip-path="url(#p8e87549025)" d="M 667.182625 330.297605 
L 667.182625 288.847751 
" style="fill:none;stroke:#3d3d3d;stroke-linecap:square;stroke-width:4.5;"/>
   </g>
   <g id="patch_3">
    <path d="M 46.965625 460.2572 
L 46.965625 10.7 
" style="fill:none;stroke:#000000;stroke-linecap:square;stroke-linejoin:miter;stroke-width:0.8;"/>
   </g>
   <g id="patch_4">
    <path d="M 699.825625 460.2572 
L 699.825625 10.7 
" style="fill:none;stroke:#000000;stroke-linecap:square;stroke-linejoin:miter;stroke-width:0.8;"/>
   </g>
   <g id="patch_5">
    <path d="M 46.965625 460.2572 
L 699.825625 460.2572 
" style="fill:none;stroke:#000000;stroke-linecap:square;stroke-linejoin:miter;stroke-width:0.8;"/>
   </g>
   <g id="patch_6">
    <path d="M 46.965625 10.7 
L 699.825625 10.7 
" style="fill:none;stroke:#000000;stroke-linecap:square;stroke-linejoin:miter;stroke-width:0.8;"/>
   </g>
   <g id="PathCollection_1">
    <defs>
     <path d="M 0 1.5 
C 0.397805 1.5 0.77937 1.341951 1.06066 1.06066 
C 1.341951 0.77937 1.5 0.397805 1.5 0 
C 1.5 -0.397805 1.341951 -0.77937 1.06066 -1.06066 
C 0.77937 -1.341951 0.397805 -1.5 0 -1.5 
C -0.397805 -1.5 -0.77937 -1.341951 -1.06066 -1.06066 
C -1.341951 -0.77937 -1.5 -0.397805 -1.5 0 
C -1.5 0.397805 -1.341951 0.77937 -1.06066 1.06066 
C -0.77937 1.341951 -0.397805 1.5 0 1.5 
z
" id="m193f97aa78" style="stroke:#3d3d3d;"/>
    </defs>
    <g clip-path="url(#p8e87549025)">
     <use style="fill:#ffffff;stroke:#3d3d3d;" x="79.608625" xlink:href="#m193f97aa78" y="226.67297"/>
    </g>
   </g>
   <g id="PathCollection_2">
    <g clip-path="url(#p8e87549025)">
     <use style="fill:#ffffff;stroke:#3d3d3d;" x="144.894625" xlink:href="#m193f97aa78" y="254.306206"/>
    </g>
   </g>
   <g id="PathCollection_3">
    <g clip-path="url(#p8e87549025)">
     <use style="fill:#ffffff;stroke:#3d3d3d;" x="210.180625" xlink:href="#m193f97aa78" y="275.031133"/>
    </g>
   </g>
   <g id="PathCollection_4">
    <g clip-path="url(#p8e87549025)">
     <use style="fill:#ffffff;stroke:#3d3d3d;" x="275.466625" xlink:href="#m193f97aa78" y="295.75606"/>
    </g>
   </g>
   <g id="PathCollection_5">
    <g clip-path="url(#p8e87549025)">
     <use style="fill:#ffffff;stroke:#3d3d3d;" x="340.752625" xlink:href="#m193f97aa78" y="316.480987"/>
    </g>
   </g>
   <g id="PathCollection_6">
    <g clip-path="url(#p8e87549025)">
     <use style="fill:#ffffff;stroke:#3d3d3d;" x="406.038625" xlink:href="#m193f97aa78" y="268.122824"/>
    </g>
   </g>
   <g id="PathCollection_7">
    <g clip-path="url(#p8e87549025)">
     <use style="fill:#ffffff;stroke:#3d3d3d;" x="471.324625" xlink:href="#m193f97aa78" y="275.031133"/>
    </g>
   </g>
   <g id="PathCollection_8">
    <g clip-path="url(#p8e87549025)">
     <use style="fill:#ffffff;stroke:#3d3d3d;" x="536.610625" xlink:href="#m193f97aa78" y="281.939442"/>
    </g>
   </g>
   <g id="PathCollection_9">
    <g clip-path="url(#p8e87549025)">
     <use style="fill:#ffffff;stroke:#3d3d3d;" x="601.896625" xlink:href="#m193f97aa78" y="295.75606"/>
    </g>
   </g>
   <g id="PathCollection_10">
    <g clip-path="url(#p8e87549025)">
     <use style="fill:#ffffff;stroke:#3d3d3d;" x="667.182625" xlink:href="#m193f97aa78" y="309.572678"/>
    </g>
   </g>
  </g>
 </g>
 <defs>
  <clipPath id="p8e87549025">
   <rect height="449.5572" width="652.86" x="46.965625" y="10.7"/>
  </clipPath>
 </defs>
</svg>
