<?xml version="1.0" encoding="utf-8" standalone="no"?>
<!DOCTYPE svg PUBLIC "-//W3C//DTD SVG 1.1//EN"
  "http://www.w3.org/Graphics/SVG/1.1/DTD/svg11.dtd">
<!-- Created with matplotlib (https://matplotlib.org/) -->
<svg height="509.011262pt" version="1.1" viewBox="0 0 710.525625 509.011262" width="710.525625pt" xmlns="http://www.w3.org/2000/svg" xmlns:xlink="http://www.w3.org/1999/xlink">
 <defs>
  <style type="text/css">
*{stroke-linecap:butt;stroke-linejoin:round;}
  </style>
 </defs>
 <g id="figure_1">
  <g id="patch_1">
   <path d="M 0 509.011262 
L 710.525625 509.011262 
L 710.525625 -0 
L 0 -0 
z
" style="fill:#ffffff;"/>
  </g>
  <g id="axes_1">
   <g id="patch_2">
    <path d="M 46.965625 460.2572 
L 699.825625 460.2572 
L 699.825625 10.7 
L 46.965625 10.7 
z
" style="fill:#ffffff;"/>
   </g>
   <g id="PolyCollection_1">
    <defs>
     <path d="M 79.629001 -155.882831 
L 79.588249 -155.882831 
L 79.571706 -159.135296 
L 79.54635 -162.387761 
L 79.510646 -165.640226 
L 79.464455 -168.892691 
L 79.409419 -172.145155 
L 79.348543 -175.39762 
L 79.284768 -178.650085 
L 79.2188 -181.90255 
L 79.146984 -185.155014 
L 79.060191 -188.407479 
L 78.944438 -191.659944 
L 78.783318 -194.912409 
L 78.561604 -198.164874 
L 78.268929 -201.417338 
L 77.90223 -204.669803 
L 77.465889 -207.922268 
L 76.969189 -211.174733 
L 76.421796 -214.427197 
L 75.829166 -217.679662 
L 75.190179 -220.932127 
L 74.498572 -224.184592 
L 73.747871 -227.437057 
L 72.937554 -230.689521 
L 72.077268 -233.941986 
L 71.186558 -237.194451 
L 70.289676 -240.446916 
L 69.407644 -243.69938 
L 68.551541 -246.951845 
L 67.72089 -250.20431 
L 66.908688 -253.456775 
L 66.111069 -256.70924 
L 65.337014 -259.961704 
L 64.613459 -263.214169 
L 63.983402 -266.466634 
L 63.497586 -269.719099 
L 63.202316 -272.971563 
L 63.126884 -276.224028 
L 63.274291 -279.476493 
L 63.618489 -282.728958 
L 64.109587 -285.981423 
L 64.68555 -289.233887 
L 65.286194 -292.486352 
L 65.864736 -295.738817 
L 66.393995 -298.991282 
L 66.86716 -302.243746 
L 67.29463 -305.496211 
L 67.698443 -308.748676 
L 68.10516 -312.001141 
L 68.538143 -315.253606 
L 69.011043 -318.50607 
L 69.52479 -321.758535 
L 70.069535 -325.011 
L 70.63095 -328.263465 
L 71.198096 -331.515929 
L 71.769102 -334.768394 
L 72.351654 -338.020859 
L 72.957712 -341.273324 
L 73.594738 -344.525788 
L 74.257768 -347.778253 
L 74.926524 -351.030718 
L 75.569419 -354.283183 
L 76.152869 -357.535648 
L 76.651783 -360.788112 
L 77.056751 -364.040577 
L 77.375207 -367.293042 
L 77.626704 -370.545507 
L 77.834769 -373.797971 
L 78.018877 -377.050436 
L 78.18964 -380.302901 
L 78.348629 -383.555366 
L 78.492153 -386.807831 
L 78.616541 -390.060295 
L 78.722045 -393.31276 
L 78.813513 -396.565225 
L 78.897992 -399.81769 
L 78.981128 -403.070154 
L 79.064665 -406.322619 
L 79.146319 -409.575084 
L 79.221729 -412.827549 
L 79.28705 -416.080014 
L 79.340716 -419.332478 
L 79.383679 -422.584943 
L 79.418334 -425.837408 
L 79.446999 -429.089873 
L 79.470784 -432.342337 
L 79.489394 -435.594802 
L 79.501846 -438.847267 
L 79.507639 -442.099732 
L 79.507719 -445.352197 
L 79.504685 -448.604661 
L 79.502124 -451.857126 
L 79.503366 -455.109591 
L 79.510311 -458.362056 
L 79.522862 -461.61452 
L 79.539189 -464.866985 
L 79.556619 -468.11945 
L 79.572651 -471.371915 
L 79.585662 -474.62438 
L 79.595104 -477.876844 
L 79.622146 -477.876844 
L 79.622146 -477.876844 
L 79.631588 -474.62438 
L 79.644599 -471.371915 
L 79.660631 -468.11945 
L 79.678061 -464.866985 
L 79.694388 -461.61452 
L 79.706939 -458.362056 
L 79.713884 -455.109591 
L 79.715126 -451.857126 
L 79.712565 -448.604661 
L 79.709531 -445.352197 
L 79.709611 -442.099732 
L 79.715404 -438.847267 
L 79.727856 -435.594802 
L 79.746466 -432.342337 
L 79.770251 -429.089873 
L 79.798916 -425.837408 
L 79.833571 -422.584943 
L 79.876534 -419.332478 
L 79.9302 -416.080014 
L 79.995521 -412.827549 
L 80.070931 -409.575084 
L 80.152585 -406.322619 
L 80.236122 -403.070154 
L 80.319258 -399.81769 
L 80.403737 -396.565225 
L 80.495205 -393.31276 
L 80.600709 -390.060295 
L 80.725097 -386.807831 
L 80.868621 -383.555366 
L 81.02761 -380.302901 
L 81.198373 -377.050436 
L 81.382481 -373.797971 
L 81.590546 -370.545507 
L 81.842043 -367.293042 
L 82.160499 -364.040577 
L 82.565467 -360.788112 
L 83.064381 -357.535648 
L 83.647831 -354.283183 
L 84.290726 -351.030718 
L 84.959482 -347.778253 
L 85.622512 -344.525788 
L 86.259538 -341.273324 
L 86.865596 -338.020859 
L 87.448148 -334.768394 
L 88.019154 -331.515929 
L 88.5863 -328.263465 
L 89.147715 -325.011 
L 89.69246 -321.758535 
L 90.206207 -318.50607 
L 90.679107 -315.253606 
L 91.11209 -312.001141 
L 91.518807 -308.748676 
L 91.92262 -305.496211 
L 92.35009 -302.243746 
L 92.823255 -298.991282 
L 93.352514 -295.738817 
L 93.931056 -292.486352 
L 94.5317 -289.233887 
L 95.107663 -285.981423 
L 95.598761 -282.728958 
L 95.942959 -279.476493 
L 96.090366 -276.224028 
L 96.014934 -272.971563 
L 95.719664 -269.719099 
L 95.233848 -266.466634 
L 94.603791 -263.214169 
L 93.880236 -259.961704 
L 93.106181 -256.70924 
L 92.308562 -253.456775 
L 91.49636 -250.20431 
L 90.665709 -246.951845 
L 89.809606 -243.69938 
L 88.927574 -240.446916 
L 88.030692 -237.194451 
L 87.139982 -233.941986 
L 86.279696 -230.689521 
L 85.469379 -227.437057 
L 84.718678 -224.184592 
L 84.027071 -220.932127 
L 83.388084 -217.679662 
L 82.795454 -214.427197 
L 82.248061 -211.174733 
L 81.751361 -207.922268 
L 81.31502 -204.669803 
L 80.948321 -201.417338 
L 80.655646 -198.164874 
L 80.433932 -194.912409 
L 80.272812 -191.659944 
L 80.157059 -188.407479 
L 80.070266 -185.155014 
L 79.99845 -181.90255 
L 79.932482 -178.650085 
L 79.868707 -175.39762 
L 79.807831 -172.145155 
L 79.752795 -168.892691 
L 79.706604 -165.640226 
L 79.6709 -162.387761 
L 79.645544 -159.135296 
L 79.629001 -155.882831 
z
" id="m87d597978f" style="stroke:#3d3d3d;stroke-width:1.5;"/>
    </defs>
    <g clip-path="url(#pf8684dabf7)">
     <use style="fill:#3274a1;stroke:#3d3d3d;stroke-width:1.5;" x="0" xlink:href="#m87d597978f" y="509.011262"/>
    </g>
   </g>
   <g id="PolyCollection_2">
    <defs>
     <path d="M 144.914683 -145.725537 
L 144.874567 -145.725537 
L 144.861759 -147.996924 
L 144.843143 -150.268311 
L 144.817331 -152.539699 
L 144.783054 -154.811086 
L 144.739237 -157.082473 
L 144.68499 -159.353861 
L 144.619487 -161.625248 
L 144.541782 -163.896636 
L 144.450602 -166.168023 
L 144.34421 -168.43941 
L 144.220379 -170.710798 
L 144.076538 -172.982185 
L 143.910107 -175.253572 
L 143.718974 -177.52496 
L 143.502 -179.796347 
L 143.259338 -182.067734 
L 142.992247 -184.339122 
L 142.702212 -186.610509 
L 142.389405 -188.881897 
L 142.050912 -191.153284 
L 141.679453 -193.424671 
L 141.263347 -195.696059 
L 140.788135 -197.967446 
L 140.23968 -200.238833 
L 139.607983 -202.510221 
L 138.890634 -204.781608 
L 138.094951 -207.052995 
L 137.238213 -209.324383 
L 136.345918 -211.59577 
L 135.448413 -213.867158 
L 134.5765 -216.138545 
L 133.756819 -218.409932 
L 133.007846 -220.68132 
L 132.337322 -222.952707 
L 131.741748 -225.224094 
L 131.208116 -227.495482 
L 130.71754 -229.766869 
L 130.249912 -232.038256 
L 129.788374 -234.309644 
L 129.322493 -236.581031 
L 128.849428 -238.852419 
L 128.37309 -241.123806 
L 127.902013 -243.395193 
L 127.447075 -245.666581 
L 127.020236 -247.937968 
L 126.634848 -250.209355 
L 126.307258 -252.480743 
L 126.058584 -254.75213 
L 125.915175 -257.023518 
L 125.90661 -259.294905 
L 126.061055 -261.566292 
L 126.398884 -263.83768 
L 126.926346 -266.109067 
L 127.631178 -268.380454 
L 128.481547 -270.651842 
L 129.428763 -272.923229 
L 130.413245 -275.194616 
L 131.372539 -277.466004 
L 132.249927 -279.737391 
L 133.002188 -282.008779 
L 133.605288 -284.280166 
L 134.05709 -286.551553 
L 134.376586 -288.822941 
L 134.599665 -291.094328 
L 134.77212 -293.365715 
L 134.941222 -295.637103 
L 135.147661 -297.90849 
L 135.419643 -300.179877 
L 135.770419 -302.451265 
L 136.199494 -304.722652 
L 136.696695 -306.99404 
L 137.24739 -309.265427 
L 137.83697 -311.536814 
L 138.453186 -313.808202 
L 139.085994 -316.079589 
L 139.725613 -318.350976 
L 140.360209 -320.622364 
L 140.974611 -322.893751 
L 141.550891 -325.165138 
L 142.07072 -327.436526 
L 142.518712 -329.707913 
L 142.885602 -331.979301 
L 143.170257 -334.250688 
L 143.37997 -336.522075 
L 143.52903 -338.793463 
L 143.635996 -341.06485 
L 143.720369 -343.336237 
L 143.79938 -345.607625 
L 143.885538 -347.879012 
L 143.985335 -350.1504 
L 144.099267 -352.421787 
L 144.222991 -354.693174 
L 144.349245 -356.964562 
L 144.469999 -359.235949 
L 144.578321 -361.507336 
L 144.669592 -363.778724 
L 144.741931 -366.050111 
L 144.795924 -368.321498 
L 144.833909 -370.592886 
L 144.955341 -370.592886 
L 144.955341 -370.592886 
L 144.993326 -368.321498 
L 145.047319 -366.050111 
L 145.119658 -363.778724 
L 145.210929 -361.507336 
L 145.319251 -359.235949 
L 145.440005 -356.964562 
L 145.566259 -354.693174 
L 145.689983 -352.421787 
L 145.803915 -350.1504 
L 145.903712 -347.879012 
L 145.98987 -345.607625 
L 146.068881 -343.336237 
L 146.153254 -341.06485 
L 146.26022 -338.793463 
L 146.40928 -336.522075 
L 146.618993 -334.250688 
L 146.903648 -331.979301 
L 147.270538 -329.707913 
L 147.71853 -327.436526 
L 148.238359 -325.165138 
L 148.814639 -322.893751 
L 149.429041 -320.622364 
L 150.063637 -318.350976 
L 150.703256 -316.079589 
L 151.336064 -313.808202 
L 151.95228 -311.536814 
L 152.54186 -309.265427 
L 153.092555 -306.99404 
L 153.589756 -304.722652 
L 154.018831 -302.451265 
L 154.369607 -300.179877 
L 154.641589 -297.90849 
L 154.848028 -295.637103 
L 155.01713 -293.365715 
L 155.189585 -291.094328 
L 155.412664 -288.822941 
L 155.73216 -286.551553 
L 156.183962 -284.280166 
L 156.787062 -282.008779 
L 157.539323 -279.737391 
L 158.416711 -277.466004 
L 159.376005 -275.194616 
L 160.360487 -272.923229 
L 161.307703 -270.651842 
L 162.158072 -268.380454 
L 162.862904 -266.109067 
L 163.390366 -263.83768 
L 163.728195 -261.566292 
L 163.88264 -259.294905 
L 163.874075 -257.023518 
L 163.730666 -254.75213 
L 163.481992 -252.480743 
L 163.154402 -250.209355 
L 162.769014 -247.937968 
L 162.342175 -245.666581 
L 161.887237 -243.395193 
L 161.41616 -241.123806 
L 160.939822 -238.852419 
L 160.466757 -236.581031 
L 160.000876 -234.309644 
L 159.539338 -232.038256 
L 159.07171 -229.766869 
L 158.581134 -227.495482 
L 158.047502 -225.224094 
L 157.451928 -222.952707 
L 156.781404 -220.68132 
L 156.032431 -218.409932 
L 155.21275 -216.138545 
L 154.340837 -213.867158 
L 153.443332 -211.59577 
L 152.551037 -209.324383 
L 151.694299 -207.052995 
L 150.898616 -204.781608 
L 150.181267 -202.510221 
L 149.54957 -200.238833 
L 149.001115 -197.967446 
L 148.525903 -195.696059 
L 148.109797 -193.424671 
L 147.738338 -191.153284 
L 147.399845 -188.881897 
L 147.087038 -186.610509 
L 146.797003 -184.339122 
L 146.529912 -182.067734 
L 146.28725 -179.796347 
L 146.070276 -177.52496 
L 145.879143 -175.253572 
L 145.712712 -172.982185 
L 145.568871 -170.710798 
L 145.44504 -168.43941 
L 145.338648 -166.168023 
L 145.247468 -163.896636 
L 145.169763 -161.625248 
L 145.10426 -159.353861 
L 145.050013 -157.082473 
L 145.006196 -154.811086 
L 144.971919 -152.539699 
L 144.946107 -150.268311 
L 144.927491 -147.996924 
L 144.914683 -145.725537 
z
" id="mcf75984177" style="stroke:#3d3d3d;stroke-width:1.5;"/>
    </defs>
    <g clip-path="url(#pf8684dabf7)">
     <use style="fill:#e1812c;stroke:#3d3d3d;stroke-width:1.5;" x="0" xlink:href="#mcf75984177" y="509.011262"/>
    </g>
   </g>
   <g id="PolyCollection_3">
    <defs>
     <path d="M 210.216968 -125.734645 
L 210.144282 -125.734645 
L 210.121306 -128.060984 
L 210.089431 -130.387323 
L 210.048437 -132.713662 
L 209.99967 -135.040002 
L 209.946123 -137.366341 
L 209.891845 -139.69268 
L 209.840656 -142.019019 
L 209.794389 -144.345359 
L 209.751181 -146.671698 
L 209.704412 -148.998037 
L 209.642748 -151.324377 
L 209.55144 -153.650716 
L 209.414609 -155.977055 
L 209.21796 -158.303394 
L 208.951273 -160.629734 
L 208.610163 -162.956073 
L 208.196849 -165.282412 
L 207.720001 -167.608751 
L 207.193846 -169.935091 
L 206.636709 -172.26143 
L 206.068986 -174.587769 
L 205.510403 -176.914109 
L 204.976548 -179.240448 
L 204.475012 -181.566787 
L 204.002113 -183.893126 
L 203.541552 -186.219466 
L 203.066248 -188.545805 
L 202.5437 -190.872144 
L 201.94392 -193.198484 
L 201.247725 -195.524823 
L 200.452747 -197.851162 
L 199.575104 -200.177501 
L 198.646186 -202.503841 
L 197.705728 -204.83018 
L 196.793472 -207.156519 
L 195.941953 -209.482858 
L 195.172106 -211.809198 
L 194.492212 -214.135537 
L 193.899695 -216.461876 
L 193.384812 -218.788216 
L 192.935292 -221.114555 
L 192.541098 -223.440894 
L 192.198331 -225.767233 
L 191.911147 -228.093573 
L 191.690627 -230.419912 
L 191.550408 -232.746251 
L 191.500227 -235.07259 
L 191.539817 -237.39893 
L 191.655984 -239.725269 
L 191.824786 -242.051608 
L 192.01878 -244.377948 
L 192.217132 -246.704287 
L 192.414962 -249.030626 
L 192.628239 -251.356965 
L 192.891954 -253.683305 
L 193.251567 -256.009644 
L 193.750136 -258.335983 
L 194.415045 -260.662322 
L 195.248511 -262.988662 
L 196.224812 -265.315001 
L 197.295002 -267.64134 
L 198.397538 -269.96768 
L 199.471437 -272.294019 
L 200.468111 -274.620358 
L 201.358749 -276.946697 
L 202.135899 -279.273037 
L 202.809813 -281.599376 
L 203.401594 -283.925715 
L 203.935676 -286.252055 
L 204.433704 -288.578394 
L 204.910901 -290.904733 
L 205.374979 -293.231072 
L 205.827049 -295.557412 
L 206.263752 -297.883751 
L 206.679853 -300.21009 
L 207.070643 -302.536429 
L 207.433517 -304.862769 
L 207.768371 -307.189108 
L 208.076785 -309.515447 
L 208.360504 -311.841787 
L 208.619983 -314.168126 
L 208.853739 -316.494465 
L 209.058828 -318.820804 
L 209.232215 -321.147144 
L 209.372438 -323.473483 
L 209.48086 -325.799822 
L 209.562072 -328.126161 
L 209.623286 -330.452501 
L 209.672949 -332.77884 
L 209.718994 -335.105179 
L 209.767251 -337.431519 
L 209.820474 -339.757858 
L 209.87824 -342.084197 
L 209.937698 -344.410536 
L 209.994843 -346.736876 
L 210.045867 -349.063215 
L 210.088156 -351.389554 
L 210.120715 -353.715893 
L 210.144027 -356.042233 
L 210.217223 -356.042233 
L 210.217223 -356.042233 
L 210.240535 -353.715893 
L 210.273094 -351.389554 
L 210.315383 -349.063215 
L 210.366407 -346.736876 
L 210.423552 -344.410536 
L 210.48301 -342.084197 
L 210.540776 -339.757858 
L 210.593999 -337.431519 
L 210.642256 -335.105179 
L 210.688301 -332.77884 
L 210.737964 -330.452501 
L 210.799178 -328.126161 
L 210.88039 -325.799822 
L 210.988812 -323.473483 
L 211.129035 -321.147144 
L 211.302422 -318.820804 
L 211.507511 -316.494465 
L 211.741267 -314.168126 
L 212.000746 -311.841787 
L 212.284465 -309.515447 
L 212.592879 -307.189108 
L 212.927733 -304.862769 
L 213.290607 -302.536429 
L 213.681397 -300.21009 
L 214.097498 -297.883751 
L 214.534201 -295.557412 
L 214.986271 -293.231072 
L 215.450349 -290.904733 
L 215.927546 -288.578394 
L 216.425574 -286.252055 
L 216.959656 -283.925715 
L 217.551437 -281.599376 
L 218.225351 -279.273037 
L 219.002501 -276.946697 
L 219.893139 -274.620358 
L 220.889813 -272.294019 
L 221.963712 -269.96768 
L 223.066248 -267.64134 
L 224.136438 -265.315001 
L 225.112739 -262.988662 
L 225.946205 -260.662322 
L 226.611114 -258.335983 
L 227.109683 -256.009644 
L 227.469296 -253.683305 
L 227.733011 -251.356965 
L 227.946288 -249.030626 
L 228.144118 -246.704287 
L 228.34247 -244.377948 
L 228.536464 -242.051608 
L 228.705266 -239.725269 
L 228.821433 -237.39893 
L 228.861023 -235.07259 
L 228.810842 -232.746251 
L 228.670623 -230.419912 
L 228.450103 -228.093573 
L 228.162919 -225.767233 
L 227.820152 -223.440894 
L 227.425958 -221.114555 
L 226.976438 -218.788216 
L 226.461555 -216.461876 
L 225.869038 -214.135537 
L 225.189144 -211.809198 
L 224.419297 -209.482858 
L 223.567778 -207.156519 
L 222.655522 -204.83018 
L 221.715064 -202.503841 
L 220.786146 -200.177501 
L 219.908503 -197.851162 
L 219.113525 -195.524823 
L 218.41733 -193.198484 
L 217.81755 -190.872144 
L 217.295002 -188.545805 
L 216.819698 -186.219466 
L 216.359137 -183.893126 
L 215.886238 -181.566787 
L 215.384702 -179.240448 
L 214.850847 -176.914109 
L 214.292264 -174.587769 
L 213.724541 -172.26143 
L 213.167404 -169.935091 
L 212.641249 -167.608751 
L 212.164401 -165.282412 
L 211.751087 -162.956073 
L 211.409977 -160.629734 
L 211.14329 -158.303394 
L 210.946641 -155.977055 
L 210.80981 -153.650716 
L 210.718502 -151.324377 
L 210.656838 -148.998037 
L 210.610069 -146.671698 
L 210.566861 -144.345359 
L 210.520594 -142.019019 
L 210.469405 -139.69268 
L 210.415127 -137.366341 
L 210.36158 -135.040002 
L 210.312813 -132.713662 
L 210.271819 -130.387323 
L 210.239944 -128.060984 
L 210.216968 -125.734645 
z
" id="m143af60e1a" style="stroke:#3d3d3d;stroke-width:1.5;"/>
    </defs>
    <g clip-path="url(#pf8684dabf7)">
     <use style="fill:#3a923a;stroke:#3d3d3d;stroke-width:1.5;" x="0" xlink:href="#m143af60e1a" y="509.011262"/>
    </g>
   </g>
   <g id="PolyCollection_4">
    <defs>
     <path d="M 275.487194 -99.104924 
L 275.446056 -99.104924 
L 275.430639 -101.550552 
L 275.407883 -103.99618 
L 275.376947 -106.441808 
L 275.338211 -108.887436 
L 275.293516 -111.333064 
L 275.24594 -113.778692 
L 275.199057 -116.22432 
L 275.155894 -118.669948 
L 275.117886 -121.115576 
L 275.084091 -123.561204 
L 275.050819 -126.006832 
L 275.011614 -128.45246 
L 274.957596 -130.898088 
L 274.878205 -133.343716 
L 274.762495 -135.789344 
L 274.600979 -138.234972 
L 274.387688 -140.6806 
L 274.121702 -143.126228 
L 273.807215 -145.571856 
L 273.451621 -148.017484 
L 273.062007 -150.463113 
L 272.641449 -152.908741 
L 272.186997 -155.354369 
L 271.690626 -157.799997 
L 271.142956 -160.245625 
L 270.537847 -162.691253 
L 269.875189 -165.136881 
L 269.16 -167.582509 
L 268.398107 -170.028137 
L 267.591066 -172.473765 
L 266.733853 -174.919393 
L 265.817463 -177.365021 
L 264.835509 -179.810649 
L 263.79125 -182.256277 
L 262.701052 -184.701905 
L 261.592421 -187.147533 
L 260.497985 -189.593161 
L 259.448982 -192.038789 
L 258.471697 -194.484417 
L 257.588207 -196.930045 
L 256.820003 -199.375673 
L 256.191092 -201.821301 
L 255.727037 -204.266929 
L 255.448348 -206.712557 
L 255.360165 -209.158185 
L 255.443746 -211.603813 
L 255.656394 -214.049441 
L 255.943385 -216.49507 
L 256.258584 -218.940698 
L 256.583774 -221.386326 
L 256.935226 -223.831954 
L 257.35218 -226.277582 
L 257.872494 -228.72321 
L 258.508746 -231.168838 
L 259.237797 -233.614466 
L 260.008584 -236.060094 
L 260.762522 -238.505722 
L 261.455193 -240.95135 
L 262.069506 -243.396978 
L 262.616753 -245.842606 
L 263.128233 -248.288234 
L 263.643073 -250.733862 
L 264.197205 -253.17949 
L 264.816023 -255.625118 
L 265.510976 -258.070746 
L 266.279292 -260.516374 
L 267.105989 -262.962002 
L 267.967538 -265.40763 
L 268.836584 -267.853258 
L 269.686737 -270.298886 
L 270.496258 -272.744514 
L 271.249728 -275.190142 
L 271.937587 -277.63577 
L 272.554376 -280.081398 
L 273.096969 -282.527027 
L 273.563889 -284.972655 
L 273.955875 -287.418283 
L 274.276991 -289.863911 
L 274.535089 -292.309539 
L 274.740869 -294.755167 
L 274.905667 -297.200795 
L 275.038977 -299.646423 
L 275.146882 -302.092051 
L 275.232041 -304.537679 
L 275.295008 -306.983307 
L 275.336105 -309.428935 
L 275.356982 -311.874563 
L 275.361371 -314.320191 
L 275.354929 -316.765819 
L 275.344329 -319.211447 
L 275.335921 -321.657075 
L 275.334351 -324.102703 
L 275.341629 -326.548331 
L 275.356988 -328.993959 
L 275.377586 -331.439587 
L 275.399741 -333.885215 
L 275.420173 -336.330843 
L 275.436801 -338.776471 
L 275.448926 -341.222099 
L 275.484324 -341.222099 
L 275.484324 -341.222099 
L 275.496449 -338.776471 
L 275.513077 -336.330843 
L 275.533509 -333.885215 
L 275.555664 -331.439587 
L 275.576262 -328.993959 
L 275.591621 -326.548331 
L 275.598899 -324.102703 
L 275.597329 -321.657075 
L 275.588921 -319.211447 
L 275.578321 -316.765819 
L 275.571879 -314.320191 
L 275.576268 -311.874563 
L 275.597145 -309.428935 
L 275.638242 -306.983307 
L 275.701209 -304.537679 
L 275.786368 -302.092051 
L 275.894273 -299.646423 
L 276.027583 -297.200795 
L 276.192381 -294.755167 
L 276.398161 -292.309539 
L 276.656259 -289.863911 
L 276.977375 -287.418283 
L 277.369361 -284.972655 
L 277.836281 -282.527027 
L 278.378874 -280.081398 
L 278.995663 -277.63577 
L 279.683522 -275.190142 
L 280.436992 -272.744514 
L 281.246513 -270.298886 
L 282.096666 -267.853258 
L 282.965712 -265.40763 
L 283.827261 -262.962002 
L 284.653958 -260.516374 
L 285.422274 -258.070746 
L 286.117227 -255.625118 
L 286.736045 -253.17949 
L 287.290177 -250.733862 
L 287.805017 -248.288234 
L 288.316497 -245.842606 
L 288.863744 -243.396978 
L 289.478057 -240.95135 
L 290.170728 -238.505722 
L 290.924666 -236.060094 
L 291.695453 -233.614466 
L 292.424504 -231.168838 
L 293.060756 -228.72321 
L 293.58107 -226.277582 
L 293.998024 -223.831954 
L 294.349476 -221.386326 
L 294.674666 -218.940698 
L 294.989865 -216.49507 
L 295.276856 -214.049441 
L 295.489504 -211.603813 
L 295.573085 -209.158185 
L 295.484902 -206.712557 
L 295.206213 -204.266929 
L 294.742158 -201.821301 
L 294.113247 -199.375673 
L 293.345043 -196.930045 
L 292.461553 -194.484417 
L 291.484268 -192.038789 
L 290.435265 -189.593161 
L 289.340829 -187.147533 
L 288.232198 -184.701905 
L 287.142 -182.256277 
L 286.097741 -179.810649 
L 285.115787 -177.365021 
L 284.199397 -174.919393 
L 283.342184 -172.473765 
L 282.535143 -170.028137 
L 281.77325 -167.582509 
L 281.058061 -165.136881 
L 280.395403 -162.691253 
L 279.790294 -160.245625 
L 279.242624 -157.799997 
L 278.746253 -155.354369 
L 278.291801 -152.908741 
L 277.871243 -150.463113 
L 277.481629 -148.017484 
L 277.126035 -145.571856 
L 276.811548 -143.126228 
L 276.545562 -140.6806 
L 276.332271 -138.234972 
L 276.170755 -135.789344 
L 276.055045 -133.343716 
L 275.975654 -130.898088 
L 275.921636 -128.45246 
L 275.882431 -126.006832 
L 275.849159 -123.561204 
L 275.815364 -121.115576 
L 275.777356 -118.669948 
L 275.734193 -116.22432 
L 275.68731 -113.778692 
L 275.639734 -111.333064 
L 275.595039 -108.887436 
L 275.556303 -106.441808 
L 275.525367 -103.99618 
L 275.502611 -101.550552 
L 275.487194 -99.104924 
z
" id="mc7cb8ea67b" style="stroke:#3d3d3d;stroke-width:1.5;"/>
    </defs>
    <g clip-path="url(#pf8684dabf7)">
     <use style="fill:#c03d3e;stroke:#3d3d3d;stroke-width:1.5;" x="0" xlink:href="#mc7cb8ea67b" y="509.011262"/>
    </g>
   </g>
   <g id="PolyCollection_5">
    <defs>
     <path d="M 340.793813 -69.188481 
L 340.711437 -69.188481 
L 340.684951 -71.540672 
L 340.646718 -73.892864 
L 340.594534 -76.245056 
L 340.52712 -78.597247 
L 340.44457 -80.949439 
L 340.348493 -83.30163 
L 340.241735 -85.653822 
L 340.12762 -88.006014 
L 340.008899 -90.358205 
L 339.886662 -92.710397 
L 339.759594 -95.062589 
L 339.623851 -97.41478 
L 339.473661 -99.766972 
L 339.30257 -102.119164 
L 339.105065 -104.471355 
L 338.878235 -106.823547 
L 338.623085 -109.175738 
L 338.345155 -111.52793 
L 338.054116 -113.880122 
L 337.762141 -116.232313 
L 337.481143 -118.584505 
L 337.219346 -120.936697 
L 336.978143 -123.288888 
L 336.750319 -125.64108 
L 336.520538 -127.993271 
L 336.268321 -130.345463 
L 335.972891 -132.697655 
L 335.618568 -135.049846 
L 335.199102 -137.402038 
L 334.719554 -139.75423 
L 334.195002 -142.106421 
L 333.646178 -144.458613 
L 333.093067 -146.810805 
L 332.548169 -149.162996 
L 332.011455 -151.515188 
L 331.468787 -153.867379 
L 330.894666 -156.219571 
L 330.258944 -158.571763 
L 329.53582 -160.923954 
L 328.712645 -163.276146 
L 327.796019 -165.628338 
L 326.813395 -167.980529 
L 325.809682 -170.332721 
L 324.839715 -172.684912 
L 323.958637 -175.037104 
L 323.212721 -177.389296 
L 322.632931 -179.741487 
L 322.232526 -182.093679 
L 322.008628 -184.445871 
L 321.94646 -186.798062 
L 322.024455 -189.150254 
L 322.218703 -191.502446 
L 322.506083 -193.854637 
L 322.866238 -196.206829 
L 323.282813 -198.55902 
L 323.744156 -200.911212 
L 324.243188 -203.263404 
L 324.776017 -205.615595 
L 325.339289 -207.967787 
L 325.926995 -210.319979 
L 326.528032 -212.67217 
L 327.125838 -215.024362 
L 327.700668 -217.376553 
L 328.234069 -219.728745 
L 328.714082 -222.080937 
L 329.139396 -224.433128 
L 329.520963 -226.78532 
L 329.880478 -229.137512 
L 330.246184 -231.489703 
L 330.647225 -233.841895 
L 331.108078 -236.194087 
L 331.644373 -238.546278 
L 332.260813 -240.89847 
L 332.95124 -243.250661 
L 333.700339 -245.602853 
L 334.486269 -247.955045 
L 335.283572 -250.307236 
L 336.065955 -252.659428 
L 336.808782 -255.01162 
L 337.49126 -257.363811 
L 338.098189 -259.716003 
L 338.621075 -262.068194 
L 339.058346 -264.420386 
L 339.414544 -266.772578 
L 339.698664 -269.124769 
L 339.922076 -271.476961 
L 340.096566 -273.829153 
L 340.232922 -276.181344 
L 340.340201 -278.533536 
L 340.425562 -280.885728 
L 340.494418 -283.237919 
L 340.550703 -285.590111 
L 340.597133 -287.942302 
L 340.63547 -290.294494 
L 340.66681 -292.646686 
L 340.691876 -294.998877 
L 340.711277 -297.351069 
L 340.725682 -299.703261 
L 340.735874 -302.055452 
L 340.769376 -302.055452 
L 340.769376 -302.055452 
L 340.779568 -299.703261 
L 340.793973 -297.351069 
L 340.813374 -294.998877 
L 340.83844 -292.646686 
L 340.86978 -290.294494 
L 340.908117 -287.942302 
L 340.954547 -285.590111 
L 341.010832 -283.237919 
L 341.079688 -280.885728 
L 341.165049 -278.533536 
L 341.272328 -276.181344 
L 341.408684 -273.829153 
L 341.583174 -271.476961 
L 341.806586 -269.124769 
L 342.090706 -266.772578 
L 342.446904 -264.420386 
L 342.884175 -262.068194 
L 343.407061 -259.716003 
L 344.01399 -257.363811 
L 344.696468 -255.01162 
L 345.439295 -252.659428 
L 346.221678 -250.307236 
L 347.018981 -247.955045 
L 347.804911 -245.602853 
L 348.55401 -243.250661 
L 349.244437 -240.89847 
L 349.860877 -238.546278 
L 350.397172 -236.194087 
L 350.858025 -233.841895 
L 351.259066 -231.489703 
L 351.624772 -229.137512 
L 351.984287 -226.78532 
L 352.365854 -224.433128 
L 352.791168 -222.080937 
L 353.271181 -219.728745 
L 353.804582 -217.376553 
L 354.379412 -215.024362 
L 354.977218 -212.67217 
L 355.578255 -210.319979 
L 356.165961 -207.967787 
L 356.729233 -205.615595 
L 357.262062 -203.263404 
L 357.761094 -200.911212 
L 358.222437 -198.55902 
L 358.639012 -196.206829 
L 358.999167 -193.854637 
L 359.286547 -191.502446 
L 359.480795 -189.150254 
L 359.55879 -186.798062 
L 359.496622 -184.445871 
L 359.272724 -182.093679 
L 358.872319 -179.741487 
L 358.292529 -177.389296 
L 357.546613 -175.037104 
L 356.665535 -172.684912 
L 355.695568 -170.332721 
L 354.691855 -167.980529 
L 353.709231 -165.628338 
L 352.792605 -163.276146 
L 351.96943 -160.923954 
L 351.246306 -158.571763 
L 350.610584 -156.219571 
L 350.036463 -153.867379 
L 349.493795 -151.515188 
L 348.957081 -149.162996 
L 348.412183 -146.810805 
L 347.859072 -144.458613 
L 347.310248 -142.106421 
L 346.785696 -139.75423 
L 346.306148 -137.402038 
L 345.886682 -135.049846 
L 345.532359 -132.697655 
L 345.236929 -130.345463 
L 344.984712 -127.993271 
L 344.754931 -125.64108 
L 344.527107 -123.288888 
L 344.285904 -120.936697 
L 344.024107 -118.584505 
L 343.743109 -116.232313 
L 343.451134 -113.880122 
L 343.160095 -111.52793 
L 342.882165 -109.175738 
L 342.627015 -106.823547 
L 342.400185 -104.471355 
L 342.20268 -102.119164 
L 342.031589 -99.766972 
L 341.881399 -97.41478 
L 341.745656 -95.062589 
L 341.618588 -92.710397 
L 341.496351 -90.358205 
L 341.37763 -88.006014 
L 341.263515 -85.653822 
L 341.156757 -83.30163 
L 341.06068 -80.949439 
L 340.97813 -78.597247 
L 340.910716 -76.245056 
L 340.858532 -73.892864 
L 340.820299 -71.540672 
L 340.793813 -69.188481 
z
" id="mcc33070735" style="stroke:#3d3d3d;stroke-width:1.5;"/>
    </defs>
    <g clip-path="url(#pf8684dabf7)">
     <use style="fill:#9372b2;stroke:#3d3d3d;stroke-width:1.5;" x="0" xlink:href="#mcc33070735" y="509.011262"/>
    </g>
   </g>
   <g id="PolyCollection_6">
    <defs>
     <path d="M 406.215348 -165.918118 
L 405.861902 -165.918118 
L 405.747728 -167.572232 
L 405.588643 -169.226346 
L 405.383526 -170.880459 
L 405.139299 -172.534573 
L 404.871471 -174.188687 
L 404.601911 -175.842801 
L 404.35404 -177.496914 
L 404.14687 -179.151028 
L 403.989931 -180.805142 
L 403.880796 -182.459255 
L 403.805839 -184.113369 
L 403.743601 -185.767483 
L 403.669422 -187.421597 
L 403.559972 -189.07571 
L 403.396691 -190.729824 
L 403.167626 -192.383938 
L 402.867385 -194.038052 
L 402.495217 -195.692165 
L 402.051651 -197.346279 
L 401.534785 -199.000393 
L 400.9378 -200.654506 
L 400.249132 -202.30862 
L 399.455808 -203.962734 
L 398.548917 -205.616848 
L 397.528876 -207.270961 
L 396.407828 -208.925075 
L 395.207627 -210.579189 
L 393.95399 -212.233303 
L 392.669565 -213.887416 
L 391.369478 -215.54153 
L 390.061857 -217.195644 
L 388.753264 -218.849757 
L 387.456303 -220.503871 
L 386.195263 -222.157985 
L 385.006389 -223.812099 
L 383.931917 -225.466212 
L 383.010103 -227.120326 
L 382.265562 -228.77444 
L 381.704011 -230.428554 
L 381.313194 -232.082667 
L 381.068672 -233.736781 
L 380.941066 -235.390895 
L 380.901294 -237.045008 
L 380.922094 -238.699122 
L 380.976601 -240.353236 
L 381.036703 -242.00735 
L 381.074254 -243.661463 
L 381.066711 -245.315577 
L 381.005966 -246.969691 
L 380.906504 -248.623805 
L 380.808134 -250.277918 
L 380.77022 -251.932032 
L 380.858061 -253.586146 
L 381.125965 -255.240259 
L 381.603479 -256.894373 
L 382.289956 -258.548487 
L 383.158821 -260.202601 
L 384.168745 -261.856714 
L 385.276609 -263.510828 
L 386.447546 -265.164942 
L 387.659586 -266.819056 
L 388.903018 -268.473169 
L 390.176212 -270.127283 
L 391.480079 -271.781397 
L 392.812907 -273.43551 
L 394.166616 -275.089624 
L 395.52499 -276.743738 
L 396.864159 -278.397852 
L 398.155231 -280.051965 
L 399.368456 -281.706079 
L 400.477771 -283.360193 
L 401.464477 -285.014307 
L 402.319222 -286.66842 
L 403.042114 -288.322534 
L 403.641363 -289.976648 
L 404.130983 -291.630761 
L 404.528064 -293.284875 
L 404.850044 -294.938989 
L 405.112392 -296.593103 
L 405.327092 -298.247216 
L 405.502172 -299.90133 
L 405.642234 -301.555444 
L 405.749695 -303.209558 
L 405.826275 -304.863671 
L 405.874276 -306.517785 
L 405.8974 -308.171899 
L 405.901008 -309.826012 
L 405.891841 -311.480126 
L 405.877287 -313.13424 
L 405.864335 -314.788354 
L 405.858437 -316.442467 
L 405.862614 -318.096581 
L 405.877104 -319.750695 
L 405.899723 -321.404809 
L 405.926808 -323.058922 
L 405.954402 -324.713036 
L 405.979279 -326.36715 
L 405.99951 -328.021263 
L 406.01451 -329.675377 
L 406.06274 -329.675377 
L 406.06274 -329.675377 
L 406.07774 -328.021263 
L 406.097971 -326.36715 
L 406.122848 -324.713036 
L 406.150442 -323.058922 
L 406.177527 -321.404809 
L 406.200146 -319.750695 
L 406.214636 -318.096581 
L 406.218813 -316.442467 
L 406.212915 -314.788354 
L 406.199963 -313.13424 
L 406.185409 -311.480126 
L 406.176242 -309.826012 
L 406.17985 -308.171899 
L 406.202974 -306.517785 
L 406.250975 -304.863671 
L 406.327555 -303.209558 
L 406.435016 -301.555444 
L 406.575078 -299.90133 
L 406.750158 -298.247216 
L 406.964858 -296.593103 
L 407.227206 -294.938989 
L 407.549186 -293.284875 
L 407.946267 -291.630761 
L 408.435887 -289.976648 
L 409.035136 -288.322534 
L 409.758028 -286.66842 
L 410.612773 -285.014307 
L 411.599479 -283.360193 
L 412.708794 -281.706079 
L 413.922019 -280.051965 
L 415.213091 -278.397852 
L 416.55226 -276.743738 
L 417.910634 -275.089624 
L 419.264343 -273.43551 
L 420.597171 -271.781397 
L 421.901038 -270.127283 
L 423.174232 -268.473169 
L 424.417664 -266.819056 
L 425.629704 -265.164942 
L 426.800641 -263.510828 
L 427.908505 -261.856714 
L 428.918429 -260.202601 
L 429.787294 -258.548487 
L 430.473771 -256.894373 
L 430.951285 -255.240259 
L 431.219189 -253.586146 
L 431.30703 -251.932032 
L 431.269116 -250.277918 
L 431.170746 -248.623805 
L 431.071284 -246.969691 
L 431.010539 -245.315577 
L 431.002996 -243.661463 
L 431.040547 -242.00735 
L 431.100649 -240.353236 
L 431.155156 -238.699122 
L 431.175956 -237.045008 
L 431.136184 -235.390895 
L 431.008578 -233.736781 
L 430.764056 -232.082667 
L 430.373239 -230.428554 
L 429.811688 -228.77444 
L 429.067147 -227.120326 
L 428.145333 -225.466212 
L 427.070861 -223.812099 
L 425.881987 -222.157985 
L 424.620947 -220.503871 
L 423.323986 -218.849757 
L 422.015393 -217.195644 
L 420.707772 -215.54153 
L 419.407685 -213.887416 
L 418.12326 -212.233303 
L 416.869623 -210.579189 
L 415.669422 -208.925075 
L 414.548374 -207.270961 
L 413.528333 -205.616848 
L 412.621442 -203.962734 
L 411.828118 -202.30862 
L 411.13945 -200.654506 
L 410.542465 -199.000393 
L 410.025599 -197.346279 
L 409.582033 -195.692165 
L 409.209865 -194.038052 
L 408.909624 -192.383938 
L 408.680559 -190.729824 
L 408.517278 -189.07571 
L 408.407828 -187.421597 
L 408.333649 -185.767483 
L 408.271411 -184.113369 
L 408.196454 -182.459255 
L 408.087319 -180.805142 
L 407.93038 -179.151028 
L 407.72321 -177.496914 
L 407.475339 -175.842801 
L 407.205779 -174.188687 
L 406.937951 -172.534573 
L 406.693724 -170.880459 
L 406.488607 -169.226346 
L 406.329522 -167.572232 
L 406.215348 -165.918118 
z
" id="m23819bd01a" style="stroke:#3d3d3d;stroke-width:1.5;"/>
    </defs>
    <g clip-path="url(#pf8684dabf7)">
     <use style="fill:#845b53;stroke:#3d3d3d;stroke-width:1.5;" x="0" xlink:href="#m23819bd01a" y="509.011262"/>
    </g>
   </g>
   <g id="PolyCollection_7">
    <defs>
     <path d="M 471.3617 -151.479806 
L 471.28755 -151.479806 
L 471.258835 -153.14648 
L 471.212909 -154.813153 
L 471.142946 -156.479826 
L 471.041534 -158.146499 
L 470.901911 -159.813172 
L 470.719757 -161.479846 
L 470.495189 -163.146519 
L 470.234316 -164.813192 
L 469.949555 -166.479865 
L 469.658091 -168.146538 
L 469.3785 -169.813212 
L 469.126315 -171.479885 
L 468.909874 -173.146558 
L 468.727863 -174.813231 
L 468.569279 -176.479904 
L 468.415669 -178.146578 
L 468.244655 -179.813251 
L 468.033515 -181.479924 
L 467.761843 -183.146597 
L 467.412969 -184.81327 
L 466.974347 -186.479943 
L 466.43749 -188.146617 
L 465.797958 -189.81329 
L 465.055745 -191.479963 
L 464.216042 -193.146636 
L 463.290146 -194.813309 
L 462.296063 -196.479983 
L 461.258297 -198.146656 
L 460.206347 -199.813329 
L 459.171588 -201.480002 
L 458.182659 -203.146675 
L 457.260053 -204.813349 
L 456.411358 -206.480022 
L 455.628835 -208.146695 
L 454.890679 -209.813368 
L 454.166109 -211.480041 
L 453.42304 -213.146715 
L 452.636084 -214.813388 
L 451.792615 -216.480061 
L 450.895505 -218.146734 
L 449.962431 -219.813407 
L 449.022709 -221.480081 
L 448.112939 -223.146754 
L 447.27254 -224.813427 
L 446.53966 -226.4801 
L 445.947558 -228.146773 
L 445.521344 -229.813447 
L 445.275166 -231.48012 
L 445.210225 -233.146793 
L 445.314347 -234.813466 
L 445.563807 -236.480139 
L 445.927626 -238.146813 
L 446.373583 -239.813486 
L 446.874329 -241.480159 
L 447.411674 -243.146832 
L 447.977746 -244.813505 
L 448.573047 -246.480179 
L 449.202757 -248.146852 
L 449.873277 -249.813525 
L 450.590628 -251.480198 
L 451.360991 -253.146871 
L 452.19223 -254.813545 
L 453.094422 -256.480218 
L 454.077787 -258.146891 
L 455.147847 -259.813564 
L 456.299528 -261.480237 
L 457.513053 -263.146911 
L 458.754315 -264.813584 
L 459.980617 -266.480257 
L 461.150225 -268.14693 
L 462.232239 -269.813603 
L 463.212981 -271.480277 
L 464.096634 -273.14695 
L 464.900339 -274.813623 
L 465.646151 -276.480296 
L 466.35309 -278.146969 
L 467.031902 -279.813643 
L 467.683546 -281.480316 
L 468.300893 -283.146989 
L 468.872213 -284.813662 
L 469.384963 -286.480335 
L 469.828875 -288.147009 
L 470.19791 -289.813682 
L 470.491087 -291.480355 
L 470.712399 -293.147028 
L 470.870065 -294.813701 
L 470.975362 -296.480375 
L 471.041207 -298.147048 
L 471.080643 -299.813721 
L 471.105383 -301.480394 
L 471.124627 -303.147067 
L 471.144346 -304.813741 
L 471.16721 -306.480414 
L 471.193155 -308.147087 
L 471.220381 -309.81376 
L 471.246486 -311.480433 
L 471.269387 -313.147106 
L 471.287847 -314.81378 
L 471.30158 -316.480453 
L 471.34767 -316.480453 
L 471.34767 -316.480453 
L 471.361403 -314.81378 
L 471.379863 -313.147106 
L 471.402764 -311.480433 
L 471.428869 -309.81376 
L 471.456095 -308.147087 
L 471.48204 -306.480414 
L 471.504904 -304.813741 
L 471.524623 -303.147067 
L 471.543867 -301.480394 
L 471.568607 -299.813721 
L 471.608043 -298.147048 
L 471.673888 -296.480375 
L 471.779185 -294.813701 
L 471.936851 -293.147028 
L 472.158163 -291.480355 
L 472.45134 -289.813682 
L 472.820375 -288.147009 
L 473.264287 -286.480335 
L 473.777037 -284.813662 
L 474.348357 -283.146989 
L 474.965704 -281.480316 
L 475.617348 -279.813643 
L 476.29616 -278.146969 
L 477.003099 -276.480296 
L 477.748911 -274.813623 
L 478.552616 -273.14695 
L 479.436269 -271.480277 
L 480.417011 -269.813603 
L 481.499025 -268.14693 
L 482.668633 -266.480257 
L 483.894935 -264.813584 
L 485.136197 -263.146911 
L 486.349722 -261.480237 
L 487.501403 -259.813564 
L 488.571463 -258.146891 
L 489.554828 -256.480218 
L 490.45702 -254.813545 
L 491.288259 -253.146871 
L 492.058622 -251.480198 
L 492.775973 -249.813525 
L 493.446493 -248.146852 
L 494.076203 -246.480179 
L 494.671504 -244.813505 
L 495.237576 -243.146832 
L 495.774921 -241.480159 
L 496.275667 -239.813486 
L 496.721624 -238.146813 
L 497.085443 -236.480139 
L 497.334903 -234.813466 
L 497.439025 -233.146793 
L 497.374084 -231.48012 
L 497.127906 -229.813447 
L 496.701692 -228.146773 
L 496.10959 -226.4801 
L 495.37671 -224.813427 
L 494.536311 -223.146754 
L 493.626541 -221.480081 
L 492.686819 -219.813407 
L 491.753745 -218.146734 
L 490.856635 -216.480061 
L 490.013166 -214.813388 
L 489.22621 -213.146715 
L 488.483141 -211.480041 
L 487.758571 -209.813368 
L 487.020415 -208.146695 
L 486.237892 -206.480022 
L 485.389197 -204.813349 
L 484.466591 -203.146675 
L 483.477662 -201.480002 
L 482.442903 -199.813329 
L 481.390953 -198.146656 
L 480.353187 -196.479983 
L 479.359104 -194.813309 
L 478.433208 -193.146636 
L 477.593505 -191.479963 
L 476.851292 -189.81329 
L 476.21176 -188.146617 
L 475.674903 -186.479943 
L 475.236281 -184.81327 
L 474.887407 -183.146597 
L 474.615735 -181.479924 
L 474.404595 -179.813251 
L 474.233581 -178.146578 
L 474.079971 -176.479904 
L 473.921387 -174.813231 
L 473.739376 -173.146558 
L 473.522935 -171.479885 
L 473.27075 -169.813212 
L 472.991159 -168.146538 
L 472.699695 -166.479865 
L 472.414934 -164.813192 
L 472.154061 -163.146519 
L 471.929493 -161.479846 
L 471.747339 -159.813172 
L 471.607716 -158.146499 
L 471.506304 -156.479826 
L 471.436341 -154.813153 
L 471.390415 -153.14648 
L 471.3617 -151.479806 
z
" id="m6522403bc9" style="stroke:#3d3d3d;stroke-width:1.5;"/>
    </defs>
    <g clip-path="url(#pf8684dabf7)">
     <use style="fill:#d684bd;stroke:#3d3d3d;stroke-width:1.5;" x="0" xlink:href="#m6522403bc9" y="509.011262"/>
    </g>
   </g>
   <g id="PolyCollection_8">
    <defs>
     <path d="M 536.633783 -137.423569 
L 536.587467 -137.423569 
L 536.571963 -139.234644 
L 536.549756 -141.04572 
L 536.519599 -142.856796 
L 536.479954 -144.667872 
L 536.428039 -146.478948 
L 536.358458 -148.290023 
L 536.262085 -150.101099 
L 536.126247 -151.912175 
L 535.937147 -153.723251 
L 535.684599 -155.534327 
L 535.367707 -157.345402 
L 534.998941 -159.156478 
L 534.603971 -160.967554 
L 534.216159 -162.77863 
L 533.867131 -164.589706 
L 533.577014 -166.400781 
L 533.348306 -168.211857 
L 533.16559 -170.022933 
L 533.000386 -171.834009 
L 532.818181 -173.645085 
L 532.584237 -175.45616 
L 532.266372 -177.267236 
L 531.835216 -179.078312 
L 531.264186 -180.889388 
L 530.531398 -182.700464 
L 529.624334 -184.511539 
L 528.545968 -186.322615 
L 527.319703 -188.133691 
L 525.99045 -189.944767 
L 524.620453 -191.755843 
L 523.280186 -193.566918 
L 522.036111 -195.377994 
L 520.937887 -197.18907 
L 520.008015 -199.000146 
L 519.236891 -200.811222 
L 518.58533 -202.622297 
L 517.99471 -204.433373 
L 517.402271 -206.244449 
L 516.757051 -208.055525 
L 516.031788 -209.866601 
L 515.227803 -211.677676 
L 514.372602 -213.488752 
L 513.512143 -215.299828 
L 512.700642 -217.110904 
L 511.99059 -218.92198 
L 511.424896 -220.733055 
L 511.032263 -222.544131 
L 510.826056 -224.355207 
L 510.806104 -226.166283 
L 510.962217 -227.977358 
L 511.278043 -229.788434 
L 511.734207 -231.59951 
L 512.310398 -233.410586 
L 512.986631 -235.221662 
L 513.744278 -237.032737 
L 514.567276 -238.843813 
L 515.443535 -240.654889 
L 516.36608 -242.465965 
L 517.333327 -244.277041 
L 518.347985 -246.088116 
L 519.41451 -247.899192 
L 520.535468 -249.710268 
L 521.707557 -251.521344 
L 522.918364 -253.33242 
L 524.145102 -255.143495 
L 525.356353 -256.954571 
L 526.517137 -258.765647 
L 527.596285 -260.576723 
L 528.573823 -262.387799 
L 529.445549 -264.198874 
L 530.222837 -266.00995 
L 530.92768 -267.821026 
L 531.584933 -269.632102 
L 532.214748 -271.443178 
L 532.827667 -273.254253 
L 533.423423 -275.065329 
L 533.992967 -276.876405 
L 534.52237 -278.687481 
L 534.997114 -280.498557 
L 535.405656 -282.309632 
L 535.741632 -284.120708 
L 536.004505 -285.931784 
L 536.198868 -287.74286 
L 536.332927 -289.553936 
L 536.416821 -291.365011 
L 536.461307 -293.176087 
L 536.477015 -294.987163 
L 536.474117 -296.798239 
L 536.462086 -298.609315 
L 536.449232 -300.42039 
L 536.441979 -302.231466 
L 536.444138 -304.042542 
L 536.456552 -305.853618 
L 536.477402 -307.664694 
L 536.503142 -309.475769 
L 536.529764 -311.286845 
L 536.553913 -313.097921 
L 536.573548 -314.908997 
L 536.588031 -316.720073 
L 536.633219 -316.720073 
L 536.633219 -316.720073 
L 536.647702 -314.908997 
L 536.667337 -313.097921 
L 536.691486 -311.286845 
L 536.718108 -309.475769 
L 536.743848 -307.664694 
L 536.764698 -305.853618 
L 536.777112 -304.042542 
L 536.779271 -302.231466 
L 536.772018 -300.42039 
L 536.759164 -298.609315 
L 536.747133 -296.798239 
L 536.744235 -294.987163 
L 536.759943 -293.176087 
L 536.804429 -291.365011 
L 536.888323 -289.553936 
L 537.022382 -287.74286 
L 537.216745 -285.931784 
L 537.479618 -284.120708 
L 537.815594 -282.309632 
L 538.224136 -280.498557 
L 538.69888 -278.687481 
L 539.228283 -276.876405 
L 539.797827 -275.065329 
L 540.393583 -273.254253 
L 541.006502 -271.443178 
L 541.636317 -269.632102 
L 542.29357 -267.821026 
L 542.998413 -266.00995 
L 543.775701 -264.198874 
L 544.647427 -262.387799 
L 545.624965 -260.576723 
L 546.704113 -258.765647 
L 547.864897 -256.954571 
L 549.076148 -255.143495 
L 550.302886 -253.33242 
L 551.513693 -251.521344 
L 552.685782 -249.710268 
L 553.80674 -247.899192 
L 554.873265 -246.088116 
L 555.887923 -244.277041 
L 556.85517 -242.465965 
L 557.777715 -240.654889 
L 558.653974 -238.843813 
L 559.476972 -237.032737 
L 560.234619 -235.221662 
L 560.910852 -233.410586 
L 561.487043 -231.59951 
L 561.943207 -229.788434 
L 562.259033 -227.977358 
L 562.415146 -226.166283 
L 562.395194 -224.355207 
L 562.188987 -222.544131 
L 561.796354 -220.733055 
L 561.23066 -218.92198 
L 560.520608 -217.110904 
L 559.709107 -215.299828 
L 558.848648 -213.488752 
L 557.993447 -211.677676 
L 557.189462 -209.866601 
L 556.464199 -208.055525 
L 555.818979 -206.244449 
L 555.22654 -204.433373 
L 554.63592 -202.622297 
L 553.984359 -200.811222 
L 553.213235 -199.000146 
L 552.283363 -197.18907 
L 551.185139 -195.377994 
L 549.941064 -193.566918 
L 548.600797 -191.755843 
L 547.2308 -189.944767 
L 545.901547 -188.133691 
L 544.675282 -186.322615 
L 543.596916 -184.511539 
L 542.689852 -182.700464 
L 541.957064 -180.889388 
L 541.386034 -179.078312 
L 540.954878 -177.267236 
L 540.637013 -175.45616 
L 540.403069 -173.645085 
L 540.220864 -171.834009 
L 540.05566 -170.022933 
L 539.872944 -168.211857 
L 539.644236 -166.400781 
L 539.354119 -164.589706 
L 539.005091 -162.77863 
L 538.617279 -160.967554 
L 538.222309 -159.156478 
L 537.853543 -157.345402 
L 537.536651 -155.534327 
L 537.284103 -153.723251 
L 537.095003 -151.912175 
L 536.959165 -150.101099 
L 536.862792 -148.290023 
L 536.793211 -146.478948 
L 536.741296 -144.667872 
L 536.701651 -142.856796 
L 536.671494 -141.04572 
L 536.649287 -139.234644 
L 536.633783 -137.423569 
z
" id="m38316737ff" style="stroke:#3d3d3d;stroke-width:1.5;"/>
    </defs>
    <g clip-path="url(#pf8684dabf7)">
     <use style="fill:#7f7f7f;stroke:#3d3d3d;stroke-width:1.5;" x="0" xlink:href="#m38316737ff" y="509.011262"/>
    </g>
   </g>
   <g id="PolyCollection_9">
    <defs>
     <path d="M 601.922661 -123.310911 
L 601.870589 -123.310911 
L 601.851389 -125.197748 
L 601.822584 -127.084586 
L 601.782072 -128.971423 
L 601.72841 -130.85826 
L 601.661044 -132.745097 
L 601.580196 -134.631935 
L 601.486352 -136.518772 
L 601.379451 -138.405609 
L 601.25801 -140.292447 
L 601.118553 -142.179284 
L 600.955738 -144.066121 
L 600.763476 -145.952958 
L 600.536975 -147.839796 
L 600.275121 -149.726633 
L 599.982087 -151.61347 
L 599.666988 -153.500308 
L 599.341022 -155.387145 
L 599.012823 -157.273982 
L 598.683907 -159.16082 
L 598.346448 -161.047657 
L 597.984604 -162.934494 
L 597.578841 -164.821331 
L 597.111076 -166.708169 
L 596.568219 -168.595006 
L 595.942777 -170.481843 
L 595.231078 -172.368681 
L 594.431012 -174.255518 
L 593.541316 -176.142355 
L 592.563305 -178.029193 
L 591.504418 -179.91603 
L 590.381758 -181.802867 
L 589.223602 -183.689704 
L 588.067354 -185.576542 
L 586.953564 -187.463379 
L 585.91695 -189.350216 
L 584.97687 -191.237054 
L 584.13079 -193.123891 
L 583.354243 -195.010728 
L 582.608921 -196.897565 
L 581.857111 -198.784403 
L 581.077348 -200.67124 
L 580.274971 -202.558077 
L 579.483128 -204.444915 
L 578.753843 -206.331752 
L 578.142735 -208.218589 
L 577.693025 -210.105427 
L 577.424048 -211.992264 
L 577.327487 -213.879101 
L 577.372087 -215.765938 
L 577.515158 -217.652776 
L 577.717089 -219.539613 
L 577.95383 -221.42645 
L 578.222805 -223.313288 
L 578.540395 -225.200125 
L 578.93287 -227.086962 
L 579.425656 -228.973799 
L 580.035998 -230.860637 
L 580.771578 -232.747474 
L 581.633781 -234.634311 
L 582.621811 -236.521149 
L 583.733924 -238.407986 
L 584.964661 -240.294823 
L 586.299949 -242.181661 
L 587.71358 -244.068498 
L 589.16775 -245.955335 
L 590.617875 -247.842172 
L 592.019545 -249.72901 
L 593.334663 -251.615847 
L 594.534864 -253.502684 
L 595.60223 -255.389522 
L 596.528681 -257.276359 
L 597.315504 -259.163196 
L 597.973347 -261.050034 
L 598.521701 -262.936871 
L 598.986459 -264.823708 
L 599.39495 -266.710545 
L 599.76962 -268.597383 
L 600.122813 -270.48422 
L 600.455138 -272.371057 
L 600.758248 -274.257895 
L 601.020678 -276.144732 
L 601.233889 -278.031569 
L 601.395861 -279.918406 
L 601.511203 -281.805244 
L 601.588627 -283.692081 
L 601.637752 -285.578918 
L 601.666951 -287.465756 
L 601.682846 -289.352593 
L 601.690916 -291.23943 
L 601.69617 -293.126268 
L 601.703171 -295.013105 
L 601.715355 -296.899942 
L 601.734209 -298.786779 
L 601.758946 -300.673617 
L 601.786969 -302.560454 
L 601.814921 -304.447291 
L 601.839824 -306.334129 
L 601.859839 -308.220966 
L 601.874452 -310.107803 
L 601.918798 -310.107803 
L 601.918798 -310.107803 
L 601.933411 -308.220966 
L 601.953426 -306.334129 
L 601.978329 -304.447291 
L 602.006281 -302.560454 
L 602.034304 -300.673617 
L 602.059041 -298.786779 
L 602.077895 -296.899942 
L 602.090079 -295.013105 
L 602.09708 -293.126268 
L 602.102334 -291.23943 
L 602.110404 -289.352593 
L 602.126299 -287.465756 
L 602.155498 -285.578918 
L 602.204623 -283.692081 
L 602.282047 -281.805244 
L 602.397389 -279.918406 
L 602.559361 -278.031569 
L 602.772572 -276.144732 
L 603.035002 -274.257895 
L 603.338112 -272.371057 
L 603.670437 -270.48422 
L 604.02363 -268.597383 
L 604.3983 -266.710545 
L 604.806791 -264.823708 
L 605.271549 -262.936871 
L 605.819903 -261.050034 
L 606.477746 -259.163196 
L 607.264569 -257.276359 
L 608.19102 -255.389522 
L 609.258386 -253.502684 
L 610.458587 -251.615847 
L 611.773705 -249.72901 
L 613.175375 -247.842172 
L 614.6255 -245.955335 
L 616.07967 -244.068498 
L 617.493301 -242.181661 
L 618.828589 -240.294823 
L 620.059326 -238.407986 
L 621.171439 -236.521149 
L 622.159469 -234.634311 
L 623.021672 -232.747474 
L 623.757252 -230.860637 
L 624.367594 -228.973799 
L 624.86038 -227.086962 
L 625.252855 -225.200125 
L 625.570445 -223.313288 
L 625.83942 -221.42645 
L 626.076161 -219.539613 
L 626.278092 -217.652776 
L 626.421163 -215.765938 
L 626.465763 -213.879101 
L 626.369202 -211.992264 
L 626.100225 -210.105427 
L 625.650515 -208.218589 
L 625.039407 -206.331752 
L 624.310122 -204.444915 
L 623.518279 -202.558077 
L 622.715902 -200.67124 
L 621.936139 -198.784403 
L 621.184329 -196.897565 
L 620.439007 -195.010728 
L 619.66246 -193.123891 
L 618.81638 -191.237054 
L 617.8763 -189.350216 
L 616.839686 -187.463379 
L 615.725896 -185.576542 
L 614.569648 -183.689704 
L 613.411492 -181.802867 
L 612.288832 -179.91603 
L 611.229945 -178.029193 
L 610.251934 -176.142355 
L 609.362238 -174.255518 
L 608.562172 -172.368681 
L 607.850473 -170.481843 
L 607.225031 -168.595006 
L 606.682174 -166.708169 
L 606.214409 -164.821331 
L 605.808646 -162.934494 
L 605.446802 -161.047657 
L 605.109343 -159.16082 
L 604.780427 -157.273982 
L 604.452228 -155.387145 
L 604.126262 -153.500308 
L 603.811163 -151.61347 
L 603.518129 -149.726633 
L 603.256275 -147.839796 
L 603.029774 -145.952958 
L 602.837512 -144.066121 
L 602.674697 -142.179284 
L 602.53524 -140.292447 
L 602.413799 -138.405609 
L 602.306898 -136.518772 
L 602.213054 -134.631935 
L 602.132206 -132.745097 
L 602.06484 -130.85826 
L 602.011178 -128.971423 
L 601.970666 -127.084586 
L 601.941861 -125.197748 
L 601.922661 -123.310911 
z
" id="mec453840f0" style="stroke:#3d3d3d;stroke-width:1.5;"/>
    </defs>
    <g clip-path="url(#pf8684dabf7)">
     <use style="fill:#a9aa35;stroke:#3d3d3d;stroke-width:1.5;" x="0" xlink:href="#mec453840f0" y="509.011262"/>
    </g>
   </g>
   <g id="PolyCollection_10">
    <defs>
     <path d="M 667.254317 -107.845328 
L 667.110933 -107.845328 
L 667.067667 -109.625916 
L 667.006063 -111.406504 
L 666.922404 -113.187092 
L 666.813806 -114.967679 
L 666.678662 -116.748267 
L 666.516832 -118.528855 
L 666.329488 -120.309443 
L 666.11864 -122.090031 
L 665.886485 -123.870619 
L 665.634815 -125.651207 
L 665.364713 -127.431795 
L 665.076672 -129.212383 
L 664.771147 -130.992971 
L 664.449333 -132.773559 
L 664.113865 -134.554147 
L 663.769057 -136.334735 
L 663.420404 -138.115322 
L 663.073282 -139.89591 
L 662.731106 -141.676498 
L 662.393482 -143.457086 
L 662.055046 -145.237674 
L 661.705546 -147.018262 
L 661.331346 -148.79885 
L 660.918073 -150.579438 
L 660.453668 -152.360026 
L 659.931001 -154.140614 
L 659.349363 -155.921202 
L 658.714556 -157.70179 
L 658.037745 -159.482378 
L 657.333519 -161.262965 
L 656.617717 -163.043553 
L 655.905396 -164.824141 
L 655.209175 -166.604729 
L 654.538004 -168.385317 
L 653.896362 -170.165905 
L 653.283905 -171.946493 
L 652.69568 -173.727081 
L 652.122989 -175.507669 
L 651.554969 -177.288257 
L 650.980767 -179.068845 
L 650.392039 -180.849433 
L 649.785295 -182.630021 
L 649.163547 -184.410608 
L 648.536749 -186.191196 
L 647.920753 -187.971784 
L 647.334851 -189.752372 
L 646.798413 -191.53296 
L 646.32744 -193.313548 
L 645.931987 -195.094136 
L 645.615196 -196.874724 
L 645.374269 -198.655312 
L 645.203094 -200.4359 
L 645.095739 -202.216488 
L 645.049657 -203.997076 
L 645.067488 -205.777664 
L 645.156726 -207.558251 
L 645.327239 -209.338839 
L 645.587475 -211.119427 
L 645.940856 -212.900015 
L 646.383947 -214.680603 
L 646.907403 -216.461191 
L 647.499541 -218.241779 
L 648.15114 -220.022367 
L 648.859359 -221.802955 
L 649.628897 -223.583543 
L 650.469656 -225.364131 
L 651.391665 -227.144719 
L 652.399199 -228.925307 
L 653.486312 -230.705894 
L 654.635311 -232.486482 
L 655.818432 -234.26707 
L 657.001865 -236.047658 
L 658.150644 -237.828246 
L 659.233097 -239.608834 
L 660.224096 -241.389422 
L 661.107018 -243.17001 
L 661.874617 -244.950598 
L 662.529007 -246.731186 
L 663.080756 -248.511774 
L 663.546959 -250.292362 
L 663.948299 -252.07295 
L 664.305499 -253.853537 
L 664.635871 -255.634125 
L 664.950855 -257.414713 
L 665.255158 -259.195301 
L 665.547607 -260.975889 
L 665.823248 -262.756477 
L 666.075905 -264.537065 
L 666.300361 -266.317653 
L 666.493652 -268.098241 
L 666.655374 -269.878829 
L 666.787251 -271.659417 
L 666.892357 -273.440005 
L 666.974349 -275.220593 
L 667.036933 -277.00118 
L 667.083571 -278.781768 
L 667.117382 -280.562356 
L 667.141127 -282.342944 
L 667.15721 -284.123532 
L 667.20804 -284.123532 
L 667.20804 -284.123532 
L 667.224123 -282.342944 
L 667.247868 -280.562356 
L 667.281679 -278.781768 
L 667.328317 -277.00118 
L 667.390901 -275.220593 
L 667.472893 -273.440005 
L 667.577999 -271.659417 
L 667.709876 -269.878829 
L 667.871598 -268.098241 
L 668.064889 -266.317653 
L 668.289345 -264.537065 
L 668.542002 -262.756477 
L 668.817643 -260.975889 
L 669.110092 -259.195301 
L 669.414395 -257.414713 
L 669.729379 -255.634125 
L 670.059751 -253.853537 
L 670.416951 -252.07295 
L 670.818291 -250.292362 
L 671.284494 -248.511774 
L 671.836243 -246.731186 
L 672.490633 -244.950598 
L 673.258232 -243.17001 
L 674.141154 -241.389422 
L 675.132153 -239.608834 
L 676.214606 -237.828246 
L 677.363385 -236.047658 
L 678.546818 -234.26707 
L 679.729939 -232.486482 
L 680.878938 -230.705894 
L 681.966051 -228.925307 
L 682.973585 -227.144719 
L 683.895594 -225.364131 
L 684.736353 -223.583543 
L 685.505891 -221.802955 
L 686.21411 -220.022367 
L 686.865709 -218.241779 
L 687.457847 -216.461191 
L 687.981303 -214.680603 
L 688.424394 -212.900015 
L 688.777775 -211.119427 
L 689.038011 -209.338839 
L 689.208524 -207.558251 
L 689.297762 -205.777664 
L 689.315593 -203.997076 
L 689.269511 -202.216488 
L 689.162156 -200.4359 
L 688.990981 -198.655312 
L 688.750054 -196.874724 
L 688.433263 -195.094136 
L 688.03781 -193.313548 
L 687.566837 -191.53296 
L 687.030399 -189.752372 
L 686.444497 -187.971784 
L 685.828501 -186.191196 
L 685.201703 -184.410608 
L 684.579955 -182.630021 
L 683.973211 -180.849433 
L 683.384483 -179.068845 
L 682.810281 -177.288257 
L 682.242261 -175.507669 
L 681.66957 -173.727081 
L 681.081345 -171.946493 
L 680.468888 -170.165905 
L 679.827246 -168.385317 
L 679.156075 -166.604729 
L 678.459854 -164.824141 
L 677.747533 -163.043553 
L 677.031731 -161.262965 
L 676.327505 -159.482378 
L 675.650694 -157.70179 
L 675.015887 -155.921202 
L 674.434249 -154.140614 
L 673.911582 -152.360026 
L 673.447177 -150.579438 
L 673.033904 -148.79885 
L 672.659704 -147.018262 
L 672.310204 -145.237674 
L 671.971768 -143.457086 
L 671.634144 -141.676498 
L 671.291968 -139.89591 
L 670.944846 -138.115322 
L 670.596193 -136.334735 
L 670.251385 -134.554147 
L 669.915917 -132.773559 
L 669.594103 -130.992971 
L 669.288578 -129.212383 
L 669.000537 -127.431795 
L 668.730435 -125.651207 
L 668.478765 -123.870619 
L 668.24661 -122.090031 
L 668.035762 -120.309443 
L 667.848418 -118.528855 
L 667.686588 -116.748267 
L 667.551444 -114.967679 
L 667.442846 -113.187092 
L 667.359187 -111.406504 
L 667.297583 -109.625916 
L 667.254317 -107.845328 
z
" id="m3eb7612414" style="stroke:#3d3d3d;stroke-width:1.5;"/>
    </defs>
    <g clip-path="url(#pf8684dabf7)">
     <use style="fill:#2eabb8;stroke:#3d3d3d;stroke-width:1.5;" x="0" xlink:href="#m3eb7612414" y="509.011262"/>
    </g>
   </g>
   <g id="matplotlib.axis_1">
    <g id="xtick_1">
     <g id="line2d_1">
      <defs>
       <path d="M 0 0 
L 0 3.5 
" id="mb062527c5d" style="stroke:#000000;stroke-width:0.8;"/>
      </defs>
      <g>
       <use style="stroke:#000000;stroke-width:0.8;" x="79.608625" xlink:href="#mb062527c5d" y="460.2572"/>
      </g>
     </g>
     <g id="text_1">
      <!-- Offense -->
      <defs>
       <path d="M 39.40625 66.21875 
Q 28.65625 66.21875 22.328125 58.203125 
Q 16.015625 50.203125 16.015625 36.375 
Q 16.015625 22.609375 22.328125 14.59375 
Q 28.65625 6.59375 39.40625 6.59375 
Q 50.140625 6.59375 56.421875 14.59375 
Q 62.703125 22.609375 62.703125 36.375 
Q 62.703125 50.203125 56.421875 58.203125 
Q 50.140625 66.21875 39.40625 66.21875 
z
M 39.40625 74.21875 
Q 54.734375 74.21875 63.90625 63.9375 
Q 73.09375 53.65625 73.09375 36.375 
Q 73.09375 19.140625 63.90625 8.859375 
Q 54.734375 -1.421875 39.40625 -1.421875 
Q 24.03125 -1.421875 14.8125 8.828125 
Q 5.609375 19.09375 5.609375 36.375 
Q 5.609375 53.65625 14.8125 63.9375 
Q 24.03125 74.21875 39.40625 74.21875 
z
" id="DejaVuSans-79"/>
       <path d="M 37.109375 75.984375 
L 37.109375 68.5 
L 28.515625 68.5 
Q 23.6875 68.5 21.796875 66.546875 
Q 19.921875 64.59375 19.921875 59.515625 
L 19.921875 54.6875 
L 34.71875 54.6875 
L 34.71875 47.703125 
L 19.921875 47.703125 
L 19.921875 0 
L 10.890625 0 
L 10.890625 47.703125 
L 2.296875 47.703125 
L 2.296875 54.6875 
L 10.890625 54.6875 
L 10.890625 58.5 
Q 10.890625 67.625 15.140625 71.796875 
Q 19.390625 75.984375 28.609375 75.984375 
z
" id="DejaVuSans-102"/>
       <path d="M 56.203125 29.59375 
L 56.203125 25.203125 
L 14.890625 25.203125 
Q 15.484375 15.921875 20.484375 11.0625 
Q 25.484375 6.203125 34.421875 6.203125 
Q 39.59375 6.203125 44.453125 7.46875 
Q 49.3125 8.734375 54.109375 11.28125 
L 54.109375 2.78125 
Q 49.265625 0.734375 44.1875 -0.34375 
Q 39.109375 -1.421875 33.890625 -1.421875 
Q 20.796875 -1.421875 13.15625 6.1875 
Q 5.515625 13.8125 5.515625 26.8125 
Q 5.515625 40.234375 12.765625 48.109375 
Q 20.015625 56 32.328125 56 
Q 43.359375 56 49.78125 48.890625 
Q 56.203125 41.796875 56.203125 29.59375 
z
M 47.21875 32.234375 
Q 47.125 39.59375 43.09375 43.984375 
Q 39.0625 48.390625 32.421875 48.390625 
Q 24.90625 48.390625 20.390625 44.140625 
Q 15.875 39.890625 15.1875 32.171875 
z
" id="DejaVuSans-101"/>
       <path d="M 54.890625 33.015625 
L 54.890625 0 
L 45.90625 0 
L 45.90625 32.71875 
Q 45.90625 40.484375 42.875 44.328125 
Q 39.84375 48.1875 33.796875 48.1875 
Q 26.515625 48.1875 22.3125 43.546875 
Q 18.109375 38.921875 18.109375 30.90625 
L 18.109375 0 
L 9.078125 0 
L 9.078125 54.6875 
L 18.109375 54.6875 
L 18.109375 46.1875 
Q 21.34375 51.125 25.703125 53.5625 
Q 30.078125 56 35.796875 56 
Q 45.21875 56 50.046875 50.171875 
Q 54.890625 44.34375 54.890625 33.015625 
z
" id="DejaVuSans-110"/>
       <path d="M 44.28125 53.078125 
L 44.28125 44.578125 
Q 40.484375 46.53125 36.375 47.5 
Q 32.28125 48.484375 27.875 48.484375 
Q 21.1875 48.484375 17.84375 46.4375 
Q 14.5 44.390625 14.5 40.28125 
Q 14.5 37.15625 16.890625 35.375 
Q 19.28125 33.59375 26.515625 31.984375 
L 29.59375 31.296875 
Q 39.15625 29.25 43.1875 25.515625 
Q 47.21875 21.78125 47.21875 15.09375 
Q 47.21875 7.46875 41.1875 3.015625 
Q 35.15625 -1.421875 24.609375 -1.421875 
Q 20.21875 -1.421875 15.453125 -0.5625 
Q 10.6875 0.296875 5.421875 2 
L 5.421875 11.28125 
Q 10.40625 8.6875 15.234375 7.390625 
Q 20.0625 6.109375 24.8125 6.109375 
Q 31.15625 6.109375 34.5625 8.28125 
Q 37.984375 10.453125 37.984375 14.40625 
Q 37.984375 18.0625 35.515625 20.015625 
Q 33.0625 21.96875 24.703125 23.78125 
L 21.578125 24.515625 
Q 13.234375 26.265625 9.515625 29.90625 
Q 5.8125 33.546875 5.8125 39.890625 
Q 5.8125 47.609375 11.28125 51.796875 
Q 16.75 56 26.8125 56 
Q 31.78125 56 36.171875 55.265625 
Q 40.578125 54.546875 44.28125 53.078125 
z
" id="DejaVuSans-115"/>
      </defs>
      <g transform="translate(60.225813 474.855637)scale(0.1 -0.1)">
       <use xlink:href="#DejaVuSans-79"/>
       <use x="78.710938" xlink:href="#DejaVuSans-102"/>
       <use x="113.916016" xlink:href="#DejaVuSans-102"/>
       <use x="149.121094" xlink:href="#DejaVuSans-101"/>
       <use x="210.644531" xlink:href="#DejaVuSans-110"/>
       <use x="274.023438" xlink:href="#DejaVuSans-115"/>
       <use x="326.123047" xlink:href="#DejaVuSans-101"/>
      </g>
      <!--  Player 1 -->
      <defs>
       <path id="DejaVuSans-32"/>
       <path d="M 19.671875 64.796875 
L 19.671875 37.40625 
L 32.078125 37.40625 
Q 38.96875 37.40625 42.71875 40.96875 
Q 46.484375 44.53125 46.484375 51.125 
Q 46.484375 57.671875 42.71875 61.234375 
Q 38.96875 64.796875 32.078125 64.796875 
z
M 9.8125 72.90625 
L 32.078125 72.90625 
Q 44.34375 72.90625 50.609375 67.359375 
Q 56.890625 61.8125 56.890625 51.125 
Q 56.890625 40.328125 50.609375 34.8125 
Q 44.34375 29.296875 32.078125 29.296875 
L 19.671875 29.296875 
L 19.671875 0 
L 9.8125 0 
z
" id="DejaVuSans-80"/>
       <path d="M 9.421875 75.984375 
L 18.40625 75.984375 
L 18.40625 0 
L 9.421875 0 
z
" id="DejaVuSans-108"/>
       <path d="M 34.28125 27.484375 
Q 23.390625 27.484375 19.1875 25 
Q 14.984375 22.515625 14.984375 16.5 
Q 14.984375 11.71875 18.140625 8.90625 
Q 21.296875 6.109375 26.703125 6.109375 
Q 34.1875 6.109375 38.703125 11.40625 
Q 43.21875 16.703125 43.21875 25.484375 
L 43.21875 27.484375 
z
M 52.203125 31.203125 
L 52.203125 0 
L 43.21875 0 
L 43.21875 8.296875 
Q 40.140625 3.328125 35.546875 0.953125 
Q 30.953125 -1.421875 24.3125 -1.421875 
Q 15.921875 -1.421875 10.953125 3.296875 
Q 6 8.015625 6 15.921875 
Q 6 25.140625 12.171875 29.828125 
Q 18.359375 34.515625 30.609375 34.515625 
L 43.21875 34.515625 
L 43.21875 35.40625 
Q 43.21875 41.609375 39.140625 45 
Q 35.0625 48.390625 27.6875 48.390625 
Q 23 48.390625 18.546875 47.265625 
Q 14.109375 46.140625 10.015625 43.890625 
L 10.015625 52.203125 
Q 14.9375 54.109375 19.578125 55.046875 
Q 24.21875 56 28.609375 56 
Q 40.484375 56 46.34375 49.84375 
Q 52.203125 43.703125 52.203125 31.203125 
z
" id="DejaVuSans-97"/>
       <path d="M 32.171875 -5.078125 
Q 28.375 -14.84375 24.75 -17.8125 
Q 21.140625 -20.796875 15.09375 -20.796875 
L 7.90625 -20.796875 
L 7.90625 -13.28125 
L 13.1875 -13.28125 
Q 16.890625 -13.28125 18.9375 -11.515625 
Q 21 -9.765625 23.484375 -3.21875 
L 25.09375 0.875 
L 2.984375 54.6875 
L 12.5 54.6875 
L 29.59375 11.921875 
L 46.6875 54.6875 
L 56.203125 54.6875 
z
" id="DejaVuSans-121"/>
       <path d="M 41.109375 46.296875 
Q 39.59375 47.171875 37.8125 47.578125 
Q 36.03125 48 33.890625 48 
Q 26.265625 48 22.1875 43.046875 
Q 18.109375 38.09375 18.109375 28.8125 
L 18.109375 0 
L 9.078125 0 
L 9.078125 54.6875 
L 18.109375 54.6875 
L 18.109375 46.1875 
Q 20.953125 51.171875 25.484375 53.578125 
Q 30.03125 56 36.53125 56 
Q 37.453125 56 38.578125 55.875 
Q 39.703125 55.765625 41.0625 55.515625 
z
" id="DejaVuSans-114"/>
       <path d="M 12.40625 8.296875 
L 28.515625 8.296875 
L 28.515625 63.921875 
L 10.984375 60.40625 
L 10.984375 69.390625 
L 28.421875 72.90625 
L 38.28125 72.90625 
L 38.28125 8.296875 
L 54.390625 8.296875 
L 54.390625 0 
L 12.40625 0 
z
" id="DejaVuSans-49"/>
      </defs>
      <g transform="translate(57.689875 486.05345)scale(0.1 -0.1)">
       <use xlink:href="#DejaVuSans-32"/>
       <use x="31.787109" xlink:href="#DejaVuSans-80"/>
       <use x="92.089844" xlink:href="#DejaVuSans-108"/>
       <use x="119.873047" xlink:href="#DejaVuSans-97"/>
       <use x="181.152344" xlink:href="#DejaVuSans-121"/>
       <use x="240.332031" xlink:href="#DejaVuSans-101"/>
       <use x="301.855469" xlink:href="#DejaVuSans-114"/>
       <use x="342.96875" xlink:href="#DejaVuSans-32"/>
       <use x="374.755859" xlink:href="#DejaVuSans-49"/>
      </g>
     </g>
    </g>
    <g id="xtick_2">
     <g id="line2d_2">
      <g>
       <use style="stroke:#000000;stroke-width:0.8;" x="144.894625" xlink:href="#mb062527c5d" y="460.2572"/>
      </g>
     </g>
     <g id="text_2">
      <!-- Offense -->
      <g transform="translate(125.511813 474.855637)scale(0.1 -0.1)">
       <use xlink:href="#DejaVuSans-79"/>
       <use x="78.710938" xlink:href="#DejaVuSans-102"/>
       <use x="113.916016" xlink:href="#DejaVuSans-102"/>
       <use x="149.121094" xlink:href="#DejaVuSans-101"/>
       <use x="210.644531" xlink:href="#DejaVuSans-110"/>
       <use x="274.023438" xlink:href="#DejaVuSans-115"/>
       <use x="326.123047" xlink:href="#DejaVuSans-101"/>
      </g>
      <!--  Player 2 -->
      <defs>
       <path d="M 19.1875 8.296875 
L 53.609375 8.296875 
L 53.609375 0 
L 7.328125 0 
L 7.328125 8.296875 
Q 12.9375 14.109375 22.625 23.890625 
Q 32.328125 33.6875 34.8125 36.53125 
Q 39.546875 41.84375 41.421875 45.53125 
Q 43.3125 49.21875 43.3125 52.78125 
Q 43.3125 58.59375 39.234375 62.25 
Q 35.15625 65.921875 28.609375 65.921875 
Q 23.96875 65.921875 18.8125 64.3125 
Q 13.671875 62.703125 7.8125 59.421875 
L 7.8125 69.390625 
Q 13.765625 71.78125 18.9375 73 
Q 24.125 74.21875 28.421875 74.21875 
Q 39.75 74.21875 46.484375 68.546875 
Q 53.21875 62.890625 53.21875 53.421875 
Q 53.21875 48.921875 51.53125 44.890625 
Q 49.859375 40.875 45.40625 35.40625 
Q 44.1875 33.984375 37.640625 27.21875 
Q 31.109375 20.453125 19.1875 8.296875 
z
" id="DejaVuSans-50"/>
      </defs>
      <g transform="translate(122.975875 486.05345)scale(0.1 -0.1)">
       <use xlink:href="#DejaVuSans-32"/>
       <use x="31.787109" xlink:href="#DejaVuSans-80"/>
       <use x="92.089844" xlink:href="#DejaVuSans-108"/>
       <use x="119.873047" xlink:href="#DejaVuSans-97"/>
       <use x="181.152344" xlink:href="#DejaVuSans-121"/>
       <use x="240.332031" xlink:href="#DejaVuSans-101"/>
       <use x="301.855469" xlink:href="#DejaVuSans-114"/>
       <use x="342.96875" xlink:href="#DejaVuSans-32"/>
       <use x="374.755859" xlink:href="#DejaVuSans-50"/>
      </g>
     </g>
    </g>
    <g id="xtick_3">
     <g id="line2d_3">
      <g>
       <use style="stroke:#000000;stroke-width:0.8;" x="210.180625" xlink:href="#mb062527c5d" y="460.2572"/>
      </g>
     </g>
     <g id="text_3">
      <!-- Offense -->
      <g transform="translate(190.797812 474.855637)scale(0.1 -0.1)">
       <use xlink:href="#DejaVuSans-79"/>
       <use x="78.710938" xlink:href="#DejaVuSans-102"/>
       <use x="113.916016" xlink:href="#DejaVuSans-102"/>
       <use x="149.121094" xlink:href="#DejaVuSans-101"/>
       <use x="210.644531" xlink:href="#DejaVuSans-110"/>
       <use x="274.023438" xlink:href="#DejaVuSans-115"/>
       <use x="326.123047" xlink:href="#DejaVuSans-101"/>
      </g>
      <!--  Player 3 -->
      <defs>
       <path d="M 40.578125 39.3125 
Q 47.65625 37.796875 51.625 33 
Q 55.609375 28.21875 55.609375 21.1875 
Q 55.609375 10.40625 48.1875 4.484375 
Q 40.765625 -1.421875 27.09375 -1.421875 
Q 22.515625 -1.421875 17.65625 -0.515625 
Q 12.796875 0.390625 7.625 2.203125 
L 7.625 11.71875 
Q 11.71875 9.328125 16.59375 8.109375 
Q 21.484375 6.890625 26.8125 6.890625 
Q 36.078125 6.890625 40.9375 10.546875 
Q 45.796875 14.203125 45.796875 21.1875 
Q 45.796875 27.640625 41.28125 31.265625 
Q 36.765625 34.90625 28.71875 34.90625 
L 20.21875 34.90625 
L 20.21875 43.015625 
L 29.109375 43.015625 
Q 36.375 43.015625 40.234375 45.921875 
Q 44.09375 48.828125 44.09375 54.296875 
Q 44.09375 59.90625 40.109375 62.90625 
Q 36.140625 65.921875 28.71875 65.921875 
Q 24.65625 65.921875 20.015625 65.03125 
Q 15.375 64.15625 9.8125 62.3125 
L 9.8125 71.09375 
Q 15.4375 72.65625 20.34375 73.4375 
Q 25.25 74.21875 29.59375 74.21875 
Q 40.828125 74.21875 47.359375 69.109375 
Q 53.90625 64.015625 53.90625 55.328125 
Q 53.90625 49.265625 50.4375 45.09375 
Q 46.96875 40.921875 40.578125 39.3125 
z
" id="DejaVuSans-51"/>
      </defs>
      <g transform="translate(188.261875 486.05345)scale(0.1 -0.1)">
       <use xlink:href="#DejaVuSans-32"/>
       <use x="31.787109" xlink:href="#DejaVuSans-80"/>
       <use x="92.089844" xlink:href="#DejaVuSans-108"/>
       <use x="119.873047" xlink:href="#DejaVuSans-97"/>
       <use x="181.152344" xlink:href="#DejaVuSans-121"/>
       <use x="240.332031" xlink:href="#DejaVuSans-101"/>
       <use x="301.855469" xlink:href="#DejaVuSans-114"/>
       <use x="342.96875" xlink:href="#DejaVuSans-32"/>
       <use x="374.755859" xlink:href="#DejaVuSans-51"/>
      </g>
     </g>
    </g>
    <g id="xtick_4">
     <g id="line2d_4">
      <g>
       <use style="stroke:#000000;stroke-width:0.8;" x="275.466625" xlink:href="#mb062527c5d" y="460.2572"/>
      </g>
     </g>
     <g id="text_4">
      <!-- Offense -->
      <g transform="translate(256.083812 474.855637)scale(0.1 -0.1)">
       <use xlink:href="#DejaVuSans-79"/>
       <use x="78.710938" xlink:href="#DejaVuSans-102"/>
       <use x="113.916016" xlink:href="#DejaVuSans-102"/>
       <use x="149.121094" xlink:href="#DejaVuSans-101"/>
       <use x="210.644531" xlink:href="#DejaVuSans-110"/>
       <use x="274.023438" xlink:href="#DejaVuSans-115"/>
       <use x="326.123047" xlink:href="#DejaVuSans-101"/>
      </g>
      <!--  Player 4 -->
      <defs>
       <path d="M 37.796875 64.3125 
L 12.890625 25.390625 
L 37.796875 25.390625 
z
M 35.203125 72.90625 
L 47.609375 72.90625 
L 47.609375 25.390625 
L 58.015625 25.390625 
L 58.015625 17.1875 
L 47.609375 17.1875 
L 47.609375 0 
L 37.796875 0 
L 37.796875 17.1875 
L 4.890625 17.1875 
L 4.890625 26.703125 
z
" id="DejaVuSans-52"/>
      </defs>
      <g transform="translate(253.547875 486.05345)scale(0.1 -0.1)">
       <use xlink:href="#DejaVuSans-32"/>
       <use x="31.787109" xlink:href="#DejaVuSans-80"/>
       <use x="92.089844" xlink:href="#DejaVuSans-108"/>
       <use x="119.873047" xlink:href="#DejaVuSans-97"/>
       <use x="181.152344" xlink:href="#DejaVuSans-121"/>
       <use x="240.332031" xlink:href="#DejaVuSans-101"/>
       <use x="301.855469" xlink:href="#DejaVuSans-114"/>
       <use x="342.96875" xlink:href="#DejaVuSans-32"/>
       <use x="374.755859" xlink:href="#DejaVuSans-52"/>
      </g>
     </g>
    </g>
    <g id="xtick_5">
     <g id="line2d_5">
      <g>
       <use style="stroke:#000000;stroke-width:0.8;" x="340.752625" xlink:href="#mb062527c5d" y="460.2572"/>
      </g>
     </g>
     <g id="text_5">
      <!-- Offense -->
      <g transform="translate(321.369812 474.855637)scale(0.1 -0.1)">
       <use xlink:href="#DejaVuSans-79"/>
       <use x="78.710938" xlink:href="#DejaVuSans-102"/>
       <use x="113.916016" xlink:href="#DejaVuSans-102"/>
       <use x="149.121094" xlink:href="#DejaVuSans-101"/>
       <use x="210.644531" xlink:href="#DejaVuSans-110"/>
       <use x="274.023438" xlink:href="#DejaVuSans-115"/>
       <use x="326.123047" xlink:href="#DejaVuSans-101"/>
      </g>
      <!--  Player 5 -->
      <defs>
       <path d="M 10.796875 72.90625 
L 49.515625 72.90625 
L 49.515625 64.59375 
L 19.828125 64.59375 
L 19.828125 46.734375 
Q 21.96875 47.46875 24.109375 47.828125 
Q 26.265625 48.1875 28.421875 48.1875 
Q 40.625 48.1875 47.75 41.5 
Q 54.890625 34.8125 54.890625 23.390625 
Q 54.890625 11.625 47.5625 5.09375 
Q 40.234375 -1.421875 26.90625 -1.421875 
Q 22.3125 -1.421875 17.546875 -0.640625 
Q 12.796875 0.140625 7.71875 1.703125 
L 7.71875 11.625 
Q 12.109375 9.234375 16.796875 8.0625 
Q 21.484375 6.890625 26.703125 6.890625 
Q 35.15625 6.890625 40.078125 11.328125 
Q 45.015625 15.765625 45.015625 23.390625 
Q 45.015625 31 40.078125 35.4375 
Q 35.15625 39.890625 26.703125 39.890625 
Q 22.75 39.890625 18.8125 39.015625 
Q 14.890625 38.140625 10.796875 36.28125 
z
" id="DejaVuSans-53"/>
      </defs>
      <g transform="translate(318.833875 486.05345)scale(0.1 -0.1)">
       <use xlink:href="#DejaVuSans-32"/>
       <use x="31.787109" xlink:href="#DejaVuSans-80"/>
       <use x="92.089844" xlink:href="#DejaVuSans-108"/>
       <use x="119.873047" xlink:href="#DejaVuSans-97"/>
       <use x="181.152344" xlink:href="#DejaVuSans-121"/>
       <use x="240.332031" xlink:href="#DejaVuSans-101"/>
       <use x="301.855469" xlink:href="#DejaVuSans-114"/>
       <use x="342.96875" xlink:href="#DejaVuSans-32"/>
       <use x="374.755859" xlink:href="#DejaVuSans-53"/>
      </g>
     </g>
    </g>
    <g id="xtick_6">
     <g id="line2d_6">
      <g>
       <use style="stroke:#000000;stroke-width:0.8;" x="406.038625" xlink:href="#mb062527c5d" y="460.2572"/>
      </g>
     </g>
     <g id="text_6">
      <!-- Defense -->
      <defs>
       <path d="M 19.671875 64.796875 
L 19.671875 8.109375 
L 31.59375 8.109375 
Q 46.6875 8.109375 53.6875 14.9375 
Q 60.6875 21.78125 60.6875 36.53125 
Q 60.6875 51.171875 53.6875 57.984375 
Q 46.6875 64.796875 31.59375 64.796875 
z
M 9.8125 72.90625 
L 30.078125 72.90625 
Q 51.265625 72.90625 61.171875 64.09375 
Q 71.09375 55.28125 71.09375 36.53125 
Q 71.09375 17.671875 61.125 8.828125 
Q 51.171875 0 30.078125 0 
L 9.8125 0 
z
" id="DejaVuSans-68"/>
      </defs>
      <g transform="translate(385.425344 474.855637)scale(0.1 -0.1)">
       <use xlink:href="#DejaVuSans-68"/>
       <use x="77.001953" xlink:href="#DejaVuSans-101"/>
       <use x="138.525391" xlink:href="#DejaVuSans-102"/>
       <use x="173.730469" xlink:href="#DejaVuSans-101"/>
       <use x="235.253906" xlink:href="#DejaVuSans-110"/>
       <use x="298.632812" xlink:href="#DejaVuSans-115"/>
       <use x="350.732422" xlink:href="#DejaVuSans-101"/>
      </g>
      <!--  Player 1 -->
      <g transform="translate(384.119875 486.05345)scale(0.1 -0.1)">
       <use xlink:href="#DejaVuSans-32"/>
       <use x="31.787109" xlink:href="#DejaVuSans-80"/>
       <use x="92.089844" xlink:href="#DejaVuSans-108"/>
       <use x="119.873047" xlink:href="#DejaVuSans-97"/>
       <use x="181.152344" xlink:href="#DejaVuSans-121"/>
       <use x="240.332031" xlink:href="#DejaVuSans-101"/>
       <use x="301.855469" xlink:href="#DejaVuSans-114"/>
       <use x="342.96875" xlink:href="#DejaVuSans-32"/>
       <use x="374.755859" xlink:href="#DejaVuSans-49"/>
      </g>
     </g>
    </g>
    <g id="xtick_7">
     <g id="line2d_7">
      <g>
       <use style="stroke:#000000;stroke-width:0.8;" x="471.324625" xlink:href="#mb062527c5d" y="460.2572"/>
      </g>
     </g>
     <g id="text_7">
      <!-- Defense -->
      <g transform="translate(450.711344 474.855637)scale(0.1 -0.1)">
       <use xlink:href="#DejaVuSans-68"/>
       <use x="77.001953" xlink:href="#DejaVuSans-101"/>
       <use x="138.525391" xlink:href="#DejaVuSans-102"/>
       <use x="173.730469" xlink:href="#DejaVuSans-101"/>
       <use x="235.253906" xlink:href="#DejaVuSans-110"/>
       <use x="298.632812" xlink:href="#DejaVuSans-115"/>
       <use x="350.732422" xlink:href="#DejaVuSans-101"/>
      </g>
      <!--  Player 2 -->
      <g transform="translate(449.405875 486.05345)scale(0.1 -0.1)">
       <use xlink:href="#DejaVuSans-32"/>
       <use x="31.787109" xlink:href="#DejaVuSans-80"/>
       <use x="92.089844" xlink:href="#DejaVuSans-108"/>
       <use x="119.873047" xlink:href="#DejaVuSans-97"/>
       <use x="181.152344" xlink:href="#DejaVuSans-121"/>
       <use x="240.332031" xlink:href="#DejaVuSans-101"/>
       <use x="301.855469" xlink:href="#DejaVuSans-114"/>
       <use x="342.96875" xlink:href="#DejaVuSans-32"/>
       <use x="374.755859" xlink:href="#DejaVuSans-50"/>
      </g>
     </g>
    </g>
    <g id="xtick_8">
     <g id="line2d_8">
      <g>
       <use style="stroke:#000000;stroke-width:0.8;" x="536.610625" xlink:href="#mb062527c5d" y="460.2572"/>
      </g>
     </g>
     <g id="text_8">
      <!-- Defense -->
      <g transform="translate(515.997344 474.855637)scale(0.1 -0.1)">
       <use xlink:href="#DejaVuSans-68"/>
       <use x="77.001953" xlink:href="#DejaVuSans-101"/>
       <use x="138.525391" xlink:href="#DejaVuSans-102"/>
       <use x="173.730469" xlink:href="#DejaVuSans-101"/>
       <use x="235.253906" xlink:href="#DejaVuSans-110"/>
       <use x="298.632812" xlink:href="#DejaVuSans-115"/>
       <use x="350.732422" xlink:href="#DejaVuSans-101"/>
      </g>
      <!--  Player 3 -->
      <g transform="translate(514.691875 486.05345)scale(0.1 -0.1)">
       <use xlink:href="#DejaVuSans-32"/>
       <use x="31.787109" xlink:href="#DejaVuSans-80"/>
       <use x="92.089844" xlink:href="#DejaVuSans-108"/>
       <use x="119.873047" xlink:href="#DejaVuSans-97"/>
       <use x="181.152344" xlink:href="#DejaVuSans-121"/>
       <use x="240.332031" xlink:href="#DejaVuSans-101"/>
       <use x="301.855469" xlink:href="#DejaVuSans-114"/>
       <use x="342.96875" xlink:href="#DejaVuSans-32"/>
       <use x="374.755859" xlink:href="#DejaVuSans-51"/>
      </g>
     </g>
    </g>
    <g id="xtick_9">
     <g id="line2d_9">
      <g>
       <use style="stroke:#000000;stroke-width:0.8;" x="601.896625" xlink:href="#mb062527c5d" y="460.2572"/>
      </g>
     </g>
     <g id="text_9">
      <!-- Defense -->
      <g transform="translate(581.283344 474.855637)scale(0.1 -0.1)">
       <use xlink:href="#DejaVuSans-68"/>
       <use x="77.001953" xlink:href="#DejaVuSans-101"/>
       <use x="138.525391" xlink:href="#DejaVuSans-102"/>
       <use x="173.730469" xlink:href="#DejaVuSans-101"/>
       <use x="235.253906" xlink:href="#DejaVuSans-110"/>
       <use x="298.632812" xlink:href="#DejaVuSans-115"/>
       <use x="350.732422" xlink:href="#DejaVuSans-101"/>
      </g>
      <!--  Player 4 -->
      <g transform="translate(579.977875 486.05345)scale(0.1 -0.1)">
       <use xlink:href="#DejaVuSans-32"/>
       <use x="31.787109" xlink:href="#DejaVuSans-80"/>
       <use x="92.089844" xlink:href="#DejaVuSans-108"/>
       <use x="119.873047" xlink:href="#DejaVuSans-97"/>
       <use x="181.152344" xlink:href="#DejaVuSans-121"/>
       <use x="240.332031" xlink:href="#DejaVuSans-101"/>
       <use x="301.855469" xlink:href="#DejaVuSans-114"/>
       <use x="342.96875" xlink:href="#DejaVuSans-32"/>
       <use x="374.755859" xlink:href="#DejaVuSans-52"/>
      </g>
     </g>
    </g>
    <g id="xtick_10">
     <g id="line2d_10">
      <g>
       <use style="stroke:#000000;stroke-width:0.8;" x="667.182625" xlink:href="#mb062527c5d" y="460.2572"/>
      </g>
     </g>
     <g id="text_10">
      <!-- Defense -->
      <g transform="translate(646.569344 474.855637)scale(0.1 -0.1)">
       <use xlink:href="#DejaVuSans-68"/>
       <use x="77.001953" xlink:href="#DejaVuSans-101"/>
       <use x="138.525391" xlink:href="#DejaVuSans-102"/>
       <use x="173.730469" xlink:href="#DejaVuSans-101"/>
       <use x="235.253906" xlink:href="#DejaVuSans-110"/>
       <use x="298.632812" xlink:href="#DejaVuSans-115"/>
       <use x="350.732422" xlink:href="#DejaVuSans-101"/>
      </g>
      <!--  Player 5 -->
      <g transform="translate(645.263875 486.05345)scale(0.1 -0.1)">
       <use xlink:href="#DejaVuSans-32"/>
       <use x="31.787109" xlink:href="#DejaVuSans-80"/>
       <use x="92.089844" xlink:href="#DejaVuSans-108"/>
       <use x="119.873047" xlink:href="#DejaVuSans-97"/>
       <use x="181.152344" xlink:href="#DejaVuSans-121"/>
       <use x="240.332031" xlink:href="#DejaVuSans-101"/>
       <use x="301.855469" xlink:href="#DejaVuSans-114"/>
       <use x="342.96875" xlink:href="#DejaVuSans-32"/>
       <use x="374.755859" xlink:href="#DejaVuSans-53"/>
      </g>
     </g>
    </g>
    <g id="text_11">
     <!-- Features -->
     <defs>
      <path d="M 9.8125 72.90625 
L 51.703125 72.90625 
L 51.703125 64.59375 
L 19.671875 64.59375 
L 19.671875 43.109375 
L 48.578125 43.109375 
L 48.578125 34.8125 
L 19.671875 34.8125 
L 19.671875 0 
L 9.8125 0 
z
" id="DejaVuSans-70"/>
      <path d="M 18.3125 70.21875 
L 18.3125 54.6875 
L 36.8125 54.6875 
L 36.8125 47.703125 
L 18.3125 47.703125 
L 18.3125 18.015625 
Q 18.3125 11.328125 20.140625 9.421875 
Q 21.96875 7.515625 27.59375 7.515625 
L 36.8125 7.515625 
L 36.8125 0 
L 27.59375 0 
Q 17.1875 0 13.234375 3.875 
Q 9.28125 7.765625 9.28125 18.015625 
L 9.28125 47.703125 
L 2.6875 47.703125 
L 2.6875 54.6875 
L 9.28125 54.6875 
L 9.28125 70.21875 
z
" id="DejaVuSans-116"/>
      <path d="M 8.5 21.578125 
L 8.5 54.6875 
L 17.484375 54.6875 
L 17.484375 21.921875 
Q 17.484375 14.15625 20.5 10.265625 
Q 23.53125 6.390625 29.59375 6.390625 
Q 36.859375 6.390625 41.078125 11.03125 
Q 45.3125 15.671875 45.3125 23.6875 
L 45.3125 54.6875 
L 54.296875 54.6875 
L 54.296875 0 
L 45.3125 0 
L 45.3125 8.40625 
Q 42.046875 3.421875 37.71875 1 
Q 33.40625 -1.421875 27.6875 -1.421875 
Q 18.265625 -1.421875 13.375 4.4375 
Q 8.5 10.296875 8.5 21.578125 
z
M 31.109375 56 
z
" id="DejaVuSans-117"/>
     </defs>
     <g transform="translate(351.519063 499.731575)scale(0.1 -0.1)">
      <use xlink:href="#DejaVuSans-70"/>
      <use x="57.441406" xlink:href="#DejaVuSans-101"/>
      <use x="118.964844" xlink:href="#DejaVuSans-97"/>
      <use x="180.244141" xlink:href="#DejaVuSans-116"/>
      <use x="219.453125" xlink:href="#DejaVuSans-117"/>
      <use x="282.832031" xlink:href="#DejaVuSans-114"/>
      <use x="323.914062" xlink:href="#DejaVuSans-101"/>
      <use x="385.4375" xlink:href="#DejaVuSans-115"/>
     </g>
    </g>
   </g>
   <g id="matplotlib.axis_2">
    <g id="ytick_1">
     <g id="line2d_11">
      <defs>
       <path d="M 0 0 
L -3.5 0 
" id="ma5df992118" style="stroke:#000000;stroke-width:0.8;"/>
      </defs>
      <g>
       <use style="stroke:#000000;stroke-width:0.8;" x="46.965625" xlink:href="#ma5df992118" y="406.289004"/>
      </g>
     </g>
     <g id="text_12">
      <!-- 90 -->
      <defs>
       <path d="M 10.984375 1.515625 
L 10.984375 10.5 
Q 14.703125 8.734375 18.5 7.8125 
Q 22.3125 6.890625 25.984375 6.890625 
Q 35.75 6.890625 40.890625 13.453125 
Q 46.046875 20.015625 46.78125 33.40625 
Q 43.953125 29.203125 39.59375 26.953125 
Q 35.25 24.703125 29.984375 24.703125 
Q 19.046875 24.703125 12.671875 31.3125 
Q 6.296875 37.9375 6.296875 49.421875 
Q 6.296875 60.640625 12.9375 67.421875 
Q 19.578125 74.21875 30.609375 74.21875 
Q 43.265625 74.21875 49.921875 64.515625 
Q 56.59375 54.828125 56.59375 36.375 
Q 56.59375 19.140625 48.40625 8.859375 
Q 40.234375 -1.421875 26.421875 -1.421875 
Q 22.703125 -1.421875 18.890625 -0.6875 
Q 15.09375 0.046875 10.984375 1.515625 
z
M 30.609375 32.421875 
Q 37.25 32.421875 41.125 36.953125 
Q 45.015625 41.5 45.015625 49.421875 
Q 45.015625 57.28125 41.125 61.84375 
Q 37.25 66.40625 30.609375 66.40625 
Q 23.96875 66.40625 20.09375 61.84375 
Q 16.21875 57.28125 16.21875 49.421875 
Q 16.21875 41.5 20.09375 36.953125 
Q 23.96875 32.421875 30.609375 32.421875 
z
" id="DejaVuSans-57"/>
       <path d="M 31.78125 66.40625 
Q 24.171875 66.40625 20.328125 58.90625 
Q 16.5 51.421875 16.5 36.375 
Q 16.5 21.390625 20.328125 13.890625 
Q 24.171875 6.390625 31.78125 6.390625 
Q 39.453125 6.390625 43.28125 13.890625 
Q 47.125 21.390625 47.125 36.375 
Q 47.125 51.421875 43.28125 58.90625 
Q 39.453125 66.40625 31.78125 66.40625 
z
M 31.78125 74.21875 
Q 44.046875 74.21875 50.515625 64.515625 
Q 56.984375 54.828125 56.984375 36.375 
Q 56.984375 17.96875 50.515625 8.265625 
Q 44.046875 -1.421875 31.78125 -1.421875 
Q 19.53125 -1.421875 13.0625 8.265625 
Q 6.59375 17.96875 6.59375 36.375 
Q 6.59375 54.828125 13.0625 64.515625 
Q 19.53125 74.21875 31.78125 74.21875 
z
" id="DejaVuSans-48"/>
      </defs>
      <g transform="translate(27.240625 410.088223)scale(0.1 -0.1)">
       <use xlink:href="#DejaVuSans-57"/>
       <use x="63.623047" xlink:href="#DejaVuSans-48"/>
      </g>
     </g>
    </g>
    <g id="ytick_2">
     <g id="line2d_12">
      <g>
       <use style="stroke:#000000;stroke-width:0.8;" x="46.965625" xlink:href="#ma5df992118" y="337.205914"/>
      </g>
     </g>
     <g id="text_13">
      <!-- 100 -->
      <g transform="translate(20.878125 341.005133)scale(0.1 -0.1)">
       <use xlink:href="#DejaVuSans-49"/>
       <use x="63.623047" xlink:href="#DejaVuSans-48"/>
       <use x="127.246094" xlink:href="#DejaVuSans-48"/>
      </g>
     </g>
    </g>
    <g id="ytick_3">
     <g id="line2d_13">
      <g>
       <use style="stroke:#000000;stroke-width:0.8;" x="46.965625" xlink:href="#ma5df992118" y="268.122824"/>
      </g>
     </g>
     <g id="text_14">
      <!-- 110 -->
      <g transform="translate(20.878125 271.922043)scale(0.1 -0.1)">
       <use xlink:href="#DejaVuSans-49"/>
       <use x="63.623047" xlink:href="#DejaVuSans-49"/>
       <use x="127.246094" xlink:href="#DejaVuSans-48"/>
      </g>
     </g>
    </g>
    <g id="ytick_4">
     <g id="line2d_14">
      <g>
       <use style="stroke:#000000;stroke-width:0.8;" x="46.965625" xlink:href="#ma5df992118" y="199.039734"/>
      </g>
     </g>
     <g id="text_15">
      <!-- 120 -->
      <g transform="translate(20.878125 202.838952)scale(0.1 -0.1)">
       <use xlink:href="#DejaVuSans-49"/>
       <use x="63.623047" xlink:href="#DejaVuSans-50"/>
       <use x="127.246094" xlink:href="#DejaVuSans-48"/>
      </g>
     </g>
    </g>
    <g id="ytick_5">
     <g id="line2d_15">
      <g>
       <use style="stroke:#000000;stroke-width:0.8;" x="46.965625" xlink:href="#ma5df992118" y="129.956643"/>
      </g>
     </g>
     <g id="text_16">
      <!-- 130 -->
      <g transform="translate(20.878125 133.755862)scale(0.1 -0.1)">
       <use xlink:href="#DejaVuSans-49"/>
       <use x="63.623047" xlink:href="#DejaVuSans-51"/>
       <use x="127.246094" xlink:href="#DejaVuSans-48"/>
      </g>
     </g>
    </g>
    <g id="ytick_6">
     <g id="line2d_16">
      <g>
       <use style="stroke:#000000;stroke-width:0.8;" x="46.965625" xlink:href="#ma5df992118" y="60.873553"/>
      </g>
     </g>
     <g id="text_17">
      <!-- 140 -->
      <g transform="translate(20.878125 64.672772)scale(0.1 -0.1)">
       <use xlink:href="#DejaVuSans-49"/>
       <use x="63.623047" xlink:href="#DejaVuSans-52"/>
       <use x="127.246094" xlink:href="#DejaVuSans-48"/>
      </g>
     </g>
    </g>
    <g id="text_18">
     <!-- Points Per 100 Possession -->
     <defs>
      <path d="M 30.609375 48.390625 
Q 23.390625 48.390625 19.1875 42.75 
Q 14.984375 37.109375 14.984375 27.296875 
Q 14.984375 17.484375 19.15625 11.84375 
Q 23.34375 6.203125 30.609375 6.203125 
Q 37.796875 6.203125 41.984375 11.859375 
Q 46.1875 17.53125 46.1875 27.296875 
Q 46.1875 37.015625 41.984375 42.703125 
Q 37.796875 48.390625 30.609375 48.390625 
z
M 30.609375 56 
Q 42.328125 56 49.015625 48.375 
Q 55.71875 40.765625 55.71875 27.296875 
Q 55.71875 13.875 49.015625 6.21875 
Q 42.328125 -1.421875 30.609375 -1.421875 
Q 18.84375 -1.421875 12.171875 6.21875 
Q 5.515625 13.875 5.515625 27.296875 
Q 5.515625 40.765625 12.171875 48.375 
Q 18.84375 56 30.609375 56 
z
" id="DejaVuSans-111"/>
      <path d="M 9.421875 54.6875 
L 18.40625 54.6875 
L 18.40625 0 
L 9.421875 0 
z
M 9.421875 75.984375 
L 18.40625 75.984375 
L 18.40625 64.59375 
L 9.421875 64.59375 
z
" id="DejaVuSans-105"/>
     </defs>
     <g transform="translate(14.798438 300.312975)rotate(-90)scale(0.1 -0.1)">
      <use xlink:href="#DejaVuSans-80"/>
      <use x="60.255859" xlink:href="#DejaVuSans-111"/>
      <use x="121.4375" xlink:href="#DejaVuSans-105"/>
      <use x="149.220703" xlink:href="#DejaVuSans-110"/>
      <use x="212.599609" xlink:href="#DejaVuSans-116"/>
      <use x="251.808594" xlink:href="#DejaVuSans-115"/>
      <use x="303.908203" xlink:href="#DejaVuSans-32"/>
      <use x="335.695312" xlink:href="#DejaVuSans-80"/>
      <use x="395.951172" xlink:href="#DejaVuSans-101"/>
      <use x="457.474609" xlink:href="#DejaVuSans-114"/>
      <use x="498.587891" xlink:href="#DejaVuSans-32"/>
      <use x="530.375" xlink:href="#DejaVuSans-49"/>
      <use x="593.998047" xlink:href="#DejaVuSans-48"/>
      <use x="657.621094" xlink:href="#DejaVuSans-48"/>
      <use x="721.244141" xlink:href="#DejaVuSans-32"/>
      <use x="753.03125" xlink:href="#DejaVuSans-80"/>
      <use x="813.287109" xlink:href="#DejaVuSans-111"/>
      <use x="874.46875" xlink:href="#DejaVuSans-115"/>
      <use x="926.568359" xlink:href="#DejaVuSans-115"/>
      <use x="978.667969" xlink:href="#DejaVuSans-101"/>
      <use x="1040.191406" xlink:href="#DejaVuSans-115"/>
      <use x="1092.291016" xlink:href="#DejaVuSans-115"/>
      <use x="1144.390625" xlink:href="#DejaVuSans-105"/>
      <use x="1172.173828" xlink:href="#DejaVuSans-111"/>
      <use x="1233.355469" xlink:href="#DejaVuSans-110"/>
     </g>
    </g>
   </g>
   <g id="line2d_17">
    <path clip-path="url(#pf8684dabf7)" d="M 79.608625 330.297605 
L 79.608625 109.231716 
" style="fill:none;stroke:#3d3d3d;stroke-linecap:square;stroke-width:1.5;"/>
   </g>
   <g id="line2d_18">
    <path clip-path="url(#pf8684dabf7)" d="M 79.608625 247.397897 
L 79.608625 192.131425 
" style="fill:none;stroke:#3d3d3d;stroke-linecap:square;stroke-width:4.5;"/>
   </g>
   <g id="line2d_19">
    <path clip-path="url(#pf8684dabf7)" d="M 144.894625 344.114223 
L 144.894625 157.589879 
" style="fill:none;stroke:#3d3d3d;stroke-linecap:square;stroke-width:1.5;"/>
   </g>
   <g id="line2d_20">
    <path clip-path="url(#pf8684dabf7)" d="M 144.894625 275.031133 
L 144.894625 226.67297 
" style="fill:none;stroke:#3d3d3d;stroke-linecap:square;stroke-width:4.5;"/>
   </g>
   <g id="line2d_21">
    <path clip-path="url(#pf8684dabf7)" d="M 210.180625 364.83915 
L 210.180625 178.314807 
" style="fill:none;stroke:#3d3d3d;stroke-linecap:square;stroke-width:1.5;"/>
   </g>
   <g id="line2d_22">
    <path clip-path="url(#pf8684dabf7)" d="M 210.180625 295.75606 
L 210.180625 247.397897 
" style="fill:none;stroke:#3d3d3d;stroke-linecap:square;stroke-width:4.5;"/>
   </g>
   <g id="line2d_23">
    <path clip-path="url(#pf8684dabf7)" d="M 275.466625 385.564077 
L 275.466625 212.856352 
" style="fill:none;stroke:#3d3d3d;stroke-linecap:square;stroke-width:1.5;"/>
   </g>
   <g id="line2d_24">
    <path clip-path="url(#pf8684dabf7)" d="M 275.466625 316.480987 
L 275.466625 268.122824 
" style="fill:none;stroke:#3d3d3d;stroke-linecap:square;stroke-width:4.5;"/>
   </g>
   <g id="line2d_25">
    <path clip-path="url(#pf8684dabf7)" d="M 340.752625 399.380695 
L 340.752625 240.489588 
" style="fill:none;stroke:#3d3d3d;stroke-linecap:square;stroke-width:1.5;"/>
   </g>
   <g id="line2d_26">
    <path clip-path="url(#pf8684dabf7)" d="M 340.752625 337.205914 
L 340.752625 295.75606 
" style="fill:none;stroke:#3d3d3d;stroke-linecap:square;stroke-width:4.5;"/>
   </g>
   <g id="line2d_27">
    <path clip-path="url(#pf8684dabf7)" d="M 406.038625 323.389296 
L 406.038625 212.856352 
" style="fill:none;stroke:#3d3d3d;stroke-linecap:square;stroke-width:1.5;"/>
   </g>
   <g id="line2d_28">
    <path clip-path="url(#pf8684dabf7)" d="M 406.038625 281.939442 
L 406.038625 250.852051 
" style="fill:none;stroke:#3d3d3d;stroke-linecap:square;stroke-width:4.5;"/>
   </g>
   <g id="line2d_29">
    <path clip-path="url(#pf8684dabf7)" d="M 471.324625 337.205914 
L 471.324625 219.764661 
" style="fill:none;stroke:#3d3d3d;stroke-linecap:square;stroke-width:1.5;"/>
   </g>
   <g id="line2d_30">
    <path clip-path="url(#pf8684dabf7)" d="M 471.324625 292.301905 
L 471.324625 261.214515 
" style="fill:none;stroke:#3d3d3d;stroke-linecap:square;stroke-width:4.5;"/>
   </g>
   <g id="line2d_31">
    <path clip-path="url(#pf8684dabf7)" d="M 536.610625 344.114223 
L 536.610625 226.67297 
" style="fill:none;stroke:#3d3d3d;stroke-linecap:square;stroke-width:1.5;"/>
   </g>
   <g id="line2d_32">
    <path clip-path="url(#pf8684dabf7)" d="M 536.610625 302.664369 
L 536.610625 268.122824 
" style="fill:none;stroke:#3d3d3d;stroke-linecap:square;stroke-width:4.5;"/>
   </g>
   <g id="line2d_33">
    <path clip-path="url(#pf8684dabf7)" d="M 601.896625 357.930841 
L 601.896625 226.67297 
" style="fill:none;stroke:#3d3d3d;stroke-linecap:square;stroke-width:1.5;"/>
   </g>
   <g id="line2d_34">
    <path clip-path="url(#pf8684dabf7)" d="M 601.896625 309.572678 
L 601.896625 275.031133 
" style="fill:none;stroke:#3d3d3d;stroke-linecap:square;stroke-width:4.5;"/>
   </g>
   <g id="line2d_35">
    <path clip-path="url(#pf8684dabf7)" d="M 667.182625 385.564077 
L 667.182625 240.489588 
" style="fill:none;stroke:#3d3d3d;stroke-linecap:square;stroke-width:1.5;"/>
   </g>
   <g id="line2d_36">
    <path clip-path="url(#pf8684dabf7)" d="M 667.182625 330.297605 
L 667.182625 288.847751 
" style="fill:none;stroke:#3d3d3d;stroke-linecap:square;stroke-width:4.5;"/>
   </g>
   <g id="patch_3">
    <path d="M 46.965625 460.2572 
L 46.965625 10.7 
" style="fill:none;stroke:#000000;stroke-linecap:square;stroke-linejoin:miter;stroke-width:0.8;"/>
   </g>
   <g id="patch_4">
    <path d="M 699.825625 460.2572 
L 699.825625 10.7 
" style="fill:none;stroke:#000000;stroke-linecap:square;stroke-linejoin:miter;stroke-width:0.8;"/>
   </g>
   <g id="patch_5">
    <path d="M 46.965625 460.2572 
L 699.825625 460.2572 
" style="fill:none;stroke:#000000;stroke-linecap:square;stroke-linejoin:miter;stroke-width:0.8;"/>
   </g>
   <g id="patch_6">
    <path d="M 46.965625 10.7 
L 699.825625 10.7 
" style="fill:none;stroke:#000000;stroke-linecap:square;stroke-linejoin:miter;stroke-width:0.8;"/>
   </g>
   <g id="PathCollection_1">
    <defs>
     <path d="M 0 1.5 
C 0.397805 1.5 0.77937 1.341951 1.06066 1.06066 
C 1.341951 0.77937 1.5 0.397805 1.5 0 
C 1.5 -0.397805 1.341951 -0.77937 1.06066 -1.06066 
C 0.77937 -1.341951 0.397805 -1.5 0 -1.5 
C -0.397805 -1.5 -0.77937 -1.341951 -1.06066 -1.06066 
C -1.341951 -0.77937 -1.5 -0.397805 -1.5 0 
C -1.5 0.397805 -1.341951 0.77937 -1.06066 1.06066 
C -0.77937 1.341951 -0.397805 1.5 0 1.5 
z
" id="m93a263d9b0" style="stroke:#3d3d3d;"/>
    </defs>
    <g clip-path="url(#pf8684dabf7)">
     <use style="fill:#ffffff;stroke:#3d3d3d;" x="79.608625" xlink:href="#m93a263d9b0" y="226.67297"/>
    </g>
   </g>
   <g id="PathCollection_2">
    <g clip-path="url(#pf8684dabf7)">
     <use style="fill:#ffffff;stroke:#3d3d3d;" x="144.894625" xlink:href="#m93a263d9b0" y="254.306206"/>
    </g>
   </g>
   <g id="PathCollection_3">
    <g clip-path="url(#pf8684dabf7)">
     <use style="fill:#ffffff;stroke:#3d3d3d;" x="210.180625" xlink:href="#m93a263d9b0" y="275.031133"/>
    </g>
   </g>
   <g id="PathCollection_4">
    <g clip-path="url(#pf8684dabf7)">
     <use style="fill:#ffffff;stroke:#3d3d3d;" x="275.466625" xlink:href="#m93a263d9b0" y="295.75606"/>
    </g>
   </g>
   <g id="PathCollection_5">
    <g clip-path="url(#pf8684dabf7)">
     <use style="fill:#ffffff;stroke:#3d3d3d;" x="340.752625" xlink:href="#m93a263d9b0" y="316.480987"/>
    </g>
   </g>
   <g id="PathCollection_6">
    <g clip-path="url(#pf8684dabf7)">
     <use style="fill:#ffffff;stroke:#3d3d3d;" x="406.038625" xlink:href="#m93a263d9b0" y="268.122824"/>
    </g>
   </g>
   <g id="PathCollection_7">
    <g clip-path="url(#pf8684dabf7)">
     <use style="fill:#ffffff;stroke:#3d3d3d;" x="471.324625" xlink:href="#m93a263d9b0" y="275.031133"/>
    </g>
   </g>
   <g id="PathCollection_8">
    <g clip-path="url(#pf8684dabf7)">
     <use style="fill:#ffffff;stroke:#3d3d3d;" x="536.610625" xlink:href="#m93a263d9b0" y="281.939442"/>
    </g>
   </g>
   <g id="PathCollection_9">
    <g clip-path="url(#pf8684dabf7)">
     <use style="fill:#ffffff;stroke:#3d3d3d;" x="601.896625" xlink:href="#m93a263d9b0" y="295.75606"/>
    </g>
   </g>
   <g id="PathCollection_10">
    <g clip-path="url(#pf8684dabf7)">
     <use style="fill:#ffffff;stroke:#3d3d3d;" x="667.182625" xlink:href="#m93a263d9b0" y="309.572678"/>
    </g>
   </g>
  </g>
 </g>
 <defs>
  <clipPath id="pf8684dabf7">
   <rect height="449.5572" width="652.86" x="46.965625" y="10.7"/>
  </clipPath>
 </defs>
</svg>
