<?xml version="1.0" encoding="utf-8" standalone="no"?>
<!DOCTYPE svg PUBLIC "-//W3C//DTD SVG 1.1//EN"
  "http://www.w3.org/Graphics/SVG/1.1/DTD/svg11.dtd">
<!-- Created with matplotlib (https://matplotlib.org/) -->
<svg height="538.519153pt" version="1.1" viewBox="0 0 865.088203 538.519153" width="865.088203pt" xmlns="http://www.w3.org/2000/svg" xmlns:xlink="http://www.w3.org/1999/xlink">
 <defs>
  <style type="text/css">
*{stroke-linecap:butt;stroke-linejoin:round;}
  </style>
 </defs>
 <g id="figure_1">
  <g id="patch_1">
   <path d="M 0 538.519153 
L 865.088203 538.519153 
L 865.088203 0 
L 0 0 
z
" style="fill:#ffffff;"/>
  </g>
  <g id="axes_1">
   <g id="patch_2">
    <path d="M 67.688203 465.7572 
L 848.888203 465.7572 
L 848.888203 16.2 
L 67.688203 16.2 
z
" style="fill:#ffffff;"/>
   </g>
   <g id="matplotlib.axis_1">
    <g id="xtick_1">
     <g id="text_1">
      <!-- Offense -->
      <defs>
       <path d="M 4.828125 34.859375 
Q 4.828125 52.6875 14.390625 62.765625 
Q 23.96875 72.859375 39.109375 72.859375 
Q 49.03125 72.859375 56.984375 68.109375 
Q 64.9375 63.375 69.109375 54.90625 
Q 73.296875 46.4375 73.296875 35.6875 
Q 73.296875 24.8125 68.890625 16.21875 
Q 64.5 7.625 56.4375 3.203125 
Q 48.390625 -1.21875 39.0625 -1.21875 
Q 28.953125 -1.21875 20.984375 3.65625 
Q 13.03125 8.546875 8.921875 16.984375 
Q 4.828125 25.4375 4.828125 34.859375 
z
M 14.59375 34.71875 
Q 14.59375 21.78125 21.546875 14.328125 
Q 28.515625 6.890625 39.015625 6.890625 
Q 49.703125 6.890625 56.609375 14.40625 
Q 63.53125 21.921875 63.53125 35.75 
Q 63.53125 44.484375 60.578125 51 
Q 57.625 57.515625 51.921875 61.109375 
Q 46.234375 64.703125 39.15625 64.703125 
Q 29.109375 64.703125 21.84375 57.78125 
Q 14.59375 50.875 14.59375 34.71875 
z
" id="ArialMT-79"/>
       <path d="M 8.6875 0 
L 8.6875 45.015625 
L 0.921875 45.015625 
L 0.921875 51.859375 
L 8.6875 51.859375 
L 8.6875 57.375 
Q 8.6875 62.59375 9.625 65.140625 
Q 10.890625 68.5625 14.078125 70.671875 
Q 17.28125 72.796875 23.046875 72.796875 
Q 26.765625 72.796875 31.25 71.921875 
L 29.9375 64.265625 
Q 27.203125 64.75 24.75 64.75 
Q 20.75 64.75 19.09375 63.03125 
Q 17.4375 61.328125 17.4375 56.640625 
L 17.4375 51.859375 
L 27.546875 51.859375 
L 27.546875 45.015625 
L 17.4375 45.015625 
L 17.4375 0 
z
" id="ArialMT-102"/>
       <path d="M 42.09375 16.703125 
L 51.171875 15.578125 
Q 49.03125 7.625 43.21875 3.21875 
Q 37.40625 -1.171875 28.375 -1.171875 
Q 17 -1.171875 10.328125 5.828125 
Q 3.65625 12.84375 3.65625 25.484375 
Q 3.65625 38.578125 10.390625 45.796875 
Q 17.140625 53.03125 27.875 53.03125 
Q 38.28125 53.03125 44.875 45.953125 
Q 51.46875 38.875 51.46875 26.03125 
Q 51.46875 25.25 51.421875 23.6875 
L 12.75 23.6875 
Q 13.234375 15.140625 17.578125 10.59375 
Q 21.921875 6.0625 28.421875 6.0625 
Q 33.25 6.0625 36.671875 8.59375 
Q 40.09375 11.140625 42.09375 16.703125 
z
M 13.234375 30.90625 
L 42.1875 30.90625 
Q 41.609375 37.453125 38.875 40.71875 
Q 34.671875 45.796875 27.984375 45.796875 
Q 21.921875 45.796875 17.796875 41.75 
Q 13.671875 37.703125 13.234375 30.90625 
z
" id="ArialMT-101"/>
       <path d="M 6.59375 0 
L 6.59375 51.859375 
L 14.5 51.859375 
L 14.5 44.484375 
Q 20.21875 53.03125 31 53.03125 
Q 35.6875 53.03125 39.625 51.34375 
Q 43.5625 49.65625 45.515625 46.921875 
Q 47.46875 44.1875 48.25 40.4375 
Q 48.734375 37.984375 48.734375 31.890625 
L 48.734375 0 
L 39.9375 0 
L 39.9375 31.546875 
Q 39.9375 36.921875 38.90625 39.578125 
Q 37.890625 42.234375 35.28125 43.8125 
Q 32.671875 45.40625 29.15625 45.40625 
Q 23.53125 45.40625 19.453125 41.84375 
Q 15.375 38.28125 15.375 28.328125 
L 15.375 0 
z
" id="ArialMT-110"/>
       <path d="M 3.078125 15.484375 
L 11.765625 16.84375 
Q 12.5 11.625 15.84375 8.84375 
Q 19.1875 6.0625 25.203125 6.0625 
Q 31.25 6.0625 34.171875 8.515625 
Q 37.109375 10.984375 37.109375 14.3125 
Q 37.109375 17.28125 34.515625 19 
Q 32.71875 20.171875 25.53125 21.96875 
Q 15.875 24.421875 12.140625 26.203125 
Q 8.40625 27.984375 6.46875 31.125 
Q 4.546875 34.28125 4.546875 38.09375 
Q 4.546875 41.546875 6.125 44.5 
Q 7.71875 47.46875 10.453125 49.421875 
Q 12.5 50.921875 16.03125 51.96875 
Q 19.578125 53.03125 23.640625 53.03125 
Q 29.734375 53.03125 34.34375 51.265625 
Q 38.96875 49.515625 41.15625 46.5 
Q 43.359375 43.5 44.1875 38.484375 
L 35.59375 37.3125 
Q 35.015625 41.3125 32.203125 43.546875 
Q 29.390625 45.796875 24.265625 45.796875 
Q 18.21875 45.796875 15.625 43.796875 
Q 13.03125 41.796875 13.03125 39.109375 
Q 13.03125 37.40625 14.109375 36.03125 
Q 15.1875 34.625 17.484375 33.6875 
Q 18.796875 33.203125 25.25 31.453125 
Q 34.578125 28.953125 38.25 27.359375 
Q 41.9375 25.78125 44.03125 22.75 
Q 46.140625 19.734375 46.140625 15.234375 
Q 46.140625 10.84375 43.578125 6.953125 
Q 41.015625 3.078125 36.171875 0.953125 
Q 31.34375 -1.171875 25.25 -1.171875 
Q 15.140625 -1.171875 9.84375 3.03125 
Q 4.546875 7.234375 3.078125 15.484375 
z
" id="ArialMT-115"/>
      </defs>
      <g style="fill:#262626;" transform="translate(77.860313 489.874231)scale(0.165 -0.165)">
       <use xlink:href="#ArialMT-79"/>
       <use x="77.783203" xlink:href="#ArialMT-102"/>
       <use x="105.550781" xlink:href="#ArialMT-102"/>
       <use x="133.333984" xlink:href="#ArialMT-101"/>
       <use x="188.949219" xlink:href="#ArialMT-110"/>
       <use x="244.564453" xlink:href="#ArialMT-115"/>
       <use x="294.564453" xlink:href="#ArialMT-101"/>
      </g>
      <!--  Player 1 -->
      <defs>
       <path id="ArialMT-32"/>
       <path d="M 7.71875 0 
L 7.71875 71.578125 
L 34.71875 71.578125 
Q 41.84375 71.578125 45.609375 70.90625 
Q 50.875 70.015625 54.4375 67.546875 
Q 58.015625 65.09375 60.1875 60.640625 
Q 62.359375 56.203125 62.359375 50.875 
Q 62.359375 41.75 56.546875 35.421875 
Q 50.734375 29.109375 35.546875 29.109375 
L 17.1875 29.109375 
L 17.1875 0 
z
M 17.1875 37.546875 
L 35.6875 37.546875 
Q 44.875 37.546875 48.734375 40.96875 
Q 52.59375 44.390625 52.59375 50.59375 
Q 52.59375 55.078125 50.3125 58.265625 
Q 48.046875 61.46875 44.34375 62.5 
Q 41.9375 63.140625 35.5 63.140625 
L 17.1875 63.140625 
z
" id="ArialMT-80"/>
       <path d="M 6.390625 0 
L 6.390625 71.578125 
L 15.1875 71.578125 
L 15.1875 0 
z
" id="ArialMT-108"/>
       <path d="M 40.4375 6.390625 
Q 35.546875 2.25 31.03125 0.53125 
Q 26.515625 -1.171875 21.34375 -1.171875 
Q 12.796875 -1.171875 8.203125 3 
Q 3.609375 7.171875 3.609375 13.671875 
Q 3.609375 17.484375 5.34375 20.625 
Q 7.078125 23.78125 9.890625 25.6875 
Q 12.703125 27.59375 16.21875 28.5625 
Q 18.796875 29.25 24.03125 29.890625 
Q 34.671875 31.15625 39.703125 32.90625 
Q 39.75 34.71875 39.75 35.203125 
Q 39.75 40.578125 37.25 42.78125 
Q 33.890625 45.75 27.25 45.75 
Q 21.046875 45.75 18.09375 43.578125 
Q 15.140625 41.40625 13.71875 35.890625 
L 5.125 37.0625 
Q 6.296875 42.578125 8.984375 45.96875 
Q 11.671875 49.359375 16.75 51.1875 
Q 21.828125 53.03125 28.515625 53.03125 
Q 35.15625 53.03125 39.296875 51.46875 
Q 43.453125 49.90625 45.40625 47.53125 
Q 47.359375 45.171875 48.140625 41.546875 
Q 48.578125 39.3125 48.578125 33.453125 
L 48.578125 21.734375 
Q 48.578125 9.46875 49.140625 6.21875 
Q 49.703125 2.984375 51.375 0 
L 42.1875 0 
Q 40.828125 2.734375 40.4375 6.390625 
z
M 39.703125 26.03125 
Q 34.90625 24.078125 25.34375 22.703125 
Q 19.921875 21.921875 17.671875 20.9375 
Q 15.4375 19.96875 14.203125 18.09375 
Q 12.984375 16.21875 12.984375 13.921875 
Q 12.984375 10.40625 15.640625 8.0625 
Q 18.3125 5.71875 23.4375 5.71875 
Q 28.515625 5.71875 32.46875 7.9375 
Q 36.421875 10.15625 38.28125 14.015625 
Q 39.703125 17 39.703125 22.796875 
z
" id="ArialMT-97"/>
       <path d="M 6.203125 -19.96875 
L 5.21875 -11.71875 
Q 8.109375 -12.5 10.25 -12.5 
Q 13.1875 -12.5 14.9375 -11.515625 
Q 16.703125 -10.546875 17.828125 -8.796875 
Q 18.65625 -7.46875 20.515625 -2.25 
Q 20.75 -1.515625 21.296875 -0.09375 
L 1.609375 51.859375 
L 11.078125 51.859375 
L 21.875 21.828125 
Q 23.96875 16.109375 25.640625 9.8125 
Q 27.15625 15.875 29.25 21.625 
L 40.328125 51.859375 
L 49.125 51.859375 
L 29.390625 -0.875 
Q 26.21875 -9.421875 24.46875 -12.640625 
Q 22.125 -17 19.09375 -19.015625 
Q 16.0625 -21.046875 11.859375 -21.046875 
Q 9.328125 -21.046875 6.203125 -19.96875 
z
" id="ArialMT-121"/>
       <path d="M 6.5 0 
L 6.5 51.859375 
L 14.40625 51.859375 
L 14.40625 44 
Q 17.4375 49.515625 20 51.265625 
Q 22.5625 53.03125 25.640625 53.03125 
Q 30.078125 53.03125 34.671875 50.203125 
L 31.640625 42.046875 
Q 28.421875 43.953125 25.203125 43.953125 
Q 22.3125 43.953125 20.015625 42.21875 
Q 17.71875 40.484375 16.75 37.40625 
Q 15.28125 32.71875 15.28125 27.15625 
L 15.28125 0 
z
" id="ArialMT-114"/>
       <path d="M 37.25 0 
L 28.46875 0 
L 28.46875 56 
Q 25.296875 52.984375 20.140625 49.953125 
Q 14.984375 46.921875 10.890625 45.40625 
L 10.890625 53.90625 
Q 18.265625 57.375 23.78125 62.296875 
Q 29.296875 67.234375 31.59375 71.875 
L 37.25 71.875 
z
" id="ArialMT-49"/>
      </defs>
      <g style="fill:#262626;" transform="translate(74.19293 507.384856)scale(0.165 -0.165)">
       <use xlink:href="#ArialMT-32"/>
       <use x="27.783203" xlink:href="#ArialMT-80"/>
       <use x="94.482422" xlink:href="#ArialMT-108"/>
       <use x="116.699219" xlink:href="#ArialMT-97"/>
       <use x="172.314453" xlink:href="#ArialMT-121"/>
       <use x="222.314453" xlink:href="#ArialMT-101"/>
       <use x="277.929688" xlink:href="#ArialMT-114"/>
       <use x="311.230469" xlink:href="#ArialMT-32"/>
       <use x="339.013672" xlink:href="#ArialMT-49"/>
      </g>
     </g>
    </g>
    <g id="xtick_2">
     <g id="text_2">
      <!-- Offense -->
      <g style="fill:#262626;" transform="translate(155.980313 489.874231)scale(0.165 -0.165)">
       <use xlink:href="#ArialMT-79"/>
       <use x="77.783203" xlink:href="#ArialMT-102"/>
       <use x="105.550781" xlink:href="#ArialMT-102"/>
       <use x="133.333984" xlink:href="#ArialMT-101"/>
       <use x="188.949219" xlink:href="#ArialMT-110"/>
       <use x="244.564453" xlink:href="#ArialMT-115"/>
       <use x="294.564453" xlink:href="#ArialMT-101"/>
      </g>
      <!--  Player 2 -->
      <defs>
       <path d="M 50.34375 8.453125 
L 50.34375 0 
L 3.03125 0 
Q 2.9375 3.171875 4.046875 6.109375 
Q 5.859375 10.9375 9.828125 15.625 
Q 13.8125 20.3125 21.34375 26.46875 
Q 33.015625 36.03125 37.109375 41.625 
Q 41.21875 47.21875 41.21875 52.203125 
Q 41.21875 57.421875 37.46875 61 
Q 33.734375 64.59375 27.734375 64.59375 
Q 21.390625 64.59375 17.578125 60.78125 
Q 13.765625 56.984375 13.71875 50.25 
L 4.6875 51.171875 
Q 5.609375 61.28125 11.65625 66.578125 
Q 17.71875 71.875 27.9375 71.875 
Q 38.234375 71.875 44.234375 66.15625 
Q 50.25 60.453125 50.25 52 
Q 50.25 47.703125 48.484375 43.546875 
Q 46.734375 39.40625 42.65625 34.8125 
Q 38.578125 30.21875 29.109375 22.21875 
Q 21.1875 15.578125 18.9375 13.203125 
Q 16.703125 10.84375 15.234375 8.453125 
z
" id="ArialMT-50"/>
      </defs>
      <g style="fill:#262626;" transform="translate(152.31293 507.384856)scale(0.165 -0.165)">
       <use xlink:href="#ArialMT-32"/>
       <use x="27.783203" xlink:href="#ArialMT-80"/>
       <use x="94.482422" xlink:href="#ArialMT-108"/>
       <use x="116.699219" xlink:href="#ArialMT-97"/>
       <use x="172.314453" xlink:href="#ArialMT-121"/>
       <use x="222.314453" xlink:href="#ArialMT-101"/>
       <use x="277.929688" xlink:href="#ArialMT-114"/>
       <use x="311.230469" xlink:href="#ArialMT-32"/>
       <use x="339.013672" xlink:href="#ArialMT-50"/>
      </g>
     </g>
    </g>
    <g id="xtick_3">
     <g id="text_3">
      <!-- Offense -->
      <g style="fill:#262626;" transform="translate(234.100313 489.874231)scale(0.165 -0.165)">
       <use xlink:href="#ArialMT-79"/>
       <use x="77.783203" xlink:href="#ArialMT-102"/>
       <use x="105.550781" xlink:href="#ArialMT-102"/>
       <use x="133.333984" xlink:href="#ArialMT-101"/>
       <use x="188.949219" xlink:href="#ArialMT-110"/>
       <use x="244.564453" xlink:href="#ArialMT-115"/>
       <use x="294.564453" xlink:href="#ArialMT-101"/>
      </g>
      <!--  Player 3 -->
      <defs>
       <path d="M 4.203125 18.890625 
L 12.984375 20.0625 
Q 14.5 12.59375 18.140625 9.296875 
Q 21.78125 6 27 6 
Q 33.203125 6 37.46875 10.296875 
Q 41.75 14.59375 41.75 20.953125 
Q 41.75 27 37.796875 30.921875 
Q 33.84375 34.859375 27.734375 34.859375 
Q 25.25 34.859375 21.53125 33.890625 
L 22.515625 41.609375 
Q 23.390625 41.5 23.921875 41.5 
Q 29.546875 41.5 34.03125 44.421875 
Q 38.53125 47.359375 38.53125 53.46875 
Q 38.53125 58.296875 35.25 61.46875 
Q 31.984375 64.65625 26.8125 64.65625 
Q 21.6875 64.65625 18.265625 61.421875 
Q 14.84375 58.203125 13.875 51.765625 
L 5.078125 53.328125 
Q 6.6875 62.15625 12.390625 67.015625 
Q 18.109375 71.875 26.609375 71.875 
Q 32.46875 71.875 37.390625 69.359375 
Q 42.328125 66.84375 44.9375 62.5 
Q 47.5625 58.15625 47.5625 53.265625 
Q 47.5625 48.640625 45.0625 44.828125 
Q 42.578125 41.015625 37.703125 38.765625 
Q 44.046875 37.3125 47.5625 32.6875 
Q 51.078125 28.078125 51.078125 21.140625 
Q 51.078125 11.765625 44.234375 5.25 
Q 37.40625 -1.265625 26.953125 -1.265625 
Q 17.53125 -1.265625 11.296875 4.34375 
Q 5.078125 9.96875 4.203125 18.890625 
z
" id="ArialMT-51"/>
      </defs>
      <g style="fill:#262626;" transform="translate(230.43293 507.384856)scale(0.165 -0.165)">
       <use xlink:href="#ArialMT-32"/>
       <use x="27.783203" xlink:href="#ArialMT-80"/>
       <use x="94.482422" xlink:href="#ArialMT-108"/>
       <use x="116.699219" xlink:href="#ArialMT-97"/>
       <use x="172.314453" xlink:href="#ArialMT-121"/>
       <use x="222.314453" xlink:href="#ArialMT-101"/>
       <use x="277.929688" xlink:href="#ArialMT-114"/>
       <use x="311.230469" xlink:href="#ArialMT-32"/>
       <use x="339.013672" xlink:href="#ArialMT-51"/>
      </g>
     </g>
    </g>
    <g id="xtick_4">
     <g id="text_4">
      <!-- Offense -->
      <g style="fill:#262626;" transform="translate(312.220313 489.874231)scale(0.165 -0.165)">
       <use xlink:href="#ArialMT-79"/>
       <use x="77.783203" xlink:href="#ArialMT-102"/>
       <use x="105.550781" xlink:href="#ArialMT-102"/>
       <use x="133.333984" xlink:href="#ArialMT-101"/>
       <use x="188.949219" xlink:href="#ArialMT-110"/>
       <use x="244.564453" xlink:href="#ArialMT-115"/>
       <use x="294.564453" xlink:href="#ArialMT-101"/>
      </g>
      <!--  Player 4 -->
      <defs>
       <path d="M 32.328125 0 
L 32.328125 17.140625 
L 1.265625 17.140625 
L 1.265625 25.203125 
L 33.9375 71.578125 
L 41.109375 71.578125 
L 41.109375 25.203125 
L 50.78125 25.203125 
L 50.78125 17.140625 
L 41.109375 17.140625 
L 41.109375 0 
z
M 32.328125 25.203125 
L 32.328125 57.46875 
L 9.90625 25.203125 
z
" id="ArialMT-52"/>
      </defs>
      <g style="fill:#262626;" transform="translate(308.55293 507.326075)scale(0.165 -0.165)">
       <use xlink:href="#ArialMT-32"/>
       <use x="27.783203" xlink:href="#ArialMT-80"/>
       <use x="94.482422" xlink:href="#ArialMT-108"/>
       <use x="116.699219" xlink:href="#ArialMT-97"/>
       <use x="172.314453" xlink:href="#ArialMT-121"/>
       <use x="222.314453" xlink:href="#ArialMT-101"/>
       <use x="277.929688" xlink:href="#ArialMT-114"/>
       <use x="311.230469" xlink:href="#ArialMT-32"/>
       <use x="339.013672" xlink:href="#ArialMT-52"/>
      </g>
     </g>
    </g>
    <g id="xtick_5">
     <g id="text_5">
      <!-- Offense -->
      <g style="fill:#262626;" transform="translate(390.340313 489.874231)scale(0.165 -0.165)">
       <use xlink:href="#ArialMT-79"/>
       <use x="77.783203" xlink:href="#ArialMT-102"/>
       <use x="105.550781" xlink:href="#ArialMT-102"/>
       <use x="133.333984" xlink:href="#ArialMT-101"/>
       <use x="188.949219" xlink:href="#ArialMT-110"/>
       <use x="244.564453" xlink:href="#ArialMT-115"/>
       <use x="294.564453" xlink:href="#ArialMT-101"/>
      </g>
      <!--  Player 5 -->
      <defs>
       <path d="M 4.15625 18.75 
L 13.375 19.53125 
Q 14.40625 12.796875 18.140625 9.390625 
Q 21.875 6 27.15625 6 
Q 33.5 6 37.890625 10.78125 
Q 42.28125 15.578125 42.28125 23.484375 
Q 42.28125 31 38.0625 35.34375 
Q 33.84375 39.703125 27 39.703125 
Q 22.75 39.703125 19.328125 37.765625 
Q 15.921875 35.84375 13.96875 32.765625 
L 5.71875 33.84375 
L 12.640625 70.609375 
L 48.25 70.609375 
L 48.25 62.203125 
L 19.671875 62.203125 
L 15.828125 42.96875 
Q 22.265625 47.46875 29.34375 47.46875 
Q 38.71875 47.46875 45.15625 40.96875 
Q 51.609375 34.46875 51.609375 24.265625 
Q 51.609375 14.546875 45.953125 7.46875 
Q 39.0625 -1.21875 27.15625 -1.21875 
Q 17.390625 -1.21875 11.203125 4.25 
Q 5.03125 9.71875 4.15625 18.75 
z
" id="ArialMT-53"/>
      </defs>
      <g style="fill:#262626;" transform="translate(386.67293 507.326075)scale(0.165 -0.165)">
       <use xlink:href="#ArialMT-32"/>
       <use x="27.783203" xlink:href="#ArialMT-80"/>
       <use x="94.482422" xlink:href="#ArialMT-108"/>
       <use x="116.699219" xlink:href="#ArialMT-97"/>
       <use x="172.314453" xlink:href="#ArialMT-121"/>
       <use x="222.314453" xlink:href="#ArialMT-101"/>
       <use x="277.929688" xlink:href="#ArialMT-114"/>
       <use x="311.230469" xlink:href="#ArialMT-32"/>
       <use x="339.013672" xlink:href="#ArialMT-53"/>
      </g>
     </g>
    </g>
    <g id="xtick_6">
     <g id="text_6">
      <!-- Defense -->
      <defs>
       <path d="M 7.71875 0 
L 7.71875 71.578125 
L 32.375 71.578125 
Q 40.71875 71.578125 45.125 70.5625 
Q 51.265625 69.140625 55.609375 65.4375 
Q 61.28125 60.640625 64.078125 53.1875 
Q 66.890625 45.75 66.890625 36.1875 
Q 66.890625 28.03125 64.984375 21.734375 
Q 63.09375 15.4375 60.109375 11.296875 
Q 57.125 7.171875 53.578125 4.796875 
Q 50.046875 2.4375 45.046875 1.21875 
Q 40.046875 0 33.546875 0 
z
M 17.1875 8.453125 
L 32.46875 8.453125 
Q 39.546875 8.453125 43.578125 9.765625 
Q 47.609375 11.078125 50 13.484375 
Q 53.375 16.84375 55.25 22.53125 
Q 57.125 28.21875 57.125 36.328125 
Q 57.125 47.5625 53.4375 53.59375 
Q 49.75 59.625 44.484375 61.671875 
Q 40.671875 63.140625 32.234375 63.140625 
L 17.1875 63.140625 
z
" id="ArialMT-68"/>
      </defs>
      <g style="fill:#262626;" transform="translate(466.622109 489.874231)scale(0.165 -0.165)">
       <use xlink:href="#ArialMT-68"/>
       <use x="72.216797" xlink:href="#ArialMT-101"/>
       <use x="127.832031" xlink:href="#ArialMT-102"/>
       <use x="155.615234" xlink:href="#ArialMT-101"/>
       <use x="211.230469" xlink:href="#ArialMT-110"/>
       <use x="266.845703" xlink:href="#ArialMT-115"/>
       <use x="316.845703" xlink:href="#ArialMT-101"/>
      </g>
      <!--  Player 1 -->
      <g style="fill:#262626;" transform="translate(464.79293 507.384856)scale(0.165 -0.165)">
       <use xlink:href="#ArialMT-32"/>
       <use x="27.783203" xlink:href="#ArialMT-80"/>
       <use x="94.482422" xlink:href="#ArialMT-108"/>
       <use x="116.699219" xlink:href="#ArialMT-97"/>
       <use x="172.314453" xlink:href="#ArialMT-121"/>
       <use x="222.314453" xlink:href="#ArialMT-101"/>
       <use x="277.929688" xlink:href="#ArialMT-114"/>
       <use x="311.230469" xlink:href="#ArialMT-32"/>
       <use x="339.013672" xlink:href="#ArialMT-49"/>
      </g>
     </g>
    </g>
    <g id="xtick_7">
     <g id="text_7">
      <!-- Defense -->
      <g style="fill:#262626;" transform="translate(544.742109 489.874231)scale(0.165 -0.165)">
       <use xlink:href="#ArialMT-68"/>
       <use x="72.216797" xlink:href="#ArialMT-101"/>
       <use x="127.832031" xlink:href="#ArialMT-102"/>
       <use x="155.615234" xlink:href="#ArialMT-101"/>
       <use x="211.230469" xlink:href="#ArialMT-110"/>
       <use x="266.845703" xlink:href="#ArialMT-115"/>
       <use x="316.845703" xlink:href="#ArialMT-101"/>
      </g>
      <!--  Player 2 -->
      <g style="fill:#262626;" transform="translate(542.91293 507.384856)scale(0.165 -0.165)">
       <use xlink:href="#ArialMT-32"/>
       <use x="27.783203" xlink:href="#ArialMT-80"/>
       <use x="94.482422" xlink:href="#ArialMT-108"/>
       <use x="116.699219" xlink:href="#ArialMT-97"/>
       <use x="172.314453" xlink:href="#ArialMT-121"/>
       <use x="222.314453" xlink:href="#ArialMT-101"/>
       <use x="277.929688" xlink:href="#ArialMT-114"/>
       <use x="311.230469" xlink:href="#ArialMT-32"/>
       <use x="339.013672" xlink:href="#ArialMT-50"/>
      </g>
     </g>
    </g>
    <g id="xtick_8">
     <g id="text_8">
      <!-- Defense -->
      <g style="fill:#262626;" transform="translate(622.862109 489.874231)scale(0.165 -0.165)">
       <use xlink:href="#ArialMT-68"/>
       <use x="72.216797" xlink:href="#ArialMT-101"/>
       <use x="127.832031" xlink:href="#ArialMT-102"/>
       <use x="155.615234" xlink:href="#ArialMT-101"/>
       <use x="211.230469" xlink:href="#ArialMT-110"/>
       <use x="266.845703" xlink:href="#ArialMT-115"/>
       <use x="316.845703" xlink:href="#ArialMT-101"/>
      </g>
      <!--  Player 3 -->
      <g style="fill:#262626;" transform="translate(621.03293 507.384856)scale(0.165 -0.165)">
       <use xlink:href="#ArialMT-32"/>
       <use x="27.783203" xlink:href="#ArialMT-80"/>
       <use x="94.482422" xlink:href="#ArialMT-108"/>
       <use x="116.699219" xlink:href="#ArialMT-97"/>
       <use x="172.314453" xlink:href="#ArialMT-121"/>
       <use x="222.314453" xlink:href="#ArialMT-101"/>
       <use x="277.929688" xlink:href="#ArialMT-114"/>
       <use x="311.230469" xlink:href="#ArialMT-32"/>
       <use x="339.013672" xlink:href="#ArialMT-51"/>
      </g>
     </g>
    </g>
    <g id="xtick_9">
     <g id="text_9">
      <!-- Defense -->
      <g style="fill:#262626;" transform="translate(700.982109 489.874231)scale(0.165 -0.165)">
       <use xlink:href="#ArialMT-68"/>
       <use x="72.216797" xlink:href="#ArialMT-101"/>
       <use x="127.832031" xlink:href="#ArialMT-102"/>
       <use x="155.615234" xlink:href="#ArialMT-101"/>
       <use x="211.230469" xlink:href="#ArialMT-110"/>
       <use x="266.845703" xlink:href="#ArialMT-115"/>
       <use x="316.845703" xlink:href="#ArialMT-101"/>
      </g>
      <!--  Player 4 -->
      <g style="fill:#262626;" transform="translate(699.15293 507.326075)scale(0.165 -0.165)">
       <use xlink:href="#ArialMT-32"/>
       <use x="27.783203" xlink:href="#ArialMT-80"/>
       <use x="94.482422" xlink:href="#ArialMT-108"/>
       <use x="116.699219" xlink:href="#ArialMT-97"/>
       <use x="172.314453" xlink:href="#ArialMT-121"/>
       <use x="222.314453" xlink:href="#ArialMT-101"/>
       <use x="277.929688" xlink:href="#ArialMT-114"/>
       <use x="311.230469" xlink:href="#ArialMT-32"/>
       <use x="339.013672" xlink:href="#ArialMT-52"/>
      </g>
     </g>
    </g>
    <g id="xtick_10">
     <g id="text_10">
      <!-- Defense -->
      <g style="fill:#262626;" transform="translate(779.102109 489.874231)scale(0.165 -0.165)">
       <use xlink:href="#ArialMT-68"/>
       <use x="72.216797" xlink:href="#ArialMT-101"/>
       <use x="127.832031" xlink:href="#ArialMT-102"/>
       <use x="155.615234" xlink:href="#ArialMT-101"/>
       <use x="211.230469" xlink:href="#ArialMT-110"/>
       <use x="266.845703" xlink:href="#ArialMT-115"/>
       <use x="316.845703" xlink:href="#ArialMT-101"/>
      </g>
      <!--  Player 5 -->
      <g style="fill:#262626;" transform="translate(777.27293 507.326075)scale(0.165 -0.165)">
       <use xlink:href="#ArialMT-32"/>
       <use x="27.783203" xlink:href="#ArialMT-80"/>
       <use x="94.482422" xlink:href="#ArialMT-108"/>
       <use x="116.699219" xlink:href="#ArialMT-97"/>
       <use x="172.314453" xlink:href="#ArialMT-121"/>
       <use x="222.314453" xlink:href="#ArialMT-101"/>
       <use x="277.929688" xlink:href="#ArialMT-114"/>
       <use x="311.230469" xlink:href="#ArialMT-32"/>
       <use x="339.013672" xlink:href="#ArialMT-53"/>
      </g>
     </g>
    </g>
    <g id="text_11">
     <!-- Features -->
     <defs>
      <path d="M 8.203125 0 
L 8.203125 71.578125 
L 56.5 71.578125 
L 56.5 63.140625 
L 17.671875 63.140625 
L 17.671875 40.96875 
L 51.265625 40.96875 
L 51.265625 32.515625 
L 17.671875 32.515625 
L 17.671875 0 
z
" id="ArialMT-70"/>
      <path d="M 25.78125 7.859375 
L 27.046875 0.09375 
Q 23.34375 -0.6875 20.40625 -0.6875 
Q 15.625 -0.6875 12.984375 0.828125 
Q 10.359375 2.34375 9.28125 4.8125 
Q 8.203125 7.28125 8.203125 15.1875 
L 8.203125 45.015625 
L 1.765625 45.015625 
L 1.765625 51.859375 
L 8.203125 51.859375 
L 8.203125 64.703125 
L 16.9375 69.96875 
L 16.9375 51.859375 
L 25.78125 51.859375 
L 25.78125 45.015625 
L 16.9375 45.015625 
L 16.9375 14.703125 
Q 16.9375 10.9375 17.40625 9.859375 
Q 17.875 8.796875 18.921875 8.15625 
Q 19.96875 7.515625 21.921875 7.515625 
Q 23.390625 7.515625 25.78125 7.859375 
z
" id="ArialMT-116"/>
      <path d="M 40.578125 0 
L 40.578125 7.625 
Q 34.515625 -1.171875 24.125 -1.171875 
Q 19.53125 -1.171875 15.546875 0.578125 
Q 11.578125 2.34375 9.640625 5 
Q 7.71875 7.671875 6.9375 11.53125 
Q 6.390625 14.109375 6.390625 19.734375 
L 6.390625 51.859375 
L 15.1875 51.859375 
L 15.1875 23.09375 
Q 15.1875 16.21875 15.71875 13.8125 
Q 16.546875 10.359375 19.234375 8.375 
Q 21.921875 6.390625 25.875 6.390625 
Q 29.828125 6.390625 33.296875 8.421875 
Q 36.765625 10.453125 38.203125 13.9375 
Q 39.65625 17.4375 39.65625 24.078125 
L 39.65625 51.859375 
L 48.4375 51.859375 
L 48.4375 0 
z
" id="ArialMT-117"/>
     </defs>
     <g style="fill:#262626;" transform="translate(422.774766 527.741653)scale(0.18 -0.18)">
      <use xlink:href="#ArialMT-70"/>
      <use x="61.083984" xlink:href="#ArialMT-101"/>
      <use x="116.699219" xlink:href="#ArialMT-97"/>
      <use x="172.314453" xlink:href="#ArialMT-116"/>
      <use x="200.097656" xlink:href="#ArialMT-117"/>
      <use x="255.712891" xlink:href="#ArialMT-114"/>
      <use x="289.013672" xlink:href="#ArialMT-101"/>
      <use x="344.628906" xlink:href="#ArialMT-115"/>
     </g>
    </g>
   </g>
   <g id="matplotlib.axis_2">
    <g id="ytick_1">
     <g id="line2d_1">
      <path clip-path="url(#p07ccb4fc96)" d="M 67.688203 411.789004 
L 848.888203 411.789004 
" style="fill:none;stroke:#cccccc;stroke-linecap:round;stroke-width:1.5;"/>
     </g>
     <g id="text_12">
      <!-- 90 -->
      <defs>
       <path d="M 5.46875 16.546875 
L 13.921875 17.328125 
Q 14.984375 11.375 18.015625 8.6875 
Q 21.046875 6 25.78125 6 
Q 29.828125 6 32.875 7.859375 
Q 35.9375 9.71875 37.890625 12.8125 
Q 39.84375 15.921875 41.15625 21.1875 
Q 42.484375 26.46875 42.484375 31.9375 
Q 42.484375 32.515625 42.4375 33.6875 
Q 39.796875 29.5 35.234375 26.875 
Q 30.671875 24.265625 25.34375 24.265625 
Q 16.453125 24.265625 10.296875 30.703125 
Q 4.15625 37.15625 4.15625 47.703125 
Q 4.15625 58.59375 10.578125 65.234375 
Q 17 71.875 26.65625 71.875 
Q 33.640625 71.875 39.421875 68.109375 
Q 45.21875 64.359375 48.21875 57.390625 
Q 51.21875 50.4375 51.21875 37.25 
Q 51.21875 23.53125 48.234375 15.40625 
Q 45.265625 7.28125 39.375 3.03125 
Q 33.5 -1.21875 25.59375 -1.21875 
Q 17.1875 -1.21875 11.859375 3.4375 
Q 6.546875 8.109375 5.46875 16.546875 
z
M 41.453125 48.140625 
Q 41.453125 55.71875 37.421875 60.15625 
Q 33.40625 64.59375 27.734375 64.59375 
Q 21.875 64.59375 17.53125 59.8125 
Q 13.1875 55.03125 13.1875 47.40625 
Q 13.1875 40.578125 17.3125 36.296875 
Q 21.4375 32.03125 27.484375 32.03125 
Q 33.59375 32.03125 37.515625 36.296875 
Q 41.453125 40.578125 41.453125 48.140625 
z
" id="ArialMT-57"/>
       <path d="M 4.15625 35.296875 
Q 4.15625 48 6.765625 55.734375 
Q 9.375 63.484375 14.515625 67.671875 
Q 19.671875 71.875 27.484375 71.875 
Q 33.25 71.875 37.59375 69.546875 
Q 41.9375 67.234375 44.765625 62.859375 
Q 47.609375 58.5 49.21875 52.21875 
Q 50.828125 45.953125 50.828125 35.296875 
Q 50.828125 22.703125 48.234375 14.96875 
Q 45.65625 7.234375 40.5 3 
Q 35.359375 -1.21875 27.484375 -1.21875 
Q 17.140625 -1.21875 11.234375 6.203125 
Q 4.15625 15.140625 4.15625 35.296875 
z
M 13.1875 35.296875 
Q 13.1875 17.671875 17.3125 11.828125 
Q 21.4375 6 27.484375 6 
Q 33.546875 6 37.671875 11.859375 
Q 41.796875 17.71875 41.796875 35.296875 
Q 41.796875 52.984375 37.671875 58.78125 
Q 33.546875 64.59375 27.390625 64.59375 
Q 21.34375 64.59375 17.71875 59.46875 
Q 13.1875 52.9375 13.1875 35.296875 
z
" id="ArialMT-48"/>
      </defs>
      <g style="fill:#262626;" transform="translate(36.837109 417.6942)scale(0.165 -0.165)">
       <use xlink:href="#ArialMT-57"/>
       <use x="55.615234" xlink:href="#ArialMT-48"/>
      </g>
     </g>
    </g>
    <g id="ytick_2">
     <g id="line2d_2">
      <path clip-path="url(#p07ccb4fc96)" d="M 67.688203 342.705914 
L 848.888203 342.705914 
" style="fill:none;stroke:#cccccc;stroke-linecap:round;stroke-width:1.5;"/>
     </g>
     <g id="text_13">
      <!-- 100 -->
      <g style="fill:#262626;" transform="translate(27.661563 348.611109)scale(0.165 -0.165)">
       <use xlink:href="#ArialMT-49"/>
       <use x="55.615234" xlink:href="#ArialMT-48"/>
       <use x="111.230469" xlink:href="#ArialMT-48"/>
      </g>
     </g>
    </g>
    <g id="ytick_3">
     <g id="line2d_3">
      <path clip-path="url(#p07ccb4fc96)" d="M 67.688203 273.622824 
L 848.888203 273.622824 
" style="fill:none;stroke:#cccccc;stroke-linecap:round;stroke-width:1.5;"/>
     </g>
     <g id="text_14">
      <!-- 110 -->
      <g style="fill:#262626;" transform="translate(27.679609 279.528019)scale(0.165 -0.165)">
       <use xlink:href="#ArialMT-49"/>
       <use x="55.505859" xlink:href="#ArialMT-49"/>
       <use x="111.121094" xlink:href="#ArialMT-48"/>
      </g>
     </g>
    </g>
    <g id="ytick_4">
     <g id="line2d_4">
      <path clip-path="url(#p07ccb4fc96)" d="M 67.688203 204.539734 
L 848.888203 204.539734 
" style="fill:none;stroke:#cccccc;stroke-linecap:round;stroke-width:1.5;"/>
     </g>
     <g id="text_15">
      <!-- 120 -->
      <g style="fill:#262626;" transform="translate(27.661563 210.444929)scale(0.165 -0.165)">
       <use xlink:href="#ArialMT-49"/>
       <use x="55.615234" xlink:href="#ArialMT-50"/>
       <use x="111.230469" xlink:href="#ArialMT-48"/>
      </g>
     </g>
    </g>
    <g id="ytick_5">
     <g id="line2d_5">
      <path clip-path="url(#p07ccb4fc96)" d="M 67.688203 135.456643 
L 848.888203 135.456643 
" style="fill:none;stroke:#cccccc;stroke-linecap:round;stroke-width:1.5;"/>
     </g>
     <g id="text_16">
      <!-- 130 -->
      <g style="fill:#262626;" transform="translate(27.661563 141.361839)scale(0.165 -0.165)">
       <use xlink:href="#ArialMT-49"/>
       <use x="55.615234" xlink:href="#ArialMT-51"/>
       <use x="111.230469" xlink:href="#ArialMT-48"/>
      </g>
     </g>
    </g>
    <g id="ytick_6">
     <g id="line2d_6">
      <path clip-path="url(#p07ccb4fc96)" d="M 67.688203 66.373553 
L 848.888203 66.373553 
" style="fill:none;stroke:#cccccc;stroke-linecap:round;stroke-width:1.5;"/>
     </g>
     <g id="text_17">
      <!-- 140 -->
      <g style="fill:#262626;" transform="translate(27.661563 72.278748)scale(0.165 -0.165)">
       <use xlink:href="#ArialMT-49"/>
       <use x="55.615234" xlink:href="#ArialMT-52"/>
       <use x="111.230469" xlink:href="#ArialMT-48"/>
      </g>
     </g>
    </g>
    <g id="text_18">
     <!-- Points Per 100 Possession -->
     <defs>
      <path d="M 3.328125 25.921875 
Q 3.328125 40.328125 11.328125 47.265625 
Q 18.015625 53.03125 27.640625 53.03125 
Q 38.328125 53.03125 45.109375 46.015625 
Q 51.90625 39.015625 51.90625 26.65625 
Q 51.90625 16.65625 48.90625 10.90625 
Q 45.90625 5.171875 40.15625 2 
Q 34.421875 -1.171875 27.640625 -1.171875 
Q 16.75 -1.171875 10.03125 5.8125 
Q 3.328125 12.796875 3.328125 25.921875 
z
M 12.359375 25.921875 
Q 12.359375 15.96875 16.703125 11.015625 
Q 21.046875 6.0625 27.640625 6.0625 
Q 34.1875 6.0625 38.53125 11.03125 
Q 42.875 16.015625 42.875 26.21875 
Q 42.875 35.84375 38.5 40.796875 
Q 34.125 45.75 27.640625 45.75 
Q 21.046875 45.75 16.703125 40.8125 
Q 12.359375 35.890625 12.359375 25.921875 
z
" id="ArialMT-111"/>
      <path d="M 6.640625 61.46875 
L 6.640625 71.578125 
L 15.4375 71.578125 
L 15.4375 61.46875 
z
M 6.640625 0 
L 6.640625 51.859375 
L 15.4375 51.859375 
L 15.4375 0 
z
" id="ArialMT-105"/>
     </defs>
     <g style="fill:#262626;" transform="translate(20.084063 348.534225)rotate(-90)scale(0.18 -0.18)">
      <use xlink:href="#ArialMT-80"/>
      <use x="66.699219" xlink:href="#ArialMT-111"/>
      <use x="122.314453" xlink:href="#ArialMT-105"/>
      <use x="144.53125" xlink:href="#ArialMT-110"/>
      <use x="200.146484" xlink:href="#ArialMT-116"/>
      <use x="227.929688" xlink:href="#ArialMT-115"/>
      <use x="277.929688" xlink:href="#ArialMT-32"/>
      <use x="305.712891" xlink:href="#ArialMT-80"/>
      <use x="372.412109" xlink:href="#ArialMT-101"/>
      <use x="428.027344" xlink:href="#ArialMT-114"/>
      <use x="461.328125" xlink:href="#ArialMT-32"/>
      <use x="489.111328" xlink:href="#ArialMT-49"/>
      <use x="544.726562" xlink:href="#ArialMT-48"/>
      <use x="600.341797" xlink:href="#ArialMT-48"/>
      <use x="655.957031" xlink:href="#ArialMT-32"/>
      <use x="683.740234" xlink:href="#ArialMT-80"/>
      <use x="750.439453" xlink:href="#ArialMT-111"/>
      <use x="806.054688" xlink:href="#ArialMT-115"/>
      <use x="856.054688" xlink:href="#ArialMT-115"/>
      <use x="906.054688" xlink:href="#ArialMT-101"/>
      <use x="961.669922" xlink:href="#ArialMT-115"/>
      <use x="1011.669922" xlink:href="#ArialMT-115"/>
      <use x="1061.669922" xlink:href="#ArialMT-105"/>
      <use x="1083.886719" xlink:href="#ArialMT-111"/>
      <use x="1139.501953" xlink:href="#ArialMT-110"/>
     </g>
    </g>
   </g>
   <g id="PolyCollection_1">
    <defs>
     <path d="M 106.772585 -179.890722 
L 106.723822 -179.890722 
L 106.704027 -183.143187 
L 106.673686 -186.395652 
L 106.630963 -189.648116 
L 106.575692 -192.900581 
L 106.509837 -196.153046 
L 106.436994 -199.405511 
L 106.360682 -202.657976 
L 106.281746 -205.91044 
L 106.195813 -209.162905 
L 106.091957 -212.41537 
L 105.95345 -215.667835 
L 105.760656 -218.920299 
L 105.495358 -222.172764 
L 105.145148 -225.425229 
L 104.706363 -228.677694 
L 104.184246 -231.930159 
L 103.589903 -235.182623 
L 102.934904 -238.435088 
L 102.225773 -241.687553 
L 101.461173 -244.940018 
L 100.63361 -248.192482 
L 99.735335 -251.444947 
L 98.765724 -254.697412 
L 97.736324 -257.949877 
L 96.670516 -261.202342 
L 95.597324 -264.454806 
L 94.541902 -267.707271 
L 93.517504 -270.959736 
L 92.523563 -274.212201 
L 91.551697 -277.464665 
L 90.597281 -280.71713 
L 89.671062 -283.969595 
L 88.805269 -287.22206 
L 88.051355 -290.474524 
L 87.470037 -293.726989 
L 87.116723 -296.979454 
L 87.026462 -300.231919 
L 87.202847 -303.484384 
L 87.614707 -306.736848 
L 88.202346 -309.989313 
L 88.891532 -313.241778 
L 89.610252 -316.494243 
L 90.302524 -319.746707 
L 90.935826 -322.999172 
L 91.502006 -326.251637 
L 92.013508 -329.504102 
L 92.496704 -332.756567 
L 92.983373 -336.009031 
L 93.501472 -339.261496 
L 94.067336 -342.513961 
L 94.682076 -345.766426 
L 95.333908 -349.01889 
L 96.005686 -352.271355 
L 96.684322 -355.52382 
L 97.367577 -358.776285 
L 98.064648 -362.02875 
L 98.789846 -365.281214 
L 99.552099 -368.533679 
L 100.345468 -371.786144 
L 101.145689 -375.038609 
L 101.914966 -378.291073 
L 102.61311 -381.543538 
L 103.210102 -384.796003 
L 103.694679 -388.048468 
L 104.075737 -391.300933 
L 104.376674 -394.553397 
L 104.62564 -397.805862 
L 104.845941 -401.058327 
L 105.050272 -404.310792 
L 105.240516 -407.563256 
L 105.412254 -410.815721 
L 105.561094 -414.068186 
L 105.687338 -417.320651 
L 105.796787 -420.573116 
L 105.897873 -423.82558 
L 105.997352 -427.078045 
L 106.097311 -430.33051 
L 106.195017 -433.582975 
L 106.285251 -436.835439 
L 106.363412 -440.087904 
L 106.427629 -443.340369 
L 106.479036 -446.592834 
L 106.520505 -449.845299 
L 106.554804 -453.097763 
L 106.583265 -456.350228 
L 106.605533 -459.602693 
L 106.620433 -462.855158 
L 106.627366 -466.107622 
L 106.627461 -469.360087 
L 106.623831 -472.612552 
L 106.620765 -475.865017 
L 106.622252 -479.117482 
L 106.630563 -482.369946 
L 106.645581 -485.622411 
L 106.665118 -488.874876 
L 106.685974 -492.127341 
L 106.705158 -495.379805 
L 106.720726 -498.63227 
L 106.732025 -501.884735 
L 106.764382 -501.884735 
L 106.764382 -501.884735 
L 106.77568 -498.63227 
L 106.791249 -495.379805 
L 106.810432 -492.127341 
L 106.831289 -488.874876 
L 106.850826 -485.622411 
L 106.865843 -482.369946 
L 106.874154 -479.117482 
L 106.875641 -475.865017 
L 106.872575 -472.612552 
L 106.868946 -469.360087 
L 106.869041 -466.107622 
L 106.875973 -462.855158 
L 106.890873 -459.602693 
L 106.913141 -456.350228 
L 106.941602 -453.097763 
L 106.975902 -449.845299 
L 107.01737 -446.592834 
L 107.068778 -443.340369 
L 107.132994 -440.087904 
L 107.211155 -436.835439 
L 107.301389 -433.582975 
L 107.399096 -430.33051 
L 107.499054 -427.078045 
L 107.598533 -423.82558 
L 107.699619 -420.573116 
L 107.809068 -417.320651 
L 107.935312 -414.068186 
L 108.084152 -410.815721 
L 108.25589 -407.563256 
L 108.446134 -404.310792 
L 108.650465 -401.058327 
L 108.870766 -397.805862 
L 109.119732 -394.553397 
L 109.420669 -391.300933 
L 109.801727 -388.048468 
L 110.286304 -384.796003 
L 110.883296 -381.543538 
L 111.581441 -378.291073 
L 112.350717 -375.038609 
L 113.150938 -371.786144 
L 113.944307 -368.533679 
L 114.706561 -365.281214 
L 115.431758 -362.02875 
L 116.128829 -358.776285 
L 116.812084 -355.52382 
L 117.490721 -352.271355 
L 118.162499 -349.01889 
L 118.81433 -345.766426 
L 119.42907 -342.513961 
L 119.994934 -339.261496 
L 120.513033 -336.009031 
L 120.999703 -332.756567 
L 121.482898 -329.504102 
L 121.9944 -326.251637 
L 122.56058 -322.999172 
L 123.193883 -319.746707 
L 123.886155 -316.494243 
L 124.604875 -313.241778 
L 125.29406 -309.989313 
L 125.881699 -306.736848 
L 126.29356 -303.484384 
L 126.469945 -300.231919 
L 126.379684 -296.979454 
L 126.026369 -293.726989 
L 125.445051 -290.474524 
L 124.691137 -287.22206 
L 123.825344 -283.969595 
L 122.899125 -280.71713 
L 121.944709 -277.464665 
L 120.972843 -274.212201 
L 119.978902 -270.959736 
L 118.954505 -267.707271 
L 117.899082 -264.454806 
L 116.82589 -261.202342 
L 115.760083 -257.949877 
L 114.730682 -254.697412 
L 113.761072 -251.444947 
L 112.862796 -248.192482 
L 112.035233 -244.940018 
L 111.270633 -241.687553 
L 110.561503 -238.435088 
L 109.906503 -235.182623 
L 109.31216 -231.930159 
L 108.790043 -228.677694 
L 108.351258 -225.425229 
L 108.001049 -222.172764 
L 107.73575 -218.920299 
L 107.542956 -215.667835 
L 107.404449 -212.41537 
L 107.300594 -209.162905 
L 107.21466 -205.91044 
L 107.135724 -202.657976 
L 107.059412 -199.405511 
L 106.986569 -196.153046 
L 106.920714 -192.900581 
L 106.865443 -189.648116 
L 106.822721 -186.395652 
L 106.79238 -183.143187 
L 106.772585 -179.890722 
z
" id="m1950da3fcc" style="stroke:#3d3d3d;stroke-width:2.25;"/>
    </defs>
    <g clip-path="url(#p07ccb4fc96)">
     <use style="fill:#3274a1;stroke:#3d3d3d;stroke-width:2.25;" x="0" xlink:href="#m1950da3fcc" y="538.519153"/>
    </g>
   </g>
   <g id="PolyCollection_2">
    <defs>
     <path d="M 184.892204 -169.733427 
L 184.844202 -169.733427 
L 184.828877 -172.004815 
L 184.806601 -174.276202 
L 184.775715 -176.547589 
L 184.734699 -178.818977 
L 184.682269 -181.090364 
L 184.617358 -183.361751 
L 184.538978 -185.633139 
L 184.445998 -187.904526 
L 184.336894 -190.175914 
L 184.209587 -192.447301 
L 184.061413 -194.718688 
L 183.889296 -196.990076 
L 183.690148 -199.261463 
L 183.461441 -201.53285 
L 183.201814 -203.804238 
L 182.91145 -206.075625 
L 182.591853 -208.347012 
L 182.244803 -210.6184 
L 181.870504 -212.889787 
L 181.46547 -215.161175 
L 181.020989 -217.432562 
L 180.523084 -219.703949 
L 179.954454 -221.975337 
L 179.298184 -224.246724 
L 178.542307 -226.518111 
L 177.683941 -228.789499 
L 176.731841 -231.060886 
L 175.706684 -233.332273 
L 174.638981 -235.603661 
L 173.565043 -237.875048 
L 172.521728 -240.146436 
L 171.540914 -242.417823 
L 170.644706 -244.68921 
L 169.842371 -246.960598 
L 169.129718 -249.231985 
L 168.491184 -251.503372 
L 167.90417 -253.77476 
L 167.344615 -256.046147 
L 166.792348 -258.317534 
L 166.234883 -260.588922 
L 165.668822 -262.860309 
L 165.098846 -265.131697 
L 164.535163 -267.403084 
L 163.990793 -269.674471 
L 163.480046 -271.945859 
L 163.018897 -274.217246 
L 162.626909 -276.488633 
L 162.329351 -278.760021 
L 162.15775 -281.031408 
L 162.147502 -283.302796 
L 162.332308 -285.574183 
L 162.736547 -287.84557 
L 163.367698 -290.116958 
L 164.211087 -292.388345 
L 165.228622 -294.659732 
L 166.362044 -296.93112 
L 167.540056 -299.202507 
L 168.687929 -301.473894 
L 169.737795 -303.745282 
L 170.637937 -306.016669 
L 171.359594 -308.288057 
L 171.900212 -310.559444 
L 172.282515 -312.830831 
L 172.549448 -315.102219 
L 172.755804 -317.373606 
L 172.958149 -319.644993 
L 173.205169 -321.916381 
L 173.530618 -324.187768 
L 173.95035 -326.459155 
L 174.463773 -328.730543 
L 175.058714 -331.00193 
L 175.717666 -333.273318 
L 176.423146 -335.544705 
L 177.160498 -337.816092 
L 177.917704 -340.08748 
L 178.683061 -342.358867 
L 179.442406 -344.630254 
L 180.177589 -346.901642 
L 180.867154 -349.173029 
L 181.489172 -351.444416 
L 182.02523 -353.715804 
L 182.464244 -355.987191 
L 182.804857 -358.258579 
L 183.055796 -360.529966 
L 183.234158 -362.801353 
L 183.362151 -365.072741 
L 183.46311 -367.344128 
L 183.557654 -369.615515 
L 183.660748 -371.886903 
L 183.780164 -374.15829 
L 183.916493 -376.429678 
L 184.064538 -378.701065 
L 184.215611 -380.972452 
L 184.360103 -383.24384 
L 184.48972 -385.515227 
L 184.598933 -387.786614 
L 184.685493 -390.058002 
L 184.750099 -392.329389 
L 184.795551 -394.600776 
L 184.940855 -394.600776 
L 184.940855 -394.600776 
L 184.986307 -392.329389 
L 185.050914 -390.058002 
L 185.137473 -387.786614 
L 185.246686 -385.515227 
L 185.376303 -383.24384 
L 185.520795 -380.972452 
L 185.671868 -378.701065 
L 185.819913 -376.429678 
L 185.956242 -374.15829 
L 186.075658 -371.886903 
L 186.178752 -369.615515 
L 186.273296 -367.344128 
L 186.374255 -365.072741 
L 186.502249 -362.801353 
L 186.68061 -360.529966 
L 186.931549 -358.258579 
L 187.272162 -355.987191 
L 187.711176 -353.715804 
L 188.247234 -351.444416 
L 188.869252 -349.173029 
L 189.558818 -346.901642 
L 190.294001 -344.630254 
L 191.053346 -342.358867 
L 191.818702 -340.08748 
L 192.575908 -337.816092 
L 193.313261 -335.544705 
L 194.018741 -333.273318 
L 194.677693 -331.00193 
L 195.272633 -328.730543 
L 195.786056 -326.459155 
L 196.205788 -324.187768 
L 196.531237 -321.916381 
L 196.778257 -319.644993 
L 196.980602 -317.373606 
L 197.186959 -315.102219 
L 197.453891 -312.830831 
L 197.836194 -310.559444 
L 198.376812 -308.288057 
L 199.098469 -306.016669 
L 199.998611 -303.745282 
L 201.048477 -301.473894 
L 202.19635 -299.202507 
L 203.374363 -296.93112 
L 204.507784 -294.659732 
L 205.525319 -292.388345 
L 206.368708 -290.116958 
L 206.999859 -287.84557 
L 207.404099 -285.574183 
L 207.588904 -283.302796 
L 207.578656 -281.031408 
L 207.407055 -278.760021 
L 207.109497 -276.488633 
L 206.717509 -274.217246 
L 206.256361 -271.945859 
L 205.745613 -269.674471 
L 205.201243 -267.403084 
L 204.637561 -265.131697 
L 204.067585 -262.860309 
L 203.501523 -260.588922 
L 202.944059 -258.317534 
L 202.391791 -256.046147 
L 201.832236 -253.77476 
L 201.245223 -251.503372 
L 200.606688 -249.231985 
L 199.894036 -246.960598 
L 199.0917 -244.68921 
L 198.195492 -242.417823 
L 197.214678 -240.146436 
L 196.171363 -237.875048 
L 195.097425 -235.603661 
L 194.029722 -233.332273 
L 193.004565 -231.060886 
L 192.052466 -228.789499 
L 191.194099 -226.518111 
L 190.438222 -224.246724 
L 189.781952 -221.975337 
L 189.213322 -219.703949 
L 188.715417 -217.432562 
L 188.270937 -215.161175 
L 187.865903 -212.889787 
L 187.491604 -210.6184 
L 187.144553 -208.347012 
L 186.824957 -206.075625 
L 186.534592 -203.804238 
L 186.274966 -201.53285 
L 186.046258 -199.261463 
L 185.847111 -196.990076 
L 185.674994 -194.718688 
L 185.526819 -192.447301 
L 185.399512 -190.175914 
L 185.290409 -187.904526 
L 185.197428 -185.633139 
L 185.119048 -183.361751 
L 185.054137 -181.090364 
L 185.001707 -178.818977 
L 184.960692 -176.547589 
L 184.929805 -174.276202 
L 184.907529 -172.004815 
L 184.892204 -169.733427 
z
" id="m6ea6210207" style="stroke:#3d3d3d;stroke-width:2.25;"/>
    </defs>
    <g clip-path="url(#p07ccb4fc96)">
     <use style="fill:#e1812c;stroke:#3d3d3d;stroke-width:2.25;" x="0" xlink:href="#m6ea6210207" y="538.519153"/>
    </g>
   </g>
   <g id="PolyCollection_3">
    <defs>
     <path d="M 263.03169 -149.742535 
L 262.944716 -149.742535 
L 262.917223 -152.068874 
L 262.879083 -154.395214 
L 262.830029 -156.721553 
L 262.771676 -159.047892 
L 262.707602 -161.374232 
L 262.642655 -163.700571 
L 262.581403 -166.02691 
L 262.52604 -168.353249 
L 262.474339 -170.679589 
L 262.418375 -173.005928 
L 262.344589 -175.332267 
L 262.235332 -177.658606 
L 262.071603 -179.984946 
L 261.836296 -182.311285 
L 261.517184 -184.637624 
L 261.109018 -186.963964 
L 260.614454 -189.290303 
L 260.043866 -191.616642 
L 259.414279 -193.942981 
L 258.74762 -196.269321 
L 258.068293 -198.59566 
L 257.399903 -200.921999 
L 256.761102 -203.248338 
L 256.160974 -205.574678 
L 255.595112 -207.901017 
L 255.044013 -210.227356 
L 254.475273 -212.553696 
L 253.850003 -214.880035 
L 253.132317 -217.206374 
L 252.299263 -219.532713 
L 251.348007 -221.859053 
L 250.297836 -224.185392 
L 249.186311 -226.511731 
L 248.060976 -228.838071 
L 246.969387 -231.16441 
L 245.950476 -233.490749 
L 245.029291 -235.817088 
L 244.215743 -238.143428 
L 243.506748 -240.469767 
L 242.890649 -242.796106 
L 242.352762 -245.122445 
L 241.881077 -247.448785 
L 241.470929 -249.775124 
L 241.12729 -252.101463 
L 240.863419 -254.427803 
L 240.695636 -256.754142 
L 240.63559 -259.080481 
L 240.682963 -261.40682 
L 240.821966 -263.73316 
L 241.023952 -266.059499 
L 241.256081 -268.385838 
L 241.493426 -270.712177 
L 241.730144 -273.038517 
L 241.985348 -275.364856 
L 242.300904 -277.691195 
L 242.731211 -280.017535 
L 243.327789 -282.343874 
L 244.123406 -284.670213 
L 245.120717 -286.996552 
L 246.28894 -289.322892 
L 247.569509 -291.649231 
L 248.888782 -293.97557 
L 250.17379 -296.301909 
L 251.366391 -298.628249 
L 252.432112 -300.954588 
L 253.362036 -303.280927 
L 254.168428 -305.607267 
L 254.876542 -307.933606 
L 255.515614 -310.259945 
L 256.111546 -312.586284 
L 256.682551 -314.912624 
L 257.237857 -317.238963 
L 257.778796 -319.565302 
L 258.301346 -321.891642 
L 258.799246 -324.217981 
L 259.266857 -326.54432 
L 259.701066 -328.870659 
L 260.101745 -331.196999 
L 260.470787 -333.523338 
L 260.81028 -335.849677 
L 261.120768 -338.176016 
L 261.400476 -340.502356 
L 261.645882 -342.828695 
L 261.853354 -345.155034 
L 262.021141 -347.481374 
L 262.150878 -349.807713 
L 262.248055 -352.134052 
L 262.321302 -354.460391 
L 262.380728 -356.786731 
L 262.435825 -359.11307 
L 262.493568 -361.439409 
L 262.557253 -363.765748 
L 262.626375 -366.092088 
L 262.697522 -368.418427 
L 262.7659 -370.744766 
L 262.826954 -373.071106 
L 262.877557 -375.397445 
L 262.916516 -377.723784 
L 262.94441 -380.050123 
L 263.031996 -380.050123 
L 263.031996 -380.050123 
L 263.05989 -377.723784 
L 263.098849 -375.397445 
L 263.149452 -373.071106 
L 263.210506 -370.744766 
L 263.278885 -368.418427 
L 263.350031 -366.092088 
L 263.419153 -363.765748 
L 263.482838 -361.439409 
L 263.540582 -359.11307 
L 263.595678 -356.786731 
L 263.655104 -354.460391 
L 263.728352 -352.134052 
L 263.825529 -349.807713 
L 263.955265 -347.481374 
L 264.123052 -345.155034 
L 264.330525 -342.828695 
L 264.57593 -340.502356 
L 264.855638 -338.176016 
L 265.166126 -335.849677 
L 265.505619 -333.523338 
L 265.874661 -331.196999 
L 266.27534 -328.870659 
L 266.709549 -326.54432 
L 267.177161 -324.217981 
L 267.67506 -321.891642 
L 268.19761 -319.565302 
L 268.738549 -317.238963 
L 269.293855 -314.912624 
L 269.86486 -312.586284 
L 270.460792 -310.259945 
L 271.099864 -307.933606 
L 271.807978 -305.607267 
L 272.614371 -303.280927 
L 273.544294 -300.954588 
L 274.610015 -298.628249 
L 275.802616 -296.301909 
L 277.087624 -293.97557 
L 278.406897 -291.649231 
L 279.687467 -289.322892 
L 280.85569 -286.996552 
L 281.853 -284.670213 
L 282.648617 -282.343874 
L 283.245195 -280.017535 
L 283.675502 -277.691195 
L 283.991058 -275.364856 
L 284.246262 -273.038517 
L 284.482981 -270.712177 
L 284.720325 -268.385838 
L 284.952454 -266.059499 
L 285.15444 -263.73316 
L 285.293443 -261.40682 
L 285.340816 -259.080481 
L 285.280771 -256.754142 
L 285.112987 -254.427803 
L 284.849117 -252.101463 
L 284.505478 -249.775124 
L 284.09533 -247.448785 
L 283.623644 -245.122445 
L 283.085757 -242.796106 
L 282.469658 -240.469767 
L 281.760664 -238.143428 
L 280.947115 -235.817088 
L 280.02593 -233.490749 
L 279.007019 -231.16441 
L 277.915431 -228.838071 
L 276.790095 -226.511731 
L 275.678571 -224.185392 
L 274.628399 -221.859053 
L 273.677143 -219.532713 
L 272.84409 -217.206374 
L 272.126404 -214.880035 
L 271.501133 -212.553696 
L 270.932393 -210.227356 
L 270.381295 -207.901017 
L 269.815432 -205.574678 
L 269.215304 -203.248338 
L 268.576503 -200.921999 
L 267.908114 -198.59566 
L 267.228786 -196.269321 
L 266.562127 -193.942981 
L 265.93254 -191.616642 
L 265.361952 -189.290303 
L 264.867388 -186.963964 
L 264.459222 -184.637624 
L 264.14011 -182.311285 
L 263.904803 -179.984946 
L 263.741074 -177.658606 
L 263.631817 -175.332267 
L 263.558031 -173.005928 
L 263.502068 -170.679589 
L 263.450366 -168.353249 
L 263.395003 -166.02691 
L 263.333751 -163.700571 
L 263.268804 -161.374232 
L 263.204731 -159.047892 
L 263.146377 -156.721553 
L 263.097324 -154.395214 
L 263.059183 -152.068874 
L 263.03169 -149.742535 
z
" id="mf21ea222f9" style="stroke:#3d3d3d;stroke-width:2.25;"/>
    </defs>
    <g clip-path="url(#p07ccb4fc96)">
     <use style="fill:#3a923a;stroke:#3d3d3d;stroke-width:2.25;" x="0" xlink:href="#mf21ea222f9" y="538.519153"/>
    </g>
   </g>
   <g id="PolyCollection_4">
    <defs>
     <path d="M 341.132816 -123.112814 
L 341.08359 -123.112814 
L 341.065143 -125.558442 
L 341.037914 -128.00407 
L 341.000897 -130.449698 
L 340.954545 -132.895327 
L 340.901065 -135.340955 
L 340.844135 -137.786583 
L 340.788036 -140.232211 
L 340.736389 -142.677839 
L 340.690908 -145.123467 
L 340.650471 -147.569095 
L 340.610658 -150.014723 
L 340.563746 -152.460351 
L 340.499109 -154.905979 
L 340.404111 -157.351607 
L 340.265655 -159.797235 
L 340.072387 -162.242863 
L 339.817168 -164.688491 
L 339.498894 -167.134119 
L 339.122584 -169.579747 
L 338.697087 -172.025375 
L 338.230882 -174.471003 
L 337.727651 -176.916631 
L 337.183862 -179.362259 
L 336.589914 -181.807887 
L 335.934582 -184.253515 
L 335.21052 -186.699143 
L 334.417597 -189.144771 
L 333.561815 -191.590399 
L 332.650147 -194.036027 
L 331.684457 -196.481655 
L 330.658732 -198.927284 
L 329.562197 -201.372912 
L 328.387209 -203.81854 
L 327.137669 -206.264168 
L 325.833158 -208.709796 
L 324.506591 -211.155424 
L 323.197011 -213.601052 
L 321.941793 -216.04668 
L 320.772391 -218.492308 
L 319.715224 -220.937936 
L 318.796006 -223.383564 
L 318.043463 -225.829192 
L 317.488183 -228.27482 
L 317.154709 -230.720448 
L 317.049192 -233.166076 
L 317.149202 -235.611704 
L 317.403653 -238.057332 
L 317.747062 -240.50296 
L 318.124223 -242.948588 
L 318.513338 -245.394216 
L 318.933879 -247.839844 
L 319.432799 -250.285472 
L 320.055397 -252.7311 
L 320.816723 -255.176728 
L 321.689092 -257.622356 
L 322.611402 -260.067984 
L 323.513549 -262.513612 
L 324.342387 -264.959241 
L 325.077463 -267.404869 
L 325.732288 -269.850497 
L 326.344315 -272.296125 
L 326.960363 -274.741753 
L 327.623427 -277.187381 
L 328.363893 -279.633009 
L 329.19546 -282.078637 
L 330.114814 -284.524265 
L 331.104023 -286.969893 
L 332.134936 -289.415521 
L 333.174821 -291.861149 
L 334.192098 -294.306777 
L 335.160756 -296.752405 
L 336.062343 -299.198033 
L 336.885423 -301.643661 
L 337.62346 -304.089289 
L 338.272717 -306.534917 
L 338.831425 -308.980545 
L 339.300468 -311.426173 
L 339.68471 -313.871801 
L 339.993545 -316.317429 
L 340.239777 -318.763057 
L 340.436971 -321.208685 
L 340.596488 -323.654313 
L 340.725605 -326.099941 
L 340.827504 -328.545569 
L 340.902849 -330.991198 
L 340.952025 -333.436826 
L 340.977006 -335.882454 
L 340.982258 -338.328082 
L 340.974549 -340.77371 
L 340.961867 -343.219338 
L 340.951806 -345.664966 
L 340.949927 -348.110594 
L 340.958635 -350.556222 
L 340.977014 -353.00185 
L 341.001661 -355.447478 
L 341.028171 -357.893106 
L 341.052619 -360.338734 
L 341.072517 -362.784362 
L 341.087025 -365.22999 
L 341.129381 -365.22999 
L 341.129381 -365.22999 
L 341.143889 -362.784362 
L 341.163787 -360.338734 
L 341.188236 -357.893106 
L 341.214745 -355.447478 
L 341.239392 -353.00185 
L 341.257771 -350.556222 
L 341.26648 -348.110594 
L 341.264601 -345.664966 
L 341.25454 -343.219338 
L 341.241857 -340.77371 
L 341.234148 -338.328082 
L 341.2394 -335.882454 
L 341.264381 -333.436826 
L 341.313557 -330.991198 
L 341.388902 -328.545569 
L 341.490801 -326.099941 
L 341.619919 -323.654313 
L 341.779435 -321.208685 
L 341.976629 -318.763057 
L 342.222861 -316.317429 
L 342.531696 -313.871801 
L 342.915938 -311.426173 
L 343.384982 -308.980545 
L 343.943689 -306.534917 
L 344.592946 -304.089289 
L 345.330983 -301.643661 
L 346.154063 -299.198033 
L 347.05565 -296.752405 
L 348.024308 -294.306777 
L 349.041585 -291.861149 
L 350.08147 -289.415521 
L 351.112384 -286.969893 
L 352.101593 -284.524265 
L 353.020946 -282.078637 
L 353.852513 -279.633009 
L 354.592979 -277.187381 
L 355.256044 -274.741753 
L 355.872091 -272.296125 
L 356.484118 -269.850497 
L 357.138943 -267.404869 
L 357.874019 -264.959241 
L 358.702857 -262.513612 
L 359.605005 -260.067984 
L 360.527314 -257.622356 
L 361.399683 -255.176728 
L 362.161009 -252.7311 
L 362.783607 -250.285472 
L 363.282527 -247.839844 
L 363.703068 -245.394216 
L 364.092183 -242.948588 
L 364.469345 -240.50296 
L 364.812753 -238.057332 
L 365.067204 -235.611704 
L 365.167215 -233.166076 
L 365.061697 -230.720448 
L 364.728223 -228.27482 
L 364.172944 -225.829192 
L 363.4204 -223.383564 
L 362.501182 -220.937936 
L 361.444015 -218.492308 
L 360.274613 -216.04668 
L 359.019396 -213.601052 
L 357.709815 -211.155424 
L 356.383248 -208.709796 
L 355.078738 -206.264168 
L 353.829197 -203.81854 
L 352.654209 -201.372912 
L 351.557674 -198.927284 
L 350.531949 -196.481655 
L 349.566259 -194.036027 
L 348.654592 -191.590399 
L 347.79881 -189.144771 
L 347.005887 -186.699143 
L 346.281825 -184.253515 
L 345.626493 -181.807887 
L 345.032544 -179.362259 
L 344.488755 -176.916631 
L 343.985524 -174.471003 
L 343.519319 -172.025375 
L 343.093822 -169.579747 
L 342.717512 -167.134119 
L 342.399239 -164.688491 
L 342.144019 -162.242863 
L 341.950751 -159.797235 
L 341.812295 -157.351607 
L 341.717298 -154.905979 
L 341.65266 -152.460351 
L 341.605748 -150.014723 
L 341.565936 -147.569095 
L 341.525498 -145.123467 
L 341.480017 -142.677839 
L 341.42837 -140.232211 
L 341.372271 -137.786583 
L 341.315342 -135.340955 
L 341.261861 -132.895327 
L 341.21551 -130.449698 
L 341.178493 -128.00407 
L 341.151263 -125.558442 
L 341.132816 -123.112814 
z
" id="m0b19d89b37" style="stroke:#3d3d3d;stroke-width:2.25;"/>
    </defs>
    <g clip-path="url(#p07ccb4fc96)">
     <use style="fill:#c03d3e;stroke:#3d3d3d;stroke-width:2.25;" x="0" xlink:href="#m0b19d89b37" y="538.519153"/>
    </g>
   </g>
   <g id="PolyCollection_5">
    <defs>
     <path d="M 419.277487 -93.196371 
L 419.178919 -93.196371 
L 419.147226 -95.548563 
L 419.101477 -97.900755 
L 419.039034 -100.252946 
L 418.958368 -102.605138 
L 418.85959 -104.957329 
L 418.744627 -107.309521 
L 418.616881 -109.661713 
L 418.480334 -112.013904 
L 418.338275 -114.366096 
L 418.192008 -116.718288 
L 418.039961 -119.070479 
L 417.877534 -121.422671 
L 417.697819 -123.774863 
L 417.493094 -126.127054 
L 417.256764 -128.479246 
L 416.985344 -130.831437 
L 416.680036 -133.183629 
L 416.34747 -135.535821 
L 415.999218 -137.888012 
L 415.649847 -140.240204 
L 415.313609 -142.592396 
L 415.000348 -144.944587 
L 414.711729 -147.296779 
L 414.439119 -149.64897 
L 414.164167 -152.001162 
L 413.862369 -154.353354 
L 413.508863 -156.705545 
L 413.084888 -159.057737 
L 412.582962 -161.409929 
L 412.009144 -163.76212 
L 411.381475 -166.114312 
L 410.724763 -168.466504 
L 410.06292 -170.818695 
L 409.410905 -173.170887 
L 408.768684 -175.523078 
L 408.119337 -177.87527 
L 407.432354 -180.227462 
L 406.671661 -182.579653 
L 405.806385 -184.931845 
L 404.821389 -187.284037 
L 403.724571 -189.636228 
L 402.548783 -191.98842 
L 401.347758 -194.340611 
L 400.187114 -196.692803 
L 399.132833 -199.044995 
L 398.240284 -201.397186 
L 397.546518 -203.749378 
L 397.067401 -206.10157 
L 396.799488 -208.453761 
L 396.7251 -210.805953 
L 396.818428 -213.158145 
L 397.05086 -215.510336 
L 397.394734 -217.862528 
L 397.825689 -220.214719 
L 398.324154 -222.566911 
L 398.876189 -224.919103 
L 399.473321 -227.271294 
L 400.110894 -229.623486 
L 400.784895 -231.975678 
L 401.488133 -234.327869 
L 402.207323 -236.680061 
L 402.922646 -239.032252 
L 403.610477 -241.384444 
L 404.248734 -243.736636 
L 404.823108 -246.088827 
L 405.332032 -248.441019 
L 405.788607 -250.793211 
L 406.218796 -253.145402 
L 406.656394 -255.497594 
L 407.136272 -257.849786 
L 407.68772 -260.201977 
L 408.329439 -262.554169 
L 409.06706 -264.90636 
L 409.893213 -267.258552 
L 410.78957 -269.610744 
L 411.729999 -271.962935 
L 412.684038 -274.315127 
L 413.620221 -276.667319 
L 414.509075 -279.01951 
L 415.325715 -281.371702 
L 416.051954 -283.723893 
L 416.67763 -286.076085 
L 417.200861 -288.428277 
L 417.627081 -290.780468 
L 417.967053 -293.13266 
L 418.234384 -295.484852 
L 418.443175 -297.837043 
L 418.606337 -300.189235 
L 418.734705 -302.541427 
L 418.836845 -304.893618 
L 418.919238 -307.24581 
L 418.986588 -309.598001 
L 419.042145 -311.950193 
L 419.088018 -314.302385 
L 419.125519 -316.654576 
L 419.155512 -319.006768 
L 419.178727 -321.35896 
L 419.195963 -323.711151 
L 419.208159 -326.063343 
L 419.248248 -326.063343 
L 419.248248 -326.063343 
L 419.260443 -323.711151 
L 419.277679 -321.35896 
L 419.300894 -319.006768 
L 419.330887 -316.654576 
L 419.368388 -314.302385 
L 419.414262 -311.950193 
L 419.469819 -309.598001 
L 419.537169 -307.24581 
L 419.619561 -304.893618 
L 419.721702 -302.541427 
L 419.85007 -300.189235 
L 420.013231 -297.837043 
L 420.222023 -295.484852 
L 420.489353 -293.13266 
L 420.829326 -290.780468 
L 421.255546 -288.428277 
L 421.778776 -286.076085 
L 422.404452 -283.723893 
L 423.130691 -281.371702 
L 423.947332 -279.01951 
L 424.836185 -276.667319 
L 425.772369 -274.315127 
L 426.726407 -271.962935 
L 427.666836 -269.610744 
L 428.563193 -267.258552 
L 429.389346 -264.90636 
L 430.126967 -262.554169 
L 430.768686 -260.201977 
L 431.320134 -257.849786 
L 431.800013 -255.497594 
L 432.23761 -253.145402 
L 432.667799 -250.793211 
L 433.124374 -248.441019 
L 433.633298 -246.088827 
L 434.207672 -243.736636 
L 434.845929 -241.384444 
L 435.533761 -239.032252 
L 436.249083 -236.680061 
L 436.968274 -234.327869 
L 437.671511 -231.975678 
L 438.345512 -229.623486 
L 438.983085 -227.271294 
L 439.580217 -224.919103 
L 440.132252 -222.566911 
L 440.630718 -220.214719 
L 441.061672 -217.862528 
L 441.405546 -215.510336 
L 441.637979 -213.158145 
L 441.731307 -210.805953 
L 441.656918 -208.453761 
L 441.389005 -206.10157 
L 440.909889 -203.749378 
L 440.216122 -201.397186 
L 439.323573 -199.044995 
L 438.269292 -196.692803 
L 437.108648 -194.340611 
L 435.907624 -191.98842 
L 434.731835 -189.636228 
L 433.635017 -187.284037 
L 432.650021 -184.931845 
L 431.784745 -182.579653 
L 431.024052 -180.227462 
L 430.337069 -177.87527 
L 429.687722 -175.523078 
L 429.045501 -173.170887 
L 428.393486 -170.818695 
L 427.731644 -168.466504 
L 427.074932 -166.114312 
L 426.447262 -163.76212 
L 425.873444 -161.409929 
L 425.371519 -159.057737 
L 424.947543 -156.705545 
L 424.594037 -154.353354 
L 424.292239 -152.001162 
L 424.017287 -149.64897 
L 423.744677 -147.296779 
L 423.456058 -144.944587 
L 423.142797 -142.592396 
L 422.80656 -140.240204 
L 422.457189 -137.888012 
L 422.108936 -135.535821 
L 421.77637 -133.183629 
L 421.471063 -130.831437 
L 421.199642 -128.479246 
L 420.963312 -126.127054 
L 420.758587 -123.774863 
L 420.578872 -121.422671 
L 420.416445 -119.070479 
L 420.264399 -116.718288 
L 420.118132 -114.366096 
L 419.976072 -112.013904 
L 419.839525 -109.661713 
L 419.711779 -107.309521 
L 419.596816 -104.957329 
L 419.498038 -102.605138 
L 419.417372 -100.252946 
L 419.354929 -97.900755 
L 419.309181 -95.548563 
L 419.277487 -93.196371 
z
" id="m041d5db6a2" style="stroke:#3d3d3d;stroke-width:2.25;"/>
    </defs>
    <g clip-path="url(#p07ccb4fc96)">
     <use style="fill:#9372b2;stroke:#3d3d3d;stroke-width:2.25;" x="0" xlink:href="#m041d5db6a2" y="538.519153"/>
    </g>
   </g>
   <g id="PolyCollection_6">
    <defs>
     <path d="M 497.433988 -131.853218 
L 497.262418 -131.853218 
L 497.210646 -133.633806 
L 497.136932 -135.414394 
L 497.036828 -137.194982 
L 496.906881 -138.97557 
L 496.74517 -140.756158 
L 496.551528 -142.536746 
L 496.327355 -144.317334 
L 496.075058 -146.097922 
L 495.797266 -147.87851 
L 495.496123 -149.659098 
L 495.172924 -151.439686 
L 494.82826 -153.220274 
L 494.462674 -155.000861 
L 494.077597 -156.781449 
L 493.676182 -158.562037 
L 493.263592 -160.342625 
L 492.8464 -162.123213 
L 492.431041 -163.903801 
L 492.021599 -165.684389 
L 491.617604 -167.464977 
L 491.212639 -169.245565 
L 490.794433 -171.026153 
L 490.346673 -172.806741 
L 489.852158 -174.587329 
L 489.29646 -176.367917 
L 488.671046 -178.148504 
L 487.975069 -179.929092 
L 487.215472 -181.70968 
L 486.405611 -183.490268 
L 485.562948 -185.270856 
L 484.706433 -187.051444 
L 483.854083 -188.832032 
L 483.020998 -190.61262 
L 482.217888 -192.393208 
L 481.45011 -194.173796 
L 480.717256 -195.954384 
L 480.013397 -197.734972 
L 479.328126 -199.51556 
L 478.648444 -201.296147 
L 477.961364 -203.076735 
L 477.256903 -204.857323 
L 476.530885 -206.637911 
L 475.786913 -208.418499 
L 475.036899 -210.199087 
L 474.299809 -211.979675 
L 473.59873 -213.760263 
L 472.956838 -215.540851 
L 472.393281 -217.321439 
L 471.92009 -219.102027 
L 471.541024 -220.882615 
L 471.252734 -222.663203 
L 471.04791 -224.44379 
L 470.919451 -226.224378 
L 470.86431 -228.004966 
L 470.885646 -229.785554 
L 470.992427 -231.566142 
L 471.196459 -233.34673 
L 471.507853 -235.127318 
L 471.930702 -236.907906 
L 472.460896 -238.688494 
L 473.087253 -240.469082 
L 473.795794 -242.24967 
L 474.575486 -244.030258 
L 475.422927 -245.810846 
L 476.343742 -247.591433 
L 477.349779 -249.372021 
L 478.453037 -251.152609 
L 479.658633 -252.933197 
L 480.959453 -254.713785 
L 482.334323 -256.494373 
L 483.750024 -258.274961 
L 485.166097 -260.055549 
L 486.540705 -261.836137 
L 487.835947 -263.616725 
L 489.021758 -265.397313 
L 490.078246 -267.177901 
L 490.99674 -268.958489 
L 491.779771 -270.739076 
L 492.439984 -272.519664 
L 492.997833 -274.300252 
L 493.47807 -276.08084 
L 493.905488 -277.861428 
L 494.300805 -279.642016 
L 494.677709 -281.422604 
L 495.041833 -283.203192 
L 495.391771 -284.98378 
L 495.721598 -286.764368 
L 496.023923 -288.544956 
L 496.292503 -290.325544 
L 496.523791 -292.106132 
L 496.717304 -293.886719 
L 496.875106 -295.667307 
L 497.000873 -297.447895 
L 497.098984 -299.228483 
L 497.173871 -301.009071 
L 497.229677 -302.789659 
L 497.270135 -304.570247 
L 497.298547 -306.350835 
L 497.317793 -308.131423 
L 497.378614 -308.131423 
L 497.378614 -308.131423 
L 497.397859 -306.350835 
L 497.426272 -304.570247 
L 497.466729 -302.789659 
L 497.522535 -301.009071 
L 497.597422 -299.228483 
L 497.695533 -297.447895 
L 497.8213 -295.667307 
L 497.979102 -293.886719 
L 498.172616 -292.106132 
L 498.403903 -290.325544 
L 498.672483 -288.544956 
L 498.974808 -286.764368 
L 499.304635 -284.98378 
L 499.654573 -283.203192 
L 500.018697 -281.422604 
L 500.395601 -279.642016 
L 500.790918 -277.861428 
L 501.218337 -276.08084 
L 501.698573 -274.300252 
L 502.256422 -272.519664 
L 502.916635 -270.739076 
L 503.699666 -268.958489 
L 504.61816 -267.177901 
L 505.674648 -265.397313 
L 506.860459 -263.616725 
L 508.155702 -261.836137 
L 509.530309 -260.055549 
L 510.946383 -258.274961 
L 512.362083 -256.494373 
L 513.736953 -254.713785 
L 515.037773 -252.933197 
L 516.243369 -251.152609 
L 517.346627 -249.372021 
L 518.352664 -247.591433 
L 519.273479 -245.810846 
L 520.12092 -244.030258 
L 520.900612 -242.24967 
L 521.609153 -240.469082 
L 522.23551 -238.688494 
L 522.765704 -236.907906 
L 523.188554 -235.127318 
L 523.499947 -233.34673 
L 523.703979 -231.566142 
L 523.81076 -229.785554 
L 523.832096 -228.004966 
L 523.776955 -226.224378 
L 523.648497 -224.44379 
L 523.443672 -222.663203 
L 523.155383 -220.882615 
L 522.776317 -219.102027 
L 522.303125 -217.321439 
L 521.739568 -215.540851 
L 521.097676 -213.760263 
L 520.396597 -211.979675 
L 519.659507 -210.199087 
L 518.909493 -208.418499 
L 518.165521 -206.637911 
L 517.439503 -204.857323 
L 516.735042 -203.076735 
L 516.047962 -201.296147 
L 515.36828 -199.51556 
L 514.68301 -197.734972 
L 513.97915 -195.954384 
L 513.246296 -194.173796 
L 512.478518 -192.393208 
L 511.675409 -190.61262 
L 510.842324 -188.832032 
L 509.989973 -187.051444 
L 509.133458 -185.270856 
L 508.290795 -183.490268 
L 507.480935 -181.70968 
L 506.721338 -179.929092 
L 506.025361 -178.148504 
L 505.399947 -176.367917 
L 504.844248 -174.587329 
L 504.349733 -172.806741 
L 503.901973 -171.026153 
L 503.483767 -169.245565 
L 503.078802 -167.464977 
L 502.674807 -165.684389 
L 502.265365 -163.903801 
L 501.850006 -162.123213 
L 501.432814 -160.342625 
L 501.020224 -158.562037 
L 500.618809 -156.781449 
L 500.233732 -155.000861 
L 499.868146 -153.220274 
L 499.523482 -151.439686 
L 499.200283 -149.659098 
L 498.89914 -147.87851 
L 498.621348 -146.097922 
L 498.369051 -144.317334 
L 498.144879 -142.536746 
L 497.951236 -140.756158 
L 497.789525 -138.97557 
L 497.659579 -137.194982 
L 497.559474 -135.414394 
L 497.48576 -133.633806 
L 497.433988 -131.853218 
z
" id="m6dae1d68f8" style="stroke:#3d3d3d;stroke-width:2.25;"/>
    </defs>
    <g clip-path="url(#p07ccb4fc96)">
     <use style="fill:#845b53;stroke:#3d3d3d;stroke-width:2.25;" x="0" xlink:href="#m6dae1d68f8" y="538.519153"/>
    </g>
   </g>
   <g id="PolyCollection_7">
    <defs>
     <path d="M 575.499358 -147.318802 
L 575.437048 -147.318802 
L 575.414074 -149.205639 
L 575.379607 -151.092476 
L 575.331131 -152.979313 
L 575.26692 -154.866151 
L 575.186312 -156.752988 
L 575.08957 -158.639825 
L 574.977278 -160.526663 
L 574.849363 -162.4135 
L 574.704049 -164.300337 
L 574.537177 -166.187175 
L 574.342355 -168.074012 
L 574.112299 -169.960849 
L 573.841272 -171.847686 
L 573.527942 -173.734524 
L 573.177303 -175.621361 
L 572.800261 -177.508198 
L 572.410217 -179.395036 
L 572.0175 -181.281873 
L 571.623926 -183.16871 
L 571.220128 -185.055547 
L 570.787153 -186.942385 
L 570.301624 -188.829222 
L 569.741905 -190.716059 
L 569.092332 -192.602897 
L 568.343941 -194.489734 
L 567.492335 -196.376571 
L 566.534991 -198.263409 
L 565.470397 -200.150246 
L 564.300128 -202.037083 
L 563.033083 -203.92392 
L 561.68973 -205.810758 
L 560.303902 -207.697595 
L 558.920358 -209.584432 
L 557.587618 -211.47127 
L 556.347224 -213.358107 
L 555.222343 -215.244944 
L 554.209939 -217.131781 
L 553.280737 -219.018619 
L 552.3889 -220.905456 
L 551.489298 -222.792293 
L 550.556248 -224.679131 
L 549.596138 -226.565968 
L 548.648634 -228.452805 
L 547.775986 -230.339643 
L 547.044745 -232.22648 
L 546.506631 -234.113317 
L 546.184777 -236.000154 
L 546.069235 -237.886992 
L 546.122602 -239.773829 
L 546.293798 -241.660666 
L 546.535425 -243.547504 
L 546.818704 -245.434341 
L 547.140556 -247.321178 
L 547.520577 -249.208016 
L 547.990206 -251.094853 
L 548.579864 -252.98169 
L 549.310188 -254.868527 
L 550.190369 -256.755365 
L 551.222065 -258.642202 
L 552.404323 -260.529039 
L 553.735057 -262.415877 
L 555.207733 -264.302714 
L 556.805514 -266.189551 
L 558.497038 -268.076388 
L 560.237071 -269.963226 
L 561.972263 -271.850063 
L 563.649475 -273.7369 
L 565.22312 -275.623738 
L 566.659258 -277.510575 
L 567.936448 -279.397412 
L 569.045022 -281.28425 
L 569.98652 -283.171087 
L 570.773682 -285.057924 
L 571.429833 -286.944761 
L 571.985953 -288.831599 
L 572.474746 -290.718436 
L 572.923069 -292.605273 
L 573.345693 -294.492111 
L 573.743347 -296.378948 
L 574.106042 -298.265785 
L 574.420062 -300.152623 
L 574.675185 -302.03946 
L 574.868998 -303.926297 
L 575.007014 -305.813134 
L 575.099658 -307.699972 
L 575.158441 -309.586809 
L 575.19338 -311.473646 
L 575.2124 -313.360484 
L 575.222055 -315.247321 
L 575.228342 -317.134158 
L 575.23672 -319.020995 
L 575.251299 -320.907833 
L 575.273859 -322.79467 
L 575.303459 -324.681507 
L 575.336991 -326.568345 
L 575.370438 -328.455182 
L 575.400236 -330.342019 
L 575.424185 -332.228857 
L 575.441671 -334.115694 
L 575.494735 -334.115694 
L 575.494735 -334.115694 
L 575.512221 -332.228857 
L 575.53617 -330.342019 
L 575.565968 -328.455182 
L 575.599415 -326.568345 
L 575.632947 -324.681507 
L 575.662547 -322.79467 
L 575.685107 -320.907833 
L 575.699686 -319.020995 
L 575.708064 -317.134158 
L 575.714351 -315.247321 
L 575.724007 -313.360484 
L 575.743027 -311.473646 
L 575.777965 -309.586809 
L 575.836748 -307.699972 
L 575.929392 -305.813134 
L 576.067408 -303.926297 
L 576.261221 -302.03946 
L 576.516344 -300.152623 
L 576.830364 -298.265785 
L 577.19306 -296.378948 
L 577.590713 -294.492111 
L 578.013337 -292.605273 
L 578.46166 -290.718436 
L 578.950453 -288.831599 
L 579.506573 -286.944761 
L 580.162724 -285.057924 
L 580.949886 -283.171087 
L 581.891384 -281.28425 
L 582.999958 -279.397412 
L 584.277148 -277.510575 
L 585.713286 -275.623738 
L 587.286931 -273.7369 
L 588.964143 -271.850063 
L 590.699335 -269.963226 
L 592.439368 -268.076388 
L 594.130893 -266.189551 
L 595.728673 -264.302714 
L 597.201349 -262.415877 
L 598.532083 -260.529039 
L 599.714341 -258.642202 
L 600.746038 -256.755365 
L 601.626218 -254.868527 
L 602.356542 -252.98169 
L 602.9462 -251.094853 
L 603.415829 -249.208016 
L 603.795851 -247.321178 
L 604.117702 -245.434341 
L 604.400981 -243.547504 
L 604.642608 -241.660666 
L 604.813804 -239.773829 
L 604.867171 -237.886992 
L 604.751629 -236.000154 
L 604.429776 -234.113317 
L 603.891661 -232.22648 
L 603.16042 -230.339643 
L 602.287772 -228.452805 
L 601.340268 -226.565968 
L 600.380159 -224.679131 
L 599.447109 -222.792293 
L 598.547507 -220.905456 
L 597.655669 -219.018619 
L 596.726467 -217.131781 
L 595.714064 -215.244944 
L 594.589182 -213.358107 
L 593.348789 -211.47127 
L 592.016048 -209.584432 
L 590.632504 -207.697595 
L 589.246676 -205.810758 
L 587.903323 -203.92392 
L 586.636278 -202.037083 
L 585.466009 -200.150246 
L 584.401415 -198.263409 
L 583.444071 -196.376571 
L 582.592466 -194.489734 
L 581.844074 -192.602897 
L 581.194501 -190.716059 
L 580.634783 -188.829222 
L 580.149254 -186.942385 
L 579.716279 -185.055547 
L 579.312481 -183.16871 
L 578.918906 -181.281873 
L 578.526189 -179.395036 
L 578.136145 -177.508198 
L 577.759103 -175.621361 
L 577.408465 -173.734524 
L 577.095134 -171.847686 
L 576.824108 -169.960849 
L 576.594051 -168.074012 
L 576.39923 -166.187175 
L 576.232357 -164.300337 
L 576.087043 -162.4135 
L 575.959128 -160.526663 
L 575.846836 -158.639825 
L 575.750095 -156.752988 
L 575.669486 -154.866151 
L 575.605275 -152.979313 
L 575.556799 -151.092476 
L 575.522332 -149.205639 
L 575.499358 -147.318802 
z
" id="m5e52cc144c" style="stroke:#3d3d3d;stroke-width:2.25;"/>
    </defs>
    <g clip-path="url(#p07ccb4fc96)">
     <use style="fill:#d684bd;stroke:#3d3d3d;stroke-width:2.25;" x="0" xlink:href="#m5e52cc144c" y="538.519153"/>
    </g>
   </g>
   <g id="PolyCollection_8">
    <defs>
     <path d="M 653.615913 -161.431459 
L 653.560493 -161.431459 
L 653.541941 -163.242535 
L 653.515368 -165.053611 
L 653.479283 -166.864687 
L 653.431845 -168.675762 
L 653.369724 -170.486838 
L 653.286465 -172.297914 
L 653.171147 -174.10899 
L 653.008605 -175.920066 
L 652.782332 -177.731141 
L 652.480138 -179.542217 
L 652.100951 -181.353293 
L 651.659693 -183.164369 
L 651.187079 -184.975445 
L 650.72303 -186.78652 
L 650.30539 -188.597596 
L 649.958241 -190.408672 
L 649.684574 -192.219748 
L 649.465939 -194.030824 
L 649.268259 -195.841899 
L 649.050236 -197.652975 
L 648.770304 -199.464051 
L 648.389951 -201.275127 
L 647.874039 -203.086203 
L 647.190755 -204.897278 
L 646.313915 -206.708354 
L 645.228539 -208.51943 
L 643.938187 -210.330506 
L 642.470861 -212.141582 
L 640.880302 -213.952657 
L 639.240988 -215.763733 
L 637.63725 -217.574809 
L 636.148614 -219.385885 
L 634.834499 -221.196961 
L 633.721832 -223.008036 
L 632.79912 -224.819112 
L 632.019474 -226.630188 
L 631.31275 -228.441264 
L 630.603847 -230.25234 
L 629.83179 -232.063415 
L 628.963954 -233.874491 
L 628.001921 -235.685567 
L 626.978603 -237.496643 
L 625.948994 -239.307719 
L 624.977967 -241.118794 
L 624.128332 -242.92987 
L 623.451433 -244.740946 
L 622.981616 -246.552022 
L 622.734873 -248.363098 
L 622.710998 -250.174173 
L 622.897801 -251.985249 
L 623.275711 -253.796325 
L 623.821549 -255.607401 
L 624.511008 -257.418477 
L 625.320176 -259.229552 
L 626.226762 -261.040628 
L 627.211547 -262.851704 
L 628.260061 -264.66278 
L 629.363961 -266.473855 
L 630.521351 -268.284931 
L 631.735471 -270.096007 
L 633.011655 -271.907083 
L 634.352973 -273.718159 
L 635.755472 -275.529234 
L 637.204301 -277.34031 
L 638.672192 -279.151386 
L 640.121553 -280.962462 
L 641.510526 -282.773538 
L 642.801813 -284.584613 
L 643.971517 -286.395689 
L 645.014608 -288.206765 
L 645.944696 -290.017841 
L 646.788098 -291.828917 
L 647.574554 -293.639992 
L 648.32818 -295.451068 
L 649.061587 -297.262144 
L 649.774457 -299.07322 
L 650.455963 -300.884296 
L 651.089437 -302.695371 
L 651.657506 -304.506447 
L 652.146359 -306.317523 
L 652.548382 -308.128599 
L 652.862932 -309.939675 
L 653.095503 -311.75075 
L 653.255915 -313.561826 
L 653.3563 -315.372902 
L 653.409533 -317.183978 
L 653.428328 -318.995054 
L 653.42486 -320.806129 
L 653.410464 -322.617205 
L 653.395083 -324.428281 
L 653.386404 -326.239357 
L 653.388987 -328.050433 
L 653.403842 -329.861508 
L 653.42879 -331.672584 
L 653.459591 -333.48366 
L 653.491446 -335.294736 
L 653.520342 -337.105812 
L 653.543838 -338.916887 
L 653.561168 -340.727963 
L 653.615239 -340.727963 
L 653.615239 -340.727963 
L 653.632569 -338.916887 
L 653.656064 -337.105812 
L 653.68496 -335.294736 
L 653.716815 -333.48366 
L 653.747616 -331.672584 
L 653.772564 -329.861508 
L 653.787419 -328.050433 
L 653.790002 -326.239357 
L 653.781324 -324.428281 
L 653.765942 -322.617205 
L 653.751546 -320.806129 
L 653.748078 -318.995054 
L 653.766874 -317.183978 
L 653.820106 -315.372902 
L 653.920492 -313.561826 
L 654.080903 -311.75075 
L 654.313474 -309.939675 
L 654.628024 -308.128599 
L 655.030047 -306.317523 
L 655.5189 -304.506447 
L 656.086969 -302.695371 
L 656.720444 -300.884296 
L 657.40195 -299.07322 
L 658.114819 -297.262144 
L 658.848227 -295.451068 
L 659.601852 -293.639992 
L 660.388309 -291.828917 
L 661.23171 -290.017841 
L 662.161799 -288.206765 
L 663.204889 -286.395689 
L 664.374593 -284.584613 
L 665.665881 -282.773538 
L 667.054853 -280.962462 
L 668.504214 -279.151386 
L 669.972105 -277.34031 
L 671.420934 -275.529234 
L 672.823433 -273.718159 
L 674.164751 -271.907083 
L 675.440935 -270.096007 
L 676.655055 -268.284931 
L 677.812445 -266.473855 
L 678.916346 -264.66278 
L 679.96486 -262.851704 
L 680.949644 -261.040628 
L 681.85623 -259.229552 
L 682.665398 -257.418477 
L 683.354857 -255.607401 
L 683.900695 -253.796325 
L 684.278605 -251.985249 
L 684.465408 -250.174173 
L 684.441534 -248.363098 
L 684.194791 -246.552022 
L 683.724973 -244.740946 
L 683.048074 -242.92987 
L 682.198439 -241.118794 
L 681.227413 -239.307719 
L 680.197803 -237.496643 
L 679.174485 -235.685567 
L 678.212452 -233.874491 
L 677.344617 -232.063415 
L 676.572559 -230.25234 
L 675.863657 -228.441264 
L 675.156933 -226.630188 
L 674.377286 -224.819112 
L 673.454574 -223.008036 
L 672.341907 -221.196961 
L 671.027792 -219.385885 
L 669.539156 -217.574809 
L 667.935418 -215.763733 
L 666.296104 -213.952657 
L 664.705546 -212.141582 
L 663.23822 -210.330506 
L 661.947867 -208.51943 
L 660.862492 -206.708354 
L 659.985652 -204.897278 
L 659.302367 -203.086203 
L 658.786455 -201.275127 
L 658.406103 -199.464051 
L 658.12617 -197.652975 
L 657.908147 -195.841899 
L 657.710467 -194.030824 
L 657.491833 -192.219748 
L 657.218166 -190.408672 
L 656.871016 -188.597596 
L 656.453376 -186.78652 
L 655.989328 -184.975445 
L 655.516714 -183.164369 
L 655.075455 -181.353293 
L 654.696269 -179.542217 
L 654.394075 -177.731141 
L 654.167801 -175.920066 
L 654.005259 -174.10899 
L 653.889942 -172.297914 
L 653.806683 -170.486838 
L 653.744562 -168.675762 
L 653.697123 -166.864687 
L 653.661038 -165.053611 
L 653.634466 -163.242535 
L 653.615913 -161.431459 
z
" id="m94dea6648c" style="stroke:#3d3d3d;stroke-width:2.25;"/>
    </defs>
    <g clip-path="url(#p07ccb4fc96)">
     <use style="fill:#7f7f7f;stroke:#3d3d3d;stroke-width:2.25;" x="0" xlink:href="#m94dea6648c" y="538.519153"/>
    </g>
   </g>
   <g id="PolyCollection_9">
    <defs>
     <path d="M 731.752566 -175.487697 
L 731.66384 -175.487697 
L 731.62948 -177.15437 
L 731.574526 -178.821043 
L 731.49081 -180.487717 
L 731.369461 -182.15439 
L 731.202392 -183.821063 
L 730.98443 -185.487736 
L 730.715715 -187.154409 
L 730.40356 -188.821083 
L 730.06282 -190.487756 
L 729.714059 -192.154429 
L 729.379507 -193.821102 
L 729.077746 -195.487775 
L 728.818758 -197.154449 
L 728.600967 -198.821122 
L 728.411208 -200.487795 
L 728.227401 -202.154468 
L 728.022769 -203.821141 
L 727.770122 -205.487815 
L 727.445045 -207.154488 
L 727.027589 -208.821161 
L 726.502743 -210.487834 
L 725.860349 -212.154507 
L 725.095098 -213.821181 
L 724.206979 -215.487854 
L 723.202206 -217.154527 
L 722.094297 -218.8212 
L 720.904796 -220.487873 
L 719.663025 -222.154547 
L 718.40428 -223.82122 
L 717.166108 -225.487893 
L 715.982774 -227.154566 
L 714.878801 -228.821239 
L 713.863268 -230.487912 
L 712.926916 -232.154586 
L 712.043652 -233.821259 
L 711.176646 -235.487932 
L 710.287503 -237.154605 
L 709.345846 -238.821278 
L 708.336567 -240.487952 
L 707.263102 -242.154625 
L 706.146604 -243.821298 
L 705.02215 -245.487971 
L 703.933536 -247.154644 
L 702.92793 -248.821318 
L 702.05098 -250.487991 
L 701.342482 -252.154664 
L 700.832483 -253.821337 
L 700.53791 -255.48801 
L 700.460203 -257.154684 
L 700.584793 -258.821357 
L 700.883293 -260.48803 
L 701.318632 -262.154703 
L 701.852255 -263.821376 
L 702.451439 -265.48805 
L 703.094416 -267.154723 
L 703.771766 -268.821396 
L 704.484093 -270.488069 
L 705.237592 -272.154742 
L 706.039923 -273.821416 
L 706.898293 -275.488089 
L 707.820094 -277.154762 
L 708.814739 -278.821435 
L 709.894286 -280.488108 
L 711.070961 -282.154782 
L 712.351375 -283.821455 
L 713.729454 -285.488128 
L 715.181536 -287.154801 
L 716.666807 -288.821474 
L 718.134176 -290.488148 
L 719.533708 -292.154821 
L 720.828426 -293.821494 
L 722.001963 -295.488167 
L 723.059325 -297.15484 
L 724.021023 -298.821514 
L 724.913448 -300.488187 
L 725.759358 -302.15486 
L 726.571612 -303.821533 
L 727.351357 -305.488206 
L 728.090063 -307.15488 
L 728.773693 -308.821553 
L 729.38724 -310.488226 
L 729.918417 -312.154899 
L 730.359997 -313.821572 
L 730.710807 -315.488246 
L 730.975625 -317.154919 
L 731.164285 -318.821592 
L 731.290282 -320.488265 
L 731.369071 -322.154938 
L 731.416258 -323.821612 
L 731.445863 -325.488285 
L 731.46889 -327.154958 
L 731.492485 -328.821631 
L 731.519844 -330.488304 
L 731.550888 -332.154978 
L 731.583467 -333.821651 
L 731.614704 -335.488324 
L 731.642106 -337.154997 
L 731.664196 -338.82167 
L 731.680628 -340.488344 
L 731.735778 -340.488344 
L 731.735778 -340.488344 
L 731.75221 -338.82167 
L 731.7743 -337.154997 
L 731.801702 -335.488324 
L 731.832939 -333.821651 
L 731.865518 -332.154978 
L 731.896563 -330.488304 
L 731.923922 -328.821631 
L 731.947516 -327.154958 
L 731.970544 -325.488285 
L 732.000148 -323.821612 
L 732.047336 -322.154938 
L 732.126124 -320.488265 
L 732.252121 -318.821592 
L 732.440781 -317.154919 
L 732.705599 -315.488246 
L 733.056409 -313.821572 
L 733.497989 -312.154899 
L 734.029166 -310.488226 
L 734.642713 -308.821553 
L 735.326343 -307.15488 
L 736.06505 -305.488206 
L 736.844794 -303.821533 
L 737.657048 -302.15486 
L 738.502959 -300.488187 
L 739.395383 -298.821514 
L 740.357082 -297.15484 
L 741.414443 -295.488167 
L 742.587981 -293.821494 
L 743.882698 -292.154821 
L 745.28223 -290.488148 
L 746.749599 -288.821474 
L 748.23487 -287.154801 
L 749.686952 -285.488128 
L 751.065031 -283.821455 
L 752.345446 -282.154782 
L 753.522121 -280.488108 
L 754.601667 -278.821435 
L 755.596312 -277.154762 
L 756.518114 -275.488089 
L 757.376483 -273.821416 
L 758.178815 -272.154742 
L 758.932313 -270.488069 
L 759.64464 -268.821396 
L 760.32199 -267.154723 
L 760.964967 -265.48805 
L 761.564151 -263.821376 
L 762.097775 -262.154703 
L 762.533113 -260.48803 
L 762.831613 -258.821357 
L 762.956203 -257.154684 
L 762.878496 -255.48801 
L 762.583924 -253.821337 
L 762.073924 -252.154664 
L 761.365426 -250.487991 
L 760.488476 -248.821318 
L 759.48287 -247.154644 
L 758.394257 -245.487971 
L 757.269802 -243.821298 
L 756.153304 -242.154625 
L 755.079839 -240.487952 
L 754.07056 -238.821278 
L 753.128903 -237.154605 
L 752.23976 -235.487932 
L 751.372754 -233.821259 
L 750.48949 -232.154586 
L 749.553138 -230.487912 
L 748.537605 -228.821239 
L 747.433633 -227.154566 
L 746.250298 -225.487893 
L 745.012126 -223.82122 
L 743.753381 -222.154547 
L 742.51161 -220.487873 
L 741.322109 -218.8212 
L 740.2142 -217.154527 
L 739.209427 -215.487854 
L 738.321309 -213.821181 
L 737.556057 -212.154507 
L 736.913663 -210.487834 
L 736.388817 -208.821161 
L 735.971361 -207.154488 
L 735.646284 -205.487815 
L 735.393637 -203.821141 
L 735.189005 -202.154468 
L 735.005198 -200.487795 
L 734.815439 -198.821122 
L 734.597648 -197.154449 
L 734.33866 -195.487775 
L 734.036899 -193.821102 
L 733.702347 -192.154429 
L 733.353586 -190.487756 
L 733.012846 -188.821083 
L 732.700691 -187.154409 
L 732.431976 -185.487736 
L 732.214015 -183.821063 
L 732.046945 -182.15439 
L 731.925597 -180.487717 
L 731.84188 -178.821043 
L 731.786926 -177.15437 
L 731.752566 -175.487697 
z
" id="m6124a75b5f" style="stroke:#3d3d3d;stroke-width:2.25;"/>
    </defs>
    <g clip-path="url(#p07ccb4fc96)">
     <use style="fill:#a9aa35;stroke:#3d3d3d;stroke-width:2.25;" x="0" xlink:href="#m6124a75b5f" y="538.519153"/>
    </g>
   </g>
   <g id="PolyCollection_10">
    <defs>
     <path d="M 810.039667 -189.926009 
L 809.61674 -189.926009 
L 809.480121 -191.580122 
L 809.289763 -193.234236 
L 809.044324 -194.88835 
L 808.752086 -196.542464 
L 808.431609 -198.196577 
L 808.109058 -199.850691 
L 807.81246 -201.504805 
L 807.564564 -203.158919 
L 807.376774 -204.813032 
L 807.246185 -206.467146 
L 807.156493 -208.12126 
L 807.08202 -209.775373 
L 806.99326 -211.429487 
L 806.862293 -213.083601 
L 806.666915 -214.737715 
L 806.39282 -216.391828 
L 806.033557 -218.045942 
L 805.588228 -219.700056 
L 805.057464 -221.35417 
L 804.438993 -223.008283 
L 803.724652 -224.662397 
L 802.900605 -226.316511 
L 801.951328 -227.970625 
L 800.86616 -229.624738 
L 799.645597 -231.278852 
L 798.304172 -232.932966 
L 796.868035 -234.587079 
L 795.367956 -236.241193 
L 793.831038 -237.895307 
L 792.275378 -239.549421 
L 790.710703 -241.203534 
L 789.144865 -242.857648 
L 787.592947 -244.511762 
L 786.084009 -246.165876 
L 784.661425 -247.819989 
L 783.375732 -249.474103 
L 782.272707 -251.128217 
L 781.381803 -252.78233 
L 780.709861 -254.436444 
L 780.242218 -256.090558 
L 779.949627 -257.744672 
L 779.796935 -259.398785 
L 779.749345 -261.052899 
L 779.774234 -262.707013 
L 779.839456 -264.361127 
L 779.911373 -266.01524 
L 779.956306 -267.669354 
L 779.947281 -269.323468 
L 779.874594 -270.977581 
L 779.755579 -272.631695 
L 779.637872 -274.285809 
L 779.592505 -275.939923 
L 779.697614 -277.594036 
L 780.018182 -279.24815 
L 780.589567 -280.902264 
L 781.410992 -282.556378 
L 782.45066 -284.210491 
L 783.659116 -285.864605 
L 784.984765 -287.518719 
L 786.385887 -289.172832 
L 787.836191 -290.826946 
L 789.324058 -292.48106 
L 790.847537 -294.135174 
L 792.40772 -295.789287 
L 794.002558 -297.443401 
L 795.62238 -299.097515 
L 797.247785 -300.751629 
L 798.850209 -302.405742 
L 800.395082 -304.059856 
L 801.846804 -305.71397 
L 803.174189 -307.368083 
L 804.354864 -309.022197 
L 805.377636 -310.676311 
L 806.242635 -312.330425 
L 806.959685 -313.984538 
L 807.545555 -315.638652 
L 808.020695 -317.292766 
L 808.40597 -318.94688 
L 808.71989 -320.600993 
L 808.976797 -322.255107 
L 809.186294 -323.909221 
L 809.353889 -325.563334 
L 809.482475 -327.217448 
L 809.57411 -328.871562 
L 809.631546 -330.525676 
L 809.659216 -332.179789 
L 809.663533 -333.833903 
L 809.652564 -335.488017 
L 809.635149 -337.142131 
L 809.619651 -338.796244 
L 809.612594 -340.450358 
L 809.617592 -342.104472 
L 809.63493 -343.758585 
L 809.661996 -345.412699 
L 809.694405 -347.066813 
L 809.727423 -348.720927 
L 809.757191 -350.37504 
L 809.781399 -352.029154 
L 809.799348 -353.683268 
L 809.857058 -353.683268 
L 809.857058 -353.683268 
L 809.875008 -352.029154 
L 809.899215 -350.37504 
L 809.928983 -348.720927 
L 809.962002 -347.066813 
L 809.99441 -345.412699 
L 810.021476 -343.758585 
L 810.038814 -342.104472 
L 810.043812 -340.450358 
L 810.036756 -338.796244 
L 810.021257 -337.142131 
L 810.003842 -335.488017 
L 809.992873 -333.833903 
L 809.99719 -332.179789 
L 810.02486 -330.525676 
L 810.082297 -328.871562 
L 810.173931 -327.217448 
L 810.302517 -325.563334 
L 810.470112 -323.909221 
L 810.67961 -322.255107 
L 810.936517 -320.600993 
L 811.250437 -318.94688 
L 811.635711 -317.292766 
L 812.110851 -315.638652 
L 812.696722 -313.984538 
L 813.413772 -312.330425 
L 814.278771 -310.676311 
L 815.301542 -309.022197 
L 816.482217 -307.368083 
L 817.809602 -305.71397 
L 819.261324 -304.059856 
L 820.806197 -302.405742 
L 822.408621 -300.751629 
L 824.034026 -299.097515 
L 825.653848 -297.443401 
L 827.248686 -295.789287 
L 828.808869 -294.135174 
L 830.332348 -292.48106 
L 831.820215 -290.826946 
L 833.27052 -289.172832 
L 834.671641 -287.518719 
L 835.997291 -285.864605 
L 837.205746 -284.210491 
L 838.245414 -282.556378 
L 839.06684 -280.902264 
L 839.638224 -279.24815 
L 839.958792 -277.594036 
L 840.063901 -275.939923 
L 840.018535 -274.285809 
L 839.900827 -272.631695 
L 839.781812 -270.977581 
L 839.709125 -269.323468 
L 839.7001 -267.669354 
L 839.745033 -266.01524 
L 839.81695 -264.361127 
L 839.882172 -262.707013 
L 839.907061 -261.052899 
L 839.859471 -259.398785 
L 839.706779 -257.744672 
L 839.414189 -256.090558 
L 838.946545 -254.436444 
L 838.274603 -252.78233 
L 837.383699 -251.128217 
L 836.280674 -249.474103 
L 834.994981 -247.819989 
L 833.572397 -246.165876 
L 832.06346 -244.511762 
L 830.511541 -242.857648 
L 828.945703 -241.203534 
L 827.381028 -239.549421 
L 825.825369 -237.895307 
L 824.28845 -236.241193 
L 822.788372 -234.587079 
L 821.352234 -232.932966 
L 820.010809 -231.278852 
L 818.790246 -229.624738 
L 817.705078 -227.970625 
L 816.755802 -226.316511 
L 815.931755 -224.662397 
L 815.217413 -223.008283 
L 814.598942 -221.35417 
L 814.068178 -219.700056 
L 813.622849 -218.045942 
L 813.263587 -216.391828 
L 812.989492 -214.737715 
L 812.794113 -213.083601 
L 812.663147 -211.429487 
L 812.574386 -209.775373 
L 812.499913 -208.12126 
L 812.410221 -206.467146 
L 812.279632 -204.813032 
L 812.091842 -203.158919 
L 811.843946 -201.504805 
L 811.547348 -199.850691 
L 811.224797 -198.196577 
L 810.90432 -196.542464 
L 810.612082 -194.88835 
L 810.366643 -193.234236 
L 810.176285 -191.580122 
L 810.039667 -189.926009 
z
" id="m25073a64ff" style="stroke:#3d3d3d;stroke-width:2.25;"/>
    </defs>
    <g clip-path="url(#p07ccb4fc96)">
     <use style="fill:#2eabb8;stroke:#3d3d3d;stroke-width:2.25;" x="0" xlink:href="#m25073a64ff" y="538.519153"/>
    </g>
   </g>
   <g id="line2d_7">
    <path clip-path="url(#p07ccb4fc96)" d="M 106.748203 335.797605 
L 106.748203 114.731716 
" style="fill:none;stroke:#3d3d3d;stroke-linecap:round;stroke-width:2.25;"/>
   </g>
   <g id="line2d_8">
    <path clip-path="url(#p07ccb4fc96)" d="M 106.748203 252.897897 
L 106.748203 197.631425 
" style="fill:none;stroke:#3d3d3d;stroke-linecap:round;stroke-width:6.75;"/>
   </g>
   <g id="line2d_9">
    <path clip-path="url(#p07ccb4fc96)" d="M 184.868203 349.614223 
L 184.868203 163.089879 
" style="fill:none;stroke:#3d3d3d;stroke-linecap:round;stroke-width:2.25;"/>
   </g>
   <g id="line2d_10">
    <path clip-path="url(#p07ccb4fc96)" d="M 184.868203 280.531133 
L 184.868203 232.17297 
" style="fill:none;stroke:#3d3d3d;stroke-linecap:round;stroke-width:6.75;"/>
   </g>
   <g id="line2d_11">
    <path clip-path="url(#p07ccb4fc96)" d="M 262.988203 370.33915 
L 262.988203 183.814807 
" style="fill:none;stroke:#3d3d3d;stroke-linecap:round;stroke-width:2.25;"/>
   </g>
   <g id="line2d_12">
    <path clip-path="url(#p07ccb4fc96)" d="M 262.988203 301.25606 
L 262.988203 252.897897 
" style="fill:none;stroke:#3d3d3d;stroke-linecap:round;stroke-width:6.75;"/>
   </g>
   <g id="line2d_13">
    <path clip-path="url(#p07ccb4fc96)" d="M 341.108203 391.064077 
L 341.108203 218.356352 
" style="fill:none;stroke:#3d3d3d;stroke-linecap:round;stroke-width:2.25;"/>
   </g>
   <g id="line2d_14">
    <path clip-path="url(#p07ccb4fc96)" d="M 341.108203 321.980987 
L 341.108203 273.622824 
" style="fill:none;stroke:#3d3d3d;stroke-linecap:round;stroke-width:6.75;"/>
   </g>
   <g id="line2d_15">
    <path clip-path="url(#p07ccb4fc96)" d="M 419.228203 404.880695 
L 419.228203 245.989588 
" style="fill:none;stroke:#3d3d3d;stroke-linecap:round;stroke-width:2.25;"/>
   </g>
   <g id="line2d_16">
    <path clip-path="url(#p07ccb4fc96)" d="M 419.228203 342.705914 
L 419.228203 301.25606 
" style="fill:none;stroke:#3d3d3d;stroke-linecap:round;stroke-width:6.75;"/>
   </g>
   <g id="line2d_17">
    <path clip-path="url(#p07ccb4fc96)" d="M 497.348203 391.064077 
L 497.348203 245.989588 
" style="fill:none;stroke:#3d3d3d;stroke-linecap:round;stroke-width:2.25;"/>
   </g>
   <g id="line2d_18">
    <path clip-path="url(#p07ccb4fc96)" d="M 497.348203 335.797605 
L 497.348203 294.347751 
" style="fill:none;stroke:#3d3d3d;stroke-linecap:round;stroke-width:6.75;"/>
   </g>
   <g id="line2d_19">
    <path clip-path="url(#p07ccb4fc96)" d="M 575.468203 363.430841 
L 575.468203 232.17297 
" style="fill:none;stroke:#3d3d3d;stroke-linecap:round;stroke-width:2.25;"/>
   </g>
   <g id="line2d_20">
    <path clip-path="url(#p07ccb4fc96)" d="M 575.468203 315.072678 
L 575.468203 280.531133 
" style="fill:none;stroke:#3d3d3d;stroke-linecap:round;stroke-width:6.75;"/>
   </g>
   <g id="line2d_21">
    <path clip-path="url(#p07ccb4fc96)" d="M 653.588203 349.614223 
L 653.588203 232.17297 
" style="fill:none;stroke:#3d3d3d;stroke-linecap:round;stroke-width:2.25;"/>
   </g>
   <g id="line2d_22">
    <path clip-path="url(#p07ccb4fc96)" d="M 653.588203 308.164369 
L 653.588203 273.622824 
" style="fill:none;stroke:#3d3d3d;stroke-linecap:round;stroke-width:6.75;"/>
   </g>
   <g id="line2d_23">
    <path clip-path="url(#p07ccb4fc96)" d="M 731.708203 342.705914 
L 731.708203 225.264661 
" style="fill:none;stroke:#3d3d3d;stroke-linecap:round;stroke-width:2.25;"/>
   </g>
   <g id="line2d_24">
    <path clip-path="url(#p07ccb4fc96)" d="M 731.708203 297.801905 
L 731.708203 266.714515 
" style="fill:none;stroke:#3d3d3d;stroke-linecap:round;stroke-width:6.75;"/>
   </g>
   <g id="line2d_25">
    <path clip-path="url(#p07ccb4fc96)" d="M 809.828203 328.889296 
L 809.828203 218.356352 
" style="fill:none;stroke:#3d3d3d;stroke-linecap:round;stroke-width:2.25;"/>
   </g>
   <g id="line2d_26">
    <path clip-path="url(#p07ccb4fc96)" d="M 809.828203 287.439442 
L 809.828203 256.352051 
" style="fill:none;stroke:#3d3d3d;stroke-linecap:round;stroke-width:6.75;"/>
   </g>
   <g id="patch_3">
    <path d="M 67.688203 465.7572 
L 67.688203 16.2 
" style="fill:none;stroke:#cccccc;stroke-linecap:square;stroke-linejoin:miter;stroke-width:1.875;"/>
   </g>
   <g id="patch_4">
    <path d="M 848.888203 465.7572 
L 848.888203 16.2 
" style="fill:none;stroke:#cccccc;stroke-linecap:square;stroke-linejoin:miter;stroke-width:1.875;"/>
   </g>
   <g id="patch_5">
    <path d="M 67.688203 465.7572 
L 848.888203 465.7572 
" style="fill:none;stroke:#cccccc;stroke-linecap:square;stroke-linejoin:miter;stroke-width:1.875;"/>
   </g>
   <g id="patch_6">
    <path d="M 67.688203 16.2 
L 848.888203 16.2 
" style="fill:none;stroke:#cccccc;stroke-linecap:square;stroke-linejoin:miter;stroke-width:1.875;"/>
   </g>
   <g id="PathCollection_1">
    <defs>
     <path d="M 0 2.25 
C 0.596707 2.25 1.169055 2.012926 1.59099 1.59099 
C 2.012926 1.169055 2.25 0.596707 2.25 0 
C 2.25 -0.596707 2.012926 -1.169055 1.59099 -1.59099 
C 1.169055 -2.012926 0.596707 -2.25 0 -2.25 
C -0.596707 -2.25 -1.169055 -2.012926 -1.59099 -1.59099 
C -2.012926 -1.169055 -2.25 -0.596707 -2.25 0 
C -2.25 0.596707 -2.012926 1.169055 -1.59099 1.59099 
C -1.169055 2.012926 -0.596707 2.25 0 2.25 
z
" id="m92291862ee" style="stroke:#3d3d3d;stroke-width:1.5;"/>
    </defs>
    <g clip-path="url(#p07ccb4fc96)">
     <use style="fill:#ffffff;stroke:#3d3d3d;stroke-width:1.5;" x="106.748203" xlink:href="#m92291862ee" y="232.17297"/>
    </g>
   </g>
   <g id="PathCollection_2">
    <g clip-path="url(#p07ccb4fc96)">
     <use style="fill:#ffffff;stroke:#3d3d3d;stroke-width:1.5;" x="184.868203" xlink:href="#m92291862ee" y="259.806206"/>
    </g>
   </g>
   <g id="PathCollection_3">
    <g clip-path="url(#p07ccb4fc96)">
     <use style="fill:#ffffff;stroke:#3d3d3d;stroke-width:1.5;" x="262.988203" xlink:href="#m92291862ee" y="280.531133"/>
    </g>
   </g>
   <g id="PathCollection_4">
    <g clip-path="url(#p07ccb4fc96)">
     <use style="fill:#ffffff;stroke:#3d3d3d;stroke-width:1.5;" x="341.108203" xlink:href="#m92291862ee" y="301.25606"/>
    </g>
   </g>
   <g id="PathCollection_5">
    <g clip-path="url(#p07ccb4fc96)">
     <use style="fill:#ffffff;stroke:#3d3d3d;stroke-width:1.5;" x="419.228203" xlink:href="#m92291862ee" y="321.980987"/>
    </g>
   </g>
   <g id="PathCollection_6">
    <g clip-path="url(#p07ccb4fc96)">
     <use style="fill:#ffffff;stroke:#3d3d3d;stroke-width:1.5;" x="497.348203" xlink:href="#m92291862ee" y="315.072678"/>
    </g>
   </g>
   <g id="PathCollection_7">
    <g clip-path="url(#p07ccb4fc96)">
     <use style="fill:#ffffff;stroke:#3d3d3d;stroke-width:1.5;" x="575.468203" xlink:href="#m92291862ee" y="301.25606"/>
    </g>
   </g>
   <g id="PathCollection_8">
    <g clip-path="url(#p07ccb4fc96)">
     <use style="fill:#ffffff;stroke:#3d3d3d;stroke-width:1.5;" x="653.588203" xlink:href="#m92291862ee" y="287.439442"/>
    </g>
   </g>
   <g id="PathCollection_9">
    <g clip-path="url(#p07ccb4fc96)">
     <use style="fill:#ffffff;stroke:#3d3d3d;stroke-width:1.5;" x="731.708203" xlink:href="#m92291862ee" y="280.531133"/>
    </g>
   </g>
   <g id="PathCollection_10">
    <g clip-path="url(#p07ccb4fc96)">
     <use style="fill:#ffffff;stroke:#3d3d3d;stroke-width:1.5;" x="809.828203" xlink:href="#m92291862ee" y="273.622824"/>
    </g>
   </g>
  </g>
 </g>
 <defs>
  <clipPath id="p07ccb4fc96">
   <rect height="449.5572" width="781.2" x="67.688203" y="16.2"/>
  </clipPath>
 </defs>
</svg>
